<svg xmlns="http://www.w3.org/2000/svg" width="41" height="26" fill="none" viewBox="0 0 41 26">
    <path stroke="#BEBEBE" stroke-linecap="round" stroke-linejoin="round" stroke-miterlimit="10" stroke-width="1.2" d="M33.495 8.79c-1.121-1.55-3.08-2.27-4.883-1.69-.906.29-1.647.81-2.017 1.73-.35.87-.331 1.93.224 2.7 1.19 1.67 3.606.95 5.194 1.87 1.511.87 1.774 3.07.614 4.14-1.822 1.67-5.438.74-6.831-.99M29.636 5.48v14.37"/>
    <path fill="#BEBEBE" d="M7.582 6.39c.166 0 .322.04.439.12.126.08.224.23.302.44l4.22 11.18c.068.19.068.35-.01.48s-.195.23-.351.29c-.166.06-.332.07-.487.03-.156-.04-.264-.16-.332-.36l-1.276-3.48H4.98l-1.296 3.49c-.068.19-.176.3-.322.34-.146.04-.302.03-.477-.03-.156-.06-.273-.15-.332-.28-.058-.13-.058-.29.01-.47l4.24-11.2c.077-.21.185-.35.311-.44.127-.09.302-.11.468-.11zm-.02 1.51c-.126.42-.253.84-.39 1.25-.136.41-.301.86-.496 1.35L5.38 13.99h4.336L8.46 10.5c-.185-.48-.35-.93-.497-1.36-.146-.43-.273-.84-.4-1.24zM15.213 6.39c.165 0 .321.04.448.12.127.08.195.22.195.4v6.97c0 1.39.253 2.4.75 3.04.497.64 1.306.96 2.436.96 1.131 0 1.94-.32 2.437-.96.497-.64.75-1.65.75-3.04V6.91c0-.19.069-.32.195-.4.127-.08.283-.12.448-.12.156 0 .303.04.43.12.126.08.184.22.184.4v6.95c0 .93-.087 1.73-.272 2.38-.186.66-.458 1.2-.829 1.62-.37.42-.828.73-1.384.92-.555.19-1.208.29-1.959.29-.75 0-1.403-.1-1.958-.29-.556-.19-1.014-.5-1.384-.92-.37-.42-.643-.96-.829-1.62-.185-.66-.272-1.45-.272-2.38V6.91c0-.19.058-.32.185-.4.127-.08.263-.12.429-.12z"/>
</svg>
