<svg xmlns="http://www.w3.org/2000/svg" xmlns:xlink="http://www.w3.org/1999/xlink" width="44" height="44" viewBox="0 0 44 44">
  <defs>
    <clipPath id="clip-path">
      <rect id="사각형_3" data-name="사각형 3" width="44" height="44" transform="translate(2862 2718)" fill="#fff" stroke="#707070" stroke-width="1" opacity="0.5"/>
    </clipPath>
  </defs>
  <g id="마스크_그룹_4" data-name="마스크 그룹 4" transform="translate(-2862 -2718)" clip-path="url(#clip-path)">
    <g id="logout" transform="translate(2861.986 2718)">
      <g id="그룹_2" data-name="그룹 2" transform="translate(0.014)">
        <g id="그룹_1" data-name="그룹 1" transform="translate(0)">
          <path id="패스_1" data-name="패스 1" d="M316.872,155.971a1.853,1.853,0,0,0-.4-.6l-5.5-5.5a1.833,1.833,0,1,0-2.592,2.592l2.371,2.371H300.513a1.833,1.833,0,0,0,0,3.667h10.241l-2.37,2.371a1.833,1.833,0,1,0,2.592,2.592l5.5-5.5a1.815,1.815,0,0,0,.4-.6A1.835,1.835,0,0,0,316.872,155.971Z" transform="translate(-273.013 -136.505)" fill="#fff"/>
          <path id="패스_2" data-name="패스 2" d="M31.181,25.667A1.833,1.833,0,0,0,29.347,27.5v9.167H22.014V7.333a1.835,1.835,0,0,0-1.307-1.756L14.34,3.667H29.347v9.167a1.833,1.833,0,0,0,3.667,0v-11A1.833,1.833,0,0,0,31.181,0H1.847a1.634,1.634,0,0,0-.189.035A1.811,1.811,0,0,0,.881.306C.841.332.791.334.753.363.738.374.733.394.718.405A1.816,1.816,0,0,0,.23.984a1.5,1.5,0,0,0-.051.154,1.739,1.739,0,0,0-.145.429,1.141,1.141,0,0,0,.005.159c0,.037-.026.07-.026.106V38.5a1.832,1.832,0,0,0,1.474,1.8l18.333,3.667a1.707,1.707,0,0,0,.359.037,1.835,1.835,0,0,0,1.833-1.833V40.333h9.167A1.833,1.833,0,0,0,33.014,38.5v-11A1.833,1.833,0,0,0,31.181,25.667Z" transform="translate(-0.014)" fill="#fff"/>
        </g>
      </g>
    </g>
  </g>
</svg>
