<svg xmlns="http://www.w3.org/2000/svg" xmlns:xlink="http://www.w3.org/1999/xlink" width="44" height="44" viewBox="0 0 44 44">
  <defs>
    <clipPath id="clip-path">
      <circle id="타원_1" data-name="타원 1" cx="22" cy="22" r="22" transform="translate(2931.902 2777)" fill="#fff" stroke="#707070" stroke-width="1" opacity="0.5"/>
    </clipPath>
  </defs>
  <g id="마스크_그룹_3" data-name="마스크 그룹 3" transform="translate(-2931.902 -2777)" clip-path="url(#clip-path)">
    <g id="power-button" transform="translate(2928.342 2775.171)">
      <path id="패스_6" data-name="패스 6" d="M42.133,7.256a24.662,24.662,0,1,0,0,34.877,24.582,24.582,0,0,0,0-34.877ZM23.248,13.121a1.447,1.447,0,0,1,2.893,0v7.716a1.447,1.447,0,1,1-2.893,0ZM24.695,35.4a10.706,10.706,0,0,1-7.044-18.767,1.447,1.447,0,0,1,1.9,2.178,7.812,7.812,0,1,0,10.323.038A1.447,1.447,0,0,1,31.8,16.685a10.706,10.706,0,0,1-7.1,18.715Z" transform="translate(0.001 0.001)" fill="#fff"/>
    </g>
  </g>
</svg>
