<svg xmlns="http://www.w3.org/2000/svg" width="55" height="26" fill="none" viewBox="0 0 55 26">
    <path stroke="#BEBEBE" stroke-linecap="round" stroke-linejoin="round" stroke-miterlimit="10" stroke-width="1.2" d="M47.48 8.79c-1.122-1.55-3.08-2.27-4.883-1.69-.907.29-1.647.81-2.018 1.73-.35.87-.331 1.93.224 2.7 1.19 1.67 3.606.95 5.195 1.87 1.51.87 1.774 3.07.614 4.14-1.823 1.67-5.438.74-6.832-.99M43.62 5.48v14.37"/>
    <path fill="#BEBEBE" d="M5.058 6.6c.137.1.283.34.439.72l3.713 8.03 3.625-8.02c.146-.37.292-.61.439-.72.146-.11.34-.17.584-.17h.137c.302 0 .526.08.643.24.127.16.185.42.185.79v10.97c0 .17-.058.3-.175.38-.117.08-.263.12-.42.12-.155 0-.292-.04-.409-.12-.117-.08-.165-.21-.165-.38V7.9c-.137.4-.263.74-.39 1.04-.127.3-.263.61-.41.93l-2.962 6.48c-.088.2-.195.33-.302.4-.107.07-.244.1-.4.1-.195 0-.34-.04-.438-.11-.107-.08-.195-.21-.293-.41L5.497 9.87c-.146-.31-.283-.62-.41-.93-.126-.3-.263-.65-.409-1.05v10.53c0 .17-.058.3-.175.38-.117.08-.263.12-.42.12-.145 0-.282-.04-.399-.12-.117-.08-.175-.21-.175-.38V7.47c0-.37.058-.64.185-.79.127-.15.341-.24.643-.24h.137c.263 0 .448.05.584.16zM22.385 6.26c1.638 0 2.856.5 3.674 1.49.819 1 1.228 2.47 1.228 4.43v.96c0 1.96-.41 3.43-1.228 4.43-.818 1-2.046 1.49-3.674 1.49-1.627 0-2.855-.5-3.674-1.49-.818-1-1.228-2.47-1.228-4.43v-.96c0-1.96.41-3.43 1.228-4.43.819-.99 2.047-1.49 3.674-1.49zm0 1.17c-1.257 0-2.183.4-2.767 1.2-.585.8-.877 2.03-.877 3.69V13c0 1.67.292 2.9.877 3.69.584.79 1.51 1.2 2.767 1.2s2.183-.4 2.768-1.2c.585-.8.877-2.03.877-3.69v-.68c0-1.67-.292-2.9-.877-3.69s-1.5-1.2-2.768-1.2zM34.032 6.46c1.364 0 2.377.31 3.04.94.663.63.994 1.51.994 2.64v.28c0 1.13-.34 2.02-1.033 2.67-.682.65-1.696.98-3.04.98h-2.807v4.45c0 .19-.058.32-.185.4-.127.08-.273.12-.439.12-.156 0-.302-.04-.429-.12-.126-.08-.185-.22-.185-.4V7.61c0-.44.078-.74.244-.91.166-.16.458-.24.896-.24h2.944zm-.186 6.39c1.053 0 1.813-.22 2.28-.66.469-.44.703-1.08.703-1.9v-.23c0-.8-.225-1.42-.673-1.84-.448-.42-1.17-.64-2.154-.64h-2.806v5.27h2.65z"/>
</svg>
