<svg xmlns="http://www.w3.org/2000/svg" xmlns:xlink="http://www.w3.org/1999/xlink" width="80" height="80" viewBox="0 0 80 80">
  <defs>
    <clipPath id="clip-path">
      <rect id="사각형_60" data-name="사각형 60" width="80" height="80" transform="translate(2474 65)" fill="none" stroke="red" stroke-width="1"/>
    </clipPath>
  </defs>
  <g id="마스크_그룹_17" data-name="마스크 그룹 17" transform="translate(-2474 -65)" clip-path="url(#clip-path)">
    <g id="그룹_25" data-name="그룹 25">
      <path id="패스_136" data-name="패스 136" d="M37.266,24.663a6.8,6.8,0,0,0,.309,1.181c4.242.6,7.425,3.08,7.425,7.489a8.75,8.75,0,0,1-8.75,8.75H13.75A8.751,8.751,0,0,1,12.5,24.671a1.066,1.066,0,0,1,.23-.008,12.5,12.5,0,0,1,24.532,0Z" transform="translate(2472 73.917)" fill="#f3f3f3" fill-rule="evenodd" opacity="0.67"/>
      <path id="패스_137" data-name="패스 137" d="M56.355,35.107a9.063,9.063,0,0,0,.412,1.575c5.656.807,9.9,4.106,9.9,9.985A11.667,11.667,0,0,1,55,58.333H25a11.667,11.667,0,0,1-1.662-23.216,1.421,1.421,0,0,1,.307-.011,16.671,16.671,0,0,1,32.709,0Z" transform="translate(2484 64.917)" fill="#f3f3f3" fill-rule="evenodd"/>
    </g>
  </g>
</svg>
