<svg xmlns="http://www.w3.org/2000/svg" width="56.001" height="22.264" viewBox="0 0 56.001 22.264">
  <g id="합치기_49" data-name="합치기 49" transform="translate(12836 4787.001)" fill="#46a0e9">
    <path d="M -12780.4990234375 -4765.23779296875 L -12835.5 -4765.23779296875 L -12835.5 -4778.93896484375 L -12826.0009765625 -4778.93896484375 L -12825.5009765625 -4778.93896484375 L -12825.5009765625 -4779.43896484375 L -12825.5009765625 -4786.50146484375 L -12813.4990234375 -4786.50146484375 L -12813.4990234375 -4779.43896484375 L -12813.4990234375 -4778.93896484375 L -12812.9990234375 -4778.93896484375 L -12802.001953125 -4778.93896484375 L -12801.501953125 -4778.93896484375 L -12801.501953125 -4779.43896484375 L -12801.501953125 -4786.50146484375 L -12789.5 -4786.50146484375 L -12789.5 -4779.43896484375 L -12789.5 -4778.93896484375 L -12789 -4778.93896484375 L -12780.4990234375 -4778.93896484375 L -12780.4990234375 -4765.23779296875 Z" stroke="none"/>
    <path d="M -12780.9990234375 -4765.73779296875 L -12780.9990234375 -4778.43896484375 L -12789 -4778.43896484375 L -12790 -4778.43896484375 L -12790 -4779.43896484375 L -12790 -4786.00146484375 L -12801.001953125 -4786.00146484375 L -12801.001953125 -4779.43896484375 L -12801.001953125 -4778.43896484375 L -12802.001953125 -4778.43896484375 L -12812.9990234375 -4778.43896484375 L -12813.9990234375 -4778.43896484375 L -12813.9990234375 -4779.43896484375 L -12813.9990234375 -4786.00146484375 L -12825.0009765625 -4786.00146484375 L -12825.0009765625 -4779.43896484375 L -12825.0009765625 -4778.43896484375 L -12826.0009765625 -4778.43896484375 L -12835 -4778.43896484375 L -12835 -4765.73779296875 L -12780.9990234375 -4765.73779296875 M -12779.9990234375 -4764.73779296875 L -12836 -4764.73779296875 L -12836 -4779.43896484375 L -12826.0009765625 -4779.43896484375 L -12826.0009765625 -4787.00146484375 L -12812.9990234375 -4787.00146484375 L -12812.9990234375 -4779.43896484375 L -12802.001953125 -4779.43896484375 L -12802.001953125 -4787.00146484375 L -12789 -4787.00146484375 L -12789 -4779.43896484375 L -12779.9990234375 -4779.43896484375 L -12779.9990234375 -4764.73779296875 Z" stroke="none" fill="#c5c5c5"/>
  </g>
</svg>
