<svg xmlns="http://www.w3.org/2000/svg" xmlns:xlink="http://www.w3.org/1999/xlink" width="97" height="97" viewBox="0 0 97 97">
  <defs>
    <clipPath id="clip-path">
      <rect id="사각형_357" data-name="사각형 357" width="97" height="97" transform="translate(14940 3327)" fill="#fff" opacity="0.5"/>
    </clipPath>
  </defs>
  <g id="마스크_그룹_19" data-name="마스크 그룹 19" transform="translate(-14940 -3327)" clip-path="url(#clip-path)">
    <g id="그룹_98" data-name="그룹 98" transform="translate(-371.323 -161.895)">
      <g id="battery-status-full" transform="translate(15334.329 3488.894)">
        <path id="패스_71" data-name="패스 71" d="M154.5,5.6H147V0H127.416V5.6H120.3a8.4,8.4,0,0,0-8.394,8.394V88.606A8.4,8.4,0,0,0,120.3,97h34.2a8.4,8.4,0,0,0,8.394-8.394V13.99A8.4,8.4,0,0,0,154.5,5.6Zm2.8,83.01a2.8,2.8,0,0,1-2.8,2.8H120.3a2.8,2.8,0,0,1-2.8-2.8V13.99a2.8,2.8,0,0,1,2.8-2.8h34.2a2.8,2.8,0,0,1,2.8,2.8Zm-3.051-15.816Z" transform="translate(-111.908)" fill="#434343"/>
      </g>
      <path id="light-bolt" d="M119.4,14.732a1.177,1.177,0,0,0-1.027-.6h-8.141L111.3,1.275a1.178,1.178,0,0,0-2.162-.738L96.19,20.557a1.177,1.177,0,0,0,.988,1.817h8.149l-1.08,14.041a1.178,1.178,0,0,0,2.179.7l12.953-21.2a1.177,1.177,0,0,0,.022-1.19ZM106.971,31.71l.8-10.424c.025-.327,4.96-1.593,4.737-1.834s-7.124-9.174-7.451-9.174l-5.716,9.74,9.225-14.257-3.509,5.271,2.721,4.177a1.177,1.177,0,0,0,1.174,1.275l-1.611,4.071Z" transform="translate(15252.39 3521.586)" fill="#434343"/>
    </g>
  </g>
</svg>
