<svg xmlns="http://www.w3.org/2000/svg" xmlns:xlink="http://www.w3.org/1999/xlink" width="97" height="97" viewBox="0 0 97 97">
  <defs>
    <clipPath id="clip-path">
      <rect id="사각형_358" data-name="사각형 358" width="97" height="97" transform="translate(14940 3049)" fill="#fff" opacity="0.5"/>
    </clipPath>
  </defs>
  <g id="마스크_그룹_20" data-name="마스크 그룹 20" transform="translate(-14940 -3049)" clip-path="url(#clip-path)">
    <g id="battery-status-full" transform="translate(14963.136 3049)" opacity="0.08">
      <path id="패스_72" data-name="패스 72" d="M154.5,5.6H147V0H127.416V5.6H120.3a8.4,8.4,0,0,0-8.394,8.394V88.606A8.4,8.4,0,0,0,120.3,97h34.2a8.4,8.4,0,0,0,8.394-8.394V13.99A8.4,8.4,0,0,0,154.5,5.6Zm2.8,83.01a2.8,2.8,0,0,1-2.8,2.8H120.3a2.8,2.8,0,0,1-2.8-2.8V13.99a2.8,2.8,0,0,1,2.8-2.8h34.2a2.8,2.8,0,0,1,2.8,2.8Zm-3.051-.514h0Zm0,0H120.554V45.212h33.694v42.88Zm0-30.6H120.554V45.212h33.693V57.489ZM120.3,45.212h0Z" transform="translate(-111.908)" fill="#434343"/>
    </g>
    <g id="rent" transform="translate(14942.75 3049)">
      <path id="패스_73" data-name="패스 73" d="M86.823,33.469H75.776L51.756,8.883A6.234,6.234,0,0,0,52.3,6.366a6.423,6.423,0,0,0-12.846,0A6.234,6.234,0,0,0,40,8.882L15.983,33.469H4.936A4.94,4.94,0,0,0,0,38.4V86.823a4.94,4.94,0,0,0,4.936,4.936H86.823a4.94,4.94,0,0,0,4.936-4.936V38.4a4.94,4.94,0,0,0-4.936-4.936ZM45.879,3.67a2.728,2.728,0,0,1,2.753,2.7,2.6,2.6,0,0,1-.588,1.659,2.869,2.869,0,0,1-4.328,0,2.6,2.6,0,0,1-.59-1.661,2.728,2.728,0,0,1,2.753-2.7Zm-3.473,8a6.233,6.233,0,0,0,6.948,0L70.645,33.469H21.113ZM88.088,86.823a1.267,1.267,0,0,1-1.265,1.265H4.936a1.267,1.267,0,0,1-1.265-1.265V38.4a1.267,1.267,0,0,1,1.265-1.265H86.823A1.267,1.267,0,0,1,88.088,38.4Zm0,0" transform="translate(0 0)" fill="#434343"/>
      <path id="패스_74" data-name="패스 74" d="M76.27,271.084v-.093a5.423,5.423,0,0,0,3.892-5.272,5.144,5.144,0,0,0-1.624-3.922c-1.287-1.163-3.127-1.684-5.976-1.684a27.683,27.683,0,0,0-5.117.429V280.92h2.667v-8.947h2.513c2.42.092,3.523,1.165,4.137,4.014a26.427,26.427,0,0,0,1.38,4.933H80.9a32.789,32.789,0,0,1-1.595-5.669c-.488-2.146-1.44-3.615-3.034-4.167Zm-3.431-1.135H70.112v-7.537a11,11,0,0,1,2.635-.245c2.819.03,4.751,1.195,4.751,3.86,0,2.36-1.81,3.922-4.659,3.922Zm0,0" transform="translate(-53.908 -207.904)" fill="#434343"/>
      <path id="패스_75" data-name="패스 75" d="M152.288,271.841h8.029v-2.206h-8.029v-6.527h8.487v-2.238H149.621v20.654h11.614v-2.238h-8.947Zm0,0" transform="translate(-119.589 -208.509)" fill="#434343"/>
      <path id="패스_76" data-name="패스 76" d="M237.756,269.514c0,3.216.06,5.728.3,8.488l-.06.03a58.667,58.667,0,0,0-3.707-6.712l-6.619-10.449h-2.912v20.654h2.512V272.7c0-3.431-.06-5.913-.214-8.518l.092-.031a66.064,66.064,0,0,0,3.862,6.894l6.557,10.479h2.7V260.871h-2.512Zm0,0" transform="translate(-179.647 -208.509)" fill="#434343"/>
      <path id="패스_77" data-name="패스 77" d="M313.527,263.139h6.28v18.386h2.7V263.139h6.313v-2.268H313.527Zm0,0" transform="translate(-250.596 -208.509)" fill="#434343"/>
    </g>
  </g>
</svg>
