<svg xmlns="http://www.w3.org/2000/svg" xmlns:xlink="http://www.w3.org/1999/xlink" width="97" height="97" viewBox="0 0 97 97">
  <defs>
    <clipPath id="clip-path">
      <rect id="사각형_367" data-name="사각형 367" width="97" height="97" transform="translate(16035.5 4889.458)" fill="#fff" opacity="0.5"/>
    </clipPath>
  </defs>
  <g id="마스크_그룹_28" data-name="마스크 그룹 28" transform="translate(-16035.5 -4889.458)" clip-path="url(#clip-path)">
    <g id="adapter" transform="translate(16049.325 4894.958)">
      <path id="패스_82" data-name="패스 82" d="M60.1,50.979V12.6C60.1,4.826,53.728-1.089,46.621.171c-5.493.974-9.634,6.548-9.634,12.966V70.882c0,5.557-4.148,10.078-9.247,10.078s-9.247-4.521-9.247-10.078V65.41a7.558,7.558,0,0,0,4.623-7.125V54.061a17.836,17.836,0,0,0,9.247-15.933V17.972a2.422,2.422,0,0,0-2.312-2.52H27.74V2.519A2.422,2.422,0,0,0,25.428,0H6.935a2.422,2.422,0,0,0-2.312,2.52V15.453H2.312A2.422,2.422,0,0,0,0,17.972V38.128A17.836,17.836,0,0,0,9.247,54.061v4.223A7.558,7.558,0,0,0,13.87,65.41v5.472C13.87,79.217,20.092,86,27.74,86s13.87-6.782,13.87-15.117V13.137c0-3.975,2.474-7.411,5.753-7.993,4.429-.785,8.117,2.927,8.117,7.454V50.979c-5.269,1.171-9.247,6.261-9.247,12.344V73.4a2.422,2.422,0,0,0,2.312,2.52h2.312V83.48A2.422,2.422,0,0,0,53.168,86h9.247a2.422,2.422,0,0,0,2.312-2.52V75.921h2.312A2.422,2.422,0,0,0,69.35,73.4V63.324C69.35,57.24,65.372,52.15,60.1,50.979ZM23.117,15.453H18.493V5.039h4.623ZM9.247,5.039H13.87V15.453H9.247ZM4.623,38.128V20.492H27.74V38.128c0,6.946-5.185,12.6-11.558,12.6S4.623,45.075,4.623,38.128ZM16.182,55.765a14.952,14.952,0,0,0,2.312-.18v2.7a2.425,2.425,0,0,1-2.312,2.52,2.425,2.425,0,0,1-2.312-2.52v-2.7A14.952,14.952,0,0,0,16.182,55.765ZM60.1,80.96H55.48V75.921H60.1Zm4.623-10.078H50.856V63.324c0-4.168,3.111-7.559,6.935-7.559s6.935,3.391,6.935,7.559Zm0,0" transform="translate(0 0)" fill="#434343"/>
      <path id="패스_83" data-name="패스 83" d="M62.464,156.929h9.857a2.464,2.464,0,1,0,0-4.929H62.464a2.464,2.464,0,1,0,0,4.929Zm0,0" transform="translate(-47.151 -126.434)" fill="#434343"/>
      <path id="패스_84" data-name="패스 84" d="M74.786,214.464A2.464,2.464,0,0,0,72.321,212H62.464a2.464,2.464,0,1,0,0,4.929h9.857A2.464,2.464,0,0,0,74.786,214.464Zm0,0" transform="translate(-47.151 -176.342)" fill="#434343"/>
    </g>
    <g id="합치기_52" data-name="합치기 52" transform="translate(16065.296 4920.423)" fill="#434343">
      <path d="M 31.50325965881348 34.80205154418945 C 30.83547019958496 34.80205154418945 30.20783996582031 34.54198837280273 29.73599052429199 34.06977844238281 L 17.8878002166748 22.22159957885742 L 17.53425025939941 21.86804008483887 L 17.18070030212402 22.22159957885742 L 5.332650184631348 34.06964874267578 C 4.860350131988525 34.54193878173828 4.232550144195557 34.80205154418945 3.564900159835815 34.80205154418945 C 2.897250175476074 34.80205154418945 2.269450187683105 34.54193878173828 1.797150254249573 34.06964874267578 L 0.9988502860069275 33.2713508605957 C 0.02411025948822498 32.29661178588867 0.02411025948822498 30.71059036254883 0.9988502860069275 29.73584938049316 L 12.84689998626709 17.8878002166748 L 13.20046043395996 17.53425025939941 L 12.84689998626709 17.18070030212402 L 0.9988502860069275 5.332650184631348 C 0.02411025948822498 4.35791015625 0.02411025948822498 2.771890163421631 0.9988502860069275 1.797150254249573 L 1.796450257301331 0.9986502528190613 C 2.268550157546997 0.5265602469444275 2.896470308303833 0.2664502561092377 3.564340353012085 0.2664502561092377 C 4.23213005065918 0.2664502561092377 4.859760284423828 0.5265102386474609 5.331610202789307 0.9987202882766724 L 17.18025016784668 12.84735012054443 L 17.53380012512207 13.2009105682373 L 17.88735008239746 12.84735012054443 L 29.73584938049316 0.9988502860069275 C 30.20815086364746 0.5265602469444275 30.83595085144043 0.2664502561092377 31.50360107421875 0.2664502561092377 C 32.17124938964844 0.2664502561092377 32.79904937744141 0.5265602469444275 33.2713508605957 0.9988502860069275 L 34.06964874267578 1.797150254249573 C 34.54198837280273 2.269140243530273 34.80205154418945 2.896770238876343 34.80205154418945 3.564560174942017 C 34.80205154418945 4.232430458068848 34.54193878173828 4.860350131988525 34.06964874267578 5.332650184631348 L 22.22114944458008 17.18115043640137 L 21.86758995056152 17.53470039367676 L 22.22114944458008 17.88825035095215 L 34.06874847412109 29.73584938049316 C 35.04349136352539 30.71059036254883 35.04349136352539 32.29661178588867 34.06874847412109 33.2713508605957 L 33.27114868164063 34.06985092163086 C 32.79904937744141 34.54193878173828 32.1711311340332 34.80205154418945 31.50325965881348 34.80205154418945 Z" stroke="none"/>
      <path d="M 31.50325965881348 34.30205154418945 C 32.03757858276367 34.30205154418945 32.5399284362793 34.09394836425781 32.91738891601563 33.71649169921875 L 33.71519088745117 32.91778945922852 C 34.49497985839844 32.13800048828125 34.49497985839844 30.86919975280762 33.71519088745117 30.08941078186035 L 21.86758995056152 18.2418098449707 L 21.16049003601074 17.53470039367676 L 21.86758995056152 16.82759094238281 L 33.71609115600586 4.979090213775635 C 34.09394836425781 4.601230144500732 34.30205154418945 4.098880290985107 34.30205154418945 3.564560174942017 C 34.30205154418945 3.03039026260376 34.09405136108398 2.528370141983032 33.71609115600586 2.150710344314575 L 32.91778945922852 1.352410316467285 C 32.5399284362793 0.9745502471923828 32.03770065307617 0.7664502859115601 31.50360107421875 0.7664502859115601 C 30.9694995880127 0.7664502859115601 30.46726989746094 0.9745502471923828 30.08941078186035 1.352410316467285 L 18.24090957641602 13.2009105682373 L 17.53380012512207 13.90801048278809 L 16.82669067382813 13.2009105682373 L 4.977920055389404 1.352140307426453 C 4.60053014755249 0.9744502305984497 4.098510265350342 0.7664502859115601 3.564340353012085 0.7664502859115601 C 3.030020236968994 0.7664502859115601 2.52767014503479 0.9745502471923828 2.15021014213562 1.352010250091553 L 1.352410316467285 2.150710344314575 C 0.5726202726364136 2.930500268936157 0.5726202726364136 4.199300289154053 1.352410316467285 4.979090213775635 L 13.20046043395996 16.82714080810547 L 13.90756034851074 17.53425025939941 L 13.20046043395996 18.24135971069336 L 1.352410316467285 30.08941078186035 C 0.5726202726364136 30.86919975280762 0.5726202726364136 32.13800048828125 1.352410316467285 32.91778945922852 L 2.150710344314575 33.71609115600586 C 2.528570175170898 34.09394836425781 3.030800342559814 34.30205154418945 3.564900159835815 34.30205154418945 C 4.099000453948975 34.30205154418945 4.601230144500732 34.09394836425781 4.979090213775635 33.71609115600586 L 16.82714080810547 21.86804008483887 L 17.53425025939941 21.16094017028809 L 18.24135971069336 21.86804008483887 L 30.08967971801758 33.71636199951172 C 30.46706962585449 34.09405136108398 30.96908950805664 34.30205154418945 31.50325965881348 34.30205154418945 M 31.50325965881348 35.30205154418945 C 30.73545074462891 35.30205154418945 29.96775054931641 35.00910186767578 29.38229942321777 34.42319869995117 L 17.53425025939941 22.57514953613281 L 5.686200141906738 34.42319869995117 C 5.100300312042236 35.00910186767578 4.332600116729736 35.30205154418945 3.564900159835815 35.30205154418945 C 2.797200202941895 35.30205154418945 2.029500246047974 35.00910186767578 1.443600296974182 34.42319869995117 L 0.6453002691268921 33.62490081787109 C -0.5264997482299805 32.45310211181641 -0.5264997482299805 30.55410003662109 0.6453002691268921 29.38229942321777 L 12.4933500289917 17.53425025939941 L 0.6453002691268921 5.686200141906738 C -0.5264997482299805 4.514400482177734 -0.5264997482299805 2.615400314331055 0.6453002691268921 1.443600296974182 L 1.442700266838074 0.6453002691268921 C 2.028600215911865 0.05940026044845581 2.796525239944458 -0.2335497438907623 3.564337730407715 -0.2335497438907623 C 4.332150459289551 -0.2335497438907623 5.099850177764893 0.05940026044845581 5.685300350189209 0.6453002691268921 L 17.53380012512207 12.49380016326904 L 29.38229942321777 0.6453002691268921 C 29.96820068359375 0.05940026044845581 30.73590087890625 -0.2335497438907623 31.50360107421875 -0.2335497438907623 C 32.27130126953125 -0.2335497438907623 33.03900146484375 0.05940026044845581 33.62490081787109 0.6453002691268921 L 34.42319869995117 1.443600296974182 C 35.59500122070313 2.614500284194946 35.59500122070313 4.514400482177734 34.42319869995117 5.686200141906738 L 22.57469940185547 17.53470039367676 L 34.42229843139648 29.38229942321777 C 35.59410095214844 30.55410003662109 35.59410095214844 32.45310211181641 34.42229843139648 33.62490081787109 L 33.62490081787109 34.42319869995117 C 33.03900146484375 35.00910186767578 32.27108001708984 35.30205154418945 31.50325965881348 35.30205154418945 Z" stroke="none" fill="#0a0a0a"/>
    </g>
  </g>
</svg>
