<svg xmlns="http://www.w3.org/2000/svg" xmlns:xlink="http://www.w3.org/1999/xlink" width="22" height="22" viewBox="0 0 22 22">
  <defs>
    <clipPath id="clip-path">
      <rect id="사각형_11" data-name="사각형 11" width="22" height="22" transform="translate(1245 -281)" fill="#fff" stroke="#707070" stroke-width="1" opacity="0.5"/>
    </clipPath>
  </defs>
  <g id="마스크_그룹_5" data-name="마스크 그룹 5" transform="translate(-1245 281)" clip-path="url(#clip-path)">
    <path id="패스_97" data-name="패스 97" d="M11.375,0H1.625C.731,0,0,.5,0,1.12V4.48C0,6.754,2.493,8.643,5.687,8.921V12.88H2.438V14h8.125V12.88H7.312V8.921C10.507,8.643,13,6.754,13,4.48V1.12C13,.5,12.269,0,11.375,0Zm0,2.8V4.48c0,1.853-2.187,3.36-4.875,3.36S1.625,6.333,1.625,4.48V1.12h9.75Z" transform="translate(1249 -277)" fill="#4d708c" fill-rule="evenodd"/>
  </g>
</svg>
