<svg xmlns="http://www.w3.org/2000/svg" xmlns:xlink="http://www.w3.org/1999/xlink" width="22" height="22" viewBox="0 0 22 22">
  <defs>
    <clipPath id="clip-path">
      <rect id="사각형_12" data-name="사각형 12" width="22" height="22" transform="translate(1242 -257)" fill="#fff" stroke="#707070" stroke-width="1" opacity="0.5"/>
    </clipPath>
  </defs>
  <g id="마스크_그룹_6" data-name="마스크 그룹 6" transform="translate(-1242 257)" clip-path="url(#clip-path)">
    <path id="패스_98" data-name="패스 98" d="M14,9.917H5.244L2.419,1.167H0V0H3.233l.753,2.333H16ZM6.059,8.75h7.074L14.52,3.5H4.364ZM6.217,14a1.751,1.751,0,1,1,1.7-1.75A1.725,1.725,0,0,1,6.217,14Zm0-2.333a.584.584,0,1,0,.565.583A.575.575,0,0,0,6.217,11.667ZM13,14a1.751,1.751,0,1,1,1.7-1.75A1.725,1.725,0,0,1,13,14Zm0-2.333a.584.584,0,1,0,.565.583A.575.575,0,0,0,13,11.667Z" transform="translate(1245 -253)" fill="#4d708c" fill-rule="evenodd"/>
  </g>
</svg>
