<svg xmlns="http://www.w3.org/2000/svg" width="447.432" height="352.393" viewBox="0 0 447.432 352.393">
  <g id="그룹_19" data-name="그룹 19" transform="translate(-1951.628 4624.393)">
    <g id="그룹_18" data-name="그룹 18">
      <rect id="사각형_30" data-name="사각형 30" width="54" height="122" rx="10" transform="translate(2015 -4394)" fill="#3c5083"/>
      <rect id="사각형_31" data-name="사각형 31" width="54" height="234" rx="10" transform="translate(2267 -4506)" fill="#3c5083"/>
      <rect id="사각형_32" data-name="사각형 32" width="54" height="176" rx="10" transform="translate(2183 -4448)" fill="#3c5083"/>
      <rect id="사각형_33" data-name="사각형 33" width="54" height="199" rx="10" transform="translate(2099 -4471)" fill="#3c5083"/>
      <g id="합치기_9" data-name="합치기 9" transform="translate(1915.833 -4569.288)" fill="#fff">
        <path d="M 68.3551025390625 244.7901153564453 L 68.35504150390625 244.7901153564453 C 64.18816375732422 244.7901763916016 59.81829071044922 242.8093719482422 56.36585235595703 239.3555603027344 L 50.72978973388672 233.7158660888672 C 44.88154220581055 227.8646240234375 43.53447723388672 219.3255004882813 47.78797912597656 215.0688018798828 L 200.6891632080078 62.04436874389648 C 202.7481079101563 59.98393249511719 205.4320983886719 59.55136871337891 207.3211669921875 59.55136871337891 C 208.8967895507813 59.55136871337891 210.526611328125 59.8419303894043 212.1653594970703 60.41499328613281 L 212.7906646728516 60.63361740112305 L 213.4445343017578 60.73930740356445 C 216.613037109375 61.25136947631836 219.4936676025391 62.72855377197266 221.7750396728516 65.01130676269531 L 280.83984375 124.1150588989258 L 286.1449279785156 129.4235534667969 L 291.4499206542969 124.1150588989258 L 361.39453125 54.12480545043945 L 366.6926574707031 48.82330703735352 L 361.3945922851563 43.52167892456055 L 334.2928466796875 16.40192985534668 L 436.6365356445313 7.39555549621582 L 436.3886108398438 10.26336860656738 L 438.2120971679688 12.65605545043945 L 471.506103515625 56.75457763671875 L 429.6519165039063 105.6184921264648 L 428.0835266113281 107.4496154785156 L 427.8759155273438 109.8516159057617 L 399.1874694824219 81.33968353271484 L 393.8824768066406 76.03118133544922 L 388.5774230957031 81.33968353271484 L 297.6250915527344 172.3512420654297 C 294.7457275390625 175.2323608398438 290.9171142578125 176.8192443847656 286.8446044921875 176.8194885253906 C 283.5196533203125 176.8196868896484 280.3656005859375 175.7725524902344 277.7232360839844 173.7911834716797 L 277.1836547851563 173.3865509033203 L 276.5805358886719 173.0846862792969 C 275.1221008300781 172.354736328125 273.7894897460938 171.3910522460938 272.6198425292969 170.2204284667969 L 215.113037109375 112.6764907836914 L 209.8076019287109 107.3676147460938 L 204.5026092529297 112.6768646240234 L 74.98716735839844 242.2959899902344 C 72.92760467529297 244.3573608398438 70.24385070800781 244.7901153564453 68.3551025390625 244.7901153564453 Z" stroke="none"/>
        <path d="M 68.35492706298828 237.2901458740234 L 68.3548583984375 237.2901458740234 C 69.06385803222656 237.2901306152344 69.53957366943359 237.13720703125 69.68178558349609 236.9948577880859 L 199.1972045898438 107.3757171630859 L 209.8072814941406 96.75721740722656 L 220.4180755615234 107.3749313354492 L 277.9255065917969 164.91943359375 C 278.5241394042969 165.5186462402344 279.2009887695313 166.0092163085938 279.9372253417969 166.3777160644531 L 281.1435546875 166.9814300537109 L 282.2227783203125 167.7907867431641 C 283.9079284667969 169.0544281005859 285.6660766601563 169.319580078125 286.8442077636719 169.3195037841797 C 288.9126281738281 169.3193664550781 290.857421875 168.5131378173828 292.320068359375 167.0496520996094 L 383.2723388671875 76.03807067871094 L 393.8825073242188 65.42100524902344 L 404.4925537109375 76.03814697265625 L 426.3657836914063 97.92593383789063 L 461.8848266601563 56.45822906494141 L 432.2264404296875 17.17514419555664 L 430.9013977050781 15.42009449005127 L 350.8405456542969 22.35050773620605 L 366.69970703125 38.22021484375 L 377.2957763671875 48.82336044311523 L 366.6996459960938 59.42642974853516 L 296.7550048828125 129.4166412353516 L 286.1448669433594 140.0336456298828 L 275.5348510742188 129.4165802001953 L 216.47021484375 70.31307220458984 C 215.0048522949219 68.84678649902344 213.3653564453125 68.32379150390625 212.2480621337891 68.14328765869141 L 210.9403533935547 67.93193054199219 L 209.6898498535156 67.49464416503906 C 208.8605041503906 67.20464324951172 208.0414276123047 67.05136108398438 207.3212127685547 67.05136108398438 C 206.6117095947266 67.05136108398438 206.1360015869141 67.20400238037109 205.9945678710938 67.34557342529297 L 53.09321212768555 220.3702239990234 C 52.45870971679688 221.0051422119141 52.49128341674805 224.8690032958984 56.03470993041992 228.4142913818359 L 61.67028427124023 234.0533599853516 C 64.05585479736328 236.4399261474609 66.6875 237.2902221679688 68.35492706298828 237.2901458740234 M 68.35528564453125 252.2901458740234 C 62.45606994628906 252.290283203125 56.08685302734375 249.6852111816406 51.06149673461914 244.6577911376953 L 45.42478179931641 239.0175018310547 C 36.53999710083008 230.1282196044922 35.22328186035156 217.0322875976563 42.48271179199219 209.7675018310547 L 195.3837127685547 56.74321746826172 C 198.5366516113281 53.58794403076172 202.7909240722656 52.05137252807617 207.3211975097656 52.05137252807617 C 209.7245025634766 52.05137252807617 212.2045593261719 52.48334503173828 214.6410675048828 53.33535766601563 C 219.1954956054688 54.07135772705078 223.5684204101563 56.19600296020508 227.0799255371094 59.70957183837891 L 286.1449279785156 118.8134994506836 L 356.0895690917969 48.82328796386719 L 328.98779296875 21.7035026550293 C 324.43115234375 17.14407348632813 327.275146484375 9.334787368774414 333.6957092285156 8.778573989868164 L 435.9897155761719 -0.07649790495634079 C 436.2138977050781 -0.09589745104312897 436.4364929199219 -0.1054108515381813 436.6567687988281 -0.1054108515381813 C 441.0457763671875 -0.1054108515381813 444.584228515625 3.666851282119751 444.1977233886719 8.136930465698242 L 481.1274108886719 57.05100250244141 L 435.3479919433594 110.4975051879883 C 434.9799499511719 114.7553482055664 431.4271545410156 117.4416732788086 427.746337890625 117.4417953491211 C 425.8735656738281 117.4418563842773 423.9678344726563 116.7465286254883 422.4312133789063 115.2089996337891 L 393.8824157714844 86.64122009277344 L 302.9301452636719 177.6527862548828 C 298.4886474609375 182.0969696044922 292.666259765625 184.3191528320313 286.8451232910156 184.3195037841797 C 282.0467834472656 184.3197937011719 277.2497253417969 182.8104248046875 273.2237854003906 179.79150390625 C 271.0915832519531 178.724365234375 269.0927124023438 177.3013610839844 267.3144226074219 175.5215759277344 L 209.8080749511719 117.9780731201172 L 80.29264068603516 247.5972137451172 C 77.13921356201172 250.7533569335938 72.88578033447266 252.2900085449219 68.35528564453125 252.2901458740234 Z" stroke="none" fill="#fff"/>
      </g>
      <g id="합치기_10" data-name="합치기 10" transform="translate(1954.833 -4624.288)" fill="#fff">
        <path d="M 68.3551025390625 244.7901611328125 C 64.18821716308594 244.7902221679688 59.81833267211914 242.8094024658203 56.36592102050781 239.3555755615234 L 50.72980499267578 233.7159271240234 C 44.88151168823242 227.8646392822266 43.53445053100586 219.3254547119141 47.78792190551758 215.0688781738281 L 200.6891021728516 62.04440307617188 C 202.748046875 59.98393249511719 205.4320983886719 59.5514030456543 207.3211059570313 59.5514030456543 C 208.8967437744141 59.5514030456543 210.5265655517578 59.8419303894043 212.1653289794922 60.41498947143555 L 212.7906341552734 60.63369369506836 L 213.4445648193359 60.73934173583984 C 216.613037109375 61.25139999389648 219.4936828613281 62.72857666015625 221.7750396728516 65.01134490966797 L 280.8398742675781 124.114990234375 L 286.1449279785156 129.4235229492188 L 291.4499206542969 124.1150512695313 L 361.3945617675781 54.12481307983398 L 366.6926879882813 48.82322311401367 L 361.3946228027344 43.52169418334961 L 334.2928771972656 16.4019889831543 L 436.6365661621094 7.395577907562256 L 427.8759155273438 109.8515167236328 L 399.1874389648438 81.33969879150391 L 393.8824462890625 76.03110504150391 L 388.577392578125 81.33963775634766 L 297.6250915527344 172.3512268066406 C 294.7456970214844 175.2323455810547 290.9171142578125 176.8192901611328 286.8446960449219 176.8195190429688 C 283.5197448730469 176.8197021484375 280.3656311035156 175.7725219726563 277.7232666015625 173.7911071777344 L 277.1836853027344 173.3865203857422 L 276.58056640625 173.0846405029297 C 275.1219787597656 172.3546295166016 273.7893981933594 171.3909912109375 272.6198120117188 170.220458984375 L 215.113037109375 112.6765213012695 L 209.8076324462891 107.3676986694336 L 204.5026245117188 112.6769332885742 L 74.98721313476563 242.2960510253906 C 72.92762756347656 244.3574066162109 70.24386596679688 244.7901000976563 68.3551025390625 244.7901611328125 Z" stroke="none"/>
        <path d="M 68.35491943359375 237.2901306152344 L 68.3548583984375 237.2901306152344 C 69.06378173828125 237.2901153564453 69.53945922851563 237.1372528076172 69.68171691894531 236.9948577880859 L 199.1971893310547 107.375732421875 L 209.8072509765625 96.75719451904297 L 220.4180450439453 107.3748626708984 L 277.9253845214844 164.9194030761719 C 278.5241088867188 165.5186004638672 279.2009887695313 166.0092620849609 279.9371948242188 166.3777313232422 L 281.1435241699219 166.9814605712891 L 282.2227783203125 167.7908020019531 C 283.9079284667969 169.0543975830078 285.6661071777344 169.3195953369141 286.8441162109375 169.3195343017578 C 288.91259765625 169.3193969726563 290.8574523925781 168.5131988525391 292.3200378417969 167.0496673583984 L 383.2723083496094 76.03806304931641 L 393.8824462890625 65.42099761962891 L 404.4925231933594 76.03813171386719 L 421.7760620117188 93.33312225341797 L 428.4940490722656 15.62850570678711 L 350.8405151367188 22.35053062438965 L 366.6996459960938 38.22019577026367 L 377.2957153320313 48.82332992553711 L 366.6995849609375 59.42639923095703 L 296.7549743652344 129.4165954589844 L 286.1449279785156 140.0335998535156 L 275.5348510742188 129.4165954589844 L 216.4701232910156 70.31299591064453 C 215.0048522949219 68.84686279296875 213.3653869628906 68.32386779785156 212.248046875 68.14326477050781 L 210.9402465820313 67.93193054199219 L 209.6897125244141 67.49466705322266 C 208.8605194091797 67.20466613769531 208.0414581298828 67.05139923095703 207.3211212158203 67.05139923095703 C 206.6116485595703 67.05139923095703 206.135986328125 67.20406341552734 205.9945831298828 67.34552764892578 L 53.0932502746582 220.3701934814453 C 52.45878601074219 221.0052032470703 52.49131774902344 224.8690643310547 56.03471755981445 228.4142608642578 L 61.67031860351563 234.0533905029297 C 64.05585479736328 236.4398651123047 66.68751525878906 237.2901916503906 68.35491943359375 237.2901306152344 M 68.35525512695313 252.2901306152344 C 62.45611953735352 252.2902679443359 56.08685302734375 249.6851959228516 51.06151962280273 244.6577911376953 L 45.42478561401367 239.0175323486328 C 36.53998565673828 230.1282043457031 35.22332000732422 217.0323333740234 42.48271942138672 209.7675323486328 L 195.3837127685547 56.74319839477539 C 198.5366363525391 53.58793258666992 202.7908477783203 52.05139923095703 207.3211212158203 52.05139923095703 C 209.7244262695313 52.05139923095703 212.2045593261719 52.4833869934082 214.6410522460938 53.33539581298828 C 219.1954498291016 54.07139587402344 223.5684509277344 56.19599914550781 227.0799255371094 59.70959854125977 L 286.1449279785156 118.8134613037109 L 356.0895080566406 48.82326507568359 L 328.98779296875 21.70353126525879 C 324.4311218261719 17.14413070678711 327.2751159667969 9.334796905517578 333.6957092285156 8.778596878051758 L 435.9897155761719 -0.07646933943033218 C 436.2138977050781 -0.09586910158395767 436.4365234375 -0.1053828746080399 436.6567993164063 -0.1053828746080399 C 441.0458068847656 -0.1053828746080399 444.5841979980469 3.666878461837769 444.1977233886719 8.136930465698242 L 435.3480529785156 110.4975280761719 C 434.97998046875 114.7553634643555 431.4271545410156 117.4416732788086 427.7463684082031 117.441780090332 C 425.8735961914063 117.4418411254883 423.9678344726563 116.7465133666992 422.4312438964844 115.2089996337891 L 393.8823852539063 86.64119720458984 L 302.9301147460938 177.6528015136719 C 298.4886474609375 182.0969543457031 292.666259765625 184.3191375732422 286.8450927734375 184.3195037841797 C 282.0467529296875 184.3197937011719 277.2497253417969 182.8104400634766 273.2237854003906 179.7915344238281 C 271.0915832519531 178.7243957519531 269.0927124023438 177.3013916015625 267.3143920898438 175.5215911865234 L 209.8080596923828 117.9780654907227 L 80.29258728027344 247.5971984863281 C 77.13925170898438 250.7533264160156 72.88578796386719 252.2899932861328 68.35525512695313 252.2901306152344 Z" stroke="none" fill="#fff"/>
      </g>
      <path id="합치기_8" data-name="합치기 8" d="M51.062,244.658l-5.637-5.64c-8.885-8.889-10.2-21.985-2.942-29.25l152.9-153.024c4.826-4.829,12.228-5.866,19.257-3.408A22.638,22.638,0,0,1,227.08,59.71l59.065,59.1,69.945-69.99-27.1-27.12A7.589,7.589,0,0,1,333.7,8.779L435.99-.076A7.585,7.585,0,0,1,444.2,8.137L435.348,110.5a7.582,7.582,0,0,1-12.917,4.711L393.882,86.641,302.93,177.653a22.743,22.743,0,0,1-29.706,2.139,22.717,22.717,0,0,1-5.909-4.27l-57.506-57.544L80.293,247.6a16.582,16.582,0,0,1-11.937,4.693A24.927,24.927,0,0,1,51.062,244.658Z" transform="translate(1913.833 -4608.288)" fill="#3c5083"/>
    </g>
  </g>
</svg>
