<svg xmlns="http://www.w3.org/2000/svg" xmlns:xlink="http://www.w3.org/1999/xlink" width="25" height="21" viewBox="0 0 25 21">
  <defs>
    <clipPath id="clip-path">
      <rect id="사각형_38" data-name="사각형 38" width="25" height="21" transform="translate(1549 -163)" fill="#fff" stroke="#707070" stroke-width="1" opacity="0.5"/>
    </clipPath>
  </defs>
  <g id="마스크_그룹_10" data-name="마스크 그룹 10" transform="translate(-1549 163)" clip-path="url(#clip-path)">
    <path id="패스_99" data-name="패스 99" d="M6.663,14.822a2.958,2.958,0,0,1,5,0,.72.72,0,0,1-.265,1.008.779.779,0,0,1-.39.1.77.77,0,0,1-.657-.359,1.448,1.448,0,0,0-2.376,0,.78.78,0,0,1-1.047.255A.72.72,0,0,1,6.663,14.822ZM8.916,4.181A6.084,6.084,0,0,1,14.761,0a6,6,0,0,1,6.107,5.883,5.974,5.974,0,0,1-5.632,5.86.714.714,0,0,1-.318.63.783.783,0,0,1-1.062-.191,5.583,5.583,0,0,0-.469-.571,6.148,6.148,0,0,1-3.07-1.7,5.835,5.835,0,0,0-1.155-.124,5.752,5.752,0,0,0-4.694,2.4.782.782,0,0,1-1.062.191.719.719,0,0,1-.2-1.022A7.3,7.3,0,0,1,9.163,8.316h.044a5.673,5.673,0,0,1-.553-2.435c0-.044,0-.086.006-.129s0-.059.005-.089A10.065,10.065,0,0,0,1.36,9.284.783.783,0,0,1,.287,9.4a.717.717,0,0,1-.12-1.034A11.617,11.617,0,0,1,8.916,4.181Zm5.788,6.6a.4.4,0,0,0,.057.005,5,5,0,0,0,5.089-4.9,5,5,0,0,0-5.089-4.9A5.075,5.075,0,0,0,10,4.213a4.7,4.7,0,0,0-.3,1.455.963.963,0,0,1-.011.1.8.8,0,0,0-.012.119,4.726,4.726,0,0,0,.767,2.556,5.111,5.111,0,0,0,4.213,2.336A.429.429,0,0,1,14.7,10.781Zm1.733-7.205a.523.523,0,0,1,.72,0,.477.477,0,0,1,0,.693L15.481,5.883l.467.45L17.156,7.5a.477.477,0,0,1,0,.693.522.522,0,0,1-.72,0L14.761,6.577l-.466.449L13.085,8.191a.522.522,0,0,1-.72,0,.477.477,0,0,1,0-.693l.993-.957.683-.658L12.885,4.769l-.519-.5a.477.477,0,0,1,0-.693.523.523,0,0,1,.72,0L14.761,5.19Z" transform="translate(1551 -160)" fill="#ff4145" fill-rule="evenodd"/>
  </g>
</svg>
