<svg xmlns="http://www.w3.org/2000/svg" xmlns:xlink="http://www.w3.org/1999/xlink" width="80" height="80" viewBox="0 0 80 80">
  <defs>
    <clipPath id="clip-path">
      <rect id="사각형_60" data-name="사각형 60" width="80" height="80" transform="translate(-771.638 -13.741)" fill="none" stroke="red" stroke-width="1"/>
    </clipPath>
  </defs>
  <g id="마스크_그룹_16" data-name="마스크 그룹 16" transform="translate(771.638 13.741)" clip-path="url(#clip-path)">
    <g id="snowflake_1_" data-name="snowflake (1)" transform="translate(-781.815 -13)">
      <g id="그룹_32" data-name="그룹 32" transform="translate(12.38)">
        <path id="패스_21" data-name="패스 21" d="M86.6,46.174,72.58,49.931l-4.971-2.87,2.95-5.11H77.8V37.307H70.56L67.61,32.2l4.971-2.87L86.6,33.085l1.2-4.486-9.538-2.556,7.306-4.218L83.252,17.8l-7.306,4.218L78.5,12.484l-4.486-1.2L70.258,25.306l-4.971,2.87-2.95-5.11,3.621-6.272-4.022-2.322-3.622,6.272h-5.9V15L62.681,4.738,59.4,1.454,52.415,8.436V0H47.771V8.436L40.789,1.454,37.5,4.738,47.771,15v5.74h-5.9l-3.621-6.272-4.022,2.322,3.621,6.272-2.95,5.11-4.971-2.87L26.17,11.282l-4.486,1.2,2.556,9.538L16.934,17.8l-2.322,4.022,7.306,4.218L12.38,28.6l1.2,4.486,14.024-3.758,4.971,2.87-2.95,5.11H22.383v4.644h7.243l2.95,5.11-4.971,2.87L13.582,46.174l-1.2,4.486,9.538,2.556-7.306,4.218,2.322,4.022,7.306-4.218-2.556,9.538,4.486,1.2,3.758-14.024,4.971-2.87,2.95,5.11-3.621,6.272,4.022,2.322,3.622-6.272h5.9v5.74L37.5,74.521,40.789,77.8l6.982-6.982v8.436h4.644V70.822L59.4,77.8l3.284-3.284L52.415,64.255v-5.74h5.9l3.621,6.272,4.022-2.322-3.621-6.272,2.95-5.11,4.971,2.87,3.758,14.024,4.486-1.2-2.556-9.538,7.306,4.218,2.322-4.022-7.306-4.218,9.538-2.556ZM36.6,44.739l-2.95-5.11,2.95-5.11,8.851,5.11Zm11.173,9.132h-5.9l-2.95-5.11,8.851-5.11Zm0-18.264L38.92,30.5l2.95-5.11h5.9Zm4.644-10.22h5.9l2.95,5.11-8.851,5.11Zm5.9,28.484h-5.9V43.651l8.851,5.11Zm5.272-9.132-8.851-5.11,8.851-5.11,2.95,5.11Z" transform="translate(-12.38)" fill="#fff"/>
      </g>
    </g>
  </g>
</svg>
