<svg xmlns="http://www.w3.org/2000/svg" xmlns:xlink="http://www.w3.org/1999/xlink" width="629" height="309" viewBox="0 0 629 309">
  <defs>
    <clipPath id="clip-path">
      <rect id="사각형_1" data-name="사각형 1" width="629" height="309" fill="#fff" stroke="#707070" stroke-width="1"/>
    </clipPath>
  </defs>
  <g id="그룹_8" data-name="그룹 8" transform="translate(-482 222)">
    <g id="마스크_그룹_1" data-name="마스크 그룹 1" transform="translate(482 -222)" clip-path="url(#clip-path)">
      <path id="패스_1" data-name="패스 1" d="M1329.453,17,1221.1,174.694,1538.974,17Z" transform="translate(-911.434 -19.689)" fill="#fdcd81"/>
      <path id="패스_2" data-name="패스 2" d="M1222.233,171.766,1538.585,200.3V18.157Z" transform="translate(-911.045 -19.29)" fill="#ffddad"/>
      <path id="패스_3" data-name="패스 3" d="M1511.986,149.147v137.37L1194.955,132.276Z" transform="translate(-884.446 20.019)" fill="#fdcd81"/>
      <path id="패스_4" data-name="패스 4" d="M1252.877,285.908l258.206.315-314.93-153.09Z" transform="translate(-884.033 20.313)" fill="#ffddad"/>
      <path id="패스_5" data-name="패스 5" d="M1147.514,286.627h124.5l-58.517-152.543Z" transform="translate(-900.788 19.909)" fill="#fdcd81"/>
      <path id="패스_6" data-name="패스 6" d="M1023.132,286.756h168.889l65.231-155.174Z" transform="translate(-943.632 19.78)" fill="#ffddad"/>
      <path id="패스_7" data-name="패스 7" d="M1120.227,17.408l100.642,156.274L1329.516,17Z" transform="translate(-910.187 -19.689)" fill="#ffddad"/>
      <path id="패스_8" data-name="패스 8" d="M997.016,17,1263.95,174.411,1164.028,17Z" transform="translate(-952.627 -19.689)" fill="#fdcd81"/>
      <path id="패스_9" data-name="패스 9" d="M964.206,176.834h310.1L997.275,6.612,959.5,14.389Z" transform="translate(-965.551 -23.267)" fill="#ffddad"/>
      <path id="패스_10" data-name="패스 10" d="M963,288.285h83.578l229.966-153.554L963,127.145Z" transform="translate(-964.344 18.251)" fill="#fdcd81"/>
    </g>
    <g id="그룹_2" data-name="그룹 2" transform="matrix(0.259, 0.966, -0.966, 0.259, 736.386, -119.602)" opacity="0.2">
      <path id="패스_11" data-name="패스 11" d="M2.438.457s7.68-1.829,10.972,1.829c0,0,2.926-3.292,6.949,0,0,0,4.389,3.292,0,8.412,0,0,4.306,8.778-1.545,10.606,0,0-.343.328-8.329,0,0,0-2.926,2.56-8.046,0,0,0-5.486-6.583,0-10.606C2.438,10.7-2.682,7.406,2.438.457Z" transform="translate(0)" fill="#fbc204" stroke="#000" stroke-width="1"/>
      <g id="타원_1" data-name="타원 1" transform="translate(6.328 6.616)" fill="#fec00f" stroke="#000" stroke-width="1">
        <circle cx="4.89" cy="4.89" r="4.89" stroke="none"/>
        <circle cx="4.89" cy="4.89" r="4.39" fill="none"/>
      </g>
    </g>
    <g id="그룹_5" data-name="그룹 5" transform="matrix(0.259, 0.966, -0.966, 0.259, 903.583, -119.602)" opacity="0.2">
      <path id="패스_11-2" data-name="패스 11" d="M2.438.457s7.68-1.829,10.972,1.829c0,0,2.926-3.292,6.949,0,0,0,4.389,3.292,0,8.412,0,0,4.306,8.778-1.545,10.606,0,0-.343.328-8.329,0,0,0-2.926,2.56-8.046,0,0,0-5.486-6.583,0-10.606C2.438,10.7-2.682,7.406,2.438.457Z" transform="translate(0)" fill="#fbc204" stroke="#000" stroke-width="1"/>
      <g id="타원_1-2" data-name="타원 1" transform="translate(6.328 6.616)" fill="#fec00f" stroke="#000" stroke-width="1">
        <circle cx="4.89" cy="4.89" r="4.89" stroke="none"/>
        <circle cx="4.89" cy="4.89" r="4.39" fill="none"/>
      </g>
    </g>
    <g id="그룹_3" data-name="그룹 3" transform="translate(548.251 -203.162) rotate(45)">
      <path id="패스_11-3" data-name="패스 11" d="M3.29.617S13.654-1.851,18.1,3.084c0,0,3.948-4.442,9.377,0,0,0,5.923,4.442,0,11.351,0,0,5.811,11.845-2.085,14.312,0,0-.462.442-11.24,0,0,0-3.948,3.455-10.857,0,0,0-7.4-8.883,0-14.312C3.29,14.435-3.619,9.994,3.29.617Z" transform="translate(0 0)" fill="#fbc204" stroke="#000" stroke-width="1"/>
      <g id="타원_1-3" data-name="타원 1" transform="translate(8.539 8.928)" fill="#fec00f" stroke="#000" stroke-width="1">
        <circle cx="6.599" cy="6.599" r="6.599" stroke="none"/>
        <circle cx="6.599" cy="6.599" r="6.099" fill="none"/>
      </g>
    </g>
    <g id="그룹_6" data-name="그룹 6" transform="translate(1063.178 -78.127) rotate(45)">
      <path id="패스_11-4" data-name="패스 11" d="M3.29.617S13.654-1.851,18.1,3.084c0,0,3.948-4.442,9.377,0,0,0,5.923,4.442,0,11.351,0,0,5.811,11.845-2.085,14.312,0,0-.462.442-11.24,0,0,0-3.948,3.455-10.857,0,0,0-7.4-8.883,0-14.312C3.29,14.435-3.619,9.994,3.29.617Z" transform="translate(0 0)" fill="#fbc204" stroke="#000" stroke-width="1"/>
      <g id="타원_1-4" data-name="타원 1" transform="translate(8.539 8.928)" fill="#fec00f" stroke="#000" stroke-width="1">
        <circle cx="6.599" cy="6.599" r="6.599" stroke="none"/>
        <circle cx="6.599" cy="6.599" r="6.099" fill="none"/>
      </g>
    </g>
    <g id="그룹_1" data-name="그룹 1" transform="translate(869.203 30.746)" opacity="0.5">
      <path id="패스_12" data-name="패스 12" d="M1592.935,242.573s8.746-2.082,12.495,2.082c0,0,3.332-3.748,7.914,0,0,0,5,3.748,0,9.579,0,0,4.9,10-1.76,12.078,0,0-.39.373-9.485,0,0,0-3.332,2.915-9.163,0,0,0-6.248-7.5,0-12.078C1592.935,254.234,1587.1,250.486,1592.935,242.573Z" transform="translate(-1590.158 -242.052)" fill="#fbc204" stroke="#000" stroke-width="1"/>
      <g id="타원_2" data-name="타원 2" transform="translate(7.207 7.534)" fill="#fec00f" stroke="#000" stroke-width="1">
        <circle cx="5.569" cy="5.569" r="5.569" stroke="none"/>
        <circle cx="5.569" cy="5.569" r="5.069" fill="none"/>
      </g>
    </g>
    <g id="그룹_7" data-name="그룹 7" transform="translate(1041.765 -194.589)" opacity="0.5">
      <path id="패스_12-2" data-name="패스 12" d="M1592.935,242.573s8.746-2.082,12.495,2.082c0,0,3.332-3.748,7.914,0,0,0,5,3.748,0,9.579,0,0,4.9,10-1.76,12.078,0,0-.39.373-9.485,0,0,0-3.332,2.915-9.163,0,0,0-6.248-7.5,0-12.078C1592.935,254.234,1587.1,250.486,1592.935,242.573Z" transform="translate(-1590.158 -242.052)" fill="#fbc204" stroke="#000" stroke-width="1"/>
      <g id="타원_2-2" data-name="타원 2" transform="translate(7.207 7.534)" fill="#fec00f" stroke="#000" stroke-width="1">
        <circle cx="5.569" cy="5.569" r="5.569" stroke="none"/>
        <circle cx="5.569" cy="5.569" r="5.069" fill="none"/>
      </g>
    </g>
    <g id="그룹_4" data-name="그룹 4" transform="translate(569.539 5.189)" opacity="0.5">
      <path id="패스_12-3" data-name="패스 12" d="M1592.935,242.573s8.746-2.082,12.495,2.082c0,0,3.332-3.748,7.914,0,0,0,5,3.748,0,9.579,0,0,4.9,10-1.76,12.078,0,0-.39.373-9.485,0,0,0-3.332,2.915-9.163,0,0,0-6.248-7.5,0-12.078C1592.935,254.234,1587.1,250.486,1592.935,242.573Z" transform="translate(-1590.158 -242.052)" fill="#fbc204" stroke="#000" stroke-width="1"/>
      <g id="타원_2-3" data-name="타원 2" transform="translate(7.207 7.534)" fill="#fec00f" stroke="#000" stroke-width="1">
        <circle cx="5.569" cy="5.569" r="5.569" stroke="none"/>
        <circle cx="5.569" cy="5.569" r="5.069" fill="none"/>
      </g>
    </g>
  </g>
</svg>
