<svg xmlns="http://www.w3.org/2000/svg" width="62" height="62" viewBox="0 0 62 62">
  <g id="그룹_102" data-name="그룹 102" transform="translate(-14991.292 -5642)">
    <circle id="타원_19" data-name="타원 19" cx="31" cy="31" r="31" transform="translate(14991.291 5642)" fill="#fff"/>
    <path id="합치기_60" data-name="합치기 60" d="M15.12,31.489.46,17.25a1.5,1.5,0,0,1-.446-1.282A1.5,1.5,0,0,1,.46,14.686L15.12.447a1.6,1.6,0,0,1,2.221,0,1.494,1.494,0,0,1,0,2.157L3.583,15.968,17.342,29.332a1.5,1.5,0,0,1,0,2.157,1.6,1.6,0,0,1-2.221,0Z" transform="translate(15010.624 5656.658)" fill="#12233f"/>
  </g>
</svg>
