<svg xmlns="http://www.w3.org/2000/svg" xmlns:xlink="http://www.w3.org/1999/xlink" width="338" height="338" viewBox="0 0 338 338">
  <defs>
    <filter id="타원_9" x="0" y="0" width="338" height="338" filterUnits="userSpaceOnUse">
      <feOffset dy="3" input="SourceAlpha"/>
      <feGaussianBlur stdDeviation="3" result="blur"/>
      <feFlood flood-opacity="0.161"/>
      <feComposite operator="in" in2="blur"/>
      <feComposite in="SourceGraphic"/>
    </filter>
  </defs>
  <g id="그룹_58" data-name="그룹 58" transform="translate(-19468 -3264)">
    <g transform="matrix(1, 0, 0, 1, 19468, 3264)" filter="url(#타원_9)">
      <circle id="타원_9-2" data-name="타원 9" cx="160" cy="160" r="160" transform="translate(9 6)" fill="#e3e3e3"/>
    </g>
    <g id="합치기_3" data-name="합치기 3" transform="translate(19567.93 3360.93)" fill="#040404">
      <path d="M 118.6245040893555 130.5991821289063 C 115.4259872436523 130.5991821289063 112.4188995361328 129.3535919189453 110.1571502685547 127.0918502807617 L 69.42405700683594 86.35875701904297 L 69.07050323486328 86.00520324707031 L 68.71694946289063 86.35875701904297 L 27.98385238647461 127.0918502807617 C 25.72212028503418 129.3535919189453 22.71501922607422 130.5991821289063 19.51650238037109 130.5991821289063 C 16.3179874420166 130.5991821289063 13.31088638305664 129.3535919189453 11.04915332794189 127.0918502807617 C 8.787420272827148 124.8301162719727 7.541820049285889 121.8229827880859 7.541836738586426 118.6243896484375 C 7.541836738586426 115.4257888793945 8.787436485290527 112.4184036254883 11.04918670654297 110.1562194824219 L 51.78180313110352 69.42360687255859 L 52.13535308837891 69.07005310058594 L 51.78180313110352 68.71650695800781 L 11.04915332794189 27.98385238647461 C 8.787420272827148 25.72212028503418 7.541820049285889 22.71501922607422 7.541836738586426 19.51650238037109 C 7.541820049285889 16.3179874420166 8.787420272827148 13.31088638305664 11.04915332794189 11.04915332794189 C 13.31074810028076 8.787557601928711 16.31830787658691 7.541836738586426 19.51688957214355 7.541836738586426 C 19.5170841217041 7.541836738586426 19.51675796508789 7.541836738586426 19.51695251464844 7.541836738586426 C 22.71575355529785 7.541820049285889 25.72302055358887 8.787420272827148 27.9847526550293 11.04915332794189 L 68.71676635742188 51.78153610229492 L 69.07032012939453 52.13510513305664 L 69.42386627197266 51.78153610229492 L 110.15625 11.04915332794189 C 112.4178466796875 8.787557601928711 115.425407409668 7.541836738586426 118.6239852905273 7.541836738586426 C 118.6241836547852 7.541836738586426 118.6238555908203 7.541836738586426 118.6240539550781 7.541836738586426 C 121.8228530883789 7.541820049285889 124.8301162719727 8.787420272827148 127.0918502807617 11.04915332794189 C 129.3535919189453 13.31088638305664 130.5991821289063 16.3179874420166 130.5991821289063 19.51650238037109 C 130.5991821289063 22.71501922607422 129.3535919189453 25.72212028503418 127.0918502807617 27.98385238647461 L 86.35894012451172 68.71676635742188 L 86.00538635253906 69.07032012939453 L 86.35894012451172 69.42386627197266 L 127.0918502807617 110.1571502685547 C 129.3535919189453 112.4188842773438 130.5991821289063 115.4259872436523 130.5991821289063 118.6245040893555 C 130.5991821289063 121.8230209350586 129.3535919189453 124.8301162719727 127.0918502807617 127.0918502807617 C 124.8301010131836 129.3535919189453 121.8230209350586 130.5991821289063 118.6245040893555 130.5991821289063 Z" stroke="none"/>
      <path d="M 118.6245040893555 130.0991821289063 C 121.689453125 130.0991821289063 124.5709838867188 128.9056091308594 126.7383041381836 126.7383041381836 C 128.9055938720703 124.5710067749023 130.0991821289063 121.6894683837891 130.0991821289063 118.6245040893555 C 130.0991821289063 115.5595397949219 128.9055938720703 112.6780014038086 126.7382888793945 110.5107040405273 L 86.00537109375 69.77742004394531 L 85.29827117919922 69.07032012939453 L 86.00538635253906 68.36322021484375 L 126.7383041381836 27.63030242919922 C 128.9055938720703 25.46300315856934 130.0991821289063 22.58147048950195 130.0991821289063 19.51650238037109 C 130.0991821289063 16.45153617858887 128.9055938720703 13.57000350952148 126.7383041381836 11.40270328521729 C 124.5710067749023 9.235420227050781 121.6893005371094 8.041836738586426 118.6240539550781 8.041836738586426 C 115.5587997436523 8.041836738586426 112.6771011352539 9.235420227050781 110.5098037719727 11.40270328521729 L 69.77742004394531 52.13508605957031 L 69.07032012939453 52.84220504760742 L 68.36320495605469 52.13508605957031 L 27.63120269775391 11.40270328521729 C 25.46390342712402 9.235420227050781 22.58220291137695 8.041836738586426 19.51695251464844 8.041836738586426 C 16.45170402526855 8.041836738586426 13.57000350952148 9.235420227050781 11.40270328521729 11.40270328521729 C 9.235420227050781 13.57000350952148 8.041836738586426 16.45153617858887 8.041836738586426 19.51650238037109 C 8.041836738586426 22.58147048950195 9.235420227050781 25.46300315856934 11.40270328521729 27.63030242919922 L 52.13535308837891 68.36295318603516 L 52.84246826171875 69.07005310058594 L 52.13535308837891 69.77715301513672 L 11.40277004241943 110.5097351074219 C 9.23543643951416 112.677490234375 8.041836738586426 115.5593185424805 8.041836738586426 118.6243896484375 C 8.041836738586426 121.6894226074219 9.235420227050781 124.5710067749023 11.40270328521729 126.7383041381836 C 13.57001972198486 128.9056091308594 16.45155334472656 130.0991821289063 19.51650238037109 130.0991821289063 C 22.58145332336426 130.0991821289063 25.46298599243164 128.9056091308594 27.63030242919922 126.7383041381836 L 68.3634033203125 86.00520324707031 L 69.07050323486328 85.29808807373047 L 69.77760314941406 86.00520324707031 L 110.5107040405273 126.7383041381836 C 112.6780166625977 128.9056091308594 115.5595550537109 130.0991821289063 118.6245040893555 130.0991821289063 M 118.6245040893555 131.0991821289063 C 115.4319839477539 131.0991821289063 112.2394561767578 129.8812561035156 109.8036041259766 127.4454040527344 L 69.07050323486328 86.71230316162109 L 28.33740234375 127.4454040527344 C 25.90155410766602 129.8812561035156 22.70902824401855 131.0991821289063 19.51650238037109 131.0991821289063 C 16.32397842407227 131.0991821289063 13.13145351409912 129.8812561035156 10.6956033706665 127.4454040527344 C 5.82390308380127 122.5736999511719 5.82390308380127 114.6753005981445 10.6956033706665 109.8027038574219 L 51.42825317382813 69.07005310058594 L 10.6956033706665 28.33740234375 C 5.82390308380127 23.4657039642334 5.82390308380127 15.56730365753174 10.6956033706665 10.6956033706665 C 13.13145351409912 8.259753227233887 16.32420349121094 7.041828155517578 19.51695251464844 7.041828155517578 C 22.70970344543457 7.041828155517578 25.90245246887207 8.259753227233887 28.33830261230469 10.6956033706665 L 69.07032012939453 51.42798614501953 L 109.8027038574219 10.6956033706665 C 112.2385559082031 8.259753227233887 115.4313049316406 7.041828155517578 118.6240539550781 7.041828155517578 C 121.8168029785156 7.041828155517578 125.0095520019531 8.259753227233887 127.4454040527344 10.6956033706665 C 132.3171081542969 15.56730365753174 132.3171081542969 23.4657039642334 127.4454040527344 28.33740234375 L 86.71248626708984 69.07032012939453 L 127.4454040527344 109.8036041259766 C 132.3171081542969 114.6753005981445 132.3171081542969 122.5736999511719 127.4454040527344 127.4454040527344 C 125.0095520019531 129.8812561035156 121.8170166015625 131.0991821289063 118.6245040893555 131.0991821289063 Z" stroke="none" fill="#707070"/>
    </g>
  </g>
</svg>
