<svg xmlns="http://www.w3.org/2000/svg" width="17.639" height="15.721" viewBox="0 0 17.639 15.721">
  <g id="그룹_60" data-name="그룹 60" transform="translate(20352.596 3803.089) rotate(180)" opacity="0.5">
    <path id="합치기_5" data-name="합치기 5" d="M6.827,15.22l-6.6-6.6a1.284,1.284,0,0,1,0-1.8l6.6-6.6A1.25,1.25,0,0,1,8.6,2L2.868,7.726,8.6,13.452A1.25,1.25,0,0,1,6.827,15.22Z" transform="translate(20343.918 3802.954) rotate(180)" fill="#aaaaa5"/>
    <path id="합치기_6" data-name="합치기 6" d="M6.827,15.22l-6.6-6.6a1.284,1.284,0,0,1,0-1.8l6.6-6.6A1.25,1.25,0,0,1,8.6,2L2.868,7.726,8.6,13.452A1.25,1.25,0,0,1,6.827,15.22Z" transform="translate(20352.461 3802.954) rotate(180)" fill="#aaaaa5"/>
  </g>
</svg>
