<svg xmlns="http://www.w3.org/2000/svg" xmlns:xlink="http://www.w3.org/1999/xlink" width="63.235" height="63.235" viewBox="0 0 63.235 63.235">
  <defs>
    <clipPath id="clip-path">
      <rect id="사각형_250" data-name="사각형 250" width="63.235" height="63.235" transform="translate(2936.229 9027.383)" fill="#fff" stroke="#707070" stroke-width="1" opacity="0.5"/>
    </clipPath>
  </defs>
  <g id="마스크_그룹_53" data-name="마스크 그룹 53" transform="translate(-2936.229 -9027.383)" clip-path="url(#clip-path)">
    <g id="android-character-symbol" transform="translate(2936.229 9027.383)">
      <g id="그룹_356" data-name="그룹 356" transform="translate(0 0)">
        <path id="패스_220" data-name="패스 220" d="M39.139,153.884a2.508,2.508,0,0,0-1.843.757,2.479,2.479,0,0,0-.757,1.817v10.855a2.585,2.585,0,0,0,2.6,2.6,2.466,2.466,0,0,0,1.83-.757,2.529,2.529,0,0,0,.745-1.842V156.459a2.586,2.586,0,0,0-2.575-2.575Z" transform="translate(-36.539 -140.278)" fill="#2f528f"/>
        <path id="패스_221" data-name="패스 221" d="M106.494,176.12a2.757,2.757,0,0,0,2.777,2.776h1.868l.025,5.73a2.508,2.508,0,0,0,.757,1.843,2.478,2.478,0,0,0,1.817.757,2.586,2.586,0,0,0,2.6-2.6V178.9h3.483v5.73a2.6,2.6,0,1,0,5.2,0V178.9h1.894a2.649,2.649,0,0,0,1.943-.807,2.679,2.679,0,0,0,.808-1.969V159.308H106.494Z" transform="translate(-100.309 -145.223)" fill="#2f528f"/>
        <path id="패스_222" data-name="패스 222" d="M122.765,3.862,124.557.555a.332.332,0,0,0-.126-.5.349.349,0,0,0-.5.152l-1.818,3.332a12.671,12.671,0,0,0-10.148,0L110.143.2a.35.35,0,0,0-.5-.152.332.332,0,0,0-.126.5L111.3,3.862a11.057,11.057,0,0,0-4.342,3.875,9.786,9.786,0,0,0-1.616,5.44H128.7a9.785,9.785,0,0,0-1.616-5.44A11.1,11.1,0,0,0,122.765,3.862ZM112.4,8.67a.946.946,0,0,1-.694.29.906.906,0,0,1-.682-.29,1.007,1.007,0,0,1,0-1.388.906.906,0,0,1,.682-.29A.982.982,0,0,1,112.4,8.67Zm10.64,0a.908.908,0,0,1-.682.29.985.985,0,0,1,0-1.969.907.907,0,0,1,.682.29,1.007,1.007,0,0,1,0,1.388Z" transform="translate(-99.263 0.001)" fill="#2f528f"/>
        <path id="패스_223" data-name="패스 223" d="M384.421,154.629a2.53,2.53,0,0,0-1.843-.745,2.5,2.5,0,0,0-1.817.745,2.467,2.467,0,0,0-.758,1.83v10.855a2.508,2.508,0,0,0,.758,1.842,2.477,2.477,0,0,0,1.817.757,2.586,2.586,0,0,0,2.6-2.6V156.459A2.465,2.465,0,0,0,384.421,154.629Z" transform="translate(-349.636 -140.278)" fill="#2f528f"/>
      </g>
    </g>
    <g id="apple" transform="translate(2968 9051.395)">
      <path id="패스_224" data-name="패스 224" d="M56.555,147.769c-5.765-.033-10.533-11.8-10.533-17.794,0-9.79,7.344-11.933,10.174-11.933a11.708,11.708,0,0,1,3.839.944,8.581,8.581,0,0,0,2.192.628,6.822,6.822,0,0,0,1.573-.51,12.6,12.6,0,0,1,4.74-1.146h.011a9.715,9.715,0,0,1,8.13,4.106l.593.891-.853.644a7.181,7.181,0,0,0-3.443,5.921,6.683,6.683,0,0,0,3.729,6.178c.534.321,1.087.653,1.087,1.378,0,.473-3.777,10.634-9.261,10.634a7.447,7.447,0,0,1-3.127-.759,6.342,6.342,0,0,0-2.784-.67,7.159,7.159,0,0,0-2.2.6,10.8,10.8,0,0,1-3.823.892Z" transform="translate(-46.022 -109.034)" fill="#2f528f"/>
      <path id="패스_225" data-name="패스 225" d="M262.431,0c.143,5.15-3.54,8.723-7.219,8.5C254.606,4.389,258.891,0,262.431,0Z" transform="translate(-239.333)" fill="#2f528f"/>
    </g>
  </g>
</svg>
