<svg xmlns="http://www.w3.org/2000/svg" width="110.705" height="105.762" viewBox="0 0 110.705 105.762">
  <g id="exclamation" transform="translate(0 -1.44)">
    <g id="group-14svg" transform="translate(0 1.44)">
      <path id="path-1_4_" d="M105.527,54.94A49.15,49.15,0,1,1,56.377,5.8,49.144,49.144,0,0,1,105.527,54.94Z" transform="translate(5.178 1.685)" fill="#366dce" opacity="0.4"/>
      <path id="path-2_4_" d="M51.725,104.862a51.711,51.711,0,1,1,51.723-51.711A51.776,51.776,0,0,1,51.725,104.862Zm0-98.275A46.563,46.563,0,1,0,98.3,53.151,46.624,46.624,0,0,0,51.725,6.587Z" transform="translate(0 -1.44)"/>
      <path id="path-3_4_" d="M28.52,45.413a11.925,11.925,0,0,0,.827,3.709,3.118,3.118,0,0,0,2.995,1.855,3.2,3.2,0,0,0,3.005-1.866,10.223,10.223,0,0,0,.839-3.664L37.2,33.816a31.847,31.847,0,0,0,.173-3.306,10.685,10.685,0,0,0-.822-4.646,3.984,3.984,0,0,0-3.927-2.157,4.827,4.827,0,0,0-3.685,1.524,5.6,5.6,0,0,0-1.4,3.98q0,1.467.216,4.84Z" transform="translate(19.731 14.51)"/>
      <path id="path-4_4_" d="M28.971,41.857A4.765,4.765,0,0,0,27.545,45.3a4.649,4.649,0,0,0,1.541,3.632,5.064,5.064,0,0,0,3.4,1.258,4.936,4.936,0,0,0,3.376-1.286,4.652,4.652,0,0,0,1.516-3.6,4.724,4.724,0,0,0-1.452-3.452A4.988,4.988,0,0,0,28.971,41.857Z" transform="translate(19.731 26.499)"/>
    </g>
  </g>
</svg>
