<svg xmlns="http://www.w3.org/2000/svg" xmlns:xlink="http://www.w3.org/1999/xlink" width="39" height="39" viewBox="0 0 39 39">
  <defs>
    <clipPath id="clip-path">
      <rect id="사각형_192" data-name="사각형 192" width="39" height="39" transform="translate(3026 8749)" fill="#2f528f" stroke="#707070" stroke-width="1" opacity="0.5"/>
    </clipPath>
  </defs>
  <g id="마스크_그룹_27" data-name="마스크 그룹 27" transform="translate(-3026 -8749)" clip-path="url(#clip-path)">
    <g id="clipboard" transform="translate(2979.012 8748.999)">
      <g id="그룹_306" data-name="그룹 306" transform="translate(51.988 0.001)">
        <g id="그룹_305" data-name="그룹 305" transform="translate(0 0)">
          <path id="패스_167" data-name="패스 167" d="M148.6,2.956h-2.854a.8.8,0,0,1-.751-.6A2.9,2.9,0,0,0,142.043,0a2.953,2.953,0,0,0-2.954,2.4.751.751,0,0,1-.751.551h-2.753V7.963H148.6Z" transform="translate(-127.575 -0.001)" fill="#2f528f"/>
          <path id="패스_168" data-name="패스 168" d="M81.024,92.876V64.191a2.053,2.053,0,0,0-2.047-2.058q-.078,0-.156.005H74.516v2.553c0,.4-.25.951-.651.951H59.1c-.4,0-.6-.551-.6-.951V62.138H54.191a2.052,2.052,0,0,0-2.2,1.9q-.006.078-.005.156V92.876a2.253,2.253,0,0,0,2.2,2.3H78.822a2.253,2.253,0,0,0,2.2-2.3ZM62.451,86.268l-3.9,3.655a.7.7,0,0,1-.5.25.8.8,0,0,1-.551-.25l-2.052-2.1a.762.762,0,0,1,1.1-1.051l1.5,1.6,3.4-3.2a.751.751,0,0,1,1,1.1Zm0-8.01h0l-3.9,3.655a.7.7,0,0,1-.5.25.8.8,0,0,1-.551-.25l-2.052-2.1a.762.762,0,0,1,1.1-1.051l1.5,1.6,3.4-3.2a.751.751,0,0,1,1,1.1Zm0-8.01-3.9,3.655a.7.7,0,0,1-.5.25.8.8,0,0,1-.551-.25l-2.052-2.1a.762.762,0,0,1,1.1-1.051l1.5,1.6,3.4-3.2a.751.751,0,0,1,1,1.1ZM77.019,89.171H65.505a.751.751,0,0,1,0-1.5H77.019a.751.751,0,0,1,0,1.5Zm0-8.01H65.505a.751.751,0,0,1,0-1.5H77.019a.751.751,0,0,1,0,1.5Zm0-8.01H65.505a.751.751,0,0,1,0-1.5H77.019a.751.751,0,0,1,0,1.5Z" transform="translate(-51.988 -56.179)" fill="#2f528f"/>
        </g>
      </g>
    </g>
  </g>
</svg>
