<svg xmlns="http://www.w3.org/2000/svg" xmlns:xlink="http://www.w3.org/1999/xlink" width="39" height="39" viewBox="0 0 39 39">
  <defs>
    <clipPath id="clip-path">
      <rect id="사각형_252" data-name="사각형 252" width="39" height="39" transform="translate(3111 8993)" fill="#fff" stroke="#707070" stroke-width="1" opacity="0.5"/>
    </clipPath>
  </defs>
  <g id="마스크_그룹_51" data-name="마스크 그룹 51" transform="translate(-3111 -8993)" clip-path="url(#clip-path)">
    <g id="device" transform="translate(3088.258 8985)">
      <path id="패스_226" data-name="패스 226" d="M58.282,20.581H52.936V10.2a2.2,2.2,0,0,0-2.2-2.2H26.2A2.2,2.2,0,0,0,24,10.2V44.8A2.2,2.2,0,0,0,26.2,47H58.282a2.2,2.2,0,0,0,2.2-2.2V22.782A2.2,2.2,0,0,0,58.282,20.581Zm-3.637,1.258L54.331,23.1H50.282l-.315-1.258Zm-10.3,21.387c-.521,0-17.826-.108-17.826-.629L26.2,12.4c0-.521,12.356-.629,12.877-.629H50.419c.521,0,0,5.575,0,6.1l.315,2.947.315-.237V12.4a.629.629,0,0,0-.629-.629h-23.9a.629.629,0,0,0-.629.629V42.6a.629.629,0,0,0,.629.629H44.129V44.8a2.182,2.182,0,0,0,.213.944Zm-.213-20.444V41.968H27.145V13.032H49.79v7.548h-3.46A2.2,2.2,0,0,0,44.129,22.782ZM59.226,44.8a.944.944,0,0,1-.944.944H46.331a.944.944,0,0,1-.944-.944V22.782a.944.944,0,0,1,.944-.944H48.67l.51,2.04a.629.629,0,0,0,.61.476h5.032a.629.629,0,0,0,.61-.476l.51-2.04h2.339a.944.944,0,0,1,.944.944Z" fill="#2f528f"/>
      <path id="패스_227" data-name="패스 227" d="M363.145,464h-2.516a.629.629,0,0,0,0,1.258h2.516a.629.629,0,0,0,0-1.258Z" transform="translate(-309.581 -420.145)" fill="#2f528f"/>
      <path id="패스_228" data-name="패스 228" d="M168.629,33.258h5.032a.629.629,0,1,0,0-1.258h-5.032a.629.629,0,0,0,0,1.258Z" transform="translate(-132.677 -22.113)" fill="#fff"/>
      <path id="패스_229" data-name="패스 229" d="M193.887,464h-1.258a.629.629,0,1,0,0,1.258h1.258a.629.629,0,1,0,0-1.258Z" transform="translate(-154.79 -420.145)" fill="#fff"/>
    </g>
  </g>
</svg>
