<svg xmlns="http://www.w3.org/2000/svg" width="39.97" height="39.97" viewBox="0 0 39.97 39.97">
  <path id="instagram-square-brands" d="M19.985,47.226a4.759,4.759,0,1,0,4.761,4.759A4.759,4.759,0,0,0,19.985,47.226Zm11.126-3.658A4.818,4.818,0,0,0,28.4,40.855c-1.874-.74-6.334-.574-8.413-.574s-6.535-.172-8.414.574a4.818,4.818,0,0,0-2.713,2.713c-.739,1.874-.574,6.339-.574,8.416s-.165,6.537.577,8.417a4.818,4.818,0,0,0,2.713,2.713c1.874.74,6.334.574,8.414.574s6.534.172,8.413-.574A4.818,4.818,0,0,0,31.115,60.4c.745-1.874.574-6.339.574-8.416s.171-6.536-.574-8.416ZM19.985,59.3a7.307,7.307,0,1,1,5.176-2.14,7.316,7.316,0,0,1-5.176,2.14ZM27.6,46.07a1.7,1.7,0,1,1,1.21-.5,1.708,1.708,0,0,1-1.21.5ZM35.687,32H4.282A4.282,4.282,0,0,0,0,36.282v31.4A4.282,4.282,0,0,0,4.282,71.97h31.4a4.282,4.282,0,0,0,4.282-4.282v-31.4A4.282,4.282,0,0,0,35.687,32ZM34.16,57.873a8.489,8.489,0,0,1-2.306,5.978,8.493,8.493,0,0,1-5.978,2.306c-2.356.133-9.421.133-11.777,0a8.5,8.5,0,0,1-5.978-2.306,8.463,8.463,0,0,1-2.306-5.978c-.133-2.357-.133-9.422,0-11.777a8.462,8.462,0,0,1,2.306-5.978,8.509,8.509,0,0,1,5.978-2.3c2.356-.133,9.421-.133,11.777,0a8.494,8.494,0,0,1,5.978,2.306,8.494,8.494,0,0,1,2.306,5.982C34.293,48.455,34.293,55.514,34.16,57.873Z" transform="translate(0 -32)" fill="#a0c1fb"/>
</svg>
