<svg xmlns="http://www.w3.org/2000/svg" width="55" height="55" viewBox="0 0 55 55">
  <g id="그룹_31" data-name="그룹 31" transform="translate(-1066 -4641)">
    <circle id="타원_5" data-name="타원 5" cx="27.5" cy="27.5" r="27.5" transform="translate(1066 4641)" fill="#1f6ddb"/>
    <g id="envelope" transform="translate(1078.117 4592.796)">
      <g id="그룹_25" data-name="그룹 25" transform="translate(0 64)">
        <g id="그룹_24" data-name="그룹 24" transform="translate(0 0)">
          <path id="패스_25" data-name="패스 25" d="M7.144,65.9c4.284,3.628,11.8,10.01,14.009,12a1.305,1.305,0,0,0,1.888,0c2.211-1.992,9.727-8.375,14.011-12a.65.65,0,0,0,.091-.9A2.582,2.582,0,0,0,35.1,64H9.093a2.582,2.582,0,0,0-2.041,1A.65.65,0,0,0,7.144,65.9Z" transform="translate(-6.492 -64)" fill="#fff"/>
          <path id="패스_26" data-name="패스 26" d="M30.834,126.472a.647.647,0,0,0-.693.094c-4.75,4.027-10.813,9.189-12.721,10.908a2.633,2.633,0,0,1-3.63,0c-2.033-1.832-8.842-7.62-12.719-10.907a.65.65,0,0,0-1.071.5v16.352a2.6,2.6,0,0,0,2.6,2.6H28.61a2.6,2.6,0,0,0,2.6-2.6V127.062A.65.65,0,0,0,30.834,126.472Z" transform="translate(0 -122.607)" fill="#fff"/>
        </g>
      </g>
    </g>
  </g>
</svg>
