<svg xmlns="http://www.w3.org/2000/svg" width="55" height="55" viewBox="0 0 55 55">
  <g id="그룹_32" data-name="그룹 32" transform="translate(-1066 -4761)">
    <circle id="타원_4" data-name="타원 4" cx="27.5" cy="27.5" r="27.5" transform="translate(1066 4761)" fill="#1f6ddb"/>
    <path id="패스_24" data-name="패스 24" d="M36.638,0A12.652,12.652,0,0,0,24,12.638c0,8.9,11.169,20.176,11.645,20.651a1.418,1.418,0,0,0,1.986,0c.475-.475,11.645-11.747,11.645-20.651A12.652,12.652,0,0,0,36.638,0Zm0,21.063a8.425,8.425,0,1,1,8.425-8.425A8.425,8.425,0,0,1,36.638,21.063Z" transform="translate(1057.085 4771.274)" fill="#fff"/>
  </g>
</svg>
