<svg xmlns="http://www.w3.org/2000/svg" xmlns:xlink="http://www.w3.org/1999/xlink" width="37" height="37" viewBox="0 0 37 37">
  <defs>
    <clipPath id="clip-path">
      <rect id="사각형_64" data-name="사각형 64" width="37" height="37" transform="translate(3483 -2667)" fill="none" stroke="#707070" stroke-width="1" opacity="0.5"/>
    </clipPath>
  </defs>
  <g id="마스크_그룹_24" data-name="마스크 그룹 24" transform="translate(-3483 2667)" clip-path="url(#clip-path)">
    <path id="unlock-alt-solid" d="M27.764,17.849H10.549V10.693a5,5,0,1,1,10-.062v1.11a1.662,1.662,0,0,0,1.666,1.666h2.22A1.662,1.662,0,0,0,26.1,11.741V10.63a10.55,10.55,0,1,0-21.1.1v7.115H3.332A3.332,3.332,0,0,0,0,21.18V32.286a3.332,3.332,0,0,0,3.331,3.332H27.764A3.332,3.332,0,0,0,31.1,32.287V21.18a3.332,3.332,0,0,0-3.331-3.332ZM18.324,28.4a2.776,2.776,0,1,1-5.553,0V25.067a2.776,2.776,0,1,1,5.553,0Z" transform="translate(3486.116 -2666.396)" fill="#dedede"/>
  </g>
</svg>
