<svg xmlns="http://www.w3.org/2000/svg" xmlns:xlink="http://www.w3.org/1999/xlink" width="95" height="95" viewBox="0 0 95 95">
  <defs>
    <clipPath id="clip-path">
      <rect id="사각형_68" data-name="사각형 68" width="95" height="95" transform="translate(2786 -1698)" fill="none" stroke="#707070" stroke-width="1"/>
    </clipPath>
  </defs>
  <g id="마스크_그룹_29" data-name="마스크 그룹 29" transform="translate(-2786 1698)" clip-path="url(#clip-path)">
    <path id="head" d="M60.822,50.087a22.5,22.5,0,0,0,6.892-16.229V22.572a22.572,22.572,0,1,0-45.144,0V33.858a22.5,22.5,0,0,0,6.892,16.225C12.263,52.762,0,59.71,0,67.8v7.437A11.285,11.285,0,0,0,11.285,86.525H79A11.282,11.282,0,0,0,90.286,75.239V67.832C90.286,59.74,78.026,52.773,60.822,50.087ZM30.095,33.858V22.572a15.048,15.048,0,0,1,30.1,0V33.858a15.048,15.048,0,0,1-30.1,0ZM82.762,75.239A3.765,3.765,0,0,1,79,79H11.285a3.768,3.768,0,0,1-3.762-3.762V67.8c0-.877,2.171-3.706,8.607-6.407,7.528-3.156,18.106-4.966,29.012-4.966s21.477,1.813,29,4.977c6.444,2.709,8.615,5.545,8.615,6.425Z" transform="translate(2788.001 -1694)" fill="#c7c7c7" fill-rule="evenodd"/>
  </g>
</svg>
