<svg xmlns="http://www.w3.org/2000/svg" xmlns:xlink="http://www.w3.org/1999/xlink" width="95" height="95" viewBox="0 0 95 95">
  <defs>
    <clipPath id="clip-path">
      <rect id="사각형_67" data-name="사각형 67" width="95" height="95" transform="translate(2674 -1699)" fill="none" stroke="#707070" stroke-width="1"/>
    </clipPath>
  </defs>
  <g id="마스크_그룹_28" data-name="마스크 그룹 28" transform="translate(-2674 1699)" clip-path="url(#clip-path)">
    <path id="clipboard" d="M64.228,8.564H59.2A12.84,12.84,0,0,0,47.1,0H29.973a12.838,12.838,0,0,0-12.1,8.564H12.845A12.842,12.842,0,0,0,0,21.41V81.357A12.845,12.845,0,0,0,12.845,94.2H64.228A12.842,12.842,0,0,0,77.074,81.357V21.41A12.84,12.84,0,0,0,64.228,8.564Zm-34.256,0H47.1a4.282,4.282,0,1,1,0,8.564H29.973a4.282,4.282,0,0,1,0-8.564ZM68.51,81.357a4.281,4.281,0,0,1-4.282,4.282H12.845a4.284,4.284,0,0,1-4.282-4.282V21.41a4.281,4.281,0,0,1,4.282-4.282h5.031a12.84,12.84,0,0,0,12.1,8.564H47.1a12.846,12.846,0,0,0,12.1-8.564h5.027A4.278,4.278,0,0,1,68.51,21.41Z" transform="translate(2683.001 -1698)" fill="#c7c7c7" fill-rule="evenodd"/>
  </g>
</svg>
