<svg xmlns="http://www.w3.org/2000/svg" width="44" height="44" fill="none" viewBox="0 0 44 44">
    <rect width="43" height="43" x=".5" y=".5" stroke="#E0E0E0" rx="15.5"/>
    <path fill="#CA1E24" d="M36.068 18.647h.825c.054 0 .097-.04.097-.09v-1.465c0-.05-.043-.092-.097-.092h-1.158c-1.338 0-2.05.403-2.455 1.261l-2.519 5.806c-.153.346-.373.511-.807.511v-7.486c0-.05-.044-.092-.098-.092h-1.85c-.054 0-.099.041-.099.092v8.97c0 .09.079.162.173.162h2.074c1.338 0 1.951-.405 2.358-1.258l2.484-5.734c.201-.407.488-.585 1.072-.585zM13.451 21.615c.742-.29 1.359-.945 1.359-2.024-.002-1.612-1.472-2.59-3.242-2.59h-5.47c-.055 0-.098.041-.098.092v1.463c0 .051.043.09.097.09h5.092c.823 0 1.377.474 1.377 1.055 0 .583-.554 1.055-1.377 1.055H8.164V19.67c0-.05-.043-.091-.097-.091h-1.97c-.054.002-.097.04-.097.091v6.464c0 .05.043.092.097.092h5.392c2.014 0 3.457-.885 3.457-2.69.002-.884-.554-1.619-1.495-1.92zm-2.157 3.004h-3.13v-2.163h3.13c.843 0 1.413.484 1.413 1.082 0 .597-.57 1.08-1.413 1.08zM37.981 26.119l-3.172-3.82c-.01-.01-.023-.009-.028.004l-.855 1.966c-.004.013-.004.026.006.036l1.386 1.75c.098.12.209.169.375.169h2.236c.066 0 .092-.059.052-.105zM18.422 19.578h-1.854c-.054 0-.097.041-.097.092v6.463c0 .05.043.092.097.092h1.854c.054 0 .097-.041.097-.092v-6.465c0-.049-.043-.09-.097-.09z"/>
    <path fill="#CA1E24" d="M26.043 17h-1.851c-.053 0-.098.041-.098.092v7.485c-.435 0-.654-.165-.806-.512l-2.52-5.804C20.363 17.403 19.653 17 18.315 17h-1.747c-.054 0-.097.041-.097.092v1.463c0 .051.043.09.097.09h1.411c.585 0 .87.178 1.07.587l2.485 5.734c.405.855 1.018 1.258 2.356 1.258h2.076c.096 0 .17-.073.17-.161v-8.971c.003-.05-.04-.092-.093-.092z"/>
</svg>
