<svg xmlns="http://www.w3.org/2000/svg" width="44" height="44" fill="none" viewBox="0 0 44 44">
    <rect width="43" height="43" x=".5" y=".5" stroke="#E0E0E0" rx="15.5"/>
    <g clip-path="url(#clip0)">
        <path fill="#E50013" fill-rule="evenodd" d="M33.455 17.656c-2.058-2.918-5.478-4.657-8.956-4.657-3.478 0-6.9 1.74-8.955 4.657l-.104.15h2.593l.028-.03c1.765-1.825 4.068-2.786 6.438-2.786s4.673.961 6.442 2.785l.029.031h2.59l-.105-.15z" clip-rule="evenodd"/>
        <path fill="#004286" d="M14.41 27.36l-.048.05c-.798.81-1.719 1.24-2.668 1.24-1.981 0-3.42-1.486-3.42-3.536 0-2.048 1.439-3.537 3.42-3.537.949 0 1.872.432 2.668 1.244l.048.05 1.274-1.543-.033-.04c-1.061-1.254-2.333-1.862-3.896-1.862-1.57 0-3.002.527-4.037 1.48-1.123 1.03-1.717 2.483-1.717 4.206 0 1.72.594 3.178 1.717 4.21 1.033.956 2.467 1.481 4.037 1.481 1.563 0 2.837-.61 3.896-1.862l.033-.038-1.274-1.543zM19.223 19.6h-2.25v10.992h2.25V19.601zM28.044 28.203c-.599.366-1.16.55-1.662.55-.728 0-1.057-.384-1.057-1.24v-5.832h2.295v-2.07h-2.295v-3.422l-2.207 1.183v2.239h-1.903v2.07h1.904v6.204c0 1.69 1.002 2.846 2.497 2.875 1.015.02 1.627-.28 1.998-.503l.022-.015.543-2.118-.135.08zM32.16 19.6h-2.252v10.992h2.252V19.601zM37.04 18.235c0 .57-.434 1.004-1.003 1.004-.57 0-1.004-.434-1.004-1.004 0-.57.436-1.006 1.004-1.006.571.002 1.003.436 1.003 1.006zm.193 0c0-.678-.516-1.197-1.196-1.197-.68 0-1.197.518-1.197 1.197 0 .678.518 1.197 1.197 1.197.68 0 1.196-.519 1.196-1.197zm-.648-.281c0-.273-.195-.394-.427-.394h-.574v1.305h.223v-.503h.252l.255.503h.261l-.268-.527c.167-.05.277-.18.277-.384zm-.227.005c0 .13-.09.186-.21.186h-.345v-.372h.346c.121 0 .21.065.21.186z"/>
    </g>
    <defs>
        <clipPath id="clip0">
            <path fill="#fff" d="M0 0H31.234V17.803H0z" transform="translate(6 13)"/>
        </clipPath>
    </defs>
</svg>
