<svg xmlns="http://www.w3.org/2000/svg" width="44" height="44" fill="none" viewBox="0 0 44 44">
    <rect width="43" height="43" x=".5" y=".5" stroke="#E0E0E0" rx="15.5"/>
    <path fill="#fff" d="M21.658 11C11.618 11 5 16.27 5 22.771c0 6.502 6.617 11.772 16.658 11.772 10.043 0 16.662-5.27 16.662-11.771C38.32 16.27 31.7 11 21.658 11z"/>
    <path fill="#0075C1" d="M24.627 27.171c2.86-.497 12.518-2.482 11.328-7.996-.43-1.976-2.462-4.152-5.529-5.663-2.451-1.104-5.445-1.744-8.807-1.744-9.323 0-15.804 4.927-15.804 11.003 0 4.232 3.147 7.908 8.208 9.748 1.072-2.826 5.347-4.437 10.604-5.348z"/>
    <path fill="url(#paint0_linear)" d="M21.681 29.12c-4.18.525-6.1 1.874-7.33 3.514 2.13.73 4.581 1.14 7.271 1.14 9.323 0 15.806-4.924 15.806-11 0-.54-.052-1.069-.152-1.587-.312 7.133-11.022 7.365-15.595 7.933z"/>
    <path fill="#fff" d="M12.624 17.026H9.498l.036.091c.139.336.13.952.12 1.497-.004.127-.004 7.217-.004 7.217l.062.002c.013.003 1.424.053 2.76.053 2.791 0 4.67-1.893 4.67-4.71 0-2.523-1.774-4.15-4.518-4.15zm-1.633.786c.179-.016.731-.054 1.13-.054 2.388 0 3.501 1.156 3.501 3.641 0 2.567-.99 3.816-3.023 3.816-1.488 0-1.608-.072-1.608-.953v-6.45zM25.536 25.77c-.046-.515-.066-.87-.066-1.172v-3.082h-1.486l.048.095c.002.002.152.297.152.945 0 .023.005 2.142-.055 2.644-.358.093-.838.125-1.149.125-2.356 0-3.553-1.354-3.553-4.018 0-2.036 1.347-3.556 3.274-3.694 1.013-.073 1.99.204 2.603.738l.107.093v-1.247l-.053-.009c-.61-.118-1.33-.24-2.033-.24-3.393 0-5.42 1.785-5.42 4.776 0 3.185 2.474 4.321 4.791 4.321.981 0 1.997-.073 2.785-.202l.06-.012-.005-.06zM30.835 20.995c.85-.225 1.66-.974 1.66-2.067 0-1.193-1.074-1.904-2.875-1.904h-2.674l.018.08c.003.005.08.354.08 1.165v7.633l.066-.002c.011 0 1.052-.02 2.34-.02 2.248 0 3.537-.978 3.537-2.68 0-1.049-.87-1.93-2.152-2.205zm-2.458.43h.689c1.594 0 2.4.624 2.4 1.858 0 1.301-.694 1.935-2.125 1.935-.693 0-.966-.25-.966-.893v-2.9h.002zm.005-3.708h.872c1.377 0 1.96.416 1.96 1.39 0 1.109-.722 1.627-2.269 1.627h-.57l.007-3.017z"/>
    <defs>
        <linearGradient id="paint0_linear" x1="13.954" x2="37.599" y1="27.479" y2="27.479" gradientUnits="userSpaceOnUse">
            <stop offset=".1" stop-color="#0075C1"/>
            <stop offset=".235" stop-color="#007BC7"/>
            <stop offset=".4" stop-color="#008BD5"/>
            <stop offset=".75" stop-color="#00AB95"/>
            <stop offset="1" stop-color="#6FB92C"/>
        </linearGradient>
    </defs>
</svg>
