<svg xmlns="http://www.w3.org/2000/svg" width="44" height="44" fill="none" viewBox="0 0 44 44">
    <rect width="43" height="43" x=".5" y=".5" stroke="#E0E0E0" rx="15.5"/>
    <path fill="#008375" d="M26.636 25.165c-.07-.416-.183-.819-.35-1.193-.526-1.136-1.26-2.091-2.362-2.734-1.708-1-3.775-.99-5.468.035-.766.462-1.396 1.13-1.8 1.929-.137.27-.25.554-.342.845-.447 1.418-.43 3.322.374 4.616.262.423.64.782 1.105.964.465.179 1.013.161 1.431-.112.54-.346.634-1.01.535-1.6-.128-.751-.222-1.495.053-2.232.09-.236.216-.463.396-.637.11-.105.24-.191.379-.257.29-.143.625-.207.944-.154.562.092 1.02.526 1.268 1.037.249.508.317 1.087.343 1.653.117 2.47-.47 5.028-1.1 7.399-.064.246-.132.486-.2.73-.055.187-.15.427-.031.61.05.077.132.132.22.167.365.148.665-.077.909-.323 1.448-1.458 2.377-3.335 3.011-5.268.238-.72.44-1.457.58-2.204.18-1.025.288-2.194.105-3.27zM37 13.75c0-.37-.328-.614-.682-.603-.357.013-.69.196-1.017.323-6.369 2.422-13.55 2.88-20.262 1.913-1.149-.167-2.311-.396-3.467-.578-.722-.113-1.437-.276-2.164-.33-.62-.047-1.393-.071-1.895.36-.663.573-.616 1.656-.24 2.373.451.859 1.24 1.502 2.06 1.995.797.473 1.75.982 2.702.922 2.564-.163 5.122-.412 7.671-.742 4.348-.566 8.907-1.098 12.988-2.784 1.336-.553 2.653-1.24 3.795-2.13.212-.158.511-.42.511-.719z"/>
    <path fill="#D50037" d="M18.736 11.567c0 1.382 1.122 2.503 2.507 2.503 1.382 0 2.505-1.12 2.505-2.503 0-.205-.046-.412-.136-.599-.214-.456-.456-.678-.43-1.222.029-.737-.915-.746-1.424-.746-.552 0-1.142.077-1.642.328-.399.203-.742.509-.984.885-.251.383-.388.839-.399 1.296.003.02.003.04.003.058z"/>
</svg>
