<svg xmlns="http://www.w3.org/2000/svg" width="44" height="44" fill="none" viewBox="0 0 44 44">
    <path fill="#81B9D9" d="M18.522 35.129c-.737.44-1.405.7-2.109.7-1.812 0-3.326-1.484-3.413-3.271l3.53-2.104 5.494 2.457-3.502 2.218z"/>
    <path fill="#B1D6A0" d="M20.62 26.085l-2.626-1.16c-1.169-.523-2.28-.962-2.28-2.25 0-.67.202-1.02.523-1.368l5.553 2.446-1.374.795c-.383.234-.645.439-.645.732.002.316.363.584.85.805z"/>
    <path fill="#81B9D9" d="M23.199 13.97l-2.69 1.631c-.242.148-.562.377-.562.734 0 .41.626.721 1.176.983l-3.369-1.484c-.991-.437-1.983-.933-1.983-2.129 0-.504.146-.91.379-1.26L23.431 8c.875.492 1.719 1.49 1.719 2.834 0 1.436-.725 2.397-1.951 3.136z"/>
    <path fill="#B1D6A0" d="M28.926 19.228l-.67.379-5.56-2.452 6.46-3.893c.872.503 1.73 1.496 1.73 2.835.002 1.436-.706 2.426-1.96 3.131z"/>
    <path fill="#81B9D9" d="M24.228 23.952l3.29 1.445c1.234.549 1.612 1.2 1.612 2.015 0 .467-.263.934-.64 1.256l-5.53-2.457.934-.525c.794-.435 1.053-.701 1.053-.991 0-.304-.184-.501-.72-.743z"/>
    <path fill="#00A439" d="M30.097 36.09c-1.402-1.075-2.896-1.806-4.714-2.632L17 29.748c-2.107-.936-3.506-2.189-3.506-4.298 0-2.045.99-3.038 2.28-3.852l.465-.293c-.321.348-.522.698-.522 1.368 0 1.288 1.109 1.727 2.28 2.25l9.756 4.303c1.697.725 3.252 1.98 3.252 4.113-.002 1.178-.444 2.227-.908 2.75z"/>
    <path fill="#007DB9" d="M29.102 28.286l-.612.38c.377-.32.64-.789.64-1.254 0-.82-.38-1.468-1.61-2.017l-10.432-4.593c-2.109-.931-3.42-2.134-3.42-4.23 0-1.932.963-3.196 2.484-4.127-.235.35-.379.755-.379 1.258 0 1.196.994 1.69 1.983 2.129l10.14 4.476c1.845.814 3.34 2.047 3.34 4.294 0 1.758-.82 2.87-2.134 3.684z"/>
    <rect width="43" height="43" x=".5" y=".5" stroke="#E0E0E0" rx="15.5"/>
</svg>
