<svg xmlns="http://www.w3.org/2000/svg" width="44" height="44" fill="none" viewBox="0 0 44 44">
    <path fill="#FFE500" d="M36 31.968c0 2.205-1.79 3.994-3.998 3.994H12C9.79 35.962 8 34.173 8 31.968V11.994C8 9.787 9.791 8 12 8h20.002C34.21 8 36 9.787 36 11.994v19.974z"/>
    <path fill="#281F21" d="M28.005 24.778c-.138-.997-.598-1.837-1.365-2.498-.113-.098-.232-.19-.366-.299.111-.083.203-.146.29-.22.549-.457.952-1.015 1.217-1.682.251-.633.314-1.29.224-1.95-.11-.811-.451-1.528-1.012-2.136-.403-.44-.871-.784-1.423-1.008-.53-.217-1.074-.313-1.66-.313l-6.372.002c-.044 0-.088-.002-.132.002-.157.017-.249.117-.255.274-.002.044 0 .088 0 .132v13.767c0 .07-.004.139.002.207.008.122.092.212.211.23.044.007.088.005.132.005h6.6c.678 0 1.311-.172 1.896-.506.836-.481 1.434-1.17 1.791-2.076.245-.627.314-1.277.222-1.931zm-5.07.495h-1.192v-6.571h1.177s-.005-.002 0-.002v.002h.012v6.571h.002z"/>
    <rect width="43" height="43" x=".5" y=".5" stroke="#E0E0E0" rx="15.5"/>
</svg>
