<svg xmlns="http://www.w3.org/2000/svg" width="44" height="44" fill="none" viewBox="0 0 44 44">
    <rect width="43" height="43" x=".5" y=".5" stroke="#E0E0E0" rx="15.5"/>
    <path fill="#F8B500" d="M36.514 22.288l-.26-.17c-.885-.91-2.117-1.306-3.766-1.208-1.37.087-2.458.646-3.29 1.168v-.04c0-.442.05-.921.096-1.389.05-.475.099-.954.099-1.41 0-.465-.053-.907-.208-1.284-.039-.098-.127-.156-.236-.156-.444.01-1.31.323-1.518.511l-.113.258c-.007.504-.116 1.914-.222 2.085.004-.008-.06.17-.06.17-.186 2.017-.19 3.786-.017 5.306.017.152.303.38.521.464.24.09.993-.116 1.426-.287l.166-.025c.137-.015.218-.134.211-.294l.01-.439c.314-1.312 1.586-2.875 3.086-3.115.849-.137 1.518.084 2.05.682.07.105.225 1.052-.335 2.136-.415.805-1.25 1.48-2.345 1.904-1.036.402-2.18.57-3.59.518l-1.32-.917c-1.116-.809-2.504-1.813-3.765-2.306-.218-.087-.616-.425-.856-.628l-.13-.109c-.726-.598-2.106-1.548-3.216-2.31 0 0-.5-.344-.598-.413l.003-.13c.032-.037.73-.468.73-.468.975-.588 1.426-.878 1.524-1.027-.02.022.13-.08.13-.08.008-.003 2.42-1.41 2.42-1.41 2.321-1.316 4.956-2.807 6.336-4.28.004 0 .067-.224.067-.224l.028-.2c.092-.315.099-.558.021-.837-.02-.08-.091-.17-.186-.192-1.078-.11-2.473.554-3.737 1.78-.285.28-.525.414-.779.555l-.193.112c-1.398.816-4.544 2.829-6.192 3.913.11-1.824.437-4.417.838-6.582l-.045-.257-.17-.327-.13-.235-.038.007c-.328-.17-.596-.101-.793-.047l-.33.123-.438.163c-.088.019-.148.073-.183.16-.785 1.958-1.444 5.179-1.595 7.753-1.575-1.03-3.026-1.77-3.737-2.129l-.021-.01-.085-.018c-.253-.037-.567-.229-.87-.418l-.595-.398-.916-.602-.239-.058c-.398.072-1.148.594-1.374.946-.031.047-.042.098-.042.152 0 .073.021.15.042.222l.043.192.042.116c.437.46 1.543 1.233 2.627 1.831l1.258.686 1.923 1.08c0 .008.33.269.33.269l.226.134s.025.014.039.025l-3.494 2.404-1.838 1.255c-.18.123-.91.46-1.068.526-.401.167-.7.424-.827.704L7 26.277l.05.073.14.109c-.007 0 .19.127.19.127l.201.141c.004.004.194.029.194.029.324.014.803-.178 1.697-.58.821-.377 3.054-1.763 4.008-2.354l.409-.254c.169.015.356-.13.518-.26.193-.157.609-.421.863-.537.007-.004.151-.088.288-.164 0 .044-.003.113-.003.113.042 3.006.211 5.193.528 6.876l.007.029.032.068c.158.24.334.95.493 1.581l.363 1.255c.007.015.102.12.102.12.208.141.838.395 1.264.344l.106-.014.067-.152c.035-.189.05-.374.05-.573 0-.229-.018-.483-.036-.791l-.028-.453c-.134-2.1-.268-5.132-.268-7.144v-.16c.345.225 1.863 1.208 1.863 1.208 2.578 1.722 6.474 4.326 8.826 5.011.123.037.25.008.342-.08l.363-.239.066-.029c.138-.065.23-.3.244-.555 1.982-.101 4.75-.888 6.23-2.806.574-.744.831-1.654.831-2.434-.004-.638-.176-1.19-.486-1.494z"/>
</svg>
