<svg xmlns="http://www.w3.org/2000/svg" width="44" height="44" fill="none" viewBox="0 0 44 44">
    <rect width="43" height="43" x=".5" y=".5" stroke="#E0E0E0" rx="15.5"/>
    <path fill="#FDB913" d="M26.875 10L22 12.447 17.133 10 22 19.263 26.875 10z"/>
    <path fill="#FDB913" d="M28.578 17.157l-.075-.062 3.476-1.46v-4.888l-6.041 2.575s-3.27 6.196-3.346 6.337c2.561.307 4.486 2.455 4.486 5.043 0 2.806-2.276 5.085-5.081 5.085-2.802 0-5.081-2.28-5.081-5.085 0-2.585 1.924-4.733 4.485-5.043-.072-.14-3.339-6.337-3.339-6.337l-6.031-2.575v4.888l3.473 1.46-.075.062C13.249 19.064 12 21.814 12 24.699c0 5.514 4.489 10.007 10 10.007 5.515 0 10-4.493 10-10.007 0-2.885-1.246-5.635-3.422-7.542z"/>
</svg>
