<svg xmlns="http://www.w3.org/2000/svg" width="44" height="44" fill="none" viewBox="0 0 44 44">
    <rect width="43" height="43" x=".5" y=".5" stroke="#E0E0E0" rx="15.5"/>
    <g clip-path="url(#clip0)">
        <path fill="url(#paint0_linear)" d="M8 27.648c0 4.721 2.891 8.584 13.838 8.584h.561c10.95 0 13.841-3.863 13.841-8.584V16.584C36.24 11.862 33.349 8 22.399 8h-.558C10.891 8 8 11.862 8 16.584v11.064z"/>
        <path fill="#fff" d="M22.399 36.24c.788 0 1.532-.022 2.238-.06v-4.776c2.005-.017 4.694-.82 5.892-3.411 1.42-3.072.019-5.427-1.338-6.579.85-1.061 1.381-3.017.66-5.077-1.229-3.503-4.722-3.687-5.906-3.69H22.38v23.598h.019v-.005zm2.238-21.194c.046 0 .26.003.306.006 1.745.08 3.09 1.567 3.09 3.269 0 2.264-2.13 3.34-2.354 3.416.098 0 3.05.892 3.05 3.644 0 2.111-1.91 3.643-4.09 3.643V15.046h-.002zM17.7 21.556c-.668-.574-1.781-1.764-1.732-3.25.044-1.34.684-2.376 1.756-2.844.957-.419 2.122-.424 2.831-.424.06 0 .112-.003.167-.003l.003-2.385c-.055 0-.063.003-.123.003-.914-.003-2.435-.009-3.81.593-1.954.854-3.166 2.736-3.242 5.028-.06 1.838.845 3.66 2.55 5.129 1.624 1.4 2.45 2.213 2.045 3.971-.342 1.478-2.645 3.458-3.38 3.989h3.323c.798-.605 2.092-2.077 2.418-3.485.75-3.255-1.223-4.954-2.807-6.322z"/>
    </g>
    <defs>
        <linearGradient id="paint0_linear" x1="22.12" x2="22.12" y1="18.165" y2="36.254" gradientUnits="userSpaceOnUse">
            <stop stop-color="#9AC21C"/>
            <stop offset=".6" stop-color="#009247"/>
            <stop offset="1" stop-color="#006D5C"/>
        </linearGradient>
        <clipPath id="clip0">
            <path fill="#fff" d="M0 0H28.24V28.24H0z" transform="translate(8 8)"/>
        </clipPath>
    </defs>
</svg>
