<svg xmlns="http://www.w3.org/2000/svg" width="44" height="44" fill="none" viewBox="0 0 44 44">
    <rect width="43" height="43" x=".5" y=".5" stroke="#E0E0E0" rx="15.5"/>
    <path fill="url(#paint0_radial)" d="M21.334 7.218c-8.168.369-14.49 7.289-14.116 15.452.368 8.164 7.288 14.485 15.452 14.117 8.168-.368 14.485-7.289 14.116-15.452-.368-8.168-7.288-14.485-15.452-14.117z"/>
    <path fill="url(#paint1_radial)" d="M21.326 7.015c-8.279.378-14.683 7.39-14.31 15.664.372 8.274 7.385 14.683 15.663 14.305 8.274-.377 14.679-7.385 14.305-15.663-.372-8.27-7.385-14.678-15.659-14.306zm1.754 14.56c2.666 2.458 4.125 3.78 4.125 3.78 4.701 3.913 3.094 7.49 1.299 8.733-1.368.949-2.887 1.395-4.876 1.501-.18.023-.507-.078-.52-.395-.015-.341.483-.424.483-.424 4.438-.875 3.14-3.785 1.57-5.267-.659-.627-6.838-5.954-6.838-5.954-5.888-5.069-5.414-9.029-5.414-9.029.285-4.87 4.549-6.077 7.777-5.8.377.031.589.261.52.58-.07.34-.571.368-.571.368-1.027.06-1.943.165-2.643.635-2.601 1.75-1.832 4.724 1.634 8.034.438.42.898.857 1.373 1.303 0 0 .695.617 2.08 1.934zm-2.012 12.592c.027.474-1.128.681-2.45.552-1.657-.16-3.637-.686-5.36-2.173-1.583-1.372-2.564-3.255-3.043-4.908-.488-1.695-.69-3.679.116-3.522.248.05.676 1.137 1.141 1.929.48.82.875 1.27 1.239 1.547.166.124.732-1.133 1.556-1.846.479-.396 1.004-.53 1.087.649.101 1.445-.157 3.163.262 3.163.396 0 1.285-.3 3.237-.46.732-.065 1.151.073.451 1.063-.35.493-.82 1.188-1.924 1.98 1.662 1.552 3.65 1.363 3.688 2.026zm1.307-15.12c-.124-.489-.156-1.101-.055-1.884.207-1.639.65-2.408 1.151-3.674.677-1.704-.967-2.703-.695-3.329.373-.847 1.552.23 2.86.309 1.127.064 1.809.004 2.688.124 1.165.156 2.564.553 3.181 1.28.571.668-.299 1.482-1.349.972-.764-.373-1.73-.143-1.164.653.681.76 1.008.778 1.698.963 1.911.501 1.948 2.33.659 3.278-1.473 1.077-2.96.63-3.56-1.483-.298-1.054-1.044-1.588-1.804-1.289-.76.3-.308 1.685.267 2.97 1.156 2.947-1.713 2.845-2.049 2.808-1.52-.317-1.828-1.699-1.828-1.699z"/>
    <defs>
        <radialGradient id="paint0_radial" cx="0" cy="0" r="1" gradientTransform="translate(25.078 18.331) scale(14.0521)" gradientUnits="userSpaceOnUse">
            <stop stop-color="#fff"/>
            <stop offset="1" stop-color="#D3A243"/>
        </radialGradient>
        <radialGradient id="paint1_radial" cx="0" cy="0" r="1" gradientTransform="translate(24.498 18.19) scale(31.4204)" gradientUnits="userSpaceOnUse">
            <stop stop-color="#00B9EF"/>
            <stop offset=".219" stop-color="#0093D4"/>
            <stop offset=".22" stop-color="#0092D4"/>
            <stop offset=".283" stop-color="#007EC5"/>
            <stop offset=".349" stop-color="#006EBA"/>
            <stop offset=".417" stop-color="#0063B2"/>
            <stop offset=".489" stop-color="#005DAE"/>
            <stop offset=".573" stop-color="#005BAC"/>
        </radialGradient>
    </defs>
</svg>
