<svg xmlns="http://www.w3.org/2000/svg" width="44" height="44" fill="none" viewBox="0 0 44 44">
    <path fill="#fff" d="M37 21.998c0 8.291-6.728 15.004-14.995 15.004C13.709 37.002 7 30.29 7 21.998 7 13.716 13.709 7 22.005 7 30.275 7 37 13.716 37 21.998z"/>
    <path fill="#007BC4" d="M22.006 36.285c7.883 0 14.282-6.395 14.282-14.287-.002-7.89-6.401-14.289-14.291-14.289-7.888 0-14.282 6.4-14.282 14.289 0 7.897 6.394 14.287 14.291 14.287z"/>
    <mask id="7z6brumosa" width="30" height="30" x="7" y="7" maskUnits="userSpaceOnUse">
        <path fill="#007BC4" d="M22.006 36.285c7.883 0 14.282-6.395 14.282-14.287-.002-7.89-6.401-14.289-14.291-14.289-7.888 0-14.282 6.4-14.282 14.289 0 7.897 6.394 14.287 14.291 14.287z"/>
    </mask>
    <g mask="url(#7z6brumosa)">
        <path fill="#007BC4" d="M22.052 28.9c6.276 0 11.66 1.75 13.965 4.23.775-1.778 1.2-3.734 1.2-5.784 0-8.197-6.796-14.837-15.165-14.837-8.37 0-15.158 6.642-15.158 14.837 0 2.06.425 4.006 1.2 5.785 2.298-2.48 7.681-4.23 13.958-4.23z"/>
        <path fill="#027DC5" d="M22.05 28.917c6.26 0 11.632 1.736 13.93 4.195.775-1.764 1.198-3.704 1.198-5.738 0-8.13-6.78-14.737-15.128-14.737-8.348 0-15.12 6.611-15.12 14.738 0 2.043.425 3.973 1.195 5.737 2.296-2.461 7.665-4.195 13.925-4.195z"/>
        <path fill="#047FC6" d="M22.051 28.931c6.243 0 11.6 1.722 13.892 4.162.773-1.75 1.195-3.673 1.195-5.69 0-8.065-6.76-14.641-15.087-14.641s-15.08 6.578-15.08 14.64c0 2.027.425 3.943 1.193 5.691 2.286-2.44 7.641-4.162 13.887-4.162z"/>
        <path fill="#0681C7" d="M22.047 28.949c6.227 0 11.57 1.708 13.857 4.129.77-1.736 1.19-3.643 1.19-5.646 0-8-6.744-14.541-15.05-14.541-8.305 0-15.042 6.545-15.042 14.541 0 2.01.423 3.91 1.19 5.646 2.285-2.421 7.626-4.13 13.855-4.13z"/>
        <path fill="#0783C8" d="M22.046 28.964c6.212 0 11.541 1.694 13.821 4.093.768-1.722 1.188-3.611 1.188-5.598 0-7.934-6.727-14.442-15.01-14.442-8.281 0-15.004 6.512-15.004 14.442 0 1.994.423 3.879 1.186 5.598 2.277-2.4 7.606-4.093 13.819-4.093z"/>
        <path fill="#0985C9" d="M22.044 28.978c6.196 0 11.51 1.68 13.786 4.06.765-1.707 1.185-3.583 1.185-5.55 0-7.87-6.708-14.346-14.971-14.346-8.261 0-14.965 6.48-14.965 14.345 0 1.977.42 3.846 1.184 5.552 2.27-2.382 7.585-4.061 13.78-4.061z"/>
        <path fill="#0B87CA" d="M22.043 28.996c6.18 0 11.483 1.666 13.75 4.025.763-1.691 1.184-3.552 1.184-5.506 0-7.802-6.692-14.246-14.934-14.246-8.24 0-14.927 6.446-14.927 14.246 0 1.96.42 3.815 1.181 5.506 2.263-2.36 7.564-4.025 13.746-4.025z"/>
        <path fill="#0D89CC" d="M22.039 29.01c6.163 0 11.452 1.652 13.715 3.993.76-1.677 1.179-3.522 1.179-5.46 0-7.735-6.674-14.146-14.894-14.146-8.218 0-14.887 6.413-14.887 14.147 0 1.944.418 3.782 1.177 5.459 2.258-2.341 7.545-3.992 13.71-3.992z"/>
        <path fill="#0F8BCD" d="M22.038 29.028c6.146 0 11.421 1.637 13.677 3.956.758-1.663 1.176-3.491 1.176-5.412 0-7.672-6.656-14.048-14.856-14.048-8.197 0-14.848 6.38-14.848 14.048 0 1.928.418 3.752 1.174 5.412 2.255-2.322 7.528-3.956 13.677-3.956z"/>
        <path fill="#118DCE" d="M22.037 29.041c6.13 0 11.392 1.623 13.641 3.924.759-1.649 1.174-3.463 1.174-5.364 0-7.607-6.637-13.952-14.815-13.952-8.176 0-14.811 6.348-14.811 13.952 0 1.91.415 3.718 1.171 5.364 2.25-2.3 7.507-3.924 13.64-3.924z"/>
        <path fill="#138FCF" d="M22.035 29.058c6.113 0 11.362 1.61 13.606 3.891.756-1.635 1.172-3.432 1.172-5.32 0-7.54-6.622-13.852-14.779-13.852-8.154 0-14.77 6.315-14.77 13.852 0 1.895.415 3.685 1.169 5.32 2.24-2.282 7.486-3.89 13.602-3.89z"/>
        <path fill="#1591D0" d="M22.034 29.074c6.097 0 11.334 1.595 13.57 3.855.754-1.62 1.168-3.401 1.168-5.272 0-7.474-6.605-13.753-14.738-13.753S7.3 20.185 7.3 27.657c0 1.876.416 3.654 1.164 5.272 2.235-2.263 7.467-3.855 13.569-3.855z"/>
        <path fill="#1693D1" d="M22.03 29.09c6.081 0 11.304 1.58 13.536 3.821.751-1.606 1.165-3.37 1.165-5.225 0-7.408-6.586-13.656-14.7-13.656-8.112 0-14.693 6.248-14.693 13.656 0 1.86.413 3.621 1.162 5.225 2.228-2.241 7.446-3.822 13.53-3.822z"/>
        <path fill="#1895D2" d="M22.03 29.106c6.064 0 11.273 1.566 13.5 3.787.749-1.592 1.162-3.343 1.162-5.178 0-7.344-6.569-13.557-14.662-13.557-8.088 0-14.655 6.215-14.655 13.557 0 1.842.413 3.59 1.16 5.178 2.223-2.22 7.427-3.787 13.495-3.787z"/>
        <path fill="#1A97D3" d="M22.027 29.122c6.047 0 11.244 1.552 13.464 3.754.747-1.578 1.16-3.312 1.16-5.133 0-7.278-6.55-13.458-14.622-13.458-8.067 0-14.615 6.182-14.615 13.458 0 1.826.411 3.557 1.155 5.133 2.216-2.204 7.406-3.754 13.458-3.754z"/>
        <path fill="#1C99D4" d="M22.023 29.137c6.03 0 11.213 1.537 13.427 3.718.744-1.564 1.155-3.281 1.155-5.086 0-7.212-6.534-13.36-14.584-13.36-8.046 0-14.578 6.148-14.578 13.36 0 1.81.411 3.527 1.153 5.086 2.216-2.18 7.392-3.718 13.427-3.718z"/>
        <path fill="#1E9BD5" d="M22.024 29.152c6.014 0 11.182 1.524 13.391 3.685.742-1.55 1.153-3.25 1.153-5.039 0-7.145-6.515-13.26-14.544-13.26-8.025 0-14.54 6.115-14.54 13.26 0 1.793.409 3.494 1.15 5.04 2.205-2.162 7.37-3.686 13.39-3.686z"/>
        <path fill="#209DD7" d="M22.023 29.169c5.997 0 11.154 1.51 13.356 3.65.739-1.536 1.15-3.22 1.15-4.992 0-7.08-6.499-13.162-14.506-13.162-8.003 0-14.5 6.083-14.5 13.162 0 1.777.41 3.46 1.148 4.992 2.197-2.14 7.35-3.65 13.352-3.65z"/>
        <path fill="#229FD8" d="M22.019 29.185c5.981 0 11.124 1.495 13.32 3.616.74-1.52 1.148-3.19 1.148-4.946 0-7.016-6.481-13.063-14.468-13.063-7.982 0-14.461 6.052-14.461 13.063 0 1.76.408 3.43 1.143 4.946 2.194-2.123 7.332-3.616 13.318-3.616z"/>
        <path fill="#24A1D9" d="M22.017 29.2c5.965 0 11.095 1.482 13.285 3.584.737-1.507 1.143-3.16 1.143-4.899 0-6.95-6.463-12.966-14.428-12.966-7.958 0-14.421 6.019-14.421 12.966 0 1.743.406 3.397 1.14 4.9 2.188-2.103 7.312-3.584 13.281-3.584z"/>
        <path fill="#25A3DA" d="M22.017 29.217c5.948 0 11.065 1.467 13.25 3.548.734-1.493 1.14-3.13 1.14-4.852 0-6.884-6.446-12.867-14.39-12.867-7.94 0-14.383 5.986-14.383 12.867 0 1.727.406 3.366 1.138 4.852 2.18-2.081 7.29-3.548 13.245-3.548z"/>
        <path fill="#27A5DB" d="M22.016 29.234c5.931 0 11.034 1.452 13.211 3.515.733-1.477 1.139-3.1 1.139-4.808 0-6.817-6.428-12.767-14.35-12.767-7.918 0-14.346 5.953-14.346 12.768 0 1.71.404 3.333 1.134 4.807 2.178-2.065 7.273-3.515 13.212-3.515z"/>
        <path fill="#29A7DC" d="M22.012 29.248c5.915 0 11.006 1.439 13.177 3.48.73-1.463 1.136-3.071 1.136-4.76 0-6.751-6.41-12.671-14.313-12.671-7.894 0-14.305 5.92-14.305 12.67 0 1.692.404 3.303 1.132 4.76 2.168-2.04 7.251-3.479 13.173-3.479z"/>
        <path fill="#2BA9DD" d="M22.01 29.263c5.898 0 10.975 1.424 13.14 3.446.728-1.448 1.132-3.04 1.132-4.713 0-6.687-6.392-12.571-14.272-12.571-7.873 0-14.268 5.886-14.268 12.572 0 1.674.402 3.269 1.13 4.712 2.163-2.022 7.232-3.446 13.138-3.446z"/>
        <path fill="#2DABDE" d="M22.006 29.28c5.882 0 10.946 1.41 13.105 3.41.726-1.433 1.13-3.009 1.13-4.665 0-6.621-6.376-12.472-14.235-12.472-7.852 0-14.228 5.853-14.228 12.472 0 1.658.402 3.236 1.127 4.666 2.157-2.004 7.212-3.412 13.1-3.412z"/>
        <path fill="#2FADDF" d="M22.007 29.296c5.865 0 10.916 1.396 13.07 3.378.723-1.42 1.127-2.979 1.127-4.62 0-6.556-6.36-12.376-14.197-12.376-7.83 0-14.19 5.82-14.19 12.375 0 1.642.4 3.206 1.122 4.62 2.152-1.984 7.193-3.377 13.068-3.377z"/>
        <path fill="#31AFE0" d="M22.005 29.31c5.849 0 10.885 1.382 13.035 3.345.723-1.405 1.124-2.948 1.124-4.573 0-6.489-6.34-12.276-14.157-12.276-7.809 0-14.152 5.787-14.152 12.276 0 1.625.4 3.172 1.12 4.573 2.145-1.963 7.172-3.345 13.03-3.345z"/>
        <path fill="#33B1E2" d="M22.004 29.327c5.832 0 10.857 1.368 12.997 3.31.72-1.392 1.12-2.92 1.12-4.526 0-6.423-6.324-12.177-14.12-12.177-7.788 0-14.111 5.754-14.111 12.177 0 1.608.399 3.142 1.117 4.526 2.143-1.942 7.155-3.31 12.997-3.31z"/>
        <path fill="#34B3E3" d="M22 29.344c5.819 0 10.827 1.353 12.962 3.276.718-1.377 1.117-2.889 1.117-4.479 0-6.359-6.304-12.077-14.078-12.077-7.767 0-14.074 5.72-14.074 12.077 0 1.593.397 3.11 1.112 4.48 2.136-1.926 7.137-3.277 12.962-3.277z"/>
        <path fill="#36B5E4" d="M21.999 29.36c5.801 0 10.797 1.339 12.926 3.24.715-1.363 1.115-2.858 1.115-4.433 0-6.293-6.288-11.982-14.041-11.982-7.746 0-14.034 5.689-14.034 11.982 0 1.575.397 3.078 1.11 4.433C11.203 30.7 16.19 29.36 22 29.36z"/>
        <path fill="#38B7E5" d="M21.998 29.376c5.785 0 10.767 1.325 12.89 3.208.714-1.349 1.113-2.828 1.113-4.387 0-6.226-6.27-11.882-14.003-11.882-7.724 0-13.996 5.655-13.996 11.882 0 1.56.394 3.045 1.108 4.387 2.121-1.883 7.093-3.208 12.888-3.208z"/>
        <path fill="#3AB9E6" d="M21.996 29.393c5.769 0 10.736 1.311 12.855 3.172.711-1.334 1.108-2.799 1.108-4.339 0-6.16-6.253-11.783-13.963-11.783-7.7 0-13.956 5.622-13.956 11.783 0 1.543.395 3.012 1.106 4.34 2.114-1.864 7.072-3.173 12.85-3.173z"/>
        <path fill="#40BBE7" d="M21.995 29.426c5.759 0 10.722 1.302 12.836 3.154.71-1.326 1.108-2.78 1.108-4.311 0-6.121-6.246-11.712-13.944-11.712-7.692 0-13.937 5.591-13.937 11.712 0 1.53.394 2.992 1.103 4.31 2.112-1.852 7.063-3.153 12.834-3.153z"/>
        <path fill="#47BEE8" d="M21.995 29.463c5.752 0 10.708 1.292 12.82 3.132.708-1.316 1.105-2.761 1.105-4.283 0-6.08-6.236-11.638-13.925-11.638-7.682 0-13.92 5.558-13.92 11.638 0 1.522.391 2.974 1.1 4.283 2.112-1.838 7.058-3.132 12.82-3.132z"/>
        <path fill="#4DC0E8" d="M21.995 29.5c5.745 0 10.694 1.285 12.801 3.111.709-1.309 1.103-2.742 1.103-4.254 0-6.04-6.229-11.568-13.906-11.568-7.672 0-13.9 5.525-13.9 11.568 0 1.512.393 2.953 1.1 4.254 2.109-1.826 7.048-3.11 12.802-3.11z"/>
        <path fill="#53C2E9" d="M21.996 29.536c5.738 0 10.68 1.276 12.784 3.09.706-1.3 1.103-2.724 1.103-4.226 0-6-6.22-11.495-13.887-11.495-7.66 0-13.883 5.495-13.883 11.495 0 1.502.39 2.934 1.099 4.226 2.104-1.814 7.04-3.09 12.784-3.09z"/>
        <path fill="#5AC4EA" d="M21.995 29.573c5.73 0 10.663 1.267 12.767 3.071.707-1.29 1.101-2.707 1.101-4.197 0-5.96-6.21-11.422-13.868-11.422-7.652 0-13.864 5.462-13.864 11.422 0 1.493.39 2.912 1.096 4.197 2.102-1.804 7.03-3.07 12.768-3.07z"/>
        <path fill="#60C7EB" d="M21.996 29.608c5.724 0 10.65 1.259 12.75 3.05.703-1.283 1.097-2.689 1.097-4.17 0-5.92-6.203-11.35-13.847-11.35-7.641 0-13.845 5.43-13.845 11.35 0 1.481.39 2.894 1.094 4.17 2.102-1.791 7.023-3.05 12.751-3.05z"/>
        <path fill="#66C9EC" d="M21.995 29.645c5.715 0 10.635 1.25 12.733 3.028.704-1.273 1.098-2.67 1.098-4.141 0-5.88-6.194-11.277-13.828-11.277-7.632 0-13.826 5.398-13.826 11.277 0 1.472.387 2.872 1.091 4.141 2.098-1.779 7.011-3.028 12.732-3.028z"/>
        <path fill="#6DCBEC" d="M21.996 29.683c5.707 0 10.62 1.242 12.713 3.007.701-1.264 1.096-2.65 1.096-4.113 0-5.841-6.187-11.206-13.81-11.206-7.622 0-13.807 5.367-13.807 11.206 0 1.463.388 2.854 1.092 4.113 2.095-1.767 7.001-3.007 12.716-3.007z"/>
        <path fill="#73CDED" d="M21.995 29.719c5.7 0 10.607 1.233 12.697 2.986.702-1.257 1.094-2.634 1.094-4.085 0-5.801-6.177-11.133-13.79-11.133-7.612 0-13.789 5.334-13.789 11.133 0 1.453.387 2.835 1.089 4.085 2.093-1.753 6.995-2.986 12.7-2.986z"/>
        <path fill="#7AD0EE" d="M21.996 29.753c5.693 0 10.59 1.224 12.678 2.967.699-1.247 1.093-2.615 1.093-4.056 0-5.761-6.17-11.06-13.771-11.06-7.602 0-13.77 5.304-13.77 11.06 0 1.444.386 2.814 1.087 4.056 2.09-1.74 6.985-2.967 12.683-2.967z"/>
        <path fill="#80D2EF" d="M21.996 29.79c5.686 0 10.576 1.217 12.662 2.946.699-1.237 1.09-2.596 1.09-4.027 0-5.722-6.16-10.99-13.752-10.99-7.59 0-13.748 5.27-13.748 10.99 0 1.431.385 2.794 1.084 4.027 2.086-1.731 6.976-2.945 12.664-2.945z"/>
        <path fill="#86D4F0" d="M21.997 29.826c5.678 0 10.561 1.208 12.642 2.925.697-1.228 1.09-2.577 1.09-4 0-5.68-6.154-10.915-13.735-10.915-7.582 0-13.731 5.237-13.731 10.916 0 1.422.385 2.773 1.084 3.999 2.086-1.717 6.969-2.924 12.65-2.924z"/>
        <path fill="#8DD6F0" d="M21.997 29.862c5.67 0 10.547 1.198 12.626 2.903.697-1.221 1.089-2.558 1.089-3.97 0-5.642-6.144-10.846-13.715-10.846S8.284 23.155 8.284 28.794c0 1.413.383 2.754 1.082 3.971 2.081-1.703 6.957-2.903 12.63-2.903z"/>
        <path fill="#93D9F1" d="M21.996 29.9c5.662 0 10.533 1.19 12.61 2.885.694-1.212 1.086-2.542 1.086-3.943 0-5.6-6.137-10.772-13.694-10.772-7.561 0-13.693 5.174-13.693 10.772 0 1.403.382 2.733 1.08 3.943C11.46 31.09 16.33 29.9 21.995 29.9z"/>
        <path fill="#99DBF2" d="M21.996 29.936c5.655 0 10.517 1.181 12.59 2.863.695-1.202 1.085-2.523 1.085-3.914 0-5.56-6.128-10.699-13.675-10.699-7.552 0-13.675 5.143-13.675 10.699 0 1.394.383 2.714 1.077 3.914 2.077-1.682 6.94-2.863 12.598-2.863z"/>
        <path fill="#A0DDF3" d="M21.998 29.971c5.648 0 10.503 1.174 12.574 2.842.692-1.195 1.084-2.504 1.084-3.886 0-5.52-6.12-10.627-13.655-10.627-7.543 0-13.656 5.11-13.656 10.627 0 1.382.38 2.693 1.077 3.886 2.067-1.67 6.926-2.842 12.576-2.842z"/>
        <path fill="#A6DFF4" d="M21.997 30.006c5.641 0 10.489 1.165 12.556 2.82.692-1.185 1.081-2.484 1.081-3.857 0-5.48-6.11-10.554-13.637-10.554-7.53 0-13.637 5.079-13.637 10.554 0 1.373.38 2.674 1.075 3.858 2.067-1.656 6.92-2.82 12.562-2.82z"/>
        <path fill="#ACE2F5" d="M21.999 30.043c5.634 0 10.474 1.155 12.539 2.802.69-1.177 1.08-2.466 1.08-3.83 0-5.44-6.105-10.483-13.619-10.483-7.521.003-13.618 5.048-13.618 10.484 0 1.363.38 2.655 1.072 3.829C11.52 31.2 16.365 30.043 22 30.043z"/>
        <path fill="#B3E4F5" d="M21.998 30.081c5.624 0 10.457 1.148 12.52 2.78.69-1.169 1.079-2.45 1.079-3.8 0-5.4-6.095-10.41-13.6-10.41-7.511 0-13.599 5.012-13.599 10.41 0 1.353.378 2.634 1.07 3.8 2.065-1.634 6.903-2.78 12.53-2.78z"/>
        <path fill="#B9E6F6" d="M22 30.117c5.617 0 10.443 1.138 12.502 2.759.688-1.16 1.078-2.431 1.078-3.77 0-5.36-6.088-10.337-13.58-10.337-7.503 0-13.581 4.981-13.581 10.337 0 1.344.378 2.614 1.07 3.77 2.06-1.62 6.89-2.76 12.51-2.76z"/>
        <path fill="#BFE8F7" d="M21.997 30.153c5.61 0 10.43 1.129 12.485 2.738.687-1.15 1.074-2.412 1.074-3.742 0-5.32-6.077-10.266-13.561-10.266-7.49 0-13.561 4.949-13.561 10.266 0 1.332.378 2.594 1.067 3.742 2.06-1.607 6.886-2.738 12.496-2.738z"/>
        <path fill="#C6EBF8" d="M21.997 30.19c5.603 0 10.415 1.121 12.467 2.718.685-1.14 1.075-2.393 1.075-3.713 0-5.28-6.07-10.193-13.542-10.193-7.482 0-13.543 4.918-13.543 10.193 0 1.323.376 2.575 1.065 3.713 2.056-1.597 6.874-2.719 12.478-2.719z"/>
        <path fill="#CCEDF9" d="M21.998 30.226c5.596 0 10.4 1.112 12.451 2.697.685-1.134 1.072-2.374 1.072-3.685 0-5.24-6.061-10.122-13.52-10.122-7.473 0-13.524 4.885-13.524 10.122 0 1.314.375 2.554 1.063 3.685 2.05-1.585 6.864-2.697 12.458-2.697z"/>
        <path fill="#D3EFF9" d="M21.997 30.26c5.589 0 10.384 1.106 12.432 2.677.683-1.124 1.07-2.357 1.07-3.657 0-5.199-6.054-10.049-13.502-10.049-7.462 0-13.505 4.855-13.505 10.05 0 1.303.376 2.534 1.063 3.656 2.048-1.57 6.855-2.676 12.442-2.676z"/>
        <path fill="#D9F1FA" d="M21.997 30.3c5.58 0 10.37 1.095 12.416 2.655.683-1.115 1.068-2.34 1.068-3.629 0-5.159-6.045-9.975-13.484-9.975-7.45 0-13.485 4.82-13.485 9.975 0 1.295.373 2.514 1.06 3.629 2.046-1.56 6.846-2.656 12.425-2.656z"/>
        <path fill="#DFF4FB" d="M22 30.334c5.572 0 10.355 1.087 12.396 2.637.68-1.108 1.068-2.32 1.068-3.6 0-5.12-6.038-9.905-13.465-9.905-7.44 0-13.467 4.788-13.467 9.904 0 1.283.373 2.495 1.058 3.6 2.044-1.547 6.84-2.636 12.41-2.636z"/>
        <path fill="#E6F6FC" d="M21.999 30.372c5.565 0 10.341 1.08 12.38 2.615.68-1.098 1.066-2.3 1.066-3.572 0-5.08-6.029-9.831-13.446-9.831-7.432 0-13.448 4.758-13.448 9.832 0 1.273.37 2.475 1.056 3.571 2.04-1.538 6.829-2.615 12.392-2.615z"/>
        <path fill="#ECF8FD" d="M21.999 30.408c5.558 0 10.327 1.07 12.361 2.594.678-1.09 1.063-2.285 1.063-3.544 0-5.04-6.021-9.758-13.427-9.758-7.421 0-13.429 4.725-13.429 9.759 0 1.263.371 2.454 1.056 3.543 2.039-1.524 6.822-2.594 12.376-2.594z"/>
        <path fill="#F2FAFD" d="M21.998 30.443c5.551 0 10.311 1.061 12.345 2.573.678-1.082 1.063-2.265 1.063-3.515 0-5-6.012-9.688-13.408-9.688-7.41 0-13.41 4.694-13.41 9.688 0 1.254.37 2.435 1.053 3.515 2.037-1.51 6.81-2.573 12.357-2.573z"/>
        <path fill="#F9FDFE" d="M22 30.481c5.543 0 10.296 1.054 12.325 2.551.676-1.072 1.06-2.246 1.06-3.486 0-4.96-6.004-9.614-13.388-9.614-7.401 0-13.392 4.66-13.392 9.614 0 1.245.369 2.414 1.052 3.486 2.036-1.5 6.805-2.55 12.342-2.55z"/>
        <path fill="#fff" d="M21.998 30.516c5.534 0 10.283 1.044 12.31 2.532.675-1.063 1.058-2.227 1.058-3.458 0-4.92-5.996-9.543-13.37-9.543-7.392 0-13.373 4.63-13.373 9.543 0 1.233.369 2.395 1.049 3.458 2.034-1.488 6.796-2.532 12.326-2.532z"/>
    </g>
    <path fill="#007BC4" d="M21.996 25.604c-4.843 0-9.338.817-13.054 2.204 2.228 4.995 7.233 8.475 13.063 8.475 5.804 0 10.81-3.477 13.042-8.476-3.706-1.386-8.204-2.203-13.051-2.203z"/>
    <rect width="43" height="43" x=".5" y=".5" stroke="#E0E0E0" rx="15.5"/>
</svg>
