<svg xmlns="http://www.w3.org/2000/svg" width="27.687" height="23" viewBox="0 0 27.687 23">
  <path id="패스_11" data-name="패스 11" d="M16,4l11.866,9H23.91V23H18.965V17H13.032v6H8.088V13H4.133Zm0-2a1.96,1.96,0,0,0-1.187.4l-11.866,9a2.013,2.013,0,0,0-.69,2.232A1.98,1.98,0,0,0,4.133,15H6.111v8a1.989,1.989,0,0,0,1.978,2h4.944a1.989,1.989,0,0,0,1.978-2V19h1.978v4a1.989,1.989,0,0,0,1.978,2H23.91a1.989,1.989,0,0,0,1.978-2V15h1.978a1.98,1.98,0,0,0,1.876-1.368,2.013,2.013,0,0,0-.69-2.232l-11.866-9A1.96,1.96,0,0,0,16,2Z" transform="translate(-2.155 -2)" fill="#646567" fill-rule="evenodd"/>
</svg>
