<svg xmlns="http://www.w3.org/2000/svg" xmlns:xlink="http://www.w3.org/1999/xlink" width="20" height="20" viewBox="0 0 20 20">
  <defs>
    <clipPath id="clip-path">
      <rect id="사각형_102" data-name="사각형 102" width="20" height="20" fill="#fff" stroke="#707070" stroke-width="1" opacity="0.5"/>
    </clipPath>
  </defs>
  <g id="마스크_그룹_11" data-name="마스크 그룹 11" clip-path="url(#clip-path)">
    <path id="notes-medical-solid" d="M13.125,2.5H10a2.5,2.5,0,1,0-5,0H1.875A1.875,1.875,0,0,0,0,4.375v13.75A1.875,1.875,0,0,0,1.875,20h11.25A1.875,1.875,0,0,0,15,18.125V4.375A1.875,1.875,0,0,0,13.125,2.5ZM7.5,1.563a.938.938,0,1,1-.938.938A.935.935,0,0,1,7.5,1.563Zm3.75,11.875a.313.313,0,0,1-.313.313H8.75v2.188a.313.313,0,0,1-.312.313H6.563a.313.313,0,0,1-.312-.312V13.75H4.063a.313.313,0,0,1-.312-.312V11.563a.313.313,0,0,1,.313-.312H6.25V9.063a.313.313,0,0,1,.313-.312H8.438a.313.313,0,0,1,.313.313V11.25h2.187a.313.313,0,0,1,.313.313Zm0-7.5a.313.313,0,0,1-.313.313H4.063a.313.313,0,0,1-.312-.312V5.313A.313.313,0,0,1,4.063,5h6.875a.313.313,0,0,1,.313.313Z" transform="translate(2.5)" fill="#fff"/>
  </g>
</svg>
