<svg xmlns="http://www.w3.org/2000/svg" xmlns:xlink="http://www.w3.org/1999/xlink" width="20" height="20" viewBox="0 0 20 20">
  <defs>
    <clipPath id="clip-path">
      <rect id="사각형_107" data-name="사각형 107" width="20" height="20" fill="#fff" stroke="#707070" stroke-width="1" opacity="0.5"/>
    </clipPath>
  </defs>
  <g id="마스크_그룹_12" data-name="마스크 그룹 12" clip-path="url(#clip-path)">
    <path id="file-medical-solid" d="M14.727,4.1,10.9.273A.937.937,0,0,0,10.238,0H10V5h5V4.762A.935.935,0,0,0,14.727,4.1ZM8.75,5.313V0H.938A.935.935,0,0,0,0,.938V19.063A.935.935,0,0,0,.938,20H14.063A.935.935,0,0,0,15,19.063V6.25H9.687A.94.94,0,0,1,8.75,5.313Zm2.5,6.25v1.875a.313.313,0,0,1-.313.312H8.75v2.188a.313.313,0,0,1-.312.312H6.563a.313.313,0,0,1-.312-.312V13.75H4.063a.313.313,0,0,1-.312-.312V11.563a.313.313,0,0,1,.312-.312H6.25V9.063a.313.313,0,0,1,.313-.312H8.438a.313.313,0,0,1,.313.313V11.25h2.188A.313.313,0,0,1,11.25,11.563Z" transform="translate(1.968 0)" fill="#fff"/>
  </g>
</svg>
