<svg xmlns="http://www.w3.org/2000/svg" xmlns:xlink="http://www.w3.org/1999/xlink" width="38" height="38" viewBox="0 0 38 38">
  <defs>
    <clipPath id="clip-path">
      <rect id="사각형_138" data-name="사각형 138" width="38" height="38" transform="translate(18476 2687.958)" fill="#fff" opacity="0.5"/>
    </clipPath>
  </defs>
  <g id="마스크_그룹_15" data-name="마스크 그룹 15" transform="translate(-18476 -2687.958)" clip-path="url(#clip-path)">
    <g id="그룹_57" data-name="그룹 57" transform="translate(18477 2688)">
      <path id="빼기_6" data-name="빼기 6" d="M-18509.314-2553h-13.395a3.293,3.293,0,0,1-3.291-3.287v-29.231a3.293,3.293,0,0,1,3.291-3.287h2.785V-2591h7.672v2.194h2.938a3.291,3.291,0,0,1,3.287,3.287v2.555a15.038,15.038,0,0,0-2.189.311v-2.866a1.1,1.1,0,0,0-1.1-1.1h-13.395a1.1,1.1,0,0,0-1.1,1.1v29.231a1.1,1.1,0,0,0,1.1,1.1h9.895a14.877,14.877,0,0,0,4.848,1.9A3.249,3.249,0,0,1-18509.314-2553Zm-5.3-3.487h-7.992v-4.812h4.188a14.962,14.962,0,0,0,3.8,4.81Zm-4.332-5.993h-3.66v-4.812h2.629a14.993,14.993,0,0,0,1.029,4.811Zm-1.039-6h-2.621v-4.808h3.572a14.882,14.882,0,0,0-.949,4.807Zm1.449-5.979h-4.07v-4.812h7.715a14.965,14.965,0,0,0-3.645,4.812Zm5.176-5.993h-9.246v-4.812h13.2v2.924a14.931,14.931,0,0,0-3.953,1.888Z" transform="translate(18527 2591)" fill="#fff" opacity="0.98"/>
      <path id="빼기_7" data-name="빼기 7" d="M-18513-2565a12.907,12.907,0,0,1-9.189-3.806A12.916,12.916,0,0,1-18526-2578a12.916,12.916,0,0,1,3.809-9.192A12.91,12.91,0,0,1-18513-2591a12.911,12.911,0,0,1,9.191,3.808A12.916,12.916,0,0,1-18500-2578a12.916,12.916,0,0,1-3.809,9.194A12.915,12.915,0,0,1-18513-2565Zm0-22a1,1,0,0,0-1,1v8a.989.989,0,0,0,.139.507.982.982,0,0,0,.465.609l8.662,5a1.016,1.016,0,0,0,.5.135,1,1,0,0,0,.863-.5,1.006,1.006,0,0,0-.361-1.367l-8.268-4.77V-2586A1,1,0,0,0-18513-2587Z" transform="translate(18535 2601)" fill="#fff"/>
    </g>
  </g>
</svg>
