<svg xmlns="http://www.w3.org/2000/svg" xmlns:xlink="http://www.w3.org/1999/xlink" width="38" height="38" viewBox="0 0 38 38">
  <defs>
    <clipPath id="clip-path">
      <rect id="사각형_2" data-name="사각형 2" width="38" height="38" transform="translate(3003 2605)" fill="#fff" stroke="#707070" stroke-width="1" opacity="0.5"/>
    </clipPath>
  </defs>
  <g id="마스크_그룹_2" data-name="마스크 그룹 2" transform="translate(-3003 -2605)" clip-path="url(#clip-path)">
    <path id="gear" d="M35.247,13.938l-2.774-.6a15.1,15.1,0,0,0-.893-2.153l1.536-2.389a1.079,1.079,0,0,0-.145-1.346L28.649,3.125A1.079,1.079,0,0,0,27.3,2.98L24.914,4.516a15.1,15.1,0,0,0-2.153-.893l-.6-2.774A1.079,1.079,0,0,0,21.1,0H14.992a1.079,1.079,0,0,0-1.054.849l-.6,2.774a15.1,15.1,0,0,0-2.153.893L8.793,2.98a1.079,1.079,0,0,0-1.346.145L3.125,7.447A1.079,1.079,0,0,0,2.98,8.793l1.536,2.389a15.1,15.1,0,0,0-.893,2.153l-2.774.6A1.079,1.079,0,0,0,0,14.992V21.1a1.079,1.079,0,0,0,.849,1.054l2.774.6a15.1,15.1,0,0,0,.893,2.153L2.98,27.3a1.079,1.079,0,0,0,.145,1.346l4.322,4.322a1.079,1.079,0,0,0,1.346.145l2.389-1.536a15.1,15.1,0,0,0,2.153.893l.6,2.774a1.079,1.079,0,0,0,1.054.849H21.1a1.079,1.079,0,0,0,1.054-.849l.6-2.774a15.1,15.1,0,0,0,2.153-.893L27.3,33.116a1.078,1.078,0,0,0,1.346-.145l4.322-4.322a1.079,1.079,0,0,0,.145-1.346L31.58,24.914a15.1,15.1,0,0,0,.893-2.153l2.774-.6A1.079,1.079,0,0,0,36.1,21.1V14.992A1.079,1.079,0,0,0,35.247,13.938ZM24.52,18.048a6.471,6.471,0,1,1-6.471-6.471A6.479,6.479,0,0,1,24.52,18.048Zm0,0" transform="translate(3004 2605.904)" fill="#fff"/>
  </g>
</svg>
