<svg xmlns="http://www.w3.org/2000/svg" xmlns:xlink="http://www.w3.org/1999/xlink" width="29" height="29" viewBox="0 0 29 29">
  <defs>
    <clipPath id="clip-path">
      <rect id="사각형_45" data-name="사각형 45" width="29" height="29" transform="translate(3061 -1187)" fill="#fff" stroke="#707070" stroke-width="1" opacity="0.5"/>
    </clipPath>
  </defs>
  <g id="마스크_그룹_17" data-name="마스크 그룹 17" transform="translate(-3061 1187)" clip-path="url(#clip-path)">
    <path id="money" d="M11,22A11,11,0,1,1,22,11,11,11,0,0,1,11,22ZM11,2a9,9,0,1,0,9,9A9.01,9.01,0,0,0,11,2Zm2.456,8.213a2.914,2.914,0,0,1,1.142.853,2.292,2.292,0,0,1,.461,1.491,2.648,2.648,0,0,1-.84,1.967A4.085,4.085,0,0,1,11.8,15.54v1.567H10.4V15.582a7.654,7.654,0,0,1-1.973-.364,4.955,4.955,0,0,1-1.513-.756l.77-1.708a5.1,5.1,0,0,0,1.247.658,5.708,5.708,0,0,0,1.469.336V11.41a10.559,10.559,0,0,1-1.679-.532,2.988,2.988,0,0,1-1.149-.861,2.31,2.31,0,0,1-.462-1.505,2.7,2.7,0,0,1,.847-1.995A4.027,4.027,0,0,1,10.4,5.5V3.947h1.4V5.474a6.134,6.134,0,0,1,2.841.854l-.7,1.722A5.56,5.56,0,0,0,11.8,7.321V9.7a10.058,10.058,0,0,1,1.658.511ZM11.8,13.691a1.5,1.5,0,0,0,.755-.363.82.82,0,0,0,.253-.6.728.728,0,0,0-.259-.574,2.311,2.311,0,0,0-.749-.391v1.931ZM10.4,7.363a1.527,1.527,0,0,0-.784.4.911.911,0,0,0-.252.637.718.718,0,0,0,.267.575,2.176,2.176,0,0,0,.769.377Z" transform="translate(3065 -1184)" fill="#b3b8bc" fill-rule="evenodd"/>
  </g>
</svg>
