<svg xmlns="http://www.w3.org/2000/svg" width="55" height="55" viewBox="0 0 55 55">
  <g id="그룹_30" data-name="그룹 30" transform="translate(-1066 -4401)">
    <g id="phone-call" transform="translate(1066 4401)">
      <g id="그룹_26" data-name="그룹 26" transform="translate(0 0)">
        <path id="패스_27" data-name="패스 27" d="M46.942,8.051A27.5,27.5,0,1,0,55,27.494,27.5,27.5,0,0,0,46.942,8.051ZM41.647,38.307l0,0V38.3L40.25,39.685a7.333,7.333,0,0,1-6.921,1.98,24.367,24.367,0,0,1-7.077-3.172,32.7,32.7,0,0,1-5.582-4.5,32.947,32.947,0,0,1-4.171-5.06,25.664,25.664,0,0,1-3.135-6.343A7.333,7.333,0,0,1,15.2,15.1l1.632-1.632a1.164,1.164,0,0,1,1.646,0l0,0,5.152,5.152a1.164,1.164,0,0,1,0,1.646l0,0L20.606,23.3A2.466,2.466,0,0,0,20.35,26.5,35.378,35.378,0,0,0,23.97,30.73a35.161,35.161,0,0,0,4.767,4.006,2.484,2.484,0,0,0,3.172-.275l2.924-2.97a1.164,1.164,0,0,1,1.646,0l0,0,5.161,5.17A1.164,1.164,0,0,1,41.647,38.307Z" transform="translate(0 0)" fill="#1f6ddb"/>
      </g>
    </g>
  </g>
</svg>
