<svg xmlns="http://www.w3.org/2000/svg" width="55" height="55" viewBox="0 0 55 55">
  <g id="그룹_29" data-name="그룹 29" transform="translate(-1066 -4521)">
    <circle id="타원_6" data-name="타원 6" cx="27.5" cy="27.5" r="27.5" transform="translate(1066 4521)" fill="#1f6ddb"/>
    <g id="fax" transform="translate(1078.105 4500.723)">
      <path id="패스_28" data-name="패스 28" d="M28.3,211H2.727C1.223,211,0,212.52,0,214.388v6.776c0,1.868,1.223,3.388,2.727,3.388h3.7v-1.129c0-1.868,1.223-3.388,2.727-3.388H21.877c1.5,0,2.727,1.52,2.727,3.388v1.129h3.7c1.5,0,2.727-1.52,2.727-3.388v-6.776C31.028,212.52,29.8,211,28.3,211Zm-9.151,5.647a1.156,1.156,0,0,1,0-2.259,1.156,1.156,0,0,1,0,2.259Zm3.636,0a1.156,1.156,0,0,1,0-2.259,1.156,1.156,0,0,1,0,2.259Z" transform="translate(0 -166.447)" fill="#fff"/>
      <path id="패스_29" data-name="패스 29" d="M331,32.518v4.4h3.544A5.225,5.225,0,0,0,331,32.518Z" transform="translate(-310.941 -1.404)" fill="#fff"/>
      <path id="패스_30" data-name="패스 30" d="M121.909,31A1.037,1.037,0,0,0,121,32.129V42.294h16.362V37.776h-4.545a1.037,1.037,0,0,1-.909-1.129V31Z" transform="translate(-113.667 0)" fill="#fff"/>
      <path id="패스_31" data-name="패스 31" d="M149.635,370.035a1.037,1.037,0,0,0,.909-1.129v-6.776a1.037,1.037,0,0,0-.909-1.129H136.909a1.037,1.037,0,0,0-.909,1.129v6.776a1.037,1.037,0,0,0,.909,1.129Zm-10-5.647h7.272a1.156,1.156,0,0,1,0,2.259h-7.272a1.156,1.156,0,0,1,0-2.259Z" transform="translate(-127.758 -305.154)" fill="#fff"/>
    </g>
  </g>
</svg>
