<svg xmlns="http://www.w3.org/2000/svg" xmlns:xlink="http://www.w3.org/1999/xlink" width="95" height="95" viewBox="0 0 95 95">
  <defs>
    <clipPath id="clip-path">
      <rect id="사각형_71" data-name="사각형 71" width="95" height="95" transform="translate(2995 -1802)" fill="none" stroke="#707070" stroke-width="1"/>
    </clipPath>
  </defs>
  <g id="마스크_그룹_32" data-name="마스크 그룹 32" transform="translate(-2995 1802)" clip-path="url(#clip-path)">
    <path id="mail" d="M82.044,0H12.954A12.954,12.954,0,0,0,0,12.955V64.773A12.954,12.954,0,0,0,12.954,77.727H82.044A12.954,12.954,0,0,0,95,64.773V12.955A12.954,12.954,0,0,0,82.044,0Zm0,8.636a4.309,4.309,0,0,1,1.425.238L47.5,37.65,11.533,8.874a4.3,4.3,0,0,1,1.421-.238Zm0,60.455H12.954a4.32,4.32,0,0,1-4.318-4.318V17.618L44.8,46.554a4.324,4.324,0,0,0,5.4,0L86.363,17.618V64.773A4.317,4.317,0,0,1,82.044,69.091Z" transform="translate(2995.001 -1793)" fill="#c7c7c7" fill-rule="evenodd"/>
  </g>
</svg>
