<svg xmlns="http://www.w3.org/2000/svg" xmlns:xlink="http://www.w3.org/1999/xlink" width="95" height="95" viewBox="0 0 95 95">
  <defs>
    <clipPath id="clip-path">
      <rect id="사각형_76" data-name="사각형 76" width="95" height="95" transform="translate(2892 -1698)" fill="none" stroke="#707070" stroke-width="1"/>
    </clipPath>
  </defs>
  <g id="마스크_그룹_37" data-name="마스크 그룹 37" transform="translate(-2892 1698)" clip-path="url(#clip-path)">
    <path id="key" d="M73.288,9.936a34.543,34.543,0,0,0-48.513,0,33.7,33.7,0,0,0-2.54,45.2L.516,76.645,5.9,81.98l2.7-2.667L19.383,89.986l5.387-5.339L13.988,73.977l5.391-5.339L30.166,79.312l5.387-5.335L24.771,63.3l2.855-2.829a34.541,34.541,0,0,0,45.662-2.51,33.722,33.722,0,0,0,0-48.029ZM67.9,52.63a26.867,26.867,0,0,1-37.712.015l-.041-.038a26.228,26.228,0,0,1,.019-37.337,26.876,26.876,0,0,1,37.735,0,26.233,26.233,0,0,1,0,37.36Z" transform="translate(2897.739 -1694.986)" fill="#2c5290" fill-rule="evenodd"/>
  </g>
</svg>
