<svg xmlns="http://www.w3.org/2000/svg" xmlns:xlink="http://www.w3.org/1999/xlink" width="95" height="95" viewBox="0 0 95 95">
  <defs>
    <clipPath id="clip-path">
      <rect id="사각형_65" data-name="사각형 65" width="95" height="95" transform="translate(3483 -2667)" fill="none" stroke="#707070" stroke-width="1" opacity="0.5"/>
    </clipPath>
  </defs>
  <g id="마스크_그룹_26" data-name="마스크 그룹 26" transform="translate(-3483 2667)" clip-path="url(#clip-path)">
    <path id="unlock-alt-solid" d="M71.285,45.622h-44.2V27.248a12.832,12.832,0,1,1,25.663-.16v2.851a4.267,4.267,0,0,0,4.277,4.277h5.7a4.267,4.267,0,0,0,4.277-4.277V27.087a27.089,27.089,0,1,0-54.177.267V45.622H8.554A8.556,8.556,0,0,0,0,54.176V82.69a8.556,8.556,0,0,0,8.554,8.554H71.285a8.556,8.556,0,0,0,8.554-8.554V54.176A8.556,8.556,0,0,0,71.285,45.622ZM47.048,72.71a7.128,7.128,0,0,1-14.257,0V64.156a7.128,7.128,0,0,1,14.257,0Z" transform="translate(3491 -2665.244)" fill="#2c5290"/>
  </g>
</svg>
