<svg xmlns="http://www.w3.org/2000/svg" xmlns:xlink="http://www.w3.org/1999/xlink" width="95" height="95" viewBox="0 0 95 95">
  <defs>
    <clipPath id="clip-path">
      <rect id="사각형_77" data-name="사각형 77" width="95" height="95" transform="translate(2892 -1802)" fill="none" stroke="#707070" stroke-width="1"/>
    </clipPath>
  </defs>
  <g id="마스크_그룹_38" data-name="마스크 그룹 38" transform="translate(-2892 1802)" clip-path="url(#clip-path)">
    <path id="phone" d="M53.2,95h-38A15.215,15.215,0,0,1,0,79.8V15.2A15.215,15.215,0,0,1,15.2,0h38A15.215,15.215,0,0,1,68.4,15.2V79.8A15.215,15.215,0,0,1,53.2,95Zm7.6-79.8a7.622,7.622,0,0,0-7.6-7.6h-38a7.622,7.622,0,0,0-7.6,7.6V79.8a7.622,7.622,0,0,0,7.6,7.6h38a7.622,7.622,0,0,0,7.6-7.6ZM11.4,11.4H57V64.6H11.4Zm3.8,49.4h38V15.2h-38Zm19,7.6A7.6,7.6,0,1,1,26.6,76,7.6,7.6,0,0,1,34.2,68.4Zm0,11.4A3.8,3.8,0,1,0,30.4,76,3.806,3.806,0,0,0,34.2,79.8Z" transform="translate(2905.6 -1802)" fill="#2c5290" fill-rule="evenodd"/>
  </g>
</svg>
