<svg xmlns="http://www.w3.org/2000/svg" width="40" height="26" fill="none" viewBox="0 0 40 26">
    <path stroke="#858585" stroke-linecap="round" stroke-linejoin="round" stroke-miterlimit="10" stroke-width="1.2" d="M32.336 8.79c-1.121-1.55-3.08-2.27-4.883-1.69-.906.29-1.647.81-2.017 1.73-.351.87-.331 1.93.224 2.7 1.189 1.67 3.606.95 5.194 1.87 1.51.87 1.774 3.07.614 4.14-1.822 1.67-5.438.74-6.831-.99M28.477 5.48v14.37"/>
    <path fill="#858585" d="M11.704 6.39c.156 0 .302.04.419.12.117.08.175.21.175.38v10.9c0 .41-.078.69-.224.86-.146.17-.38.24-.702.24-.117 0-.214-.01-.302-.04-.088-.02-.175-.06-.263-.12-.088-.06-.166-.15-.253-.26-.088-.12-.176-.27-.283-.47l-4.99-8.7c-.116-.2-.224-.41-.321-.63-.098-.22-.195-.45-.273-.7v10.46c0 .17-.058.3-.175.38-.117.08-.264.12-.42.12-.146 0-.282-.04-.399-.12-.117-.08-.175-.21-.175-.38V7.54c0-.41.078-.69.224-.86.146-.17.38-.24.701-.24.117 0 .215.01.303.03.087.02.175.06.253.12.078.06.166.15.244.27.087.12.185.28.302.46l4.99 8.7c.223.4.428.84.594 1.33V6.89c0-.17.058-.3.175-.38.117-.08.253-.12.4-.12zM23.378 6.61c.069.1.108.24.108.4 0 .16-.04.3-.108.4-.068.1-.185.16-.34.16H19.46v10.85c0 .19-.059.32-.185.4-.127.08-.273.12-.439.12-.156 0-.302-.04-.429-.12-.126-.08-.185-.22-.185-.4V7.57h-3.576c-.156 0-.273-.05-.341-.16-.069-.11-.098-.24-.098-.4 0-.16.03-.3.098-.4.068-.1.185-.16.34-.16h8.391c.166.01.273.06.341.16z"/>
</svg>
