<svg xmlns="http://www.w3.org/2000/svg" width="38" height="26" fill="none" viewBox="0 0 38 26">
    <path fill="#BEBEBE" d="M8.498 6.39c.165 0 .321.04.438.12.127.08.185.22.185.4v8.68c0 1.19-.282 2.06-.838 2.63-.565.56-1.374.85-2.446.85-.477 0-.936-.06-1.364-.19-.43-.13-.81-.3-1.121-.52-.136-.09-.214-.22-.234-.37-.02-.15.01-.3.098-.45.087-.14.194-.23.321-.28.127-.05.263-.02.429.07.273.17.555.31.858.41.302.1.633.15.994.15.701 0 1.218-.2 1.559-.59.331-.4.507-1.04.507-1.92V6.91c0-.19.058-.32.185-.4.126-.08.273-.12.429-.12zM16.332 6.46c1.365 0 2.378.31 3.04.94.664.63.995 1.51.995 2.64v.28c0 1.13-.341 2.02-1.033 2.67-.682.65-1.696.98-3.04.98h-2.807v4.45c0 .19-.059.32-.185.4-.127.08-.273.12-.439.12-.156 0-.302-.04-.429-.12-.127-.08-.185-.22-.185-.4V7.61c0-.44.078-.74.244-.91.165-.16.458-.24.896-.24h2.943zm-.185 6.39c1.053 0 1.813-.22 2.28-.66.468-.44.702-1.08.702-1.9v-.23c0-.8-.224-1.42-.672-1.84-.448-.42-1.17-.64-2.154-.64h-2.807v5.27h2.651z"/>
    <path stroke="#BEBEBE" stroke-linecap="round" stroke-linejoin="round" stroke-miterlimit="10" stroke-width="1.2" d="M22.531 6.77l4.337 6.17 4.395-6.26M26.898 13.38v5.44M23.097 13.36h7.601M23.097 16.13h7.601"/>
</svg>
