<svg xmlns="http://www.w3.org/2000/svg" width="120.522" height="120.522" viewBox="0 0 120.522 120.522">
  <g id="automation" transform="translate(-1 -1)">
    <path id="패스_15" data-name="패스 15" d="M28.327,40.663A11.663,11.663,0,1,0,16.663,52.327,11.675,11.675,0,0,0,28.327,40.663Zm-19.439,0a7.776,7.776,0,1,1,7.776,7.776A7.783,7.783,0,0,1,8.888,40.663Z" transform="translate(3.776 26.429)" fill="#fff"/>
    <path id="패스_16" data-name="패스 16" d="M113.746,78.756V67.093h-7.776V59.317h9.719V53.485a17.513,17.513,0,0,0-15.421-17.361,9.382,9.382,0,0,0-2.778-1.542L80.562,27.812a9.564,9.564,0,0,0-6.121-10.6A29.9,29.9,0,0,0,47.762,1H46.205A30.282,30.282,0,0,0,33.329,3.894L27.577,6.62,19.636,3.443a9.691,9.691,0,0,0-11.9,13.238A18.558,18.558,0,0,0,9.277,46.437l3.178,2.119-.062.863A19.4,19.4,0,0,0,9.979,83.45l-1.1,18.819A9.727,9.727,0,0,0,1,111.8v9.719H51.541V111.8a9.726,9.726,0,0,0-7.89-9.535L38.9,32.054,81.3,49.014a17.411,17.411,0,0,0-.6,4.471v5.832h9.719v7.776H63.2V78.756H55.429V94.307H78.756v7.776H59.317v19.439h62.2V78.756Zm-3.888,0h-7.776V70.98h7.776Zm-31.1,0V70.98h7.776v7.776ZM90.419,70.98h7.776v7.776H90.419ZM76.812,26.271c0,.014,0,.025,0,.039L66.741,22.284a5.82,5.82,0,0,1,10.071,3.987ZM34.993,7.409A26.334,26.334,0,0,1,46.2,4.888H47.76A26.017,26.017,0,0,1,69.608,16.652a9.689,9.689,0,0,0-6.625,4.129L32.5,8.589Zm-23.97,3.408A5.823,5.823,0,0,1,16.551,6.83a5.727,5.727,0,0,1,1.746.264L49.9,19.735,45.08,30.343,14.71,18.2a5.831,5.831,0,0,1-3.688-7.379Zm.41,32.383a14.691,14.691,0,0,1-1.427-23.37,9.358,9.358,0,0,0,3.367,2.014l.962.385L12.774,44.094ZM4.888,67.093A15.569,15.569,0,0,1,20.439,51.541h15.88l2.107,31.1H20.439A15.569,15.569,0,0,1,4.888,67.093ZM20.439,86.532H38.688l1.054,15.551H12.78l.982-16.758a19.277,19.277,0,0,0,6.677,1.207ZM47.654,111.8v5.832H4.888V111.8a5.839,5.839,0,0,1,5.832-5.832h31.1A5.839,5.839,0,0,1,47.654,111.8Zm-11.6-64.149H20.439a19.478,19.478,0,0,0-4.053.432l1.74-24.34,16.766,6.706ZM48.7,31.787,53.518,21.18,92.75,36.871A17.566,17.566,0,0,0,82.7,45.389Zm35.892,21.7a13.607,13.607,0,0,1,27.215,0v1.944H84.588Zm9.719,5.832h7.776v7.776H94.307ZM67.093,70.98h7.776v7.776H67.093ZM59.317,82.644h58.317v7.776H59.317Zm58.317,27.215h-17.5a1.947,1.947,0,0,1-1.944-1.944v-3.888a1.947,1.947,0,0,1,1.944-1.944h17.5Zm0-11.663h-17.5a5.839,5.839,0,0,0-5.832,5.832v3.888a5.839,5.839,0,0,0,5.832,5.832h17.5v3.888H63.2V105.971H82.644V94.307h34.99Z" transform="translate(0 0)" fill="#fff"/>
    <path id="패스_17" data-name="패스 17" d="M39,57h3.888v3.888H39Z" transform="translate(35.868 52.858)" fill="#fff"/>
    <path id="패스_18" data-name="패스 18" d="M35,57h3.888v3.888H35Z" transform="translate(32.093 52.858)" fill="#fff"/>
    <path id="패스_19" data-name="패스 19" d="M43,57h3.888v3.888H43Z" transform="translate(39.644 52.858)" fill="#fff"/>
    <path id="패스_20" data-name="패스 20" d="M0,0H3.888V3.888H0Z" transform="translate(23.054 17.374) rotate(-68.156)" fill="#fff"/>
    <path id="패스_21" data-name="패스 21" d="M0,0H3.89V3.888H0Z" transform="translate(30.267 20.222) rotate(-68.23)" fill="#fff"/>
    <path id="패스_22" data-name="패스 22" d="M0,0H3.89V3.888H0Z" transform="translate(15.828 14.457) rotate(-68.23)" fill="#fff"/>
  </g>
</svg>
