<svg xmlns="http://www.w3.org/2000/svg" width="80.46" height="80.46" viewBox="0 0 80.46 80.46">
  <path id="패스_1" data-name="패스 1" d="M80.46,41.528V7.786H62.292V0H18.168V7.786H0V41.528H7.786V61.178a5.18,5.18,0,1,0,6.3,6.3H25.955v2.234l3.187,1.061-1.5,3,4.994,4.994,3-1.5L36.7,80.46H43.76l1.063-3.186,3,1.5,4.994-4.994-1.5-3,3.189-1.061V67.483H66.369a5.18,5.18,0,1,0,6.3-6.3V41.528Zm-18.168-2.6V31.146H77.865v7.786Zm-40.23,0h-1.3V28.55H59.7V38.932Zm40.23-18.168H77.865V28.55H62.292Zm-2.6,5.191H20.764V15.573H59.7Zm-41.528,2.6H2.6V20.764H18.168Zm59.7-18.168v7.786H62.292V10.382ZM59.7,2.6V12.977H20.764V2.6ZM18.168,10.382v7.786H2.6V10.382ZM2.6,31.146H18.168v7.786H2.6ZM9.084,68.78a2.6,2.6,0,1,1,2.6-2.6A2.6,2.6,0,0,1,9.084,68.78Zm5.007-3.893a5.183,5.183,0,0,0-3.709-3.709V41.528h28.55V51.91H36.7L35.636,55.1l-3-1.5-4.994,4.994,1.5,3-3.187,1.061v2.234ZM51.91,67.845l-2.982.994-.218.578c-.063.165-.127.327-.2.487l-.252.561,1.4,2.806-2.348,2.348-2.806-1.4-.562.252c-.162.073-.326.136-.492.2l-.572.219-.993,2.977h-3.32l-.993-2.977L37,74.668c-.166-.065-.331-.13-.492-.2l-.561-.252-2.806,1.4L30.8,73.271l1.4-2.806-.252-.561c-.072-.16-.136-.322-.2-.487l-.218-.578-2.981-.994v-3.32l2.982-.994.218-.578c.063-.165.127-.327.2-.487L32.2,61.9,30.8,59.1l2.348-2.348,2.806,1.4.562-.252c.162-.073.326-.136.492-.2l.572-.219.993-2.976h3.32l.993,2.977.572.219c.166.065.331.13.492.2l.561.252,2.806-1.4L49.663,59.1l-1.4,2.806.252.561c.072.16.136.322.2.487l.218.578,2.981.994Zm22.062-1.66a2.6,2.6,0,1,1-2.6-2.6A2.6,2.6,0,0,1,73.971,66.185Zm-3.893-5.007a5.183,5.183,0,0,0-3.709,3.709H54.505V62.654l-3.187-1.061,1.5-3-4.994-4.994-3,1.5L43.762,51.91H41.528V41.528h28.55Zm0,0" fill="#fff"/>
</svg>
