<svg xmlns="http://www.w3.org/2000/svg" xmlns:xlink="http://www.w3.org/1999/xlink" width="80" height="80" viewBox="0 0 80 80">
  <defs>
    <clipPath id="clip-path">
      <rect id="사각형_60" data-name="사각형 60" width="80" height="80" transform="translate(-771.435 79)" fill="none" stroke="red" stroke-width="1"/>
    </clipPath>
  </defs>
  <g id="마스크_그룹_17" data-name="마스크 그룹 17" transform="translate(771.435 -79)" clip-path="url(#clip-path)">
    <g id="그룹_33" data-name="그룹 33" transform="translate(-138.266 -23.242)">
      <path id="패스_22" data-name="패스 22" d="M48.452,72.533c-8.136,0-16.271,2.034-16.271,8.136S21.333,90.16,21.333,96.94s12.881,12.881,12.881,16.271-6.1,2.034-6.1,8.136,9.491,8.136,13.559,8.136H72.858c5.424,0,9.491-3.39,9.491-8.136s-5.424-4.746-5.424-8.136,18.305-6.78,18.305-16.271c0-10.847-12.2-24.407-22.373-24.407Z" transform="translate(-651.112 41.646)" fill="#cbcbcb"/>
      <path id="패스_23" data-name="패스 23" d="M57.627,126.571H22.373a.678.678,0,1,1,0-1.356H57.627a.678.678,0,1,1,0,1.356Zm8.136-8.136H38.644a.678.678,0,1,1,0-1.356H65.763a.678.678,0,1,1,0,1.356Zm-32.542,0H8.814a.678.678,0,1,1,0-1.356H33.22a.678.678,0,1,1,0,1.356ZM60.339,110.3H30.508a.678.678,0,1,1,0-1.356h29.83a.678.678,0,1,1,0,1.356Zm-35.254,0H14.237a.678.678,0,1,1,0-1.356H25.085a.678.678,0,1,1,0,1.356ZM73.9,102.164H44.068a.678.678,0,1,1,0-1.356H73.9a.678.678,0,0,1,0,1.356Zm-35.254,0H8.814a.678.678,0,1,1,0-1.356h29.83a.678.678,0,1,1,0,1.356Zm40.678-8.136H22.373a.678.678,0,1,1,0-1.356H79.322a.678.678,0,1,1,0,1.356Zm-62.373,0H.678a.678.678,0,1,1,0-1.356H16.949a.678.678,0,1,1,0,1.356Zm48.814-8.136H54.915a.678.678,0,1,1,0-1.356H65.763a.678.678,0,1,1,0,1.356Zm-16.271,0H6.1a.678.678,0,1,1,0-1.356h43.39a.678.678,0,1,1,0,1.356Zm18.983-8.136H38.644a.678.678,0,1,1,0-1.356h29.83a.678.678,0,0,1,0,1.356Zm-35.254,0H14.237a.678.678,0,1,1,0-1.356H33.22a.678.678,0,1,1,0,1.356Zm29.83-8.136H27.8a.678.678,0,1,1,0-1.356H63.051a.678.678,0,1,1,0,1.356Z" transform="translate(-633.168 45.235)" fill="#e9e9e9"/>
    </g>
  </g>
</svg>
