<svg xmlns="http://www.w3.org/2000/svg" xmlns:xlink="http://www.w3.org/1999/xlink" width="95" height="95" viewBox="0 0 95 95">
  <defs>
    <clipPath id="clip-path">
      <rect id="사각형_70" data-name="사각형 70" width="95" height="95" transform="translate(2995 -1698)" fill="none" stroke="#707070" stroke-width="1"/>
    </clipPath>
  </defs>
  <g id="마스크_그룹_31" data-name="마스크 그룹 31" transform="translate(-2995 1698)" clip-path="url(#clip-path)">
    <path id="location" d="M36,92S0,68,0,36a36,36,0,0,1,72,0C72,68,36,92,36,92ZM36,8A28.031,28.031,0,0,0,8,36C8,57.028,27.112,74.848,36,82c8.884-7.148,28-24.968,28-46A28.031,28.031,0,0,0,36,8Zm0,44A16,16,0,1,1,52,36,16,16,0,0,1,36,52Zm0-24a8,8,0,1,0,8,8A8.008,8.008,0,0,0,36,28Z" transform="translate(3007 -1696)" fill="#c7c7c7" fill-rule="evenodd"/>
  </g>
</svg>
