<svg xmlns="http://www.w3.org/2000/svg" width="16.3" height="31.207" viewBox="0 0 16.3 31.207">
  <g id="home" transform="translate(-0.35 -0.081)">
    <path id="패스_730" data-name="패스 730" d="M8.5,22.755a.551.551,0,0,1,.314.09.306.306,0,0,1,.144.279v.468h2.385a.251.251,0,0,1,.225.108.444.444,0,0,1,.072.252.428.428,0,0,1-.072.243.251.251,0,0,1-.225.108H5.655a.251.251,0,0,1-.225-.108.428.428,0,0,1-.072-.243A.444.444,0,0,1,5.43,23.7a.251.251,0,0,1,.225-.108H8.04v-.468a.312.312,0,0,1,.135-.279.6.6,0,0,1,.324-.09Zm0,1.944a6.542,6.542,0,0,1,1.025.072,2.779,2.779,0,0,1,.774.207,1.162,1.162,0,0,1,.477.369.815.815,0,0,1,.171.522.858.858,0,0,1-.17.531,1.218,1.218,0,0,1-.478.36,3.266,3.266,0,0,1-.774.207A7.466,7.466,0,0,1,8.5,27.03a4.814,4.814,0,0,1-1.8-.27.937.937,0,0,1,0-1.782A4.673,4.673,0,0,1,8.5,24.7Zm0,.657a4.161,4.161,0,0,0-1.207.126q-.369.126-.369.387t.37.387a4.449,4.449,0,0,0,1.205.117,4.357,4.357,0,0,0,1.2-.117q.378-.126.378-.387T9.7,25.482a4.06,4.06,0,0,0-1.2-.126Zm.44,2.268h3.042a.251.251,0,0,1,.225.108.4.4,0,0,1,.072.243.444.444,0,0,1-.072.252.26.26,0,0,1-.225.1H5.016a.26.26,0,0,1-.225-.1.444.444,0,0,1-.072-.252.4.4,0,0,1,.072-.243.251.251,0,0,1,.225-.108H8.058v-.936H8.94Zm1.593,1.242a.766.766,0,0,1,.54.144.72.72,0,0,1,.153.531v1.071a.715.715,0,0,1-.153.531.766.766,0,0,1-.54.144H6.465a.766.766,0,0,1-.54-.144.75.75,0,0,1-.144-.531V29.541a.75.75,0,0,1,.144-.531.766.766,0,0,1,.54-.144Zm-3.7.7q-.189,0-.189.18V30.4a.167.167,0,0,0,.19.189h3.33a.167.167,0,0,0,.188-.189v-.648q0-.18-.189-.18H6.834Z" fill="#ff8200"/>
    <path id="패스_731" data-name="패스 731" d="M2.667,6.833v8.584A.642.642,0,0,0,3.358,16H6.583V10.25h3.834V16h3.225a.641.641,0,0,0,.691-.583V6.833L16,8.5,8.5,1m0,0L1,8.5Z" fill="none" stroke="#ff8200" stroke-linecap="round" stroke-linejoin="round" stroke-miterlimit="8" stroke-width="1.3"/>
  </g>
</svg>
