<svg xmlns="http://www.w3.org/2000/svg" width="41" height="26" fill="none" viewBox="0 0 41 26">
    <path stroke="#858585" stroke-linecap="round" stroke-linejoin="round" stroke-miterlimit="10" stroke-width="1.2" d="M33.368 8.79c-1.12-1.55-3.08-2.27-4.883-1.69-.906.29-1.647.81-2.017 1.73-.35.87-.331 1.93.224 2.7 1.19 1.67 3.606.95 5.195 1.87 1.51.87 1.773 3.07.613 4.14-1.822 1.67-5.438.74-6.831-.99M29.509 5.48v14.37"/>
    <path fill="#858585" d="M7.923 6.26c.76 0 1.423.08 1.988.25.566.17 1.063.39 1.501.67.146.1.234.23.244.38.01.15-.02.3-.107.45-.088.13-.205.21-.332.25-.126.04-.273.02-.419-.08-.4-.26-.818-.45-1.257-.57-.438-.12-.994-.18-1.647-.18-2.397 0-3.596 1.62-3.596 4.87v.68c0 1.61.292 2.82.877 3.63s1.501 1.22 2.748 1.22c.683 0 1.277-.08 1.794-.25.516-.17.984-.42 1.403-.76.127-.09.263-.13.41-.1.145.02.272.1.37.24.117.15.165.31.146.47-.02.16-.107.3-.263.42-.468.37-1.014.66-1.647.87-.634.21-1.374.31-2.232.31-1.628 0-2.836-.5-3.655-1.49-.808-1-1.218-2.47-1.218-4.43v-.96c0-1.96.41-3.43 1.228-4.43.829-.96 2.047-1.46 3.664-1.46zM18.566 6.39c.165 0 .321.04.438.12.127.08.224.23.302.44l4.22 11.18c.068.19.068.35-.01.48s-.195.23-.35.29c-.166.06-.332.07-.488.03-.156-.04-.263-.16-.331-.36l-1.277-3.48h-5.107l-1.296 3.49c-.068.19-.175.3-.321.34-.146.04-.302.03-.478-.03-.156-.06-.273-.15-.331-.28-.059-.13-.059-.29.01-.47l4.239-11.2c.078-.21.185-.35.312-.44.126-.09.292-.11.468-.11zm-.02 1.51c-.127.42-.253.84-.39 1.25-.136.41-.302.86-.497 1.35l-1.296 3.49H20.7l-1.257-3.49c-.186-.48-.351-.93-.498-1.36-.146-.43-.272-.84-.399-1.24z"/>
</svg>
