<svg xmlns="http://www.w3.org/2000/svg" width="17" height="32" fill="none" viewBox="0 0 17 32">
    <path fill="#FF8200" d="M8.5 22.755c.12 0 .224.03.314.09.096.06.144.153.144.279v.468h2.385c.102 0 .177.036.225.108.048.072.072.156.072.252 0 .09-.024.171-.072.243-.048.072-.123.108-.225.108H5.655c-.102 0-.177-.036-.225-.108-.048-.072-.072-.153-.072-.243 0-.096.024-.18.072-.252.048-.072.123-.108.225-.108H8.04v-.468c0-.126.045-.219.135-.279.096-.06.204-.09.324-.09zm0 1.944c.383 0 .725.024 1.025.072.306.042.564.111.774.207.21.096.37.219.477.369.114.144.171.318.171.522 0 .204-.057.381-.17.531-.109.144-.268.264-.478.36-.21.09-.468.159-.774.207-.3.042-.642.063-1.026.063-.768 0-1.368-.09-1.8-.27-.432-.186-.648-.483-.648-.891 0-.408.216-.705.648-.891.432-.186 1.032-.279 1.8-.279zm0 .657c-.553 0-.955.042-1.207.126-.246.084-.369.213-.369.387 0 .174.123.303.37.387.251.078.653.117 1.205.117s.951-.039 1.197-.117c.252-.084.378-.213.378-.387 0-.174-.126-.303-.378-.387-.246-.084-.645-.126-1.197-.126zm.44 2.268h3.042c.102 0 .177.036.225.108.048.066.072.147.072.243s-.024.18-.072.252c-.048.066-.123.099-.225.099H5.016c-.102 0-.177-.033-.225-.099-.048-.072-.072-.156-.072-.252s.024-.177.072-.243c.048-.072.123-.108.225-.108h3.042v-.936h.882v.936zm1.593 1.242c.264 0 .444.048.54.144.102.096.153.273.153.531v1.071c0 .258-.05.435-.153.531-.096.096-.276.144-.54.144H6.465c-.264 0-.444-.048-.54-.144-.096-.096-.144-.273-.144-.531v-1.071c0-.258.048-.435.144-.531.096-.096.276-.144.54-.144h4.068zm-3.699.702c-.126 0-.189.06-.189.18v.648c0 .126.063.189.19.189h3.33c.125 0 .188-.063.188-.189v-.648c0-.12-.063-.18-.189-.18h-3.33z"/>
    <path stroke="#FF8200" stroke-linecap="round" stroke-linejoin="round" stroke-miterlimit="8" stroke-width="1.3" d="M2.667 6.833v8.584c.029.35.341.612.691.583h3.225v-5.75h3.834V16h3.225c.35.03.662-.233.691-.583V6.833L16 8.5 8.5 1m0 0L1 8.5 8.5 1z"/>
</svg>
