<svg xmlns="http://www.w3.org/2000/svg" width="16" height="16" fill="none" viewBox="0 0 16 16">
    <path stroke="#878787" stroke-linecap="round" stroke-linejoin="round" stroke-miterlimit="10" stroke-width="1.2" d="M14.56 11.164l-1.618-1.618c-.586-.587-1.542-.587-2.129 0l-1.068 1.069c-.707-.407-1.58-1.009-2.456-1.874-.888-.876-1.505-1.753-1.922-2.464l1.09-1.09c.587-.587.587-1.543 0-2.13L4.84 1.44c-.587-.587-1.542-.587-2.129 0L1.432 2.72c-.327.327-.466.771-.425 1.204h-.004.004c.03.632.128 1.55.463 2.599.726 2.29 2.084 3.69 3.22 4.833 1.309 1.317 2.9 2.923 5.465 3.469.877.184 1.629.199 2.144.176.12-.007.309-.03.523-.12.218-.094.373-.222.459-.308l1.279-1.28c.587-.586.587-1.541 0-2.128z"/>
</svg>
