<svg xmlns="http://www.w3.org/2000/svg" width="17" height="18" fill="none" viewBox="0 0 17 18">
    <path stroke="#FF8200" stroke-linecap="round" stroke-linejoin="round" stroke-miterlimit="8" stroke-width="1.5" d="M15.03 12.93l-9.01-2.26v-6.7l9.01-2.25c.45-.11.9.16 1.01.61.02.07.03.15.02.23v9.55c0 .46-.38.84-.84.84-.06 0-.12-.01-.19-.02zM6.02 3.98H4.35C2.5 3.98 1 5.48 1 7.33s1.5 3.35 3.35 3.35h1.67v-6.7z"/>
    <path stroke="#FF8200" stroke-linecap="round" stroke-linejoin="round" stroke-miterlimit="8" stroke-width="1.5" d="M6.02 10.67v5.02c0 .46-.37.84-.84.84H4.2c-.4.01-.76-.27-.84-.67L2.18 9.84"/>
</svg>
