<svg width="156" height="26" viewBox="0 0 156 26" fill="none" xmlns="http://www.w3.org/2000/svg">
<path d="M13.2442 16.6364C15.2969 16.6364 16.961 15.003 16.961 12.9881C16.961 10.9732 15.2969 9.33984 13.2442 9.33984C11.1914 9.33984 9.52734 10.9732 9.52734 12.9881C9.52734 15.003 11.1914 16.6364 13.2442 16.6364Z" fill="#FF8200"/>
<path d="M4.91658 13.4156C4.90481 13.277 4.9048 13.1385 4.9048 12.9884C4.9048 10.8064 5.77522 8.7513 7.35135 7.20423C8.92748 5.65717 11.0211 4.80282 13.2441 4.80282C14.5968 4.80282 15.6907 3.72911 15.6907 2.40141C15.6907 1.0737 14.5968 0 13.2441 0C9.70373 0 6.38684 1.35079 3.8815 3.80993C1.37616 6.26907 0 9.52483 0 12.9999C0 16.4751 1.37616 19.7308 3.8815 22.19C4.21084 22.5132 4.55195 22.8134 4.91658 23.102V13.4156Z" fill="#FF8200"/>
<path d="M24.0889 10.5873C22.7127 10.5642 21.5836 11.6494 21.5836 12.9887C21.5836 15.2977 20.6073 17.4682 18.8665 19.0384C17.5021 20.2622 15.7613 21.0011 13.9264 21.1512C13.0089 21.2205 12.1033 21.1512 11.2446 20.9434C10.3742 20.7356 9.52734 21.3821 9.52734 22.2711V25.4806C10.7153 25.8155 11.9738 26.0002 13.2442 26.0002C16.7846 26.0002 20.1015 24.6494 22.6069 22.1902C25.0769 19.7657 26.4531 16.5331 26.4884 13.1041C26.4884 11.7533 25.4416 10.6104 24.0889 10.5873Z" fill="#FF8200"/>
<path d="M38.5805 9.16699C39.4509 9.16699 40.1802 9.25935 40.7683 9.44408C41.3564 9.6288 41.8739 9.85971 42.2856 10.1253C42.5796 10.31 42.7444 10.564 42.7796 10.8757C42.8267 11.1874 42.7443 11.4876 42.5444 11.7762C42.368 12.0187 42.1445 12.1803 41.8857 12.2611C41.6152 12.3419 41.3446 12.3073 41.0506 12.1341C40.3448 11.7185 39.5215 11.5107 38.5805 11.5107C37.6866 11.5107 37.0161 11.7762 36.5692 12.3073C36.1222 12.8384 35.9105 13.6581 35.9105 14.7664V15.2975C35.9105 16.3597 36.1458 17.1679 36.6045 17.722C37.0632 18.2647 37.7336 18.5417 38.604 18.5417C39.6156 18.5417 40.4977 18.3339 41.2505 17.9183C41.5446 17.7567 41.8386 17.7105 42.1327 17.7797C42.4267 17.849 42.662 18.0222 42.8149 18.2993C42.9796 18.5879 43.0384 18.8766 43.0031 19.1998C42.9678 19.5115 42.7913 19.7655 42.4973 19.9618C42.0503 20.2504 41.4858 20.4698 40.8153 20.643C40.1449 20.8162 39.4039 20.897 38.5923 20.897C36.8868 20.897 35.5577 20.4352 34.5932 19.5115C33.6404 18.5879 33.1582 17.1794 33.1582 15.286V14.7549C33.1582 12.8615 33.6286 11.453 34.5814 10.5293C35.5224 9.6288 36.8633 9.16699 38.5805 9.16699Z" fill="black"/>
<path d="M46.2023 4.92969C46.5317 4.92969 46.8375 5.02205 47.108 5.19523C47.3786 5.36841 47.5079 5.6455 47.5079 6.01494V10.7716H47.555C47.7314 10.506 47.9431 10.2636 48.2019 10.0558C48.4607 9.84797 48.7429 9.68633 49.0605 9.55934C49.3663 9.43234 49.6957 9.33998 50.0486 9.2707C50.4014 9.20143 50.7308 9.17834 51.0719 9.17834C52.3422 9.17834 53.3537 9.54778 54.1065 10.2751C54.8593 11.0025 55.2356 12.0877 55.2356 13.5309V19.7538C55.2356 20.1348 55.0945 20.4234 54.824 20.6081C54.5535 20.7929 54.2359 20.8852 53.8713 20.8852C53.5184 20.8852 53.2126 20.7929 52.9303 20.6081C52.648 20.4234 52.5068 20.1348 52.5068 19.7538V14.1082C52.5068 13.6002 52.448 13.173 52.3304 12.8382C52.2128 12.5034 52.0599 12.2378 51.8481 12.0531C51.6482 11.8568 51.4012 11.7298 51.1189 11.649C50.8366 11.5682 50.5308 11.5336 50.2132 11.5336C49.9427 11.5336 49.6486 11.5798 49.3428 11.6606C49.037 11.7414 48.7547 11.8915 48.5077 12.1108C48.249 12.3186 48.049 12.6073 47.8725 12.9652C47.7078 13.3231 47.6256 13.7618 47.6256 14.2813V19.7538C47.6256 20.1348 47.4844 20.4234 47.2138 20.6081C46.9433 20.7929 46.6257 20.8852 46.2611 20.8852C45.9082 20.8852 45.6024 20.7929 45.3201 20.6081C45.0379 20.4234 44.8967 20.1348 44.8967 19.7538V6.02648C44.8967 5.65703 45.0261 5.37995 45.2966 5.20677C45.5789 5.02205 45.873 4.92969 46.2023 4.92969Z" fill="black"/>
<path d="M62.5752 9.16699C63.2691 9.16699 63.9161 9.24781 64.5042 9.42099C65.0923 9.59417 65.6098 9.83662 66.0333 10.1599C66.4567 10.4832 66.7978 10.8757 67.0331 11.3375C67.2683 11.7993 67.3859 12.3304 67.3859 12.9307V19.8579C67.3859 20.2158 67.2565 20.4698 67.0095 20.6314C66.7508 20.7931 66.4685 20.8739 66.1509 20.8739C65.8333 20.8739 65.551 20.7931 65.2922 20.6314C65.0335 20.4698 64.9159 20.2043 64.9159 19.8579V19.3037H64.8924C64.7747 19.5462 64.6101 19.754 64.3984 19.9387C64.1866 20.1234 63.9161 20.2966 63.622 20.4467C63.328 20.5852 62.9987 20.7007 62.6223 20.7931C62.2459 20.8739 61.8695 20.9201 61.4931 20.9201C60.1875 20.9201 59.1877 20.6314 58.482 20.0426C57.7762 19.4654 57.4233 18.6341 57.4233 17.5719V17.2256C57.4233 16.7407 57.4939 16.2904 57.6468 15.8863C57.7997 15.4707 58.0468 15.1128 58.4114 14.8126C58.7643 14.5124 59.2347 14.27 59.7993 14.0968C60.3757 13.9236 61.0814 13.8428 61.94 13.8428H64.6806V13.5426C64.6806 12.8153 64.5042 12.2958 64.1749 11.9725C63.8338 11.6492 63.2927 11.4876 62.5517 11.4876C61.5637 11.4876 60.6462 11.7416 59.7758 12.2496C59.4817 12.4228 59.1994 12.4689 58.9172 12.3881C58.6349 12.3073 58.4114 12.1341 58.2349 11.8455C58.0703 11.5799 58.0115 11.2913 58.0468 11.0027C58.0821 10.7141 58.2467 10.4716 58.5408 10.2869C59.0583 9.94053 59.6699 9.67499 60.3757 9.46717C61.0814 9.2709 61.8106 9.16699 62.5752 9.16699ZM62.0106 15.9094C61.2814 15.9094 60.7874 16.048 60.5051 16.3135C60.2228 16.579 60.0816 16.9485 60.0816 17.3988V17.4449C60.0816 18.2646 60.6227 18.6803 61.7048 18.6803C62.5634 18.6803 63.2339 18.5417 63.7279 18.2531C64.0808 18.0568 64.3277 17.8144 64.4806 17.5488C64.6335 17.2833 64.7041 16.9139 64.7041 16.4636V15.9094H62.0106V15.9094Z" fill="black"/>
<path d="M76.3253 9.16699C77.5956 9.16699 78.6072 9.53645 79.3599 10.2638C80.1127 10.9911 80.4891 12.0764 80.4891 13.5196V19.7424C80.4891 20.1234 80.3479 20.4121 80.0774 20.5968C79.8069 20.7815 79.4893 20.8739 79.1247 20.8739C78.7718 20.8739 78.466 20.7815 78.1837 20.5968C77.9014 20.4121 77.7603 20.1234 77.7603 19.7424V14.0968C77.7603 13.5888 77.7015 13.1616 77.5838 12.8268C77.4662 12.492 77.3133 12.2265 77.1016 12.0418C76.9017 11.8455 76.6547 11.7185 76.3724 11.6377C76.0901 11.5569 75.7842 11.5222 75.4667 11.5222C75.1961 11.5222 74.9021 11.5684 74.5963 11.6492C74.2905 11.73 74.0081 11.8801 73.7611 12.0995C73.5024 12.3073 73.3024 12.5959 73.126 12.9538C72.9613 13.3117 72.879 13.7505 72.879 14.27V19.7424C72.879 20.1234 72.7379 20.4121 72.4673 20.5968C72.1968 20.7815 71.8792 20.8739 71.5146 20.8739C71.1617 20.8739 70.8559 20.7815 70.5736 20.5968C70.2913 20.4121 70.1501 20.1234 70.1501 19.7424V10.3908C70.1501 10.0213 70.2796 9.74425 70.5501 9.57107C70.8206 9.3979 71.1147 9.30554 71.4558 9.30554C71.7851 9.30554 72.0909 9.3979 72.3614 9.57107C72.632 9.74425 72.7614 10.0213 72.7614 10.3908V10.7718H72.8084C72.9848 10.5062 73.1965 10.2638 73.4553 10.056C73.7141 9.84817 73.9964 9.68653 74.314 9.55954C74.6198 9.43254 74.9491 9.34018 75.302 9.2709C75.6548 9.20163 75.9959 9.16699 76.3253 9.16699Z" fill="black"/>
<path d="M87.4638 9.16699C87.9225 9.16699 88.3342 9.21317 88.6988 9.29399C89.0634 9.37481 89.381 9.49026 89.6397 9.61726C89.9103 9.74425 90.1338 9.8828 90.2984 10.0329C90.4749 10.183 90.6043 10.3215 90.6866 10.4485H90.7101V10.3792C90.7101 10.0098 90.8395 9.73271 91.11 9.55954C91.3805 9.38636 91.6864 9.29399 92.0275 9.29399C92.3568 9.29399 92.6626 9.38636 92.9331 9.55954C93.2037 9.73271 93.3331 10.0098 93.3331 10.3792V20.4236C93.3331 22.063 92.8744 23.2753 91.9687 24.0835C91.0513 24.8916 89.6162 25.2842 87.6519 25.2842C87.0168 25.2842 86.3934 25.2034 85.7818 25.0417C85.1702 24.8801 84.6643 24.6838 84.2644 24.4529C83.9704 24.2913 83.8057 24.0604 83.7704 23.7371C83.7234 23.4138 83.7822 23.1252 83.9469 22.8481C84.1233 22.5479 84.335 22.3517 84.582 22.2478C84.829 22.1439 85.1231 22.1785 85.4524 22.3286C85.7465 22.4902 86.0876 22.6288 86.511 22.7558C86.9227 22.8828 87.3226 22.952 87.7107 22.952C88.6752 22.952 89.4163 22.7557 89.9103 22.3517C90.4043 21.9591 90.6631 21.3011 90.6631 20.389V19.0728H90.616C90.2985 19.6385 89.8397 20.0426 89.2516 20.262C88.6517 20.4929 87.993 20.6083 87.2755 20.6083C85.7582 20.6083 84.6055 20.135 83.8292 19.1998C83.0529 18.2647 82.6648 16.9023 82.6648 15.1128V14.6856C82.6648 12.8615 83.1 11.4876 83.9822 10.564C84.8526 9.64035 86.017 9.16699 87.4638 9.16699ZM87.9225 11.476C87.0521 11.476 86.417 11.7531 86.0053 12.3188C85.5936 12.8846 85.3819 13.6927 85.3819 14.7549V15.0551C85.3819 16.1634 85.57 16.9831 85.9582 17.5258C86.3463 18.0684 86.958 18.3339 87.8166 18.3339C88.2636 18.3339 88.6635 18.2646 89.0164 18.1146C89.3693 17.9645 89.6633 17.7567 89.9103 17.4911C90.1456 17.2256 90.3337 16.9254 90.4631 16.579C90.5925 16.2327 90.6631 15.8632 90.6631 15.4592V13.7966C90.6631 13.5311 90.6043 13.254 90.4984 12.9769C90.3926 12.6998 90.2279 12.4458 90.0044 12.2265C89.7809 12.0071 89.4986 11.8224 89.1575 11.6839C88.8047 11.5453 88.393 11.476 87.9225 11.476Z" fill="black"/>
<path d="M101.108 9.16699C101.884 9.16699 102.602 9.28245 103.237 9.51335C103.872 9.74426 104.425 10.0675 104.884 10.4947C105.342 10.9219 105.707 11.4414 105.954 12.0764C106.213 12.6998 106.33 13.4156 106.33 14.2238V14.27C106.33 14.9396 106.201 15.4014 105.931 15.6554C105.66 15.9094 105.178 16.0364 104.484 16.0364H98.3204V16.0826C98.3204 16.8446 98.5674 17.4796 99.0496 17.9529C99.5319 18.4378 100.261 18.6803 101.237 18.6803C101.849 18.6803 102.378 18.6341 102.837 18.5417C103.296 18.4494 103.755 18.2993 104.237 18.0799C104.531 17.9529 104.813 17.9298 105.084 18.0222C105.354 18.1146 105.566 18.3108 105.695 18.611C105.825 18.9112 105.86 19.1998 105.778 19.4769C105.707 19.754 105.519 19.9618 105.237 20.1003C104.684 20.3659 104.084 20.5737 103.437 20.7122C102.79 20.8508 102.014 20.9201 101.132 20.9201C99.3907 20.9201 98.0499 20.4582 97.0971 19.5231C96.1444 18.5879 95.6621 17.1909 95.6621 15.3322V14.778C95.6621 12.9307 96.1443 11.5338 97.1206 10.5871C98.0733 9.64035 99.4142 9.16699 101.108 9.16699ZM101.061 11.3837C100.144 11.3837 99.4613 11.6146 99.0144 12.0879C98.5556 12.5613 98.3321 13.1501 98.3321 13.8775V14.0275H103.719V13.8197C103.719 13.127 103.519 12.5497 103.108 12.0879C102.696 11.6261 102.014 11.3837 101.061 11.3837Z" fill="black"/>
<path d="M113.67 9.58203C115.128 9.58203 116.246 10.0092 116.999 10.8751C117.763 11.7295 118.14 13.0225 118.14 14.7197V15.7818C118.14 17.5136 117.728 18.8067 116.893 19.6495C116.058 20.4923 114.94 20.9195 113.517 20.9195C112.776 20.9195 112.082 20.7809 111.423 20.4923C110.765 20.2037 110.271 19.7996 109.953 19.2569V24.5678C109.953 24.7063 109.906 24.8102 109.8 24.8679C109.694 24.9257 109.589 24.9488 109.447 24.9488C109.33 24.9488 109.224 24.9257 109.118 24.8679C109.012 24.8102 108.965 24.7063 108.965 24.5678V10.1362C108.965 9.99766 109.012 9.89375 109.118 9.83603C109.224 9.7783 109.33 9.75521 109.447 9.75521C109.565 9.75521 109.671 9.7783 109.777 9.83603C109.883 9.89375 109.93 9.99766 109.93 10.1362V11.6948C110.224 11.0945 110.682 10.598 111.329 10.1939C111.988 9.7783 112.764 9.58203 113.67 9.58203ZM113.588 10.4479C113.164 10.4479 112.741 10.5287 112.306 10.6788C111.87 10.8405 111.482 11.0598 111.129 11.3485C110.776 11.6371 110.494 11.995 110.271 12.4222C110.047 12.8493 109.93 13.3342 109.93 13.8884V17.2943C109.93 17.6637 110.012 18.0101 110.188 18.3333C110.365 18.6566 110.612 18.9452 110.929 19.1992C111.247 19.4532 111.635 19.6495 112.082 19.7996C112.529 19.9497 113.023 20.0189 113.564 20.0189C114.646 20.0189 115.517 19.6726 116.175 18.9914C116.834 18.3102 117.163 17.1904 117.163 15.6433V14.7889C117.163 13.2881 116.869 12.1797 116.281 11.4755C115.705 10.8058 114.799 10.4479 113.588 10.4479Z" fill="black"/>
<path d="M125.574 9.58203C127.056 9.58203 128.22 10.0207 129.102 10.8866C129.973 11.7525 130.42 13.0341 130.42 14.7197V15.7818C130.42 17.4674 129.984 18.749 129.102 19.6149C128.232 20.4807 127.056 20.9195 125.574 20.9195C124.092 20.9195 122.915 20.4807 122.045 19.6149C121.174 18.749 120.728 17.4674 120.728 15.7818V14.7197C120.728 13.0341 121.163 11.7525 122.045 10.8866C122.915 10.0092 124.103 9.58203 125.574 9.58203ZM125.574 10.4479C124.386 10.4479 123.445 10.7943 122.751 11.4985C122.057 12.2028 121.704 13.3111 121.704 14.812V15.6664C121.704 17.1673 122.057 18.2756 122.751 18.9799C123.445 19.6841 124.386 20.0305 125.574 20.0305C126.762 20.0305 127.703 19.6841 128.396 18.9799C129.09 18.2756 129.443 17.1673 129.443 15.6664V14.812C129.443 13.3111 129.09 12.2028 128.396 11.4985C127.703 10.8058 126.762 10.4479 125.574 10.4479Z" fill="black"/>
<path d="M134.089 5.8877C134.336 5.8877 134.536 5.96851 134.713 6.1186C134.877 6.28023 134.96 6.4765 134.96 6.71895C134.96 6.96141 134.877 7.15767 134.713 7.3193C134.548 7.48094 134.336 7.55021 134.089 7.55021C133.842 7.55021 133.63 7.46939 133.466 7.3193C133.301 7.15767 133.219 6.96141 133.219 6.71895C133.219 6.4765 133.301 6.28023 133.466 6.1186C133.63 5.96851 133.842 5.8877 134.089 5.8877ZM134.089 9.7438C134.219 9.7438 134.336 9.76689 134.442 9.82462C134.548 9.88235 134.595 9.98626 134.595 10.1248V20.4232C134.595 20.5617 134.548 20.6656 134.442 20.7233C134.336 20.7811 134.23 20.8042 134.089 20.8042C133.972 20.8042 133.866 20.7811 133.76 20.7233C133.654 20.6656 133.607 20.5617 133.607 20.4232V10.1248C133.607 9.98626 133.654 9.88235 133.76 9.82462C133.866 9.77844 133.972 9.7438 134.089 9.7438Z" fill="black"/>
<path d="M143.099 9.58203C144.44 9.58203 145.452 9.92839 146.134 10.6327C146.804 11.3369 147.145 12.2374 147.145 13.3458V20.423C147.145 20.5616 147.098 20.6655 146.992 20.7232C146.887 20.7809 146.781 20.804 146.64 20.804C146.522 20.804 146.416 20.7809 146.31 20.7232C146.204 20.6655 146.157 20.5616 146.157 20.423V13.6229C146.157 12.5953 145.91 11.8103 145.416 11.2676C144.922 10.725 144.099 10.4479 142.946 10.4479C142.323 10.4479 141.782 10.5518 141.323 10.7712C140.864 10.979 140.488 11.2445 140.194 11.5563C139.9 11.868 139.676 12.2028 139.535 12.5492C139.394 12.8955 139.323 13.1957 139.323 13.4497V20.423C139.323 20.5616 139.276 20.6655 139.171 20.7232C139.065 20.7809 138.959 20.804 138.818 20.804C138.7 20.804 138.594 20.7809 138.488 20.7232C138.383 20.6655 138.335 20.5616 138.335 20.423V10.1247C138.335 9.98612 138.383 9.88221 138.488 9.82448C138.594 9.76675 138.7 9.74366 138.818 9.74366C138.935 9.74366 139.041 9.76675 139.147 9.82448C139.253 9.88221 139.3 9.98612 139.3 10.1247V11.5794H139.323C139.394 11.3946 139.535 11.1868 139.723 10.9559C139.923 10.725 140.17 10.5056 140.488 10.3094C140.794 10.1131 141.17 9.93994 141.605 9.80139C142.029 9.65131 142.535 9.58203 143.099 9.58203Z" fill="black"/>
<path d="M151.85 6.81152C151.98 6.81152 152.097 6.83461 152.203 6.89234C152.309 6.95007 152.356 7.05398 152.356 7.19252V9.8133H155.355C155.473 9.8133 155.555 9.84793 155.602 9.9172C155.649 9.98647 155.673 10.0788 155.673 10.1943C155.673 10.4598 155.567 10.5984 155.343 10.5984H152.344V17.5717C152.344 18.0681 152.368 18.4722 152.427 18.7955C152.485 19.1188 152.591 19.3728 152.732 19.5575C152.873 19.7538 153.073 19.8807 153.309 19.9616C153.544 20.0424 153.85 20.077 154.214 20.077C154.65 20.077 155.038 19.9962 155.391 19.8461C155.649 19.7307 155.838 19.7999 155.955 20.0539C156.061 20.3079 155.979 20.5042 155.72 20.6312C155.32 20.8159 154.802 20.9083 154.203 20.9083C153.744 20.9083 153.332 20.8621 152.991 20.7697C152.638 20.6774 152.356 20.5157 152.109 20.2848C151.874 20.0539 151.686 19.7307 151.568 19.3266C151.45 18.9225 151.38 18.4145 151.38 17.8026V10.5984H149.639C149.427 10.5984 149.31 10.4598 149.31 10.1943C149.31 10.0788 149.333 9.98647 149.38 9.9172C149.427 9.84793 149.509 9.8133 149.627 9.8133H151.368V7.19252C151.368 7.05398 151.415 6.95007 151.521 6.89234C151.627 6.83461 151.733 6.81152 151.85 6.81152Z" fill="black"/>
</svg>
