<svg xmlns="http://www.w3.org/2000/svg" width="68" height="53" fill="none" viewBox="0 0 68 53">
    <path fill="#fff" stroke="#FFC080" stroke-linecap="round" stroke-linejoin="round" stroke-miterlimit="10" stroke-width="1.8" d="M51.31 25.598H5.858v26.275H51.31V25.598zM48.337 10.225H8.82L1 18.627h55.157l-7.82-8.402zM56.158 18.629H1.001v6.968h55.157V18.63z"/>
    <path stroke="#FFC080" stroke-linecap="round" stroke-linejoin="round" stroke-miterlimit="10" stroke-width="1.8" d="M11.593 14.432h33.973"/>
    <path fill="#FFC080" d="M12.963 36.462c.345 0 .635.037.87.112.236.075.438.167.604.276.115.075.181.175.199.302.017.126-.015.247-.095.362-.07.097-.158.164-.268.198-.103.034-.212.017-.327-.052-.282-.166-.61-.25-.983-.25-.356 0-.624.11-.802.328-.172.213-.258.543-.258.991v.216c0 .43.091.758.275.983.184.218.449.327.794.327.402 0 .753-.083 1.051-.25.115-.063.23-.08.345-.052.12.023.213.092.276.207.063.115.086.236.07.363-.012.126-.079.23-.2.31-.177.115-.401.207-.672.276-.264.069-.557.103-.879.103-.678 0-1.207-.187-1.586-.56-.38-.374-.57-.943-.57-1.707v-.216c0-.764.188-1.333.561-1.707.38-.373.911-.56 1.595-.56zm4.21 2.724c-.287 0-.488.055-.603.164-.11.11-.164.256-.164.44v.017c0 .333.215.5.646.5.34 0 .607-.058.802-.172.138-.08.236-.176.293-.285.064-.11.095-.256.095-.44v-.224h-1.069zm.224-2.724c.276 0 .532.034.768.103.235.07.436.17.603.302.172.127.305.285.396.474.098.184.147.397.147.638v2.802c0 .144-.052.25-.155.32-.098.062-.21.094-.336.094-.127 0-.242-.032-.345-.095-.098-.069-.147-.175-.147-.319v-.224h-.008c-.046.098-.112.184-.199.259-.086.074-.19.143-.31.207-.115.057-.247.103-.397.137-.149.035-.298.052-.448.052-.517 0-.917-.118-1.198-.353-.276-.236-.414-.57-.414-1v-.138c0-.196.029-.377.086-.543.063-.167.164-.31.302-.431.144-.127.328-.225.552-.294.23-.069.514-.103.853-.103h1.086v-.12c0-.294-.069-.504-.207-.63-.132-.132-.344-.198-.637-.198-.391 0-.76.103-1.104.31-.115.069-.23.09-.345.06-.109-.034-.198-.109-.267-.224-.063-.109-.09-.221-.078-.336.018-.12.084-.218.199-.293.207-.138.448-.247.724-.328.281-.086.575-.129.88-.129zm4.753 0c.569 0 1.017.09 1.345.267.143.08.232.175.267.285.034.109.02.23-.043.362-.052.109-.127.184-.224.224-.098.035-.21.023-.337-.035-.132-.063-.278-.112-.44-.146-.154-.035-.304-.052-.448-.052-.327 0-.554.04-.68.12-.127.081-.19.176-.19.285v.018c0 .069.008.129.026.18.017.047.054.09.112.13.063.035.152.069.267.103.115.03.273.064.474.104.345.069.63.146.854.233.224.08.402.178.534.293.132.115.224.253.276.414.052.155.077.342.077.56v.035c0 .195-.046.376-.137.543-.087.166-.213.313-.38.44-.16.12-.359.215-.595.284-.23.069-.488.103-.776.103-.339 0-.652-.034-.94-.103-.287-.07-.54-.164-.758-.285-.12-.063-.192-.155-.215-.276-.023-.126-.006-.247.051-.362.064-.12.15-.2.259-.241.11-.04.227-.029.353.034.184.098.383.176.595.233.219.058.434.086.647.086.299 0 .506-.043.62-.129.116-.086.173-.195.173-.327v-.018c0-.069-.009-.13-.026-.18-.017-.053-.06-.099-.13-.139-.068-.04-.169-.077-.3-.112-.133-.034-.311-.075-.535-.12-.305-.058-.56-.127-.768-.207-.2-.08-.365-.179-.491-.294-.127-.12-.219-.258-.276-.413-.052-.161-.078-.345-.078-.552v-.035c0-.172.038-.336.113-.491.074-.16.186-.302.336-.422.155-.121.347-.216.577-.285.23-.075.5-.112.81-.112zm3.325-1.716c.132 0 .25.038.353.112.11.07.164.179.164.328v1.923h.017c.07-.11.155-.205.259-.285.103-.086.215-.155.336-.207.127-.052.259-.089.397-.112.138-.029.273-.043.405-.043.506 0 .908.15 1.207.448.299.293.448.73.448 1.31v2.518c0 .155-.054.27-.164.345-.109.075-.235.112-.379.112-.138 0-.264-.037-.38-.112-.108-.075-.163-.19-.163-.345v-2.285c0-.206-.023-.376-.069-.508-.046-.138-.11-.244-.19-.32-.08-.08-.178-.134-.293-.163-.109-.035-.227-.052-.353-.052-.11 0-.224.018-.345.052-.12.034-.233.095-.336.181-.098.086-.181.201-.25.345-.063.144-.095.322-.095.534v2.216c0 .155-.055.27-.164.345-.11.075-.236.112-.38.112-.137 0-.264-.037-.379-.112-.109-.075-.163-.19-.163-.345v-5.552c0-.15.051-.259.155-.328.109-.074.23-.112.362-.112zm7.535 0c.144 0 .27.038.38.112.109.075.164.19.164.345v1.828c.074-.11.166-.201.276-.276.114-.075.23-.132.344-.172.121-.046.239-.078.354-.095.12-.017.23-.026.327-.026.627 0 1.092.192 1.397.578.305.379.457.94.457 1.68v.225c0 .373-.046.704-.138.991-.092.282-.221.518-.388.707-.167.19-.368.334-.603.431-.23.092-.489.138-.776.138-.316 0-.58-.057-.793-.172-.213-.115-.374-.265-.483-.448h-.026v.163c0 .15-.055.262-.164.337-.103.069-.221.103-.353.103-.133 0-.253-.035-.362-.103-.104-.075-.156-.187-.156-.337v-5.552c0-.155.055-.27.164-.345.115-.074.242-.112.38-.112zm1.63 2.647c-.362 0-.638.106-.828.319-.184.207-.276.474-.276.802v.802c0 .12.03.238.087.353.057.115.135.218.232.31.098.092.216.167.354.224.138.058.29.087.457.087.644 0 .965-.457.965-1.371v-.172c0-.449-.074-.785-.224-1.01-.15-.229-.405-.344-.767-.344zm5.089-.931c.701 0 1.247.192 1.638.578.39.379.586.942.586 1.69v.215c0 .747-.195 1.313-.586 1.698-.391.38-.937.57-1.638.57-.701 0-1.247-.19-1.638-.57-.391-.385-.587-.951-.587-1.698v-.216c0-.747.196-1.31.587-1.69.39-.385.937-.577 1.638-.577zm0 .948c-.391 0-.678.107-.862.32-.178.212-.268.551-.268 1.017v.18c0 .466.09.805.268 1.018.184.213.471.319.862.319.39 0 .675-.106.853-.32.184-.212.276-.55.276-1.016v-.181c0-.466-.092-.805-.276-1.018-.178-.212-.462-.319-.853-.319zm6.507-.784c.114.086.186.192.215.319.029.126-.006.253-.103.38l-1.164 1.482 1.241 1.535c.098.12.138.247.12.379-.01.126-.082.244-.215.353-.109.092-.238.133-.387.121-.144-.011-.265-.083-.363-.216l-1.069-1.422-1.069 1.414c-.103.138-.224.21-.362.215-.132.012-.253-.023-.362-.103-.115-.092-.187-.198-.215-.32-.03-.125.005-.252.103-.378l1.267-1.578-1.138-1.44c-.097-.12-.14-.244-.129-.37.017-.133.092-.253.224-.363.11-.092.236-.132.38-.12.149.011.273.083.37.215l.966 1.328.965-1.32c.098-.137.216-.209.354-.215.138-.011.261.023.37.104z"/>
    <path fill="#FFC080" d="M14.437 36.85l-.082.125.082-.125zm.199.302l-.15.02.15-.02zm-.095.362l.122.086-.122-.086zm-.268.198l-.045-.143h-.002l.047.143zm-.327-.052l.077-.128-.077.128zm-1.785.078l-.116-.095.116.095zm.018 2.19l-.117.095.002.001.114-.096zm1.844.077l-.072-.131.072.131zm.345-.052l-.036.146.008.002.028-.148zm.345.57l-.149-.02v.006l.15.014zm-.198.31l.081.126.002-.001-.083-.125zm-.673.276l-.037-.146.037.146zm-2.465-.457l.105-.107-.105.107zm-.009-3.63l-.105-.106h-.001l.106.106zm1.595-.41c.335 0 .609.036.825.105l.091-.286c-.255-.08-.561-.119-.916-.119v.3zm.825.105c.226.072.414.158.567.258l.164-.25c-.18-.119-.394-.216-.64-.294l-.09.286zm.567.259c.082.053.121.116.132.196l.297-.04c-.024-.174-.117-.311-.265-.408l-.164.252zm.132.196c.011.085-.008.168-.07.256l.247.172c.1-.143.143-.3.12-.469l-.297.04zm-.069.255c-.05.072-.113.118-.19.142l.09.286c.143-.045.258-.131.345-.255l-.245-.173zm-.192.143c-.053.017-.116.014-.203-.038l-.154.257c.143.086.297.117.452.065l-.095-.284zm-.204-.039c-.308-.182-.662-.27-1.059-.27v.3c.35 0 .651.077.906.228l.153-.258zm-1.059-.27c-.388 0-.704.12-.918.382l.232.19c.143-.175.362-.273.686-.273v-.3zm-.918.382c-.204.252-.292.624-.292 1.086h.3c0-.434.084-.723.225-.897l-.233-.189zm-.292 1.086v.216h.3v-.216h-.3zm0 .216c0 .45.095.816.31 1.078l.231-.19c-.153-.188-.241-.475-.241-.888h-.3zm.31 1.08c.22.259.53.38.909.38v-.3c-.311 0-.53-.096-.679-.274l-.23.193zm.909.38c.423 0 .8-.088 1.124-.269l-.146-.262c-.273.152-.597.231-.978.231v.3zm1.124-.268c.085-.047.162-.056.236-.038l.073-.291c-.156-.039-.31-.014-.454.066l.145.263zm.244-.036c.074.014.13.053.173.132l.262-.145c-.083-.15-.21-.25-.379-.282l-.056.295zm.173.132c.048.087.064.176.051.27l.298.04c.021-.16-.008-.313-.087-.455l-.262.145zm.05.276c-.006.074-.042.14-.131.2l.166.249c.152-.102.248-.243.264-.422l-.298-.027zm-.13.198c-.16.104-.369.19-.628.256l.074.291c.282-.072.522-.17.717-.295l-.162-.252zm-.628.257c-.25.065-.53.098-.842.098v.3c.332 0 .639-.035.917-.108l-.075-.29zm-.842.098c-.65 0-1.137-.178-1.481-.517l-.21.214c.414.408.985.603 1.691.603v-.3zm-1.481-.517c-.34-.335-.524-.858-.524-1.6h-.3c0 .787.195 1.402.613 1.814l.211-.214zm-.524-1.6v-.216h-.3v.216h.3zm0-.216c0-.742.181-1.266.516-1.6l-.212-.213c-.412.413-.604 1.027-.604 1.813h.3zm.515-1.6c.344-.338.834-.517 1.49-.517v-.3c-.712 0-1.285.195-1.7.604l.21.213zm5.097 2.221l-.104-.109-.003.003.107.106zm1.284.785l-.075-.13.075.13zm.293-.285l-.13-.075-.002.005.132.07zm.095-.664h.15v-.15h-.15v.15zm-.078-2.62l-.042.143.043-.144zm.604.301l-.093.118.004.003.089-.12zm.396.474l-.135.066.003.005.133-.07zm-.008 3.76l.081.125.002-.001-.083-.125zm-.681 0l-.087.122.009.005.078-.128zm-.147-.544h.15v-.15h-.15v.15zm-.008 0v-.15h-.096l-.04.086.136.064zm-.199.259l-.098-.114.098.114zm-.31.207l.067.134.003-.002-.07-.132zm-.397.137l.034.147-.034-.147zm-1.646-.301l-.098.114h.002l.096-.114zm-.328-1.681l-.14-.054-.002.005.142.049zm.302-.431l.099.112-.1-.112zm.552-.294l-.043-.143h-.001l.044.143zm1.94-.103v.15h.15v-.15h-.15zm-.208-.75l-.106.106.005.005.101-.111zm-1.74.112l.076.129-.077-.129zm-.346.06l-.045.144.009.002.036-.146zm-.267-.224l-.13.075.001.002.129-.077zm-.078-.336l-.148-.021v.006l.148.015zm.199-.293l.081.126.002-.001-.083-.125zm.724-.328l.042.144h.002l-.044-.144zm.655 2.445c-.297 0-.549.055-.707.205l.207.218c.072-.068.223-.123.5-.123v-.3zm-.71.208c-.142.143-.207.33-.207.546h.3c0-.152.044-.258.12-.334l-.212-.212zm-.207.546v.017h.3v-.017h-.3zm0 .017c0 .202.067.375.22.494.145.112.346.156.576.156v-.3c-.2 0-.323-.04-.393-.094-.063-.048-.103-.124-.103-.256h-.3zm.796.65c.354 0 .651-.06.878-.193l-.152-.259c-.164.097-.401.152-.726.152v.3zm.878-.193c.155-.09.276-.204.35-.344l-.265-.14c-.042.078-.116.155-.236.225l.15.26zm.347-.339c.081-.14.115-.316.115-.515h-.3c0 .17-.03.287-.075.365l.26.15zm.115-.515v-.224h-.3v.224h.3zm-.15-.374h-1.069v.3h1.07v-.3zm-.845-2.424c.264 0 .505.033.725.097l.085-.288c-.251-.073-.521-.109-.81-.109v.3zm.725.097c.22.065.403.157.553.276l.186-.235c-.184-.146-.403-.255-.654-.328l-.085.287zm.557.28c.153.111.27.25.35.418l.27-.131c-.102-.212-.25-.39-.442-.53l-.178.242zm.353.423c.084.159.13.346.13.567h.3c0-.262-.054-.5-.165-.708l-.265.14zm.13.567v2.802h.3V37.98h-.3zm0 2.802c0 .103-.035.158-.09.194l.167.25c.152-.102.222-.26.222-.444h-.3zm-.088.193c-.07.046-.154.071-.254.071v.3c.152 0 .293-.039.417-.119l-.163-.252zm-.254.071c-.1 0-.188-.025-.267-.073l-.156.256c.128.078.27.117.423.117v-.3zm-.259-.067c-.05-.035-.083-.09-.083-.197h-.3c0 .181.064.339.21.442l.173-.245zm-.083-.197v-.224h-.3v.224h.3zm-.15-.374h-.008v.3h.008v-.3zm-.144.086c-.037.078-.09.148-.16.21l.196.226c.1-.088.18-.19.235-.308l-.271-.128zm-.16.21c-.077.065-.17.128-.283.187l.14.265c.129-.067.242-.142.339-.226l-.197-.227zm-.28.185c-.103.052-.223.094-.363.126l.067.293c.159-.037.303-.087.43-.15l-.134-.269zm-.363.126c-.139.032-.277.048-.415.048v.3c.161 0 .322-.018.482-.055l-.067-.293zm-.415.048c-.496 0-.857-.113-1.102-.318l-.192.23c.317.266.756.388 1.294.388v-.3zm-1.1-.317c-.237-.202-.362-.49-.362-.886h-.3c0 .465.15.844.466 1.114l.195-.228zm-.362-.886v-.138h-.3v.138h.3zm0-.138c0-.18.027-.345.078-.494l-.284-.098c-.063.184-.094.382-.094.592h.3zm.077-.49c.054-.143.14-.267.26-.372l-.198-.225c-.156.136-.27.3-.343.49l.28.107zm.26-.372c.125-.11.289-.198.497-.262l-.088-.287c-.24.074-.444.18-.607.324l.198.225zm.496-.262c.211-.063.48-.097.81-.097v-.3c-.348 0-.648.035-.896.11l.086.287zm.81-.097h1.086v-.3h-1.086v.3zm1.236-.15v-.12h-.3v.12h.3zm0-.12c0-.312-.072-.573-.255-.74l-.203.22c.093.086.158.245.158.52h.3zm-.25-.736c-.173-.173-.433-.242-.744-.242v.3c.275 0 .44.062.532.154l.212-.212zm-.744-.242c-.42 0-.814.111-1.181.331l.154.258c.323-.194.664-.29 1.027-.29v-.3zm-1.181.331c-.086.052-.16.062-.231.044l-.073.29c.159.04.314.01.458-.076l-.154-.258zm-.223.046c-.068-.021-.13-.069-.183-.158l-.258.154c.085.141.201.243.351.29l.09-.286zm-.182-.156c-.05-.084-.066-.165-.058-.246l-.299-.03c-.015.15.02.293.097.426l.26-.15zm-.06-.24c.011-.072.049-.134.132-.188l-.163-.252c-.146.095-.24.229-.265.398l.297.042zm.134-.19c.192-.128.42-.23.683-.308l-.084-.288c-.288.084-.544.2-.765.347l.166.25zm.685-.308c.267-.082.545-.123.835-.123v-.3c-.319 0-.627.045-.923.136l.088.287zm6.933-.006l.073-.13-.002-.002-.071.132zm.267.285l.143-.045-.143.045zm-.043.362l-.136-.065.136.065zm-.224.224l.05.142.007-.003-.057-.139zm-.337-.035l-.064.136.002.001.062-.136zm-.44-.146l-.032.146h.001l.032-.146zm-1.292.552l-.143.047.002.005.14-.052zm.112.129l-.086.123.006.005.008.004.072-.132zm.267.103l-.043.144.006.002.037-.146zm.474.104l-.03.147.03-.147zm.854.233l-.054.14h.003l.05-.14zm.81.707l-.143.045v.002l.143-.047zm-.06 1.138l-.132-.073-.002.004.134.069zm-.38.44l.09.12v-.001l-.09-.12zm-.595.284l-.042-.144.042.144zm-1.715 0l.035-.146-.035.146zm-.759-.285l.073-.131-.003-.002-.07.133zm-.215-.276l-.148.027v.002l.148-.029zm.051-.362l-.133-.07v.003l.133.067zm.259-.241l-.052-.14.052.14zm.353.034l.07-.132-.003-.002-.067.134zm.595.233l-.039.145h.001l.038-.145zm1.268-.043l.09.12-.09-.12zm.146-.526l-.142.048.142-.048zm-.13-.138l-.075.13.076-.13zm-.3-.112l.037-.145-.038.145zm-.535-.12l.03-.148h-.003l-.027.148zm-.768-.207l-.055.139.055-.14zm-.491-.294l-.104.109.003.002.1-.11zm-.276-.413l-.143.046.002.006.141-.052zm.035-1.078l.135.065v-.002l-.136-.063zm.336-.422l-.092-.119-.003.002.095.117zm.577-.285l.044.144.003-.001-.047-.143zm.81.038c.557 0 .977.087 1.274.249l.143-.264c-.358-.194-.834-.285-1.416-.285v.3zm1.272.248c.125.07.179.14.198.199l.286-.09c-.05-.16-.175-.28-.337-.37l-.147.261zm.198.199c.02.064.016.144-.036.252l.271.13c.075-.157.1-.318.05-.472l-.285.09zm-.036.253c-.038.08-.087.125-.145.15l.114.277c.137-.057.237-.161.302-.299l-.27-.128zm-.138.147c-.05.017-.121.017-.224-.03l-.125.273c.15.068.303.09.448.04l-.1-.283zm-.222-.029c-.144-.069-.302-.121-.473-.158l-.063.294c.151.032.286.077.407.135l.13-.27zm-.472-.157c-.165-.037-.325-.056-.48-.056v.3c.131 0 .27.016.415.048l.065-.292zm-.48-.056c-.33 0-.596.039-.762.144l.16.253c.088-.055.276-.097.601-.097v-.3zm-.762.144c-.152.097-.26.233-.26.411h.3c0-.04.02-.093.12-.158l-.16-.253zm-.26.411v.018h.3v-.018h-.3zm0 .018c0 .08.01.158.034.228l.285-.095c-.011-.033-.018-.076-.018-.133h-.3zm.036.233c.032.084.095.15.167.2l.172-.246c-.043-.03-.055-.051-.058-.059l-.28.105zm.18.209c.077.041.177.08.297.115l.086-.287c-.11-.033-.188-.064-.238-.092l-.144.264zm.303.117c.119.03.28.065.482.105l.058-.294c-.2-.04-.355-.074-.467-.102l-.073.291zm.482.105c.34.068.615.144.829.226l.107-.28c-.234-.09-.528-.17-.878-.24l-.058.294zm.832.227c.212.076.372.166.487.265l.197-.226c-.15-.131-.347-.237-.583-.322l-.101.283zm.487.265c.112.098.188.213.231.346l.286-.091c-.06-.188-.168-.35-.32-.481l-.197.226zm.232.348c.045.136.07.306.07.513h.3c0-.23-.028-.433-.086-.608l-.284.095zm.07.513v.035h.3v-.035h-.3zm0 .035c0 .17-.04.326-.12.47l.263.145c.104-.19.157-.395.157-.615h-.3zm-.122.474c-.075.144-.185.274-.336.389l.18.239c.183-.139.325-.302.423-.49l-.267-.138zm-.336.388c-.143.108-.325.196-.547.26l.085.289c.249-.073.464-.175.642-.309l-.18-.24zm-.548.261c-.213.064-.457.097-.732.097v.3c.299 0 .572-.036.819-.11l-.087-.287zm-.732.097c-.33 0-.63-.033-.905-.1l-.07.293c.3.072.625.107.974.107v-.3zm-.905-.1c-.277-.066-.517-.156-.721-.269l-.145.263c.232.128.498.227.796.299l.07-.292zm-.724-.27c-.085-.045-.125-.101-.138-.172l-.295.056c.033.171.137.3.293.381l.14-.266zm-.138-.17c-.017-.095-.005-.183.038-.269l-.268-.134c-.072.144-.094.298-.065.456l.295-.053zm.037-.266c.05-.094.11-.145.178-.17l-.104-.282c-.15.055-.262.165-.34.313l.266.139zm.178-.17c.062-.023.136-.021.234.028l.134-.269c-.154-.077-.316-.098-.472-.04l.104.28zm.231.026c.194.103.403.185.626.245l.078-.29c-.202-.054-.39-.128-.563-.22l-.141.265zm.627.245c.23.06.459.091.685.091v-.3c-.2 0-.402-.027-.608-.08l-.077.29zm.685.091c.302 0 .553-.041.71-.159l-.18-.24c-.072.055-.235.1-.53.1v.3zm.71-.159c.15-.112.233-.264.233-.447h-.3c0 .08-.031.146-.112.207l.18.24zm.233-.447v-.018h-.3v.018h.3zm0-.018c0-.08-.01-.158-.034-.228l-.284.095c.01.033.018.076.018.133h.3zm-.034-.228c-.033-.1-.11-.17-.196-.22l-.15.259c.051.03.06.052.062.056l.284-.095zm-.196-.22c-.086-.05-.202-.092-.34-.128l-.075.29c.127.033.212.067.264.097l.151-.26zm-.34-.128c-.135-.035-.316-.076-.541-.122l-.06.293c.223.046.398.086.526.12l.076-.291zm-.544-.123c-.298-.056-.545-.123-.74-.2l-.11.28c.22.085.484.156.795.215l.055-.295zm-.739-.199c-.189-.075-.336-.164-.446-.265l-.202.222c.143.13.323.236.537.322l.111-.279zm-.444-.262c-.11-.106-.19-.225-.238-.358l-.282.105c.066.178.171.334.313.47l.207-.217zm-.236-.351c-.046-.144-.07-.311-.07-.506h-.3c0 .219.027.419.084.597l.286-.091zm-.07-.506v-.035h-.3v.035h.3zm0-.035c0-.15.032-.291.097-.426l-.27-.13c-.085.175-.128.361-.128.556h.3zm.098-.428c.064-.138.16-.261.294-.369l-.189-.233c-.165.134-.292.292-.378.476l.273.126zm.292-.367c.137-.107.313-.194.528-.26l-.086-.287c-.244.074-.454.176-.626.31l.184.237zm.532-.26c.211-.069.465-.105.764-.105v-.3c-.322 0-.609.039-.857.12l.093.285zm4.442-1.858l-.088.121.008.005.08-.127zm.164 2.25h-.15v.15h.15v-.15zm.017 0v.15h.083l.044-.07-.127-.08zm.259-.285l.092.119.004-.004-.096-.115zm.336-.207l-.057-.139-.002.001.06.138zm.397-.112l.024.148.006-.001-.03-.147zm1.612.405l-.106.106v.001l.106-.107zm.284 4.173l-.084-.124.084.124zm-.758 0l-.085.124.003.002.082-.126zm-.233-3.138l-.142.047v.002l.142-.05zm-.19-.32l-.106.107.004.004.102-.11zm-.293-.163l-.045.143.009.003.036-.146zm-.698 0l-.041-.144.04.144zm-.336.181l-.096-.115-.004.003.1.112zm-.25.345l-.136-.065-.002.005.138.06zm-.259 3.095l.085.124-.085-.124zm-.759 0l-.084.124.003.002.081-.126zm-.008-6.224l.083.124h.002l-.085-.124zm.362.037c.102 0 .189.029.265.084l.176-.243c-.13-.094-.279-.14-.441-.14v.3zm.273.09c.058.036.094.093.094.2h.3c0-.191-.073-.353-.234-.454l-.16.253zm.094.2v1.923h.3v-1.923h-.3zm.15 2.073h.017v-.3h-.017v.3zm.144-.07c.06-.095.134-.177.224-.246l-.184-.237c-.117.09-.215.198-.293.322l.253.16zm.228-.25c.093-.077.192-.138.3-.184l-.119-.276c-.134.058-.259.135-.373.23l.192.23zm.297-.183c.116-.047.237-.082.364-.103l-.049-.296c-.149.025-.292.065-.429.121l.114.278zm.37-.104c.129-.027.254-.04.375-.04v-.3c-.143 0-.288.016-.436.046l.061.294zm.375-.04c.474 0 .836.139 1.1.404l.213-.212c-.332-.332-.776-.492-1.313-.492v.3zm1.102.405c.26.256.403.648.403 1.204h.3c0-.605-.156-1.087-.493-1.418l-.21.214zm.403 1.204v2.517h.3v-2.517h-.3zm0 2.517c0 .116-.037.18-.098.221l.17.248c.157-.108.228-.274.228-.469h-.3zm-.098.221c-.082.056-.179.086-.295.086v.3c.171 0 .328-.045.464-.138l-.17-.248zm-.295.086c-.109 0-.207-.03-.297-.088l-.164.252c.14.09.294.136.461.136v-.3zm-.294-.086c-.061-.042-.099-.105-.099-.22h-.3c0 .194.072.36.23.468l.169-.248zm-.099-.22v-2.285h-.3v2.284h.3zm0-2.285c0-.217-.024-.405-.077-.559l-.284.1c.039.11.061.261.061.459h.3zm-.077-.557c-.051-.154-.126-.285-.23-.381l-.204.22c.057.053.11.135.15.256l.284-.095zm-.226-.377c-.1-.1-.222-.168-.362-.204l-.073.292c.09.022.163.064.223.124l.212-.212zm-.354-.201c-.125-.04-.258-.059-.398-.059v.3c.113 0 .215.016.308.045l.09-.286zm-.398-.059c-.125 0-.254.02-.386.058l.082.288c.11-.031.21-.046.304-.046v-.3zm-.386.058c-.143.04-.273.111-.391.21l.192.23c.088-.074.182-.123.281-.152l-.082-.288zm-.395.213c-.115.102-.21.234-.286.392l.27.13c.063-.13.135-.227.215-.297l-.199-.225zm-.288.397c-.074.168-.107.368-.107.594h.3c0-.198.03-.355.082-.474l-.275-.12zm-.107.594v2.216h.3v-2.216h-.3zm0 2.216c0 .116-.038.18-.099.221l.17.248c.157-.108.229-.274.229-.469h-.3zm-.099.221c-.082.056-.178.086-.294.086v.3c.17 0 .327-.045.464-.138l-.17-.248zm-.294.086c-.11 0-.207-.03-.298-.088l-.163.252c.14.09.294.136.46.136v-.3zm-.295-.086c-.06-.042-.098-.105-.098-.22h-.3c0 .194.071.36.229.468l.17-.248zm-.098-.22v-5.553h-.3v5.552h.3zm0-5.553c0-.11.035-.167.088-.203l-.166-.25c-.155.103-.222.265-.222.453h.3zm.09-.204c.084-.057.175-.086.277-.086v-.3c-.163 0-.313.047-.447.139l.17.247zm8.192-.123l.084-.124-.084.123zm.164 2.172h-.15v.485l.273-.4-.123-.085zm.276-.276l-.082-.126-.003.002.085.124zm.344-.172l.05.141.004-.001-.054-.14zm.354-.095l-.021-.149h-.001l.022.149zm1.724.552l-.118.093h.001l.117-.093zm.319 2.896l.143.047v-.001l-.143-.046zm-.388.707l.113.1-.113-.1zm-.603.431l.055.14.002-.001-.057-.139zm-1.57-.034l-.07.132.07-.132zm-.482-.448l.129-.077-.044-.074h-.085v.15zm-.026 0v-.15h-.15v.15h.15zm-.164.5l.083.124h.002l-.085-.124zm-.715 0l-.088.121.008.005.08-.127zm.008-6.233l-.082-.126-.002.002.084.123zm1.181 2.853l-.112-.1.112.1zm-.19 1.957l-.134.067.135-.067zm.233.31l.103-.109-.103.11zm.354.224l-.058.139.058-.139zm1.198-2.465l-.126.082.001.001.125-.083zm-2.396-2.842c.116 0 .212.03.294.086l.17-.247c-.137-.094-.293-.139-.465-.139v.3zm.294.086c.061.042.099.106.099.221h.3c0-.195-.072-.36-.23-.468l-.169.247zm.099.221v1.828h.3v-1.828h-.3zm.273 1.913c.065-.094.143-.173.237-.237l-.17-.248c-.124.086-.229.19-.314.315l.247.17zm.234-.235c.106-.07.21-.12.313-.157l-.1-.283c-.127.045-.253.108-.376.188l.163.252zm.317-.158c.111-.043.219-.071.322-.087l-.044-.297c-.127.02-.255.054-.385.104l.107.28zm.321-.087c.115-.016.217-.024.306-.024v-.3c-.106 0-.222.01-.348.027l.042.297zm.306-.024c.595 0 1.01.181 1.28.52l.235-.185c-.341-.431-.856-.635-1.515-.635v.3zm1.28.521c.275.342.424.863.424 1.588h.3c0-.759-.155-1.359-.49-1.775l-.234.188zm.424 1.588v.224h.3v-.224h-.3zm0 .224c0 .361-.045.676-.13.946l.285.091c.098-.305.145-.652.145-1.037h-.3zm-.13.945c-.087.265-.208.482-.359.654l.226.198c.182-.207.32-.461.418-.76l-.286-.092zm-.359.654c-.151.173-.333.303-.548.392l.115.277c.257-.107.477-.264.659-.47l-.226-.199zm-.546.391c-.21.084-.449.127-.72.127v.3c.303 0 .581-.048.831-.148l-.111-.279zm-.72.127c-.299 0-.537-.054-.722-.154l-.143.264c.24.13.531.19.865.19v-.3zm-.722-.154c-.192-.104-.332-.235-.425-.393l-.258.153c.125.21.307.378.54.504l.143-.264zm-.554-.467h-.026v.3h.026v-.3zm-.176.15v.164h.3v-.163h-.3zm0 .164c0 .108-.036.17-.099.213l.17.247c.156-.106.229-.268.229-.46h-.3zm-.097.212c-.077.051-.166.078-.27.078v.3c.16 0 .307-.042.436-.129l-.166-.25zm-.27.078c-.105 0-.198-.027-.282-.08l-.16.253c.133.085.282.127.442.127v-.3zm-.275-.075c-.057-.041-.093-.104-.093-.215h-.3c0 .188.068.35.218.458l.175-.243zm-.093-.215v-5.552h-.3v5.552h.3zm0-5.552c0-.115.038-.18.099-.22l-.17-.248c-.157.108-.229.273-.229.468h.3zm.096-.219c.09-.059.188-.088.297-.088v-.3c-.166 0-.321.046-.46.137l.163.251zm1.927 2.26c-.393 0-.714.115-.94.368l.224.2c.154-.173.384-.269.716-.269v-.3zm-.94.368c-.213.24-.314.545-.314.902h.3c0-.298.083-.528.238-.702l-.224-.2zm-.314.902v.802h.3v-.802h-.3zm0 .802c0 .145.035.286.102.42l.269-.134c-.048-.095-.07-.19-.07-.286h-.3zm.102.42c.066.132.155.25.265.353l.205-.219c-.085-.08-.152-.17-.201-.268l-.269.134zm.265.353c.112.105.245.19.398.253l.115-.277c-.123-.051-.225-.117-.308-.195l-.205.219zm.398.253c.158.066.33.098.515.098v-.3c-.15 0-.282-.026-.4-.075l-.115.277zm.515.098c.362 0 .653-.132.847-.407.186-.265.268-.644.268-1.114h-.3c0 .444-.079.75-.214.942-.128.182-.32.279-.601.279v.3zm1.115-1.521v-.172h-.3v.172h.3zm0-.172c0-.46-.075-.832-.249-1.092l-.25.166c.126.188.2.49.2.926h.3zm-.248-1.09c-.186-.287-.498-.414-.893-.414v.3c.33 0 .528.103.641.277l.252-.164zm5.834-.617l-.105.107.105-.107zm0 3.603l.104.108h.001l-.105-.108zm-3.276 0l-.105.107.105-.107zm0-3.603l.104.107h.001l-.105-.107zm.776.69l-.114-.099-.001.002.115.096zm0 2.215l-.115.096.001.002.114-.098zm1.715 0l-.113-.098-.002.002.115.096zm0-2.216l-.115.097.002.001.113-.098zm-.853-1.117c.673 0 1.177.184 1.532.534l.211-.213c-.426-.42-1.014-.621-1.743-.621v.3zm1.533.535c.352.342.541.86.541 1.582h.3c0-.772-.202-1.38-.632-1.797l-.209.215zm.541 1.582v.216h.3v-.216h-.3zm0 .216c0 .722-.188 1.243-.541 1.591l.21.214c.429-.422.631-1.033.631-1.805h-.3zm-.54 1.59c-.356.346-.86.527-1.534.527v.3c.728 0 1.316-.198 1.742-.611l-.209-.215zm-1.534.527c-.674 0-1.178-.181-1.534-.526l-.209.215c.427.413 1.014.611 1.743.611v-.3zm-1.533-.526c-.353-.348-.541-.87-.541-1.591h-.3c0 .772.202 1.383.63 1.805l.211-.214zm-.541-1.591v-.216h-.3v.216h.3zm0-.216c0-.722.188-1.24.54-1.582l-.209-.215c-.43.417-.631 1.025-.631 1.797h.3zm.541-1.583c.356-.35.86-.534 1.533-.534v-.3c-.73 0-1.317.2-1.743.62l.21.214zm1.533.114c-.417 0-.754.114-.976.371l.227.196c.146-.168.384-.267.749-.267v-.3zm-.977.373c-.212.253-.303.635-.303 1.114h.3c0-.453.088-.749.233-.921l-.23-.193zm-.303 1.114v.18h.3v-.18h-.3zm0 .18c0 .48.091.861.303 1.114l.23-.192c-.145-.173-.233-.47-.233-.921h-.3zm.304 1.116c.222.257.56.37.976.37v-.3c-.365 0-.603-.098-.749-.266l-.227.196zm.976.37c.416 0 .751-.113.968-.372l-.23-.192c-.14.166-.373.265-.738.265v.3zm.967-.37c.218-.253.312-.636.312-1.115h-.3c0 .451-.09.746-.24.919l.228.196zm.312-1.115v-.181h-.3v.18h.3zm0-.181c0-.48-.094-.863-.312-1.116l-.227.196c.149.173.24.468.24.92h.3zm-.31-1.114c-.218-.259-.553-.373-.97-.373v.3c.366 0 .6.1.74.266l.23-.193zm5.538-1.007l.09-.12-.001-.001-.09.12zm.215.319l-.146.033.146-.033zm-.103.38l.118.092v-.001l-.118-.092zm-1.164 1.482l-.118-.093-.074.094.075.093.117-.094zm1.241 1.535l-.116.094.116-.094zm.12.379l-.148-.02v.006l.149.014zm-.215.353l-.095-.115h-.001l.096.115zm-.387.121l-.012.15.012-.15zm-.363-.216l.121-.089-.12.09zm-1.069-1.422l.12-.09-.12-.16-.12.16.12.09zm-1.069 1.414l-.12-.09.12.09zm-.362.215l-.006-.15h-.007l.013.15zm-.362-.103l-.094.117.005.004.09-.121zm-.215-.32l-.147.034v.002l.147-.035zm.103-.378l-.117-.094-.002.002.12.092zm1.267-1.578l.117.094.075-.093-.074-.094-.118.093zm-1.138-1.44l.118-.093-.001-.001-.117.094zm-.129-.37l-.149-.02v.006l.15.014zm.224-.363l.096.116-.096-.116zm.38-.12l-.012.15.012-.15zm.37.215l.122-.088H43.7l-.12.088zm.966 1.328l-.121.088.12.166.122-.166-.121-.088zm.965-1.32l.121.09.002-.002-.123-.087zm.354-.215l.006.15h.006l-.012-.15zm.28.224c.09.067.14.144.16.232l.292-.067c-.037-.164-.131-.3-.271-.405l-.18.24zm.16.232c.016.073.001.154-.076.254l.237.184c.118-.153.172-.324.131-.505l-.292.067zm-.075.253l-1.164 1.483.236.186 1.164-1.483-.236-.186zm-1.163 1.67l1.242 1.535.233-.189-1.242-1.534-.233.188zm1.242 1.535c.076.094.1.18.088.265l.298.04c.023-.18-.034-.347-.153-.494l-.233.189zm.088.271c-.007.075-.05.159-.162.252l.19.23c.153-.125.254-.276.27-.455l-.298-.027zm-.163.252c-.078.066-.168.095-.28.086l-.023.3c.186.014.355-.037.496-.156l-.193-.23zm-.28.086c-.094-.007-.177-.052-.253-.155l-.241.179c.12.161.277.26.47.275l.024-.299zm-.254-.156l-1.069-1.422-.24.18 1.07 1.423.24-.18zm-1.308-1.422l-1.07 1.413.24.181 1.069-1.414-.24-.18zm-1.07 1.414c-.084.111-.166.152-.248.155l.013.3c.193-.008.352-.111.475-.275l-.24-.18zm-.255.156c-.095.008-.18-.015-.26-.075l-.178.242c.138.101.295.146.464.132l-.026-.3zm-.255-.071c-.094-.075-.144-.154-.163-.237l-.292.07c.038.159.132.292.267.401l.188-.234zm-.163-.235c-.017-.073-.002-.155.076-.255l-.238-.183c-.118.153-.172.324-.13.504l.292-.066zm.074-.253l1.267-1.577-.234-.188-1.267 1.578.234.188zm1.268-1.764l-1.138-1.44-.235.186 1.138 1.44.235-.186zm-1.139-1.441c-.079-.098-.104-.184-.096-.263l-.3-.027c-.015.174.046.335.163.479l.233-.19zm-.097-.257c.01-.085.06-.174.17-.266l-.19-.231c-.153.126-.254.278-.278.458l.298.039zm.172-.267c.078-.066.166-.094.27-.086l.024-.299c-.182-.014-.348.038-.487.156l.193.23zm.271-.086c.102.008.187.054.262.155l.24-.178c-.12-.163-.282-.26-.479-.276l-.023.3zm.261.155l.965 1.327.243-.176-.965-1.328-.243.177zm1.208 1.328l.965-1.32-.242-.177-.965 1.32.242.176zm.967-1.321c.077-.11.156-.15.237-.153l-.012-.3c-.195.009-.352.113-.47.28l.245.173zm.243-.153c.103-.009.19.016.27.075l.178-.242c-.14-.102-.3-.147-.473-.132l.025.299z"/>
    <path fill="#fff" stroke="#FFC080" stroke-linecap="round" stroke-linejoin="round" stroke-miterlimit="10" stroke-width="1.8" d="M55.33 33.453c-1.413-1.165-12.384-10.445-11.248-21.206.191-1.814.554-5.213 3.294-7.953 2.95-2.95 6.78-3.246 7.954-3.294 1.174.048 4.993.344 7.953 3.294 2.74 2.74 3.103 6.13 3.294 7.953 1.136 10.76-9.834 20.041-11.247 21.206z"/>
    <path fill="#fff" stroke="#FFC080" stroke-linecap="round" stroke-linejoin="round" stroke-miterlimit="10" stroke-width="1.8" d="M55.466 17.055c2.485 0 4.5-2.015 4.5-4.5 0-2.486-2.015-4.5-4.5-4.5-2.486 0-4.5 2.014-4.5 4.5 0 2.485 2.014 4.5 4.5 4.5z"/>
</svg>
