<svg xmlns="http://www.w3.org/2000/svg" width="14" height="13" fill="none" viewBox="0 0 14 13">
    <path stroke="#FFC080" stroke-width=".7" d="M7.31.431c.054-.108.209-.108.262 0l1.625 3.292c.123.25.36.423.636.463l3.633.528c.12.017.167.164.08.248l-2.628 2.562c-.2.195-.29.474-.243.749l.62 3.618c.02.119-.104.21-.21.153l-3.25-1.708c-.246-.13-.54-.13-.787 0l-3.25 1.708c-.106.057-.231-.034-.21-.153l.62-3.618c.047-.275-.044-.554-.243-.749l-2.63-2.562c-.085-.084-.038-.231.082-.248l3.633-.528c.275-.04.513-.213.636-.463L7.311.431z"/>
</svg>
