<svg xmlns="http://www.w3.org/2000/svg" width="56" height="19.473" viewBox="0 0 56 19.473">
  <g id="빼기_26" data-name="빼기 26" transform="translate(12835.001 4786.999)" fill="#d51210">
    <path d="M -12779.5009765625 -4768.02587890625 L -12787.5009765625 -4768.02685546875 L -12787.5009765625 -4775 L -12787.5009765625 -4775.5 L -12788.0009765625 -4775.5 L -12801.001953125 -4775.5 L -12801.501953125 -4775.5 L -12801.501953125 -4775 L -12801.501953125 -4768.02685546875 L -12811.4990234375 -4768.02685546875 L -12811.4990234375 -4775 L -12811.4990234375 -4775.5 L -12811.9990234375 -4775.5 L -12825.0029296875 -4775.5 L -12825.5029296875 -4775.5 L -12825.5029296875 -4775 L -12825.5029296875 -4768.02685546875 L -12834.5 -4768.02685546875 L -12834.5009765625 -4786.4990234375 L -12779.5009765625 -4786.4990234375 L -12779.5009765625 -4768.02587890625 Z" stroke="none"/>
    <path d="M -12780.0009765625 -4768.52587890625 L -12780.0009765625 -4785.9990234375 L -12834.0009765625 -4785.9990234375 L -12834 -4768.52685546875 L -12826.0029296875 -4768.52685546875 L -12826.0029296875 -4775 L -12826.0029296875 -4776 L -12825.0029296875 -4776 L -12811.9990234375 -4776 L -12810.9990234375 -4776 L -12810.9990234375 -4775 L -12810.9990234375 -4768.52685546875 L -12802.001953125 -4768.52685546875 L -12802.001953125 -4775 L -12802.001953125 -4776 L -12801.001953125 -4776 L -12788.0009765625 -4776 L -12787.0009765625 -4776 L -12787.0009765625 -4775 L -12787.0009765625 -4768.52685546875 L -12780.0009765625 -4768.52587890625 M -12779.0009765625 -4767.52587890625 L -12779.001953125 -4767.52587890625 L -12788.0009765625 -4767.52685546875 L -12788.0009765625 -4775 L -12801.001953125 -4775 L -12801.001953125 -4767.52685546875 L -12811.9990234375 -4767.52685546875 L -12811.9990234375 -4775 L -12825.0029296875 -4775 L -12825.0029296875 -4767.52685546875 L -12835 -4767.52685546875 L -12835.0009765625 -4786.9990234375 L -12779.0009765625 -4786.9990234375 L -12779.0009765625 -4767.52685546875 L -12779.0009765625 -4767.52587890625 Z" stroke="none" fill="#c5c5c5"/>
  </g>
</svg>
