<svg xmlns="http://www.w3.org/2000/svg" xmlns:xlink="http://www.w3.org/1999/xlink" width="97" height="97" viewBox="0 0 97 97">
  <defs>
    <clipPath id="clip-path">
      <rect id="사각형_342" data-name="사각형 342" width="97" height="97" transform="translate(14910.5 4798.25)" fill="#fff" opacity="0.5"/>
    </clipPath>
  </defs>
  <g id="마스크_그룹_16" data-name="마스크 그룹 16" transform="translate(-14910.5 -4798.25)" clip-path="url(#clip-path)">
    <g id="그룹_96" data-name="그룹 96" transform="translate(94.5 39.269)">
      <path id="빼기_29" data-name="빼기 29" d="M16.542,42.073H0V13.2L12.2,0H42.073V8.692l-14.92,5.342a1.5,1.5,0,0,0-2.616,1,1.485,1.485,0,0,0,.156.666l-6.106,6.245L16.542,42.072Zm.5-28.536a1.5,1.5,0,1,0,1.5,1.5A1.5,1.5,0,0,0,17.037,13.537Zm-9,0a1.5,1.5,0,1,0,1.5,1.5A1.5,1.5,0,0,0,8.037,13.537Z" transform="translate(14843.463 4786.421)" fill="#434343"/>
      <g id="빼기_31" data-name="빼기 31" transform="translate(14821 4764)" fill="none">
        <path d="M61.5,86.96a1.753,1.753,0,0,1-1.75-1.751V80.424a24.065,24.065,0,0,0,3.5.513v4.271A1.753,1.753,0,0,1,61.5,86.96Zm-12,0a1.753,1.753,0,0,1-1.75-1.751v-10.5a1.756,1.756,0,0,1,.2-.814,24.185,24.185,0,0,0,3.3,2.78v8.536A1.751,1.751,0,0,1,49.5,86.96Zm-12,0a1.753,1.753,0,0,1-1.751-1.751v-10.5a1.751,1.751,0,1,1,3.5,0v10.5A1.753,1.753,0,0,1,37.5,86.96Zm-12,0a1.753,1.753,0,0,1-1.75-1.751v-10.5a1.751,1.751,0,1,1,3.5,0v10.5A1.753,1.753,0,0,1,25.5,86.96ZM45.5,71H16V16H71V33.756A24.02,24.02,0,0,0,41,57a23.832,23.832,0,0,0,4.5,14ZM12.248,63.209H1.75a1.751,1.751,0,0,1,0-3.5h10.5a1.751,1.751,0,0,1,0,3.5Zm0-12H1.75a1.749,1.749,0,1,1,0-3.5h10.5a1.749,1.749,0,1,1,0,3.5Zm73-11.957h-4.1a24.068,24.068,0,0,0-4.986-3.5h9.084a1.749,1.749,0,1,1,0,3.5Zm-73-.041H1.75a1.751,1.751,0,0,1,0-3.5h10.5a1.751,1.751,0,0,1,0,3.5Zm73-11.957h-10.5a1.749,1.749,0,1,1,0-3.5h10.5a1.749,1.749,0,1,1,0,3.5Zm-73-.045H1.75a1.749,1.749,0,1,1,0-3.5h10.5a1.749,1.749,0,1,1,0,3.5ZM61.5,14a1.752,1.752,0,0,1-1.75-1.75V1.752a1.751,1.751,0,0,1,3.5,0v10.5A1.753,1.753,0,0,1,61.5,14Zm-12,0a1.752,1.752,0,0,1-1.75-1.75V1.752a1.751,1.751,0,0,1,3.5,0v10.5A1.753,1.753,0,0,1,49.5,14Zm-12,0a1.751,1.751,0,0,1-1.748-1.75V1.752a1.749,1.749,0,1,1,3.5,0v10.5A1.752,1.752,0,0,1,37.5,14Zm-12,0a1.752,1.752,0,0,1-1.75-1.75V1.752a1.749,1.749,0,1,1,3.5,0v10.5A1.751,1.751,0,0,1,25.5,14Z" stroke="none"/>
        <path d="M 39.57222366333008 67.49829864501953 C 38.20713043212891 64.19841003417969 37.50040435791016 60.64884185791016 37.50040435791016 56.99970245361328 C 37.50040435791016 41.83648681640625 49.83658981323242 29.50030136108398 64.99980163574219 29.50030136108398 C 65.83608245849609 29.50030136108398 66.67041015625 29.5379695892334 67.50009918212891 29.61295700073242 L 67.50009918212891 19.49930000305176 L 19.50110244750977 19.49930000305176 L 19.50110244750977 67.49829864501953 L 39.57222366333008 67.49829864501953 M 61.49970245361328 86.95980072021484 C 60.53447341918945 86.95980072021484 59.74920272827148 86.17412567138672 59.74920272827148 85.20839691162109 L 59.74920272827148 80.42384338378906 C 60.89361572265625 80.67921447753906 62.07141876220703 80.85228729248047 63.25110244750977 80.93723297119141 L 63.25110244750977 85.20839691162109 C 63.25110244750977 86.17412567138672 62.46543121337891 86.95980072021484 61.49970245361328 86.95980072021484 Z M 49.50180435180664 86.95980072021484 C 48.53657531738281 86.95980072021484 47.75130462646484 86.17412567138672 47.75130462646484 85.20839691162109 L 47.75130462646484 74.706298828125 C 47.75130462646484 74.42287445068359 47.82057571411133 74.14131164550781 47.95162963867188 73.89205932617188 C 48.96211624145508 74.91181182861328 50.07087326049805 75.84727478027344 51.24870300292969 76.67215728759766 L 51.24870300292969 85.20839691162109 C 51.24870300292969 86.17412567138672 50.46504592895508 86.95980072021484 49.50180435180664 86.95980072021484 Z M 37.4994010925293 86.95980072021484 C 36.53367233276367 86.95980072021484 35.74800109863281 86.17412567138672 35.74800109863281 85.20839691162109 L 35.74800109863281 74.706298828125 C 35.74800109863281 73.74058532714844 36.53367233276367 72.95490264892578 37.4994010925293 72.95490264892578 C 38.46463012695313 72.95490264892578 39.24990081787109 73.74058532714844 39.24990081787109 74.706298828125 L 39.24990081787109 85.20839691162109 C 39.24990081787109 86.17412567138672 38.46463012695313 86.95980072021484 37.4994010925293 86.95980072021484 Z M 25.50060272216797 86.95980072021484 C 24.53537368774414 86.95980072021484 23.75010299682617 86.17412567138672 23.75010299682617 85.20839691162109 L 23.75010299682617 74.706298828125 C 23.75010299682617 73.74058532714844 24.53537368774414 72.95490264892578 25.50060272216797 72.95490264892578 C 26.46633148193359 72.95490264892578 27.25200271606445 73.74058532714844 27.25200271606445 74.706298828125 L 27.25200271606445 85.20839691162109 C 27.25200271606445 86.17412567138672 26.46633148193359 86.95980072021484 25.50060272216797 86.95980072021484 Z M 45.50336074829102 70.99829864501953 L 45.50140380859375 70.99829864501953 L 16.00110244750977 70.99829864501953 L 16.00110244750977 15.99930095672607 L 71.00009918212891 15.99930095672607 L 71.00009918212891 33.75644302368164 C 69.05201721191406 33.25502777099609 67.03364562988281 33.00030136108398 64.99980163574219 33.00030136108398 C 51.76648712158203 33.00030136108398 41.00040435791016 43.76638793945313 41.00040435791016 56.99970245361328 C 41.00040435791016 62.0609130859375 42.55710220336914 66.9010009765625 45.50221633911133 70.99671173095703 L 45.50336074829102 70.99829864501953 Z M 12.24810314178467 63.20880126953125 L 1.749602675437927 63.20880126953125 C 0.7843741774559021 63.20880126953125 -0.000897277845069766 62.42353057861328 -0.000897277845069766 61.45830154418945 C -0.000897277845069766 60.49257278442383 0.7843741774559021 59.70690155029297 1.749602675437927 59.70690155029297 L 12.24810314178467 59.70690155029297 C 13.21334552764893 59.70690155029297 13.99860286712646 60.49257278442383 13.99860286712646 61.45830154418945 C 13.99860286712646 62.42353057861328 13.21334552764893 63.20880126953125 12.24810314178467 63.20880126953125 Z M 12.24810314178467 51.20640182495117 L 1.749602675437927 51.20640182495117 C 0.7843741774559021 51.20640182495117 -0.000897277845069766 50.42234420776367 -0.000897277845069766 49.45859909057617 C -0.000897277845069766 48.49337387084961 0.7843741774559021 47.70809936523438 1.749602675437927 47.70809936523438 L 12.24810314178467 47.70809936523438 C 13.21334552764893 47.70809936523438 13.99860286712646 48.49337387084961 13.99860286712646 49.45859909057617 C 13.99860286712646 50.42234420776367 13.21334552764893 51.20640182495117 12.24810314178467 51.20640182495117 Z M 85.25070190429688 39.24900054931641 L 81.15253448486328 39.24900054931641 C 79.64360046386719 37.87527084350586 77.96624755859375 36.69835662841797 76.16640472412109 35.75070190429688 L 85.25070190429688 35.75070190429688 C 86.2164306640625 35.75070190429688 87.00210571289063 36.53597259521484 87.00210571289063 37.50120162963867 C 87.00210571289063 38.46494293212891 86.2164306640625 39.24900054931641 85.25070190429688 39.24900054931641 Z M 12.24810314178467 39.20759963989258 L 1.749602675437927 39.20759963989258 C 0.7843741774559021 39.20759963989258 -0.000897277845069766 38.42192840576172 -0.000897277845069766 37.45619964599609 C -0.000897277845069766 36.49097061157227 0.7843741774559021 35.7056999206543 1.749602675437927 35.7056999206543 L 12.24810314178467 35.7056999206543 C 13.21334552764893 35.7056999206543 13.99860286712646 36.49097061157227 13.99860286712646 37.45619964599609 C 13.99860286712646 38.42192840576172 13.21334552764893 39.20759963989258 12.24810314178467 39.20759963989258 Z M 85.25070190429688 27.25020027160645 L 74.75310516357422 27.25020027160645 C 73.78739166259766 27.25020027160645 73.00170135498047 26.46654319763184 73.00170135498047 25.50329971313477 C 73.00170135498047 24.5375862121582 73.78739166259766 23.75189971923828 74.75310516357422 23.75189971923828 L 85.25070190429688 23.75189971923828 C 86.2164306640625 23.75189971923828 87.00210571289063 24.5375862121582 87.00210571289063 25.50329971313477 C 87.00210571289063 26.46654319763184 86.2164306640625 27.25020027160645 85.25070190429688 27.25020027160645 Z M 12.24810314178467 27.2052001953125 L 1.749602675437927 27.2052001953125 C 0.7843741774559021 27.2052001953125 -0.000897277845069766 26.42154312133789 -0.000897277845069766 25.45830154418945 C -0.000897277845069766 24.49258613586426 0.7843741774559021 23.70690155029297 1.749602675437927 23.70690155029297 L 12.24810314178467 23.70690155029297 C 13.21334552764893 23.70690155029297 13.99860286712646 24.49258613586426 13.99860286712646 25.45830154418945 C 13.99860286712646 26.42154312133789 13.21334552764893 27.2052001953125 12.24810314178467 27.2052001953125 Z M 61.49970245361328 14.00130081176758 C 60.53447341918945 14.00130081176758 59.74920272827148 13.21602916717529 59.74920272827148 12.25080108642578 L 59.74920272827148 1.752300620079041 C 59.74920272827148 0.7870720624923706 60.53447341918945 0.001800628611817956 61.49970245361328 0.001800628611817956 C 62.46543121337891 0.001800628611817956 63.25110244750977 0.7870720624923706 63.25110244750977 1.752300620079041 L 63.25110244750977 12.25080108642578 C 63.25110244750977 13.21602916717529 62.46543121337891 14.00130081176758 61.49970245361328 14.00130081176758 Z M 49.50180435180664 14.00130081176758 C 48.53657531738281 14.00130081176758 47.75130462646484 13.21602916717529 47.75130462646484 12.25080108642578 L 47.75130462646484 1.752300620079041 C 47.75130462646484 0.7870720624923706 48.53657531738281 0.001800628611817956 49.50180435180664 0.001800628611817956 C 50.46753311157227 0.001800628611817956 51.25320434570313 0.7870720624923706 51.25320434570313 1.752300620079041 L 51.25320434570313 12.25080108642578 C 51.25320434570313 13.21602916717529 50.46753311157227 14.00130081176758 49.50180435180664 14.00130081176758 Z M 37.4994010925293 14.00130081176758 C 36.53565979003906 14.00130081176758 35.75160217285156 13.21602916717529 35.75160217285156 12.25080108642578 L 35.75160217285156 1.752300620079041 C 35.75160217285156 0.7870720624923706 36.53565979003906 0.001800628611817956 37.4994010925293 0.001800628611817956 C 38.46463012695313 0.001800628611817956 39.24990081787109 0.7870720624923706 39.24990081787109 1.752300620079041 L 39.24990081787109 12.25080108642578 C 39.24990081787109 13.21602916717529 38.46463012695313 14.00130081176758 37.4994010925293 14.00130081176758 Z M 25.50060272216797 14.00130081176758 C 24.53537368774414 14.00130081176758 23.75010299682617 13.21602916717529 23.75010299682617 12.25080108642578 L 23.75010299682617 1.752300620079041 C 23.75010299682617 0.7870720624923706 24.53537368774414 0.001800628611817956 25.50060272216797 0.001800628611817956 C 26.46434593200684 0.001800628611817956 27.24840354919434 0.7870720624923706 27.24840354919434 1.752300620079041 L 27.24840354919434 12.25080108642578 C 27.24840354919434 13.21602916717529 26.46434593200684 14.00130081176758 25.50060272216797 14.00130081176758 Z" stroke="none" fill="#434343"/>
      </g>
      <path id="빼기_32" data-name="빼기 32" d="M21,42A21,21,0,0,1,6.151,6.151a21,21,0,1,1,29.7,29.7A20.863,20.863,0,0,1,21,42Zm-.5-10A2.5,2.5,0,1,0,23,34.5,2.5,2.5,0,0,0,20.5,32Zm0-27A2.5,2.5,0,0,0,18,7.5v18a2.5,2.5,0,1,0,5,0V7.5A2.5,2.5,0,0,0,20.5,5Z" transform="translate(14865 4800)" fill="#434343"/>
    </g>
  </g>
</svg>
