<svg xmlns="http://www.w3.org/2000/svg" xmlns:xlink="http://www.w3.org/1999/xlink" width="29" height="29" viewBox="0 0 29 29">
  <defs>
    <clipPath id="clip-path">
      <rect id="사각형_44" data-name="사각형 44" width="29" height="29" transform="translate(3097 -1151)" fill="#fff" stroke="#707070" stroke-width="1" opacity="0.5"/>
    </clipPath>
  </defs>
  <g id="마스크_그룹_16" data-name="마스크 그룹 16" transform="translate(-3097 1151)" clip-path="url(#clip-path)">
    <path id="retail" d="M23.388,4.792c0,.017.015.032.019.049l1.72,7.473a2.045,2.045,0,0,1-.552,1.9L13.069,25.717a2.017,2.017,0,0,1-2.852.024L1.025,16.549A2.016,2.016,0,0,1,1.049,13.7L12.554,2.191a2.042,2.042,0,0,1,1.9-.552l7.472,1.72c.018,0,.032.014.05.019L24.689.663,26.1,2.077,23.388,4.792ZM21.7,6.474,19.838,8.342a2.5,2.5,0,1,1-1.414-1.415L20.291,5.06,13.968,3.605,2.463,15.111,11.655,24.3,23.161,12.8,21.7,6.474ZM18.564,8.2a1.526,1.526,0,1,0-.018,2.14A1.513,1.513,0,0,0,18.564,8.2ZM10.272,18.333A2.181,2.181,0,0,1,11,16.8a2.453,2.453,0,0,1,1.017-.643,1.806,1.806,0,0,1,1.047-.013,2.269,2.269,0,0,1,1.485,1.486,1.8,1.8,0,0,1-.012,1.047,2.452,2.452,0,0,1-.644,1.017,2.185,2.185,0,0,1-1.536.727,2.159,2.159,0,0,1-2.084-2.085Zm1.485.6a.4.4,0,0,0,.407.082,1.514,1.514,0,0,0,.624-.428,1.514,1.514,0,0,0,.428-.624.376.376,0,0,0-.49-.49,1.51,1.51,0,0,0-.623.429,1.5,1.5,0,0,0-.429.623.4.4,0,0,0,.083.408ZM6.47,15.2l9.256-1.819,1.314,1.315L7.785,16.511,6.47,15.2Zm6.042-2.105a2.18,2.18,0,0,1-1.536.726,2.159,2.159,0,0,1-2.084-2.084A2.18,2.18,0,0,1,9.618,10.2a2.455,2.455,0,0,1,1.018-.644,1.823,1.823,0,0,1,1.047-.013,2.274,2.274,0,0,1,1.486,1.486,1.806,1.806,0,0,1-.013,1.047A2.455,2.455,0,0,1,12.512,13.091Zm-.758-2.135a.4.4,0,0,0-.408-.083,1.512,1.512,0,0,0-.623.428,1.508,1.508,0,0,0-.429.624.377.377,0,0,0,.49.49,1.508,1.508,0,0,0,.624-.429,1.512,1.512,0,0,0,.428-.623A.4.4,0,0,0,11.754,10.956Z" transform="translate(3098.554 -1149.663)" fill="#b3b8bc" fill-rule="evenodd"/>
  </g>
</svg>
