<svg xmlns="http://www.w3.org/2000/svg" width="43" height="26" fill="none" viewBox="0 0 43 26">
    <path fill="#858585" d="M8.673 6.26c.76 0 1.423.08 1.989.25.565.17 1.062.39 1.5.67.146.1.234.23.244.38.01.15-.02.3-.107.45-.088.13-.205.21-.332.25-.126.04-.273.02-.419-.08-.4-.26-.818-.45-1.257-.57-.438-.12-.994-.18-1.647-.18-2.397 0-3.596 1.62-3.596 4.87v.68c0 1.61.293 2.82.877 3.63.585.81 1.501 1.22 2.748 1.22.683 0 1.277-.08 1.794-.25.516-.17.984-.42 1.403-.76.127-.09.263-.13.41-.1.145.02.272.1.37.24.117.15.165.31.146.47-.02.16-.107.3-.263.42-.468.37-1.014.66-1.647.87-.634.21-1.374.31-2.232.31-1.628 0-2.836-.5-3.655-1.49-.808-1-1.218-2.47-1.218-4.43v-.96c0-1.96.41-3.43 1.228-4.43.829-.96 2.047-1.46 3.664-1.46zM23.438 6.39c.156 0 .302.04.42.12.116.08.174.21.174.38v10.9c0 .41-.077.69-.224.86-.146.17-.38.24-.701.24-.117 0-.215-.01-.302-.04-.088-.02-.176-.06-.264-.12-.087-.06-.165-.15-.253-.26-.088-.12-.175-.27-.282-.47l-4.99-8.7c-.117-.2-.224-.41-.322-.63-.097-.22-.195-.45-.273-.7v10.46c0 .17-.058.3-.175.38-.117.08-.263.12-.42.12-.145 0-.282-.04-.399-.12-.117-.08-.175-.21-.175-.38V7.54c0-.41.078-.69.224-.86.146-.17.38-.24.702-.24.117 0 .214.01.302.03.088.02.175.06.253.12.078.06.166.15.244.27.088.12.185.28.302.46l4.99 8.7c.224.4.428.84.594 1.33V6.89c0-.17.059-.3.175-.38.117-.08.254-.12.4-.12z"/>
    <path stroke="#858585" stroke-linecap="round" stroke-linejoin="round" stroke-miterlimit="10" stroke-width="1.2" d="M27.14 6.77l4.337 6.17 4.396-6.26M31.507 13.38v5.44M27.696 13.36h7.611M27.696 16.13h7.611"/>
</svg>
