<svg xmlns="http://www.w3.org/2000/svg" width="17" height="30" fill="none" viewBox="0 0 17 30">
    <path fill="#FF8200" d="M5.097 21.538c.108 0 .186.039.234.117.054.078.08.168.08.27 0 .102-.026.192-.08.27-.048.078-.126.117-.234.117h-1.44v.567c0 .3.048.558.144.774.102.21.26.408.477.594.198.168.387.324.567.468.186.144.348.267.486.369.102.072.153.159.153.261.006.102-.024.198-.09.288-.06.078-.144.135-.252.171-.102.03-.204.006-.306-.072-.12-.09-.261-.198-.423-.324l-.531-.432c-.228-.186-.39-.336-.486-.45-.09-.12-.147-.231-.171-.333h-.01c-.023.108-.086.228-.188.36-.096.126-.258.282-.486.468-.192.156-.381.306-.567.45-.186.144-.366.279-.54.405-.102.078-.207.102-.315.072-.102-.036-.18-.093-.234-.171-.066-.09-.1-.189-.1-.297 0-.108.055-.201.163-.279l.585-.441c.204-.156.405-.321.603-.495.216-.186.372-.384.468-.594.102-.21.153-.465.153-.765v-.594H1.254c-.114 0-.198-.039-.252-.117-.048-.078-.072-.168-.072-.27 0-.102.024-.192.072-.27.054-.078.138-.117.252-.117h3.843zm1.926-.54c.114 0 .216.03.306.09s.135.156.135.288v5.328c0 .132-.045.228-.135.288-.09.06-.192.09-.306.09-.12 0-.225-.03-.315-.09s-.135-.156-.135-.288v-2.727H5.277c-.114 0-.198-.039-.252-.117-.048-.078-.072-.168-.072-.27 0-.108.024-.198.072-.27.054-.078.138-.117.252-.117h1.296v-1.827c0-.132.045-.228.135-.288.09-.06.195-.09.315-.09zM2.63 26.326c.114 0 .216.03.306.09.096.06.144.156.144.288v1.521c0 .066.012.111.036.135.03.03.08.045.153.045h4.086c.114 0 .195.039.243.117.054.078.08.171.08.279 0 .102-.026.192-.08.27-.048.078-.13.117-.243.117H2.865c-.264 0-.447-.048-.55-.144-.095-.096-.143-.273-.143-.531v-1.809c0-.132.045-.228.135-.288.096-.06.204-.09.324-.09zm8.281-5.292c.114 0 .216.03.306.09s.135.156.135.288v.756h1.17c.108 0 .186.039.234.117.054.078.081.168.081.27 0 .102-.027.192-.081.27-.048.072-.126.108-.234.108h-1.17v.684c0 .18.009.339.027.477.018.138.048.267.09.387.042.114.096.225.162.333.072.108.162.222.27.342.156.18.309.348.459.504.156.156.285.282.387.378.084.078.117.171.099.279-.012.102-.054.192-.126.27-.078.078-.168.12-.27.126-.102.006-.195-.03-.279-.108l-.342-.342-.351-.369c-.192-.21-.327-.378-.405-.504-.078-.132-.126-.252-.144-.36h-.009c-.018.12-.069.246-.153.378-.084.132-.222.303-.414.513-.126.138-.261.279-.405.423-.138.144-.285.291-.441.441-.084.078-.18.114-.288.108-.108-.012-.198-.057-.27-.135-.078-.084-.123-.177-.135-.279-.012-.102.024-.195.108-.279l.513-.513c.168-.174.333-.351.495-.531.108-.12.195-.234.261-.342.072-.108.126-.219.162-.333.042-.12.072-.249.09-.387.018-.138.027-.297.027-.477v-.684H9.193c-.108 0-.189-.036-.243-.108-.048-.078-.072-.168-.072-.27 0-.102.024-.192.072-.27.054-.078.135-.117.243-.117h1.278v-.756c0-.132.045-.228.135-.288.09-.06.192-.09.306-.09zm2.916.054c.102 0 .195.03.279.09.09.054.135.141.135.261v6.606c0 .12-.045.207-.135.261-.084.06-.177.09-.279.09-.108 0-.207-.03-.297-.09-.084-.054-.126-.141-.126-.261v-3.411h-.855c-.108 0-.189-.036-.243-.108-.048-.078-.072-.168-.072-.27 0-.108.024-.198.072-.27.054-.078.135-.117.243-.117h.855v-2.43c0-.12.042-.207.126-.261.09-.06.189-.09.297-.09zm1.611-.09c.108 0 .204.03.288.09.09.054.135.141.135.261v7.074c0 .12-.045.207-.135.261-.084.06-.18.09-.288.09-.102 0-.198-.03-.288-.09-.084-.054-.126-.141-.126-.261v-7.074c0-.12.042-.207.126-.261.09-.06.186-.09.288-.09z"/>
    <path stroke="#FF8200" stroke-linecap="round" stroke-linejoin="round" stroke-miterlimit="8" stroke-width="1.3" d="M2 11.925h13M2 6.425h13M2 .922h13"/>
</svg>
