<svg xmlns="http://www.w3.org/2000/svg" width="93" height="112" fill="none" viewBox="0 0 93 112">
    <path fill="#fff" d="M91 29.105l-9.296 4.478L68.654 6.48 77.948 2"/>
    <path stroke="#878787" stroke-linecap="round" stroke-linejoin="round" stroke-miterlimit="10" stroke-width="2.5" d="M91 29.105l-9.296 4.478L68.654 6.48 77.948 2"/>
    <path fill="#fff" stroke="#878787" stroke-linecap="round" stroke-linejoin="round" stroke-miterlimit="10" stroke-width="2.5" d="M69.11 74.486H8.102v35.269H69.11V74.486zM65.12 53.853H12.076L1.58 65.132h74.036L65.119 53.853z"/>
    <path fill="#fff" stroke="#878787" stroke-linecap="round" stroke-linejoin="round" stroke-miterlimit="10" stroke-width="2.5" d="M75.618 65.13H1.582v9.355h74.036V65.13zM64.911 37.748L35.37 24.627 19.904 59.429h35.362l9.645-21.681z"/>
    <path stroke="#878787" stroke-linecap="round" stroke-linejoin="round" stroke-miterlimit="10" stroke-width="2.5" d="M31.042 35.103l29.262 13.005M15.799 59.496H61.4"/>
    <path fill="#fff" stroke="#878787" stroke-linecap="round" stroke-linejoin="round" stroke-miterlimit="10" stroke-width="2.5" d="M71.862 13.101c-.373-.723-.606-1.096-1.283-1.609-.98-.735-2.566-1.213-3.778-1.388-6.135-.886-14.637-1.75-18.894 4.117-2.181 2.997-4.14 6.146-6.322 9.144-.63.875-1.41 1.808-2.157 2.81l7.79 3.394c.082-.093.14-.174.222-.256 2.065-2.356 5.412-6.38 9.004-5.342 2.729.782 3.545 4.607 3.58 4.77L48 34.141c-2.636 1.272-3.732 4.444-2.46 7.068 1.27 2.636 4.443 3.732 7.067 2.46 1.633-.78 3.265-1.562 4.91-2.332 4.898-2.332 9.785-4.665 14.683-6.998.922-.454 7.908-4.093 7.908-4.093-2.788-5.295-4.374-9.715-8.246-17.145z"/>
    <path fill="#878787" d="M17.637 88.33c.463 0 .853.05 1.169.15.316.101.586.224.81.371.154.1.243.235.266.405.023.17-.02.332-.127.486-.093.131-.212.22-.359.266-.139.047-.285.023-.44-.07-.378-.223-.817-.335-1.319-.335-.478 0-.837.147-1.076.44-.231.285-.347.729-.347 1.33v.29c0 .579.123 1.018.37 1.32.247.292.602.439 1.065.439.54 0 1.01-.112 1.412-.336.154-.085.308-.108.462-.07.162.032.286.124.37.279.086.154.116.316.093.486-.015.17-.104.308-.266.416-.239.155-.54.278-.902.37-.355.093-.749.14-1.18.14-.911 0-1.62-.251-2.13-.753-.51-.501-.764-1.265-.764-2.291v-.29c0-1.025.25-1.79.752-2.29.51-.502 1.223-.753 2.141-.753zm5.651 3.657c-.386 0-.655.073-.81.22-.146.147-.22.343-.22.59v.023c0 .448.29.671.868.671.455 0 .814-.077 1.076-.231.186-.108.317-.235.394-.382.085-.147.127-.343.127-.59v-.301h-1.435zm.301-3.657c.37 0 .714.047 1.03.14.316.092.586.227.81.404.232.17.409.382.532.637.132.246.197.532.197.856v3.76c0 .194-.07.336-.208.429-.131.085-.282.127-.451.127-.17 0-.325-.042-.463-.127-.132-.093-.197-.235-.197-.428v-.301h-.012c-.061.131-.15.247-.266.347-.116.1-.254.193-.416.278-.155.077-.332.139-.533.185-.2.046-.4.07-.601.07-.695 0-1.23-.159-1.609-.475-.37-.316-.555-.764-.555-1.342v-.186c0-.262.038-.505.115-.728.085-.224.22-.417.405-.58.193-.169.44-.3.74-.393.31-.092.691-.138 1.147-.138h1.458v-.162c0-.394-.093-.675-.278-.845-.178-.178-.463-.266-.856-.266-.525 0-1.019.139-1.482.416-.154.093-.308.12-.462.081-.147-.046-.267-.146-.36-.3-.084-.147-.119-.298-.103-.452.023-.162.111-.293.266-.393.277-.186.601-.332.972-.44.378-.116.771-.174 1.18-.174zm6.38 0c.763 0 1.365.12 1.804.36.193.107.313.234.36.38.046.148.026.31-.059.487-.069.147-.17.247-.3.3-.132.047-.282.032-.452-.046-.177-.084-.374-.15-.59-.196-.208-.046-.409-.07-.602-.07-.44 0-.744.054-.914.162-.17.108-.254.236-.254.382v.023c0 .093.011.174.034.243.023.062.074.12.15.174.086.046.205.093.36.139.154.038.366.085.636.139.463.092.845.196 1.146.312.3.108.54.24.717.394.177.154.3.339.37.555.07.208.104.46.104.752v.047c0 .262-.061.505-.185.728-.115.224-.285.421-.509.59-.216.163-.482.29-.798.383-.309.092-.656.138-1.042.138-.455 0-.875-.046-1.261-.138-.386-.093-.725-.22-1.018-.382-.163-.085-.259-.209-.29-.37-.03-.17-.008-.332.07-.487.084-.162.2-.27.347-.324.146-.054.305-.038.474.047.247.13.513.235.799.312.293.077.582.116.868.116.4 0 .678-.058.833-.174.154-.115.231-.262.231-.44v-.023c0-.092-.011-.173-.035-.243-.023-.07-.08-.13-.173-.185-.093-.054-.228-.104-.405-.15-.178-.046-.417-.1-.718-.162-.408-.077-.752-.17-1.03-.278-.27-.108-.49-.24-.659-.393-.17-.162-.293-.348-.37-.556-.07-.216-.105-.463-.105-.74v-.047c0-.231.05-.451.15-.66.101-.215.252-.404.452-.566.209-.162.467-.29.776-.382.308-.1.67-.15 1.087-.15zm4.463-2.302c.177 0 .335.05.474.15.147.093.22.24.22.44v2.58h.023c.093-.146.208-.274.347-.382.139-.115.29-.208.451-.277.17-.07.348-.12.533-.15.185-.04.366-.059.544-.059.679 0 1.219.2 1.62.602.4.394.602.98.602 1.759v3.379c0 .208-.074.363-.22.463-.147.1-.317.15-.51.15-.185 0-.354-.05-.509-.15-.146-.1-.22-.255-.22-.463v-3.067c0-.277-.03-.505-.092-.682-.062-.186-.147-.328-.255-.428-.108-.109-.239-.182-.393-.22-.147-.047-.305-.07-.475-.07-.146 0-.3.023-.463.07-.162.046-.312.127-.45.243-.132.115-.244.27-.336.463-.085.192-.128.432-.128.717v2.974c0 .208-.073.363-.22.463-.146.1-.316.15-.509.15-.185 0-.355-.05-.509-.15-.147-.1-.22-.255-.22-.463v-7.452c0-.2.07-.347.209-.44.146-.1.308-.15.486-.15zm10.114 0c.193 0 .363.05.51.15.146.1.22.255.22.463v2.453c.1-.146.223-.27.37-.37.154-.1.308-.178.463-.232.162-.061.32-.104.474-.127.162-.023.309-.035.44-.035.84 0 1.466.259 1.874.776.41.509.614 1.261.614 2.256v.301c0 .502-.062.945-.185 1.33-.124.379-.297.695-.521.95-.224.254-.494.447-.81.578-.309.124-.656.185-1.042.185-.424 0-.779-.077-1.064-.231-.286-.154-.502-.355-.648-.602h-.035v.22c0 .2-.073.351-.22.451-.139.093-.297.14-.474.14-.178 0-.34-.047-.486-.14-.14-.1-.209-.25-.209-.45V86.64c0-.209.074-.363.22-.463.155-.1.324-.15.51-.15zm2.188 3.552c-.486 0-.857.143-1.111.428-.247.278-.37.637-.37 1.076v1.077c0 .162.038.32.115.474.077.154.181.293.313.417.13.123.289.223.474.3.185.078.39.116.613.116.864 0 1.296-.613 1.296-1.84v-.231c0-.602-.1-1.053-.3-1.354-.201-.309-.544-.463-1.03-.463zm6.83-1.25c.941 0 1.674.259 2.199.776.525.509.787 1.265.787 2.268v.289c0 1.003-.262 1.763-.787 2.28-.525.509-1.258.763-2.199.763-.94 0-1.674-.254-2.198-.763-.525-.517-.787-1.277-.787-2.28v-.29c0-1.002.262-1.758.787-2.267.524-.517 1.257-.776 2.198-.776zm0 1.273c-.524 0-.91.143-1.157.428-.24.286-.359.741-.359 1.366v.243c0 .625.12 1.08.36 1.365.246.286.632.428 1.156.428.525 0 .907-.142 1.146-.428.247-.285.37-.74.37-1.365v-.243c0-.625-.123-1.08-.37-1.366-.24-.285-.621-.428-1.146-.428zm8.734-1.053c.154.116.25.259.29.428.038.17-.008.34-.14.51l-1.562 1.99 1.667 2.06c.13.162.185.331.162.509-.016.17-.112.328-.29.474-.146.124-.32.178-.52.162-.193-.015-.355-.112-.486-.289l-1.435-1.91-1.435 1.898c-.139.186-.301.282-.486.29-.178.015-.34-.031-.486-.14-.154-.123-.25-.265-.29-.427-.038-.17.008-.34.14-.51l1.7-2.117-1.527-1.933c-.131-.162-.189-.328-.174-.497.023-.178.124-.34.301-.486.147-.124.317-.178.51-.162.2.015.366.112.497.29l1.296 1.781 1.296-1.77c.131-.185.29-.282.475-.29.185-.015.35.031.497.14z"/>
    <path fill="#878787" d="M19.616 88.851l-.137.21.137-.21zm.266.405l-.248.034.248-.034zm-.127.486l.204.144-.204-.144zm-.359.266l-.075-.238-.004.001.08.237zm-.44-.07l.129-.214h-.001l-.128.215zm-2.395.105l-.194-.158.194.158zm.023 2.94l-.193.158.002.002.191-.16zm2.477.103l-.12-.219-.002.001.122.218zm.462-.07l-.06.243.007.002.007.002.046-.246zm.463.765l-.248-.034v.011l.248.023zm-.266.416l.136.21.003-.002-.139-.208zm-.902.37l-.062-.242h-.002l.063.243zm-3.31-.613l.175-.178-.175.178zm-.012-4.871l-.175-.179-.001.002.176.176zm2.141-.503c.447 0 .81.049 1.093.14l.151-.478c-.348-.11-.765-.162-1.244-.162v.5zm1.093.14c.3.094.548.209.749.34l.274-.418c-.247-.162-.538-.294-.872-.4l-.15.477zm.75.34c.098.065.142.138.154.23l.496-.068c-.034-.247-.168-.444-.378-.58l-.272.419zm.154.23c.014.1-.008.2-.084.309l.41.286c.14-.2.202-.424.17-.663l-.496.068zm-.083.308c-.063.088-.138.143-.23.172l.15.477c.201-.064.366-.187.488-.36l-.408-.29zm-.234.173c-.054.018-.125.018-.232-.047l-.257.43c.201.12.424.166.647.091l-.158-.474zm-.233-.047c-.422-.25-.907-.37-1.447-.37v.5c.463 0 .858.102 1.192.3l.255-.43zm-1.447-.37c-.532 0-.97.165-1.27.53l.388.317c.18-.22.457-.348.882-.348v-.5zm-1.27.531c-.284.351-.403.864-.403 1.489h.5c0-.578.113-.953.291-1.174l-.388-.315zm-.403 1.489v.289h.5v-.29h-.5zm0 .289c0 .61.13 1.115.427 1.478l.386-.317c-.196-.24-.313-.613-.313-1.161h-.5zm.429 1.48c.304.361.736.529 1.256.529v-.5c-.406 0-.684-.126-.874-.35l-.382.321zm1.256.529c.575 0 1.089-.12 1.533-.367l-.243-.437c-.358.2-.785.304-1.29.304v.5zm1.532-.367c.105-.058.195-.067.282-.046l.121-.485c-.222-.055-.44-.018-.644.093l.241.438zm.296-.043c.083.016.146.06.198.153l.438-.24c-.118-.215-.302-.358-.543-.404l-.093.492zm.198.153c.06.109.08.217.064.332l.495.067c.03-.224-.011-.44-.121-.64l-.438.241zm.062.343c-.007.083-.046.159-.155.231l.277.416c.215-.143.353-.345.376-.602l-.498-.045zm-.152.23c-.211.135-.485.25-.83.337l.124.485c.381-.097.709-.23.977-.403l-.271-.42zm-.83.338c-.332.086-.703.13-1.118.13v.5c.45 0 .865-.048 1.244-.147l-.127-.483zm-1.118.13c-.863 0-1.503-.236-1.954-.68l-.35.356c.567.56 1.347.824 2.304.824v-.5zm-1.954-.68c-.444-.437-.689-1.124-.689-2.113h-.5c0 1.064.264 1.904.838 2.47l.351-.357zm-.689-2.113v-.29h-.5v.29h.5zm0-.29c0-.989.242-1.677.68-2.114l-.354-.353c-.566.566-.826 1.405-.826 2.468h.5zm.678-2.112c.45-.444 1.093-.68 1.965-.68v-.5c-.964 0-1.748.264-2.316.823l.35.357zm6.806 2.946l-.172-.181-.005.004.177.177zm1.724 1.053l-.126-.216.126.216zm.394-.382l-.217-.125-.004.009.22.116zm.127-.891h.25v-.25h-.25v.25zm-.104-3.518l-.07.24.07-.24zm.81.405l-.155.196.007.006.148-.202zm.532.637l-.225.109.005.008.22-.117zm-.011 5.045l.136.21.003-.002-.14-.208zm-.914 0l-.145.204.007.005.007.004.13-.213zm-.197-.729h.25v-.25h-.25v.25zm-.012 0v-.25h-.158l-.068.144.226.106zm-.266.347l-.164-.189.164.19zm-.416.278l.111.224.005-.003-.116-.221zm-.533.185l.057.244-.057-.244zm-2.21-.405l-.162.19.002.002.16-.192zm-.44-2.257l-.233-.088-.003.007.236.081zm.405-.578l.165.188-.165-.188zm.74-.394l-.07-.239h-.003l.074.24zm2.605-.138v.25h.25v-.25h-.25zm-.278-1.007l-.177.177.008.007.169-.184zm-2.338.15l.129.215-.129-.215zm-.462.081l-.076.239.008.002.007.002.06-.243zm-.36-.3l-.216.125.002.003.215-.129zm-.103-.452l-.248-.035-.001.01.249.025zm.266-.393l.136.21.002-.002-.138-.208zm.972-.44l.07.24.003-.001-.073-.24zm.88 3.233c-.404 0-.757.074-.983.289l.344.362c.083-.078.27-.151.638-.151v-.5zm-.988.293c-.202.202-.293.468-.293.767h.5c0-.194.056-.322.147-.413l-.354-.354zm-.293.767v.023h.5v-.023h-.5zm0 .023c0 .282.095.532.314.701.208.16.49.22.804.22v-.5c-.264 0-.416-.052-.498-.115-.07-.054-.12-.14-.12-.306h-.5zm1.118.921c.48 0 .888-.08 1.203-.266l-.253-.43c-.21.123-.519.196-.95.196v.5zm1.202-.265c.214-.125.385-.283.49-.481l-.443-.233c-.05.094-.142.19-.299.282l.252.432zm.484-.473c.115-.198.161-.443.161-.715h-.5c0 .222-.038.37-.093.465l.432.25zm.161-.715v-.301h-.5v.3h.5zm-.25-.551h-1.435v.5h1.435v-.5zM23.59 88.58c.35 0 .669.044.96.13l.14-.48c-.341-.1-.709-.15-1.1-.15v.5zm.96.13c.29.084.53.206.725.36l.31-.392c-.252-.2-.552-.349-.895-.449l-.14.48zm.732.366c.2.146.35.326.455.544l.45-.218c-.141-.292-.345-.536-.61-.73l-.295.404zm.46.552c.109.205.167.45.167.739h.5c0-.358-.073-.685-.226-.974l-.441.235zm.167.739v3.76h.5v-3.76h-.5zm0 3.76c0 .125-.04.183-.097.221l.277.416c.22-.147.32-.375.32-.636h-.5zm-.094.22c-.087.056-.19.086-.316.086v.5c.214 0 .412-.054.588-.167l-.272-.42zm-.316.086c-.125 0-.234-.03-.332-.09l-.26.426c.18.11.379.164.593.164v-.5zm-.318-.081c-.051-.036-.091-.094-.091-.224h-.5c0 .255.091.483.303.632l.288-.408zm-.091-.224v-.301h-.5v.3h.5zm-.25-.551h-.012v.5h.012v-.5zm-.238.144c-.046.097-.113.185-.204.264l.328.378c.14-.122.251-.265.328-.43l-.452-.213zm-.204.264c-.098.086-.22.168-.368.245l.232.443c.175-.092.331-.195.464-.31l-.328-.378zm-.364.243c-.134.067-.292.123-.477.165l.113.488c.216-.05.412-.118.587-.206l-.223-.447zm-.477.165c-.183.043-.364.063-.546.063v.5c.22 0 .44-.025.659-.075l-.113-.488zm-.546.063c-.659 0-1.13-.15-1.448-.416l-.32.384c.438.366 1.04.532 1.768.532v-.5zm-1.446-.414c-.304-.26-.467-.632-.467-1.152h-.5c0 .636.206 1.16.643 1.532l.324-.38zm-.467-1.152v-.186h-.5v.186h.5zm0-.186c0-.237.034-.452.102-.647l-.473-.163c-.087.253-.13.523-.13.81h.5zm.1-.64c.069-.184.18-.343.335-.479l-.33-.376c-.214.188-.374.415-.473.678l.467.177zm.335-.48c.162-.141.375-.257.65-.342l-.148-.478c-.327.101-.607.247-.832.445l.33.376zm.648-.341c.278-.084.634-.128 1.074-.128v-.5c-.47 0-.879.047-1.218.149l.144.479zm1.074-.128h1.458v-.5h-1.458v.5zm1.708-.25v-.162h-.5v.162h.5zm0-.162c0-.425-.1-.791-.36-1.03l-.337.37c.11.1.197.297.197.66h.5zm-.351-1.022c-.245-.245-.61-.34-1.033-.34v.5c.363 0 .57.084.68.194l.353-.354zm-1.033-.34c-.572 0-1.11.153-1.61.453l.257.429c.425-.255.875-.381 1.353-.381v-.5zm-1.61.453c-.106.063-.193.073-.274.053l-.121.485c.227.057.449.012.652-.11l-.257-.428zm-.26.057c-.078-.025-.152-.08-.219-.191l-.429.257c.119.197.284.343.498.41l.15-.476zm-.217-.188c-.061-.105-.081-.204-.072-.301l-.497-.05c-.021.212.028.414.136.602l.433-.25zm-.073-.29c.012-.082.053-.153.155-.22l-.273-.419c-.206.134-.342.325-.377.568l.495.07zm.157-.221c.254-.17.554-.306.904-.408l-.14-.48c-.391.114-.74.27-1.04.472l.276.416zm.907-.409c.354-.108.722-.163 1.107-.163v-.5c-.433 0-.85.062-1.253.185l.146.478zm9.291-.054l.123-.218-.003-.002-.12.22zm.36.382l.238-.075-.239.075zm-.059.486l-.225-.108.225.108zm-.3.3l.083.237.012-.005-.096-.231zm-.452-.046l-.108.226.005.002.103-.228zm-.59-.196l-.054.244h.002l.052-.244zm-1.736.74l-.237.08.003.008.234-.088zm.15.174l-.143.205.012.008.012.007.12-.22zm.36.139l-.073.24.012.002.06-.242zm.636.139l-.05.245.05-.245zm1.146.312l-.09.234.005.002.085-.236zm1.087.949l-.238.077.001.002.237-.079zm-.08 1.528l-.22-.121-.003.006.222.115zm-.51.59l.15.2.001-.001-.15-.2zm-.798.382l-.07-.24h-.002l.072.24zm-2.303 0l.058-.243-.058.243zm-1.018-.382l.12-.22-.005-.002-.115.222zm-.29-.37l-.246.044v.002l.246-.047zm.07-.487l-.222-.116-.002.005.224.111zm.347-.324l-.087-.234.087.234zm.474.047l.118-.221-.006-.003-.112.224zm.799.312l-.066.241h.002l.064-.24zm1.7-.058l.15.2-.15-.2zm.198-.706l-.238.08.238-.08zm-.174-.185l-.126.216.126-.216zm-.405-.15l.063-.242-.063.242zm-.718-.162l.05-.245h-.003l-.046.245zm-1.03-.278l-.092.232.002.001.09-.233zm-.659-.393l-.173.18.005.005.168-.185zm-.37-.556l-.239.077.004.01.235-.087zm.046-1.446l.225.108.002-.003-.227-.105zm.451-.567l-.153-.198-.004.003.157.195zm.776-.382l.071.24.006-.002-.077-.238zm1.087.1c.742 0 1.297.116 1.686.328l.239-.44c-.49-.266-1.14-.389-1.925-.389v.5zm1.683.326c.162.09.223.175.243.24l.477-.151c-.073-.23-.251-.4-.475-.525l-.245.436zm.243.24c.022.07.02.165-.045.302l.451.216c.104-.218.141-.447.07-.67l-.476.151zm-.045.303c-.047.099-.105.15-.17.177l.19.462c.197-.081.34-.23.431-.425l-.451-.214zm-.159.172c-.052.018-.133.022-.264-.038l-.207.455c.208.095.427.129.638.055l-.167-.472zm-.26-.036c-.197-.094-.413-.166-.645-.216l-.105.49c.199.042.377.102.534.177l.216-.451zm-.644-.215c-.224-.05-.443-.076-.656-.076v.5c.173 0 .355.021.548.064l.108-.488zm-.656-.076c-.443 0-.813.052-1.048.201l.268.422c.104-.066.344-.123.78-.123v-.5zm-1.048.201c-.212.136-.37.331-.37.593h.5c0-.03.011-.09.138-.17l-.268-.422zm-.37.593v.023h.5v-.023h-.5zm0 .023c0 .113.014.222.047.323l.474-.159c-.012-.038-.021-.091-.021-.164h-.5zm.05.331c.047.126.14.22.241.29l.287-.409c-.053-.037-.06-.058-.06-.056l-.468.175zm.265.306c.107.058.245.11.407.158l.143-.479c-.147-.044-.248-.084-.31-.118l-.24.439zm.418.161c.16.04.376.088.648.142l.098-.49c-.268-.054-.476-.1-.625-.137l-.121.485zm.648.142c.455.09.822.192 1.105.3l.18-.466c-.32-.123-.716-.23-1.187-.324l-.098.49zm1.11.302c.282.102.49.22.638.347l.328-.377c-.208-.18-.477-.325-.797-.44l-.169.47zm.638.347c.144.126.241.273.296.444l.476-.153c-.084-.261-.233-.485-.444-.668l-.328.377zm.297.446c.059.176.091.398.091.673h.5c0-.311-.036-.59-.117-.831l-.474.158zm.091.673v.047h.5v-.047h-.5zm0 .047c0 .22-.051.422-.154.608l.438.241c.145-.261.216-.546.216-.85h-.5zm-.157.614c-.097.187-.24.356-.438.506l.302.398c.25-.19.446-.414.58-.675l-.444-.23zm-.437.505c-.187.14-.425.256-.719.342l.14.48c.34-.1.634-.239.88-.422l-.3-.4zm-.72.342c-.281.084-.604.128-.97.128v.5c.406 0 .777-.048 1.113-.149l-.143-.479zm-.97.128c-.438 0-.839-.044-1.203-.132l-.117.487c.408.097.848.145 1.32.145v-.5zm-1.203-.132c-.368-.088-.685-.208-.956-.357l-.241.438c.316.174.677.309 1.08.406l.117-.487zm-.96-.36c-.103-.054-.145-.117-.16-.195l-.491.093c.046.246.197.43.418.545l.233-.443zm-.16-.193c-.021-.117-.006-.224.047-.33l-.447-.223c-.101.202-.132.42-.092.642l.492-.09zm.045-.326c.061-.117.134-.176.212-.205l-.173-.47c-.214.08-.373.236-.482.443l.443.232zm.212-.205c.069-.025.154-.026.276.035l.224-.447c-.217-.109-.448-.14-.673-.057l.173.469zm.271.032c.264.14.548.252.85.333l.13-.482c-.267-.073-.516-.17-.745-.292l-.235.441zm.852.334c.313.082.623.124.932.124v-.5c-.263 0-.531-.036-.805-.108l-.127.484zm.932.124c.407 0 .758-.055.983-.224l-.3-.4c-.084.063-.288.124-.683.124v.5zm.983-.224c.21-.158.331-.376.331-.64h-.5c0 .092-.034.167-.131.24l.3.4zm.331-.64v-.023h-.5v.023h.5zm0-.023c0-.112-.014-.221-.047-.322l-.475.158c.013.039.022.092.022.164h.5zm-.047-.322c-.05-.148-.164-.251-.285-.322l-.252.432c.064.037.066.058.062.048l.475-.158zm-.285-.322c-.121-.07-.282-.128-.468-.176l-.126.484c.169.044.278.087.342.124l.252-.432zm-.468-.176c-.184-.048-.428-.103-.73-.165l-.1.49c.298.061.533.114.704.159l.126-.484zm-.734-.166c-.4-.075-.727-.164-.986-.265l-.181.466c.296.115.656.211 1.074.29l.093-.49zm-.984-.264c-.249-.1-.441-.217-.584-.346l-.336.37c.197.178.444.324.735.44l.185-.464zm-.58-.342c-.143-.138-.245-.291-.308-.462l-.469.174c.091.246.237.463.432.65l.346-.362zm-.304-.451c-.06-.187-.093-.407-.093-.665h-.5c0 .299.038.572.117.818l.476-.153zm-.093-.665v-.046h-.5v.046h.5zm0-.046c0-.194.042-.376.126-.55l-.45-.218c-.117.242-.175.5-.175.768h.5zm.128-.554c.083-.179.208-.338.381-.478l-.314-.389c-.228.184-.403.403-.52.656l.453.21zm.378-.475c.179-.14.408-.254.693-.34l-.143-.479c-.332.1-.62.24-.857.424l.307.395zm.699-.341c.277-.09.613-.139 1.01-.139v-.5c-.435 0-.825.053-1.165.163l.155.476zm5.948-2.541l-.146.203.006.004.007.004.133-.211zm.22 3.02h-.25v.25h.25v-.25zm.023 0v.25h.138l.073-.116-.211-.134zm.347-.382l.154.198.006-.006-.16-.192zm.451-.277l-.094-.232-.004.002.099.23zm.533-.15l.04.246.01-.002-.05-.245zm2.164.543l-.177.177.002.002.175-.179zm.382 5.6l-.142-.206.142.207zm-1.019 0l-.14.207.004.004.136-.21zm-.312-4.211l-.237.079v.003l.237-.082zm-.255-.428l-.177.176.007.007.17-.183zm-.393-.22l-.075.238.007.002.007.002.06-.242zm-.938 0l-.068-.24.069.24zm-.45.243l-.16-.192-.006.004.165.188zm-.336.463l-.226-.109-.003.008.229.1zm-.348 4.154l.142.206-.142-.206zm-1.018 0l-.141.206.005.004.136-.21zm-.011-8.355l.138.208.003-.002-.142-.206zm.486.1c.127 0 .233.034.328.103l.292-.406c-.183-.132-.392-.197-.62-.197v.5zm.34.111c.062.04.104.098.104.229h.5c0-.27-.105-.505-.337-.651l-.267.422zm.104.229v2.58h.5v-2.58h-.5zm.25 2.83h.023v-.5h-.023v.5zm.234-.116c.077-.122.173-.228.29-.318l-.307-.395c-.162.126-.297.274-.405.446l.422.267zm.296-.324c.121-.1.25-.18.39-.24l-.197-.46c-.185.08-.356.185-.513.316l.32.384zm.386-.238c.152-.062.312-.107.479-.135l-.082-.493c-.203.033-.399.089-.586.165l.19.463zm.489-.137c.17-.035.333-.053.493-.053v-.5c-.196 0-.394.022-.595.063l.102.49zm.493-.053c.626 0 1.098.184 1.443.529l.354-.354c-.458-.457-1.066-.675-1.797-.675v.5zm1.445.53c.337.331.526.842.526 1.581h.5c0-.82-.211-1.481-.676-1.937l-.35.356zm.526 1.581v3.379h.5v-3.379h-.5zm0 3.379c0 .142-.045.211-.11.257l.282.412c.227-.155.328-.395.328-.669h-.5zm-.11.257c-.102.069-.221.106-.369.106v.5c.24 0 .459-.063.65-.194l-.282-.413zm-.369.106c-.137 0-.259-.036-.372-.11l-.273.42c.195.126.412.19.645.19v-.5zm-.367-.107c-.066-.045-.112-.114-.112-.256h-.5c0 .274.102.514.33.67l.282-.413zm-.112-.256v-3.067h-.5v3.067h.5zm0-3.067c0-.293-.032-.551-.106-.764l-.472.164c.049.141.078.339.078.6h.5zm-.105-.761c-.07-.213-.175-.396-.322-.533l-.34.367c.07.064.135.166.188.324l.474-.158zm-.315-.526c-.141-.142-.313-.237-.51-.286l-.12.485c.111.028.202.08.276.154l.354-.353zm-.495-.282c-.173-.055-.357-.08-.55-.08v.5c.147 0 .28.02.4.057l.15-.477zm-.55-.08c-.173 0-.35.026-.531.078l.137.481c.143-.04.274-.06.394-.06v-.5zm-.531.078c-.198.057-.38.155-.543.292l.32.384c.114-.095.234-.159.36-.195l-.137-.48zm-.548.296c-.161.142-.292.326-.396.542l.451.217c.081-.17.174-.295.276-.384l-.331-.375zm-.4.55c-.102.234-.148.51-.148.818h.5c0-.262.04-.465.106-.617l-.457-.201zm-.148.818v2.974h.5v-2.974h-.5zm0 2.974c0 .142-.045.211-.11.257l.282.412c.227-.155.328-.395.328-.669h-.5zm-.11.257c-.102.069-.222.106-.369.106v.5c.239 0 .459-.063.65-.194l-.282-.413zm-.369.106c-.137 0-.26-.036-.373-.11l-.272.42c.195.126.412.19.645.19v-.5zm-.368-.107c-.066-.045-.11-.114-.11-.256h-.5c0 .274.1.514.328.67l.282-.413zm-.11-.256v-7.452h-.5v7.452h.5zm0-7.452c0-.137.042-.196.096-.232l-.277-.416c-.223.149-.32.383-.32.648h.5zm.099-.234c.105-.072.218-.106.345-.106v-.5c-.228 0-.44.065-.628.194l.283.412zm10.969-.206l.14-.206-.14.206zm.22 2.916h-.25v.808l.456-.667-.206-.14zm.37-.37l-.136-.21-.005.003.14.207zm.463-.232l.082.236.007-.002-.09-.234zm.474-.127l-.035-.247h-.002l.037.247zm2.315.74l-.197.156.002.001.194-.156zm.428 3.889l.237.077v-.001l-.237-.076zm-.521.949l.188.165-.188-.165zm-.81.578l.093.232h.003l-.096-.232zm-2.106-.046l-.119.22.119-.22zm-.648-.602l.215-.127-.073-.123h-.142v.25zm-.035 0v-.25h-.25v.25h.25zm-.22.671l.139.209.002-.002-.14-.207zm-.96 0l-.147.203.007.005.006.004.134-.212zm.011-8.366l-.136-.21-.005.004.141.206zm1.586 3.83l-.187-.166.187.166zm-.255 2.627l-.224.112.224-.112zm.313.417l.17-.182-.17.182zm.474.3l-.096.231.096-.23zm1.608-3.309l-.21.136.003.003.208-.139zm-3.216-3.766c.147 0 .266.038.367.107l.283-.412c-.192-.132-.412-.194-.65-.194v.5zm.367.107c.066.045.111.115.111.257h.5c0-.275-.101-.514-.328-.67l-.283.413zm.111.257v2.453h.5v-2.453h-.5zm.457 2.594c.083-.12.184-.222.305-.305l-.282-.413c-.172.118-.318.264-.436.436l.413.282zm.3-.302c.14-.09.276-.158.41-.205l-.166-.472c-.175.062-.347.148-.516.258l.272.42zm.416-.207c.147-.056.288-.094.422-.114l-.074-.494c-.174.026-.35.073-.526.14l.178.468zm.42-.114c.154-.021.288-.032.405-.032v-.5c-.146 0-.304.013-.475.038l.07.495zm.405-.032c.787 0 1.33.24 1.678.68l.393-.31c-.47-.592-1.177-.87-2.071-.87v.5zm1.68.682c.358.447.558 1.133.558 2.1h.5c0-1.023-.21-1.841-.669-2.413l-.39.313zm.558 2.1v.301h.5v-.3h-.5zm0 .301c0 .481-.06.899-.173 1.255l.476.152c.133-.415.197-.886.197-1.407h-.5zm-.173 1.253c-.115.352-.273.637-.47.862l.375.33c.25-.284.438-.632.57-1.037l-.475-.155zm-.47.862c-.2.225-.438.396-.719.512l.192.462c.35-.145.652-.36.902-.644l-.376-.33zm-.716.511c-.275.11-.59.167-.949.167v.5c.413 0 .792-.066 1.135-.203l-.186-.464zm-.949.167c-.395 0-.706-.072-.945-.2l-.238.439c.331.18.73.261 1.183.261v-.5zm-.945-.2c-.251-.137-.432-.307-.552-.51l-.43.255c.172.29.424.521.744.694l.238-.44zm-.767-.633h-.035v.5h.035v-.5zm-.285.25v.22h.5v-.22h-.5zm0 .22c0 .13-.042.198-.11.245l.281.413c.225-.154.33-.387.33-.658h-.5zm-.108.243c-.096.064-.205.097-.336.097v.5c.223 0 .43-.059.613-.18l-.277-.417zm-.336.097c-.132 0-.247-.033-.353-.1l-.267.423c.188.118.396.177.62.177v-.5zm-.34-.091c-.062-.045-.104-.113-.104-.249h-.5c0 .265.096.498.311.654l.293-.405zm-.104-.249v-7.452h-.5v7.452h.5zm0-7.452c0-.142.044-.212.11-.257l-.282-.412c-.227.155-.328.394-.328.669h.5zm.106-.253c.113-.074.235-.11.373-.11v-.5c-.234 0-.45.063-.646.19l.273.42zm2.56 2.942c-.537 0-.984.16-1.298.512l.373.333c.195-.219.49-.345.925-.345v-.5zm-1.298.512c-.295.332-.434.753-.434 1.242h.5c0-.39.109-.686.307-.91l-.373-.332zm-.434 1.242v1.077h.5v-1.077h-.5zm0 1.077c0 .203.05.4.142.586l.448-.224c-.061-.122-.09-.242-.09-.362h-.5zm.142.586c.091.182.214.344.365.487l.343-.364c-.11-.105-.197-.22-.26-.347l-.447.224zm.365.487c.156.146.34.262.55.35l.192-.462c-.16-.067-.292-.152-.4-.252l-.342.364zm.55.35c.219.09.456.134.71.134v-.5c-.195 0-.366-.033-.518-.096l-.192.461zm.71.134c.498 0 .905-.182 1.176-.566.259-.368.37-.889.37-1.524h-.5c0 .592-.106.99-.279 1.236-.162.23-.403.354-.768.354v.5zm1.545-2.09v-.231h-.5v.231h.5zm0-.231c0-.622-.102-1.132-.343-1.493l-.415.278c.16.24.258.633.258 1.215h.5zm-.34-1.49c-.262-.402-.7-.577-1.24-.577v.5c.431 0 .68.134.82.35l.42-.273zm7.789-.801l-.175.178v.001l.175-.18zm0 4.837l.174.18.001-.002-.175-.178zm-4.397 0l-.176.178.002.001.174-.18zm0-4.837l.174.179.001-.001-.175-.178zm1.041.925l-.189-.163-.003.003.192.16zm0 2.974l-.192.16.003.004.19-.164zm2.303 0l-.19-.163-.002.003.192.16zm0-2.974l-.192.161.003.003.189-.164zm-1.146-1.45c.895 0 1.558.244 2.023.703l.351-.356c-.583-.575-1.386-.848-2.374-.848v.5zm2.025.704c.46.447.71 1.128.71 2.089h.5c0-1.045-.273-1.876-.862-2.448l-.348.359zm.71 2.089v.289h.5v-.29h-.5zm0 .289c0 .96-.25 1.647-.712 2.102l.351.356c.588-.58.862-1.413.862-2.458h-.5zm-.71 2.1c-.466.452-1.13.693-2.025.693v.5c.987 0 1.79-.267 2.373-.834l-.348-.359zm-2.025.693c-.895 0-1.559-.24-2.024-.693l-.349.36c.584.566 1.386.833 2.373.833v-.5zm-2.023-.691c-.462-.455-.712-1.141-.712-2.102h-.5c0 1.045.274 1.879.861 2.458l.351-.356zm-.712-2.102v-.29h-.5v.29h.5zm0-.29c0-.96.25-1.641.71-2.088l-.348-.359c-.589.572-.862 1.403-.862 2.448h.5zm.712-2.09c.466-.458 1.129-.703 2.023-.703v-.5c-.987 0-1.79.273-2.374.848l.351.356zm2.023.07c-.567 0-1.035.156-1.346.515l.378.327c.183-.212.487-.342.968-.342v-.5zm-1.349.518c-.295.352-.417.879-.417 1.526h.5c0-.603.117-.986.3-1.205l-.383-.321zm-.417 1.526v.243h.5v-.243h-.5zm0 .243c0 .647.122 1.174.417 1.526l.384-.321c-.183-.219-.3-.602-.3-1.205h-.5zm.42 1.529c.31.36.779.514 1.346.514v-.5c-.481 0-.785-.13-.968-.341l-.378.327zm1.346.514c.567 0 1.034-.155 1.337-.517l-.383-.321c-.174.208-.472.338-.954.338v.5zm1.335-.514c.305-.353.431-.88.431-1.53h-.5c0 .602-.12.984-.31 1.203l.379.327zm.431-1.53v-.242h-.5v.243h.5zm0-.242c0-.648-.126-1.177-.431-1.53l-.378.328c.189.218.31.6.31 1.202h.5zm-.428-1.526c-.304-.363-.77-.518-1.338-.518v.5c.482 0 .78.13.954.339l.383-.321zm7.396-1.32l.15-.2-.002-.002-.148.201zm.29.427l-.244.056.243-.056zm-.14.51l.197.154.001-.002-.197-.153zm-1.562 1.99l-.196-.154-.123.156.125.155.194-.157zm1.667 2.06l-.195.157.195-.157zm.162.509l-.248-.032-.001.01.249.022zm-.29.474l-.159-.192-.002.001.161.191zm-.52.162l-.02.25.02-.25zm-.486-.289l.2-.149v-.001l-.2.15zm-1.435-1.91l.2-.15-.2-.265-.2.265.2.15zm-1.435 1.898l-.2-.15.2.15zm-.486.29l-.01-.25h-.012l.022.25zm-.486-.14l-.157.196.008.006.149-.201zm-.29-.427l-.243.055v.003l.244-.058zm.14-.51l-.196-.156-.002.004.197.153zm1.7-2.117l.195.156.125-.155-.123-.156-.197.155zM57.6 89.545l.196-.155-.002-.002-.194.157zm-.174-.497l-.248-.033v.01l.248.023zm.301-.486l.16.192.001-.001-.16-.191zm.51-.162l-.02.249.02-.25zm.497.29l.202-.148v-.002l-.202.15zm1.296 1.781l-.202.147.201.277.203-.276-.202-.148zm1.296-1.77l.202.147.002-.003-.204-.144zm.475-.29l.01.25h.01l-.02-.25zm.347.34c.112.084.172.177.196.283l.487-.111c-.053-.234-.187-.426-.383-.573l-.3.4zm.196.283c.018.08.004.175-.093.3l.395.306c.166-.213.244-.458.185-.717l-.487.11zm-.092.3l-1.562 1.99.393.308 1.562-1.99-.393-.309zm-1.56 2.301l1.666 2.06.39-.315-1.667-2.06-.389.315zm1.666 2.06c.096.118.122.221.109.32l.496.064c.033-.256-.05-.493-.216-.699l-.389.315zm.108.33c-.008.082-.055.184-.2.304l.319.385c.21-.174.355-.388.379-.644l-.498-.046zm-.202.305c-.093.079-.201.115-.34.104l-.038.499c.262.02.501-.053.7-.22l-.322-.383zm-.34.104c-.11-.009-.21-.06-.304-.189l-.402.298c.167.226.391.367.667.39l.04-.499zm-.305-.19l-1.435-1.91-.4.3 1.435 1.91.4-.3zm-1.835-1.91l-1.435 1.898.4.301 1.434-1.898-.399-.301zm-1.435 1.898c-.106.142-.205.186-.297.19l.021.5c.279-.012.504-.16.676-.39l-.4-.3zm-.308.19c-.115.01-.217-.018-.316-.09l-.297.402c.195.143.417.208.657.187l-.044-.498zm-.308-.084c-.12-.096-.179-.193-.202-.291l-.487.116c.054.225.187.414.377.565l.312-.39zm-.202-.289c-.018-.08-.004-.175.093-.3l-.395-.306c-.166.213-.244.458-.185.717l.487-.11zm.09-.297l1.701-2.118-.39-.313-1.7 2.118.39.313zm1.703-2.43l-1.528-1.932-.392.31 1.527 1.933.393-.31zm-1.53-1.934c-.1-.123-.127-.227-.119-.318l-.498-.045c-.022.248.066.477.229.678l.388-.315zm-.12-.308c.013-.098.07-.207.212-.326l-.318-.385c-.212.175-.356.39-.39.646l.496.065zm.214-.327c.096-.08.2-.114.329-.104l.04-.498c-.258-.021-.493.053-.69.22l.321.382zm.33-.104c.12.01.222.063.315.189l.402-.297c-.17-.23-.399-.369-.68-.39l-.038.498zm.314.187l1.296 1.782.404-.294-1.296-1.782-.404.294zm1.7 1.783l1.296-1.77-.404-.296-1.296 1.77.404.296zm1.298-1.774c.098-.138.19-.18.281-.184l-.02-.5c-.28.012-.504.162-.669.395l.408.29zm.291-.184c.127-.011.232.02.329.09l.297-.402c-.197-.145-.423-.207-.667-.187l.041.498z"/>
</svg>
