<svg xmlns="http://www.w3.org/2000/svg" width="115" height="26" fill="none" viewBox="0 0 115 26">
    <path fill="#fff" d="M46.874 12.457h-5.931v-1.556h3.979c.287 0 .497-.096.629-.29.13-.193.197-.428.197-.702 0-.262-.066-.49-.197-.685-.132-.193-.341-.29-.63-.29h-8.183c-.288 0-.432-.143-.432-.431V7.17c0-.286.144-.43.432-.43h7.996c.288 0 .497-.098.628-.291.132-.193.197-.428.197-.702 0-.263-.065-.49-.197-.684-.13-.193-.34-.29-.628-.29H35.48c-.601 0-1.018.112-1.248.338-.231.224-.347.631-.347 1.218v3.018c0 .588.115.993.347 1.218.232.224.648.338 1.248.338h3.097v1.556h-5.93c-.29 0-.498.096-.63.29-.131.193-.197.428-.197.702 0 .275.066.51.197.703.132.193.34.29.63.29h14.226c.288 0 .497-.097.629-.29.131-.194.197-.428.197-.703 0-.274-.066-.509-.197-.702-.132-.196-.34-.293-.63-.293zM44.097 16.14c-.513-.268-1.135-.468-1.868-.6-.732-.13-1.554-.196-2.468-.196-.926 0-1.752.065-2.478.197-.725.13-1.345.33-1.858.6-.513.269-.904.612-1.173 1.031-.27.42-.404.916-.404 1.49 0 .575.134 1.072.404 1.491.269.42.66.763 1.173 1.032.513.268 1.132.469 1.858.6.726.13 1.552.196 2.478.196.912 0 1.736-.065 2.468-.196.733-.131 1.355-.332 1.868-.6.513-.27.904-.613 1.173-1.032.27-.419.404-.916.404-1.49 0-.575-.135-1.072-.404-1.49-.27-.42-.661-.763-1.173-1.032zm-1.624 3.57c-.544.25-1.448.375-2.712.375-1.265 0-2.168-.125-2.713-.374-.544-.25-.816-.6-.816-1.05 0-.45.272-.799.816-1.049.545-.25 1.448-.374 2.713-.374 1.263 0 2.168.125 2.712.374.544.25.817.6.817 1.05-.001.45-.273.799-.817 1.049zM63.25 19.393h-8.09c-.288 0-.431-.143-.431-.431v-2.624c0-.35-.123-.606-.366-.768-.244-.163-.523-.244-.835-.244-.325 0-.61.081-.854.244-.243.162-.366.419-.366.768v3.542c0 .587.116.994.347 1.218.232.225.648.338 1.248.338h9.346c.289 0 .501-.1.638-.3.138-.2.206-.438.206-.713 0-.287-.069-.53-.206-.731-.137-.199-.35-.299-.638-.299zM54.26 12.017c.187-.231.305-.452.355-.666h.02c.05.188.158.381.327.582.17.2.472.48.91.843.364.313.708.597 1.034.853.325.257.594.459.806.609.275.2.554.25.835.15.282-.1.491-.25.629-.45.175-.237.256-.487.244-.75-.013-.263-.144-.494-.394-.694-.263-.2-.57-.437-.92-.713-.35-.274-.732-.586-1.145-.937-.4-.35-.694-.727-.882-1.133-.188-.406-.282-.897-.282-1.472v-.9h2.571c.287 0 .5-.1.638-.3.138-.2.207-.437.207-.713 0-.286-.07-.53-.207-.731-.138-.2-.35-.3-.638-.3h-7.733c-.288 0-.5.1-.637.3-.138.2-.207.443-.207.731 0 .275.069.513.207.713.138.2.35.3.637.3h2.76v.975c0 .574-.094 1.066-.282 1.471-.188.406-.482.785-.883 1.134-.413.35-.804.671-1.173.966-.37.293-.753.584-1.154.871-.288.213-.428.463-.422.75.007.288.09.544.254.768.138.2.347.35.629.45.281.1.56.05.835-.15.35-.25.7-.512 1.05-.786.35-.275.707-.568 1.07-.882.44-.361.753-.658.94-.889z"/>
    <path fill="#fff" d="M58.464 8.952c-.138.2-.207.443-.207.731 0 .275.069.512.207.713.138.2.35.3.638.3h2.195v5.267c0 .35.123.606.367.768.243.162.521.243.834.243.3 0 .572-.08.817-.243.244-.162.366-.42.366-.768V5.203c0-.35-.122-.605-.366-.767-.244-.162-.516-.244-.817-.244-.313 0-.59.082-.834.244-.244.162-.367.419-.367.768v3.449h-2.195c-.289 0-.501.1-.638.299zM71.803 16.272c.794-.031 1.554-.065 2.28-.103.726-.038 1.389-.081 1.99-.131.287-.025.487-.14.6-.347.113-.207.157-.435.132-.685-.025-.262-.11-.474-.254-.637-.143-.162-.359-.23-.647-.205-.538.05-1.076.09-1.614.122-.538.031-1.083.059-1.633.084v-1.199c.725-.096 1.33-.289 1.811-.581.719-.437 1.08-1.068 1.08-1.893s-.36-1.456-1.08-1.893c-.72-.437-1.712-.656-2.975-.656-1.264 0-2.256.22-2.975.656-.72.438-1.08 1.068-1.08 1.893s.36 1.456 1.08 1.893c.481.292 1.087.485 1.811.581v1.255c-.6.012-1.199.019-1.793.019h-1.792c-.288 0-.497.097-.629.29-.13.193-.197.416-.197.666 0 .25.066.471.197.666.132.193.341.29.63.29.863 0 1.723-.007 2.58-.02.857-.011 1.683-.034 2.478-.065zm-2.206-5.576c0-.55.632-.825 1.895-.825s1.895.275 1.895.825c0 .55-.632.825-1.895.825s-1.895-.275-1.895-.825zM81.384 9.645h-1.52v-4.46c0-.338-.12-.587-.356-.75-.238-.162-.513-.244-.826-.244-.313 0-.589.082-.826.244-.238.162-.356.412-.356.75v11.36c0 .337.12.587.356.75.237.162.513.243.826.243.313 0 .588-.081.826-.244.237-.162.356-.412.356-.75v-4.818h1.52c.3 0 .519-.103.657-.309.138-.207.206-.452.206-.74 0-.287-.07-.531-.206-.732-.138-.198-.356-.3-.657-.3zM67.176 7.51h8.446c.275 0 .475-.094.601-.282.125-.188.188-.406.188-.656 0-.262-.062-.487-.188-.675-.124-.187-.325-.28-.6-.28h-2.929v-.732c0-.325-.122-.568-.366-.731-.244-.163-.523-.244-.835-.244-.325 0-.606.081-.844.244-.239.162-.357.405-.357.73v.732h-3.115c-.275 0-.475.094-.6.281-.126.188-.189.413-.189.675 0 .25.063.47.188.656.125.188.325.281.6.281zM79.489 19.543h-8.334c-.288 0-.432-.143-.432-.431v-1.163c0-.35-.122-.605-.366-.768-.244-.162-.516-.243-.817-.243-.3 0-.572.081-.817.243-.244.163-.366.42-.366.768v1.969c0 .587.116.994.347 1.218.232.224.648.338 1.249.338h9.534c.275 0 .476-.097.602-.29.124-.194.188-.416.188-.666 0-.262-.063-.49-.189-.685-.124-.193-.325-.29-.6-.29zM92.03 8.952c-.139.2-.208.443-.208.731 0 .275.07.512.207.713.138.2.35.3.638.3h2.196v5.267c0 .35.122.606.366.768.244.162.522.243.835.243.3 0 .572-.08.817-.243.243-.162.366-.42.366-.768V5.203c0-.35-.123-.605-.366-.767-.244-.162-.517-.244-.817-.244-.313 0-.591.082-.835.244-.244.162-.366.419-.366.768v3.449h-2.196c-.287 0-.5.1-.638.299z"/>
    <path fill="#fff" d="M87.826 12.017c.188-.231.306-.452.356-.666h.019c.05.188.159.381.328.582.169.2.472.48.91.843.363.313.707.597 1.033.853.325.257.594.459.807.609.275.2.553.25.835.15.281-.1.49-.25.629-.45.174-.237.255-.487.243-.75-.012-.263-.143-.494-.394-.694-.262-.2-.57-.437-.92-.713-.35-.274-.731-.586-1.144-.937-.401-.35-.695-.727-.883-1.133-.188-.406-.281-.897-.281-1.472v-.9h2.57c.288 0 .5-.1.638-.3.138-.2.207-.437.207-.713 0-.286-.069-.53-.207-.731-.138-.2-.35-.3-.638-.3h-7.732c-.288 0-.501.1-.638.3-.138.2-.207.443-.207.731 0 .275.069.513.207.713.138.2.35.3.638.3h2.759v.975c0 .574-.094 1.066-.282 1.471-.188.406-.482.785-.882 1.134-.413.35-.805.671-1.173.966-.37.293-.754.584-1.155.871-.288.213-.428.463-.421.75.006.288.09.544.253.768.138.2.348.35.63.45.28.1.559.05.834-.15.35-.25.701-.512 1.05-.786.351-.275.707-.568 1.07-.882.44-.361.752-.658.94-.889zM96.816 19.393h-8.089c-.288 0-.432-.143-.432-.431v-2.624c0-.35-.122-.606-.366-.768-.244-.163-.523-.244-.835-.244-.325 0-.61.081-.853.244-.244.162-.367.419-.367.768v3.542c0 .587.116.994.348 1.218.231.225.648.338 1.247.338h9.347c.288 0 .5-.1.638-.3.138-.2.206-.438.206-.713 0-.287-.07-.53-.206-.731-.138-.199-.351-.299-.638-.299zM101.164 13.957c.263.1.526.08.788-.057.613-.338 1.192-.668 1.736-.994.545-.324 1.073-.649 1.586-.975.563-.362.985-.702 1.267-1.021.281-.319.453-.602.516-.853h.019c.05.213.216.479.498.797.281.32.703.66 1.266 1.022.513.325 1.042.65 1.586.975.544.324 1.123.655 1.736.993.263.138.529.157.798.057.27-.1.472-.269.61-.506.138-.224.201-.484.188-.778-.012-.293-.143-.509-.394-.647-.537-.3-1.076-.609-1.613-.928-.538-.319-1.096-.659-1.671-1.021-.638-.412-1.098-.868-1.38-1.368-.282-.5-.422-1.1-.422-1.8v-.918c0-.362-.122-.625-.366-.787-.244-.162-.529-.243-.854-.243-.325 0-.61.08-.853.243-.244.162-.366.425-.366.787v.918c0 .7-.142 1.3-.422 1.8-.282.5-.741.956-1.38 1.368-.576.362-1.133.702-1.671 1.021-.537.32-1.076.628-1.614.928-.25.138-.381.356-.394.656-.012.3.051.57.189.806.148.25.355.425.617.525z"/>
    <path fill="#fff" d="M114.79 17.312c-.138-.2-.351-.3-.638-.3h-5.893V14.52c0-.35-.122-.605-.366-.768-.244-.162-.523-.243-.835-.243-.312 0-.591.08-.834.243-.244.163-.367.42-.367.768v2.493h-5.893c-.288 0-.5.1-.637.3-.138.2-.207.438-.207.713 0 .274.069.512.207.712.138.2.35.3.637.3h14.189c.287 0 .501-.1.638-.3.138-.2.207-.436.207-.712-.001-.275-.07-.513-.208-.713zM12.962 16.581c2.01 0 3.64-1.627 3.64-3.635s-1.63-3.636-3.64-3.636c-2.01 0-3.64 1.628-3.64 3.636s1.63 3.635 3.64 3.635z"/>
    <path fill="#fff" d="M4.807 13.365c-.007-.14-.011-.28-.011-.42 0-2.178.849-4.226 2.391-5.766 1.543-1.54 3.594-2.389 5.776-2.389 1.324 0 2.398-1.072 2.398-2.395C15.36 1.073 14.287 0 12.962 0 9.5 0 6.246 1.346 3.796 3.791 1.348 6.236 0 9.487 0 12.945s1.348 6.71 3.796 9.153c.323.323.661.626 1.01.91v-9.643zM23.577 10.55c-1.348-.028-2.45 1.055-2.45 2.394 0 2.304-.95 4.463-2.665 6.027-1.333 1.216-3.042 1.96-4.84 2.101-.899.071-1.781-.004-2.623-.211-.853-.21-1.676.439-1.676 1.317v3.194c1.168.34 2.39.516 3.64.516 3.463 0 6.718-1.346 9.166-3.791 2.424-2.42 3.77-5.63 3.796-9.05.009-1.329-1.016-2.47-2.348-2.497z"/>
</svg>
