<svg xmlns="http://www.w3.org/2000/svg" width="122" height="79" fill="none" viewBox="0 0 122 79">
    <path fill="#fff" stroke="#878787" stroke-linecap="round" stroke-linejoin="round" stroke-miterlimit="10" stroke-width="2.5" d="M83.99 15.324H19.103v34.371H83.99v-34.37z"/>
    <path fill="#fff" stroke="#878787" stroke-linecap="round" stroke-linejoin="round" stroke-miterlimit="10" stroke-width="2.5" d="M83.99 10.887H19.103v34.37H83.99v-34.37z"/>
    <path fill="#fff" stroke="#878787" stroke-linecap="round" stroke-linejoin="round" stroke-miterlimit="10" stroke-width="2.5" d="M83.99 6.342H19.103v34.371H83.99V6.342z"/>
    <path fill="#fff" stroke="#878787" stroke-linecap="round" stroke-linejoin="round" stroke-miterlimit="10" stroke-width="2.5" d="M83.991 2H19.103v34.371h64.888V2z"/>
    <path fill="#fff" stroke="#878787" stroke-linecap="round" stroke-linejoin="round" stroke-miterlimit="10" stroke-width="2.5" d="M78.438 26.397V11.972c-2.616 0-4.742-2.126-4.742-4.742h-44.33c0 2.616-2.125 4.742-4.741 4.742v14.41c2.616 0 4.742 2.126 4.742 4.742h44.33c.014-2.616 2.125-4.727 4.741-4.727z"/>
    <path fill="#fff" stroke="#878787" stroke-linecap="round" stroke-linejoin="round" stroke-miterlimit="10" stroke-width="2.5" d="M51.547 26.352c3.818 0 6.914-3.096 6.914-6.915 0-3.818-3.096-6.914-6.914-6.914-3.819 0-6.914 3.096-6.914 6.915 0 3.818 3.095 6.914 6.914 6.914zM106.867 33.049H78.568v7.097h28.299V33.05z"/>
    <path fill="#fff" stroke="#878787" stroke-linecap="round" stroke-linejoin="round" stroke-miterlimit="10" stroke-width="2.5" d="M111.369 25.953H83.07v7.098h28.299v-7.098zM104.781 18.846H79.236v7.097h25.545v-7.097z"/>
    <path fill="#fff" stroke="#878787" stroke-linecap="round" stroke-linejoin="round" stroke-miterlimit="10" stroke-width="2.5" d="M109 12H84v7h25v-7zM110.287 40.139H81.988v7.097h28.299V40.14z"/>
    <path stroke="#878787" stroke-linecap="round" stroke-linejoin="round" stroke-miterlimit="10" stroke-width="2.2" d="M96.126 47.232v-7.097M95.055 18.98v-6.975M100.362 25.955v-7.097"/>
    <path stroke="#878787" stroke-linecap="round" stroke-linejoin="round" stroke-miterlimit="10" stroke-width="2.5" d="M97.823 39.445v-6.24"/>
    <path fill="#fff" stroke="#878787" stroke-linecap="round" stroke-linejoin="round" stroke-miterlimit="10" stroke-width="2.5" d="M83.49 12.02c-9.951 0-18.019 8.068-18.019 18.02 0 9.951 8.068 18.019 18.02 18.019 9.951 0 18.019-8.068 18.019-18.02 0-9.951-8.068-18.019-18.02-18.019z"/>
    <path fill="#fff" stroke="#878787" stroke-linecap="round" stroke-linejoin="round" stroke-miterlimit="10" stroke-width="2.5" d="M83.491 20.63c-5.195 0-9.407 4.212-9.407 9.408 0 5.195 4.212 9.407 9.407 9.407 5.196 0 9.407-4.212 9.407-9.407 0-5.196-4.211-9.407-9.407-9.407z"/>
    <path stroke="#878787" stroke-linecap="round" stroke-linejoin="round" stroke-miterlimit="10" stroke-width="2.2" d="M105.594 47.232v-7.097M100.867 47.232v-7.097M107.154 33.035v-7.082M102.411 33.035v-7.082M104.232 18.98v-6.975M99.491 18.98v-6.975M102.291 39.445v-6.24"/>
    <path fill="#fff" d="M56.32 56.36h26.815c4.36 0 7.923-3.564 7.923-7.923 0-4.36-3.564-7.924-7.923-7.924H57.13c-10.432-6.286-18.83-6.638-18.83-6.638-16.383-1.377-26.876 3.013-26.876 3.013l-.092 29.584c12.405 3.395 22.853 5.904 35.61 7.694 5.95.84 12.146 1.56 18.157 1.01 2.096-.184 4.16-.597 6.195-1.117l44.039-16.245c4.084-1.515 6.195-6.088 4.696-10.172-1.514-4.085-6.088-6.196-10.172-4.697l-18.953 7.022"/>
    <path stroke="#878787" stroke-linecap="round" stroke-width="2.5" d="M56.32 56.36h26.815c4.36 0 7.923-3.564 7.923-7.923 0-4.36-3.564-7.924-7.923-7.924H57.13c-10.432-6.286-18.83-6.638-18.83-6.638-16.383-1.377-26.876 3.013-26.876 3.013l-.092 29.584c12.405 3.395 22.853 5.904 35.61 7.694 5.95.84 12.146 1.56 18.157 1.01 2.096-.184 4.16-.597 6.195-1.117l44.039-16.245c4.084-1.515 6.195-6.088 4.696-10.172-1.514-4.085-6.088-6.196-10.172-4.697l-18.953 7.022"/>
    <path fill="#fff" d="M2 30.334h15v46.667H2"/>
    <path stroke="#878787" stroke-linecap="round" stroke-linejoin="round" stroke-miterlimit="10" stroke-width="2.5" d="M2 30.334h15v46.667H2"/>
</svg>
