<svg xmlns="http://www.w3.org/2000/svg" width="70" height="73" fill="none" viewBox="0 0 70 73">
    <path stroke="#878787" stroke-linecap="round" stroke-linejoin="round" stroke-miterlimit="8" stroke-width="2.5" d="M63.628 36.435H6.373V7.254C6.373 4.38 8.713 2 11.627 2h46.789c2.873 0 5.253 2.34 5.253 5.254v29.181h-.04zM62.766 70.892H7.234c-3.201 0-5.664-2.873-5.171-6.033l4.31-28.402h57.255l4.31 28.402c.492 3.201-1.971 6.033-5.172 6.033z"/>
    <path stroke="#878787" stroke-linecap="round" stroke-linejoin="round" stroke-miterlimit="10" stroke-width="2.5" d="M17.29 48.299h35.42M15.523 59.008h38.95M16.92 14.85h11.903M16.92 23.592h17.731"/>
    <path stroke="#878787" stroke-linecap="round" stroke-linejoin="round" stroke-miterlimit="10" stroke-width="2.3" d="M41.469 13.861l2.257 10.507 2.955-10.507 2.914 10.507 2.299-10.507M40.277 18.828h12.806"/>
</svg>
