<svg xmlns="http://www.w3.org/2000/svg" width="18" height="19" fill="none" viewBox="0 0 18 19">
    <path stroke="#878787" stroke-linecap="round" stroke-linejoin="round" stroke-miterlimit="8" stroke-width="1.4" d="M16.78 11.698l.184-1.945c.414-4.4-2.82-8.306-7.22-8.719C9.5 1.01 9.246 1 8.998 1 4.58 1 1 4.589 1 9.009c0 .248.01.496.034.744l.185 1.945m0 0v-.973c0-1.61 1.308-2.917 2.917-2.917h.973c.535 0 .973.437.973.972v4.863c0 .535-.438.973-.973.973h-.973c-1.61 0-2.917-1.308-2.917-2.918zm15.56 0v-.973c0-1.61-1.307-2.917-2.917-2.917h-.973c-.534 0-.972.437-.972.972v4.863c0 .535.438.973.972.973h.973c1.614 0 2.918-1.308 2.918-2.918zM13.863 14.617v.973c.063 1.006-.696 1.872-1.702 1.945H9"/>
</svg>
