<svg xmlns="http://www.w3.org/2000/svg" width="17.088" height="21.7" viewBox="0 0 17.088 21.7">
  <g id="ic-cart" transform="translate(-0.15 -0.15)">
    <path id="패스_1" data-name="패스 1" d="M15.272,21H2.117A1.111,1.111,0,0,1,1,19.9a.5.5,0,0,1,.006-.095L1.95,7.578A1.109,1.109,0,0,1,3.061,6.556H14.328a1.112,1.112,0,0,1,1.11,1.022L16.383,19.8a1.106,1.106,0,0,1-1.016,1.195.644.644,0,0,1-.1,0Z" fill="none" stroke="#ff8200" stroke-linecap="round" stroke-linejoin="round" stroke-miterlimit="8" stroke-width="1.7"/>
    <path id="패스_2" data-name="패스 2" d="M5.361,9.889V4.333a3.333,3.333,0,0,1,6.667,0V9.89" fill="none" stroke="#ff8200" stroke-linecap="round" stroke-linejoin="round" stroke-miterlimit="8" stroke-width="1.7"/>
  </g>
</svg>
