<svg xmlns="http://www.w3.org/2000/svg" width="18" height="22" fill="none" viewBox="0 0 18 22">
    <path stroke="#A0A0A0" stroke-linecap="round" stroke-linejoin="round" stroke-miterlimit="8" stroke-width="1.7" d="M15.272 21H2.117C1.5 21 1 20.506 1 19.895c0-.034 0-.062.006-.095L1.95 7.578c.044-.578.528-1.022 1.111-1.022h11.267c.578 0 1.066.444 1.11 1.022l.945 12.222c.05.611-.405 1.15-1.016 1.195-.034.005-.067.005-.095.005z"/>
    <path stroke="#A0A0A0" stroke-linecap="round" stroke-linejoin="round" stroke-miterlimit="8" stroke-width="1.7" d="M5.361 9.889V4.333C5.361 2.494 6.856 1 8.695 1s3.333 1.494 3.333 3.333V9.89"/>
</svg>
