<svg xmlns="http://www.w3.org/2000/svg" width="15" height="19" fill="none" viewBox="0 0 15 19">
    <path stroke="#878787" stroke-linecap="round" stroke-linejoin="round" stroke-miterlimit="8" stroke-width="1.4" d="M7.496 18.186c-.749-.616-6.558-5.531-5.952-11.23.101-.96.294-2.76 1.745-4.212C4.85 1.182 6.879 1.025 7.5 1c.622.025 2.644.182 4.212 1.744 1.45 1.452 1.643 3.247 1.744 4.212.597 5.699-5.208 10.614-5.961 11.23z"/>
    <path stroke="#878787" stroke-linecap="round" stroke-linejoin="round" stroke-miterlimit="8" stroke-width="1.4" d="M7.495 9.354c1.274 0 2.306-1.033 2.306-2.306 0-1.274-1.032-2.306-2.306-2.306-1.273 0-2.306 1.032-2.306 2.306 0 1.273 1.033 2.306 2.306 2.306z"/>
</svg>
