<svg xmlns="http://www.w3.org/2000/svg" width="44" height="48" fill="none" viewBox="0 0 44 48">
    <path fill="#E0E0E0" d="M17.382 5.218L6.022.348C5.482.118 4.908 0 4.318 0 1.938 0 0 1.938 0 4.318v34.494c0 1.73 1.028 3.288 2.618 3.97l11.36 4.87c.54.23 1.114.348 1.704.348C18.062 48 20 46.062 20 43.682V9.188c0-1.73-1.028-3.288-2.618-3.97zM16 27c0 .552-.448 1-1 1s-1-.448-1-1v-4c0-.552.448-1 1-1s1 .448 1 1v4zm27.946-6.264c-.01-.036-.008-.076-.022-.112-.052-.13-.13-.244-.23-.34l-5.988-5.988c-.39-.39-1.024-.39-1.414 0-.39.39-.39 1.024 0 1.414l4.29 4.29H23c-.552 0-1 .448-1 1s.448 1 1 1h17.586l-4.294 4.294c-.39.39-.39 1.024 0 1.414.196.194.452.292.708.292.256 0 .512-.098.706-.29l6-6c.028-.028.038-.064.062-.092.058-.072.118-.146.154-.234.036-.086.044-.178.054-.268.006-.04.024-.076.024-.116 0-.094-.03-.178-.054-.264zM33 24H23c-.552 0-1 .448-1 1v16c0 .552.448 1 1 1h6c2.756 0 5-2.244 5-5V25c0-.552-.448-1-1-1zm-11-7c0 .552.448 1 1 1h10c.552 0 1-.448 1-1V5c0-2.756-2.244-5-5-5H15.154c-.474 0-.884.334-.98.798-.096.464.15.934.586 1.12l3.408 1.46c2.328 1 3.832 3.28 3.832 5.81V17z"/>
</svg>
