<svg xmlns="http://www.w3.org/2000/svg" width="13" height="18" fill="none" viewBox="0 0 13 18">
    <path stroke="#878787" stroke-linecap="round" stroke-linejoin="round" stroke-miterlimit="8" stroke-width="1.134" d="M6.5 16.773c-.688-.569-6.019-5.074-5.459-10.304.092-.881.266-2.533 1.597-3.872C4.069 1.165 5.932 1.018 6.5 1c.569.018 2.422.165 3.863 1.597 1.33 1.33 1.504 2.982 1.596 3.863.55 5.23-4.771 9.744-5.46 10.313z"/>
    <path stroke="#878787" stroke-linecap="round" stroke-linejoin="round" stroke-miterlimit="8" stroke-width="1.134" d="M6.5 8.662c1.166 0 2.11-.945 2.11-2.11 0-1.175-.944-2.12-2.11-2.12-1.165 0-2.12.945-2.12 2.12 0 1.165.946 2.11 2.12 2.11z"/>
</svg>
