<svg xmlns="http://www.w3.org/2000/svg" width="52" height="59" fill="none" viewBox="0 0 52 59">
    <path stroke="#E0E0E0" stroke-linecap="round" stroke-linejoin="round" stroke-miterlimit="8" stroke-width="3" d="M16.77 45.924C16.77 52.034 20.907 57 26 57c5.093 0 9.231-4.966 9.231-11.077"/>
    <path stroke="#E0E0E0" stroke-linecap="round" stroke-linejoin="round" stroke-miterlimit="8" stroke-width="3" d="M49.813 41.638c-2.24-6.382-3.287-12.72-3.7-15.852-.545-4.137-.442-8.14-2.122-12.026-1.459-3.354-3.758-6.265-6.632-8.377-3.316-2.453-7.31-3.768-11.349-3.768-7.193 0-13.958 4.226-17.377 10.844-2.122 4.093-2.255 8.791-2.741 13.312-.413 3.132-1.445 9.47-3.7 15.853-.737 2.083.737 4.299 2.86 4.299h41.916c2.108.015 3.567-2.202 2.845-4.285z"/>
</svg>
