<svg xmlns="http://www.w3.org/2000/svg" width="16" height="18" fill="none" viewBox="0 0 16 18">
    <path stroke="#878787" stroke-linecap="round" stroke-linejoin="round" stroke-miterlimit="8" stroke-width="1.4" d="M5.308 13.77C5.308 15.552 6.515 17 8 17s2.692-1.448 2.692-3.23"/>
    <path stroke="#878787" stroke-linecap="round" stroke-linejoin="round" stroke-miterlimit="8" stroke-width="1.4" d="M14.945 12.52c-.653-1.862-.958-3.711-1.079-4.625-.159-1.206-.128-2.374-.619-3.507-.425-.978-1.096-1.827-1.934-2.443-.967-.716-2.132-1.1-3.31-1.1-2.098 0-4.071 1.233-5.068 3.164-.62 1.193-.658 2.564-.8 3.882-.12.914-.421 2.762-1.079 4.624-.215.607.215 1.254.834 1.254H14.116c.614.004 1.04-.642.83-1.25z"/>
</svg>
