<svg xmlns="http://www.w3.org/2000/svg" width="18" height="19" fill="none" viewBox="0 0 18 19">
    <path stroke="#878787" stroke-linecap="round" stroke-linejoin="round" stroke-miterlimit="10" stroke-width="1.4" d="M2.573 3.059h10.63c1.787 0 3.235 1.448 3.235 3.234s-1.448 3.234-3.234 3.234H4.687M15.324 16H4.688c-1.786 0-3.234-1.449-3.234-3.235 0-1.785 1.448-3.234 3.234-3.234h8.517"/>
    <path fill="#fff" stroke="#878787" stroke-width="1.4" d="M3.03 5.062c1.122 0 2.032-.91 2.032-2.031C5.062 1.909 4.152 1 3.03 1 1.909 1 1 1.91 1 3.03c0 1.122.91 2.032 2.03 2.032zM14.97 18.003c1.121 0 2.03-.91 2.03-2.03 0-1.122-.909-2.032-2.03-2.032-1.122 0-2.032.91-2.032 2.031 0 1.122.91 2.031 2.031 2.031zM9.28 11.535c1.122 0 2.03-.909 2.03-2.03 0-1.122-.909-2.031-2.03-2.031-1.122 0-2.031.909-2.031 2.03 0 1.122.91 2.031 2.03 2.031z"/>
</svg>
