<svg xmlns="http://www.w3.org/2000/svg" width="19" height="19" fill="none" viewBox="0 0 19 19">
    <path stroke="#878787" stroke-linecap="round" stroke-linejoin="round" stroke-miterlimit="8" stroke-width="1.4" d="M9.498 12.332c1.565 0 2.834-1.269 2.834-2.834 0-1.564-1.269-2.833-2.834-2.833-1.564 0-2.833 1.269-2.833 2.833 0 1.565 1.269 2.834 2.833 2.834z"/>
    <path stroke="#878787" stroke-linecap="round" stroke-linejoin="round" stroke-miterlimit="8" stroke-width="1.4" d="M17.056 7.611h-.558c-.401 0-.755-.255-.887-.633-.17-.363-.095-.793.188-1.076l.388-.388c.368-.368.373-.963.004-1.336l-.004-.005-1.341-1.35c-.369-.369-.964-.373-1.337-.005l-.005.005-.387.387c-.283.283-.713.359-1.076.189-.388-.128-.652-.486-.652-.897v-.558c0-.519-.425-.944-.945-.944H8.556c-.52 0-.945.425-.945.944v.558c0 .401-.255.755-.633.887-.363.17-.793.095-1.076-.188l-.388-.388c-.368-.368-.963-.373-1.336-.004l-.005.004-1.35 1.341c-.369.369-.373.964-.005 1.337l.005.005.387.387c.283.283.359.713.189 1.076-.132.378-.486.633-.888.633h-.567c-.519 0-.944.425-.944.945v1.889c0 .519.425.944.944.944h.558c.401 0 .755.255.887.633.17.363.095.793-.188 1.076l-.388.388c-.368.368-.373.963-.004 1.336l.004.005 1.332 1.331c.368.369.963.373 1.336.005l.005-.005.387-.387c.284-.283.713-.359 1.077-.189.378.133.633.487.633.888v.605c0 .519.425.944.944.944h1.89c.519 0 .944-.425.944-.944v-.558c0-.401.255-.755.632-.887.364-.17.794-.095 1.077.188l.387.388c.369.368.964.373 1.337.004l.004-.004 1.332-1.332c.368-.368.373-.963.005-1.336l-.005-.005-.387-.387c-.284-.284-.36-.713-.19-1.077.133-.378.487-.633.889-.633h.614c.519 0 .944-.425.944-.944V8.556c0-.52-.425-.945-.944-.945z"/>
</svg>
