<svg xmlns="http://www.w3.org/2000/svg" width="158" height="121" fill="none" viewBox="0 0 158 121">
    <path fill="#fff" stroke="#E0E0E0" stroke-linecap="round" stroke-linejoin="round" stroke-miterlimit="10" stroke-width="2.133" d="M65.174 19.67H2v52.356h63.174V19.67zM56.216 2h-45.26L2 11.623h63.172L56.216 2z"/>
    <path fill="#fff" stroke="#E0E0E0" stroke-linecap="round" stroke-linejoin="round" stroke-miterlimit="10" stroke-width="2.133" d="M65.173 11.622H2v7.981h63.173v-7.981z"/>
    <path stroke="#E0E0E0" stroke-linecap="round" stroke-linejoin="round" stroke-miterlimit="10" stroke-width="2.133" d="M19.016 6.581H47.81"/>
    <rect width="30.105" height="2.618" x="10.508" y="27.524" fill="#E0E0E0" rx="1.309"/>
    <path fill="#fff" stroke="#E0E0E0" stroke-linecap="round" stroke-linejoin="round" stroke-miterlimit="10" stroke-width="2.14" d="M37.681 28.832H13.78l-.654 7.773h23.9l.655-7.772zM110.325 31.169H86.424V60.9h23.901V31.168z"/>
    <path fill="#fff" stroke="#E0E0E0" stroke-linecap="round" stroke-linejoin="round" stroke-miterlimit="10" stroke-width="2.14" d="M110.325 30.141h-23.9v7.773h23.9v-7.773z"/>
    <path stroke="#E0E0E0" stroke-linecap="round" stroke-linejoin="round" stroke-miterlimit="10" stroke-width="1.68" d="M96.788 43.814h-3.93v3.93h3.93v-3.93zM96.885 50.17h-3.93v3.931h3.93v-3.93zM103.312 43.814h-3.93v3.93h3.93v-3.93z"/>
    <path fill="#E0E0E0" d="M100.888 52.128h-1.695c-.249 0-.453-.204-.453-.453V49.98c0-.248.204-.453.453-.453h1.695c.248 0 .453.205.453.453v1.695c0 .249-.205.453-.453.453zM103.488 54.73h-1.695c-.249 0-.453-.205-.453-.454v-1.695c0-.248.204-.453.453-.453h1.695c.248 0 .453.205.453.453v1.695c0 .249-.205.453-.453.453z"/>
    <path fill="#fff" stroke="#E0E0E0" stroke-linecap="round" stroke-linejoin="round" stroke-miterlimit="10" stroke-width="2.143" d="M109.035 70.445c-.857 1.654-2.915 2.306-4.578 1.449l-7.699-3.996c-1.654-.857-2.306-2.914-1.448-4.578.857-1.654 2.914-2.306 4.578-1.449l7.698 3.996c1.664.865 2.315 2.923 1.449 4.578z"/>
    <path stroke="#E0E0E0" stroke-linecap="round" stroke-linejoin="round" stroke-miterlimit="10" stroke-width="2.143" d="M143.037 59.591c-.129-1.44-.875-2.503-1.552-2.89-.729-.42-1.569-.437-1.569-.437h-.085c-1.869 0-2.718 1.458-2.718 3.327v26.466l-23.337 15.449s5.624 5.752 13.64 7.913l19.573-10.691c.695-1.878 1.458-4.441 1.818-7.553.506-4.278.025-7.562-.095-8.36-.317-2.048-1.217-4.783-3.009-10.253-1.097-3.352-1.037-3.035-1.234-3.746-.935-3.43-1.321-6.576-1.432-9.225z"/>
    <path fill="#fff" stroke="#E0E0E0" stroke-linecap="round" stroke-width="2.143" d="M107.93 43.885h24.7c2.451 0 4.432 1.98 4.432 4.432v48.756c0 2.452-1.981 4.433-4.432 4.433h-24.7c-2.452 0-4.432-1.98-4.432-4.433V48.317c0-2.452 1.98-4.432 4.432-4.432z"/>
    <path stroke="#E0E0E0" stroke-linecap="round" stroke-linejoin="round" stroke-miterlimit="10" stroke-width="2.143" d="M108.855 64.04v-5.084h5.084M131.472 64.04v-5.084h-5.084M108.855 76.48v5.084h5.084M131.472 76.48v5.084h-5.084"/>
    <path stroke="#E0E0E0" stroke-linecap="round" stroke-width="2.143" d="M103.497 51.19h33.333M103.497 90.112h33.333"/>
    <path stroke="#E0E0E0" stroke-linecap="round" stroke-linejoin="round" stroke-miterlimit="10" stroke-width="2.143" d="M120.541 97.493c.989 0 1.792-.802 1.792-1.791 0-.99-.803-1.792-1.792-1.792-.99 0-1.792.802-1.792 1.791 0 .99.802 1.792 1.792 1.792zM126.148 119.835l-4.09-7.484 30.289-16.546 4.09 7.493"/>
    <path stroke="#E0E0E0" stroke-linecap="round" stroke-linejoin="round" stroke-miterlimit="10" stroke-width="1.972" d="M118.389 64.246h-4.613v4.613h4.613v-4.613zM118.501 71.705h-4.613v4.612h4.613v-4.612zM126.045 64.246h-4.612v4.613h4.612v-4.613z"/>
    <path fill="#E0E0E0" d="M123.198 74.003h-1.989c-.291 0-.531-.24-.531-.532v-1.989c0-.291.24-.531.531-.531h1.989c.292 0 .532.24.532.531v1.99c0 .29-.24.53-.532.53zM126.251 77.055h-1.989c-.291 0-.532-.24-.532-.532v-1.989c0-.291.241-.531.532-.531h1.989c.291 0 .532.24.532.531v1.99c0 .29-.241.53-.532.53z"/>
    <path fill="#fff" stroke="#E0E0E0" stroke-linecap="round" stroke-linejoin="round" stroke-miterlimit="10" stroke-width="2.143" d="M108.204 76.009c-.626 1.757-2.572 2.683-4.329 2.057l-5.65-2.014c-1.758-.626-2.683-2.572-2.058-4.33.626-1.757 2.572-2.683 4.33-2.057l5.65 2.014c1.757.618 2.683 2.572 2.057 4.33zM107.338 84.84c-.858 1.654-2.915 2.305-4.578 1.448l-5.324-2.76c-1.655-.858-2.307-2.915-1.45-4.579.858-1.654 2.916-2.306 4.579-1.448l5.324 2.76c1.663.866 2.315 2.924 1.449 4.578z"/>
    <path fill="#fff" stroke="#E0E0E0" stroke-linecap="round" stroke-linejoin="round" stroke-miterlimit="10" stroke-width="2.143" d="M108.135 91.664c-.626 1.757-2.572 2.683-4.329 2.057l-3.387-1.209c-1.757-.626-2.683-2.572-2.057-4.33.626-1.757 2.572-2.683 4.329-2.057l3.387 1.21c1.757.625 2.683 2.571 2.057 4.329z"/>
    <path fill="#AAA" d="M29.734 33.32c-.376-.405-1.008-.429-1.414-.054-.405.376-.429 1.008-.054 1.414l1.468-1.36zM84 46.143l-10.995-3.529L75.447 53.9 84 46.143zM28.266 34.68c3.896 4.205 9.301 8.844 16.941 11.904 7.646 3.063 17.467 4.519 30.154 2.45l-.322-1.974c-12.362 2.016-21.811.583-29.088-2.332-7.283-2.917-12.453-7.344-16.217-11.408l-1.468 1.36z"/>
</svg>
