<svg xmlns="http://www.w3.org/2000/svg" width="80" height="117" fill="none" viewBox="0 0 80 117">
    <path fill="#fff" stroke="#E0E0E0" stroke-linecap="round" stroke-linejoin="round" stroke-miterlimit="10" stroke-width="2.133" d="M65.174 62.864H2v52.356h63.174V62.864zM56.216 45.194h-45.26L2 54.817h63.172l-8.956-9.623z"/>
    <path fill="#fff" stroke="#E0E0E0" stroke-linecap="round" stroke-linejoin="round" stroke-miterlimit="10" stroke-width="2.133" d="M65.173 54.816H2v7.98h63.173v-7.98z"/>
    <path stroke="#E0E0E0" stroke-linecap="round" stroke-linejoin="round" stroke-miterlimit="10" stroke-width="2.133" d="M19.016 49.775H47.81"/>
    <path fill="#fff" d="M78.071 25.127L70.14 28.95 59.004 5.82 66.935 2"/>
    <path stroke="#E0E0E0" stroke-linecap="round" stroke-linejoin="round" stroke-miterlimit="10" stroke-width="2.133" d="M78.071 25.127L70.14 28.95 59.004 5.82 66.935 2"/>
    <path fill="#fff" stroke="#E0E0E0" stroke-linecap="round" stroke-linejoin="round" stroke-miterlimit="10" stroke-width="2.011" d="M55.22 32.188L31.454 21.633 19.015 49.63h28.446l7.758-17.441z"/>
    <path stroke="#E0E0E0" stroke-linecap="round" stroke-linejoin="round" stroke-miterlimit="10" stroke-width="2.011" d="M27.973 30.06l23.54 10.46"/>
    <path fill="#fff" stroke="#E0E0E0" stroke-linecap="round" stroke-linejoin="round" stroke-miterlimit="10" stroke-width="2.133" d="M61.743 11.473c-.319-.617-.518-.936-1.095-1.373-.836-.627-2.19-1.035-3.224-1.185-5.235-.756-12.49-1.492-16.122 3.513-1.86 2.558-3.533 5.245-5.394 7.802-.537.747-1.204 1.543-1.84 2.398l6.647 2.896c.07-.08.12-.149.19-.219 1.76-2.01 4.617-5.443 7.682-4.557 2.328.666 3.025 3.93 3.055 4.07l-10.26 4.607c-2.25 1.085-3.185 3.792-2.1 6.031 1.085 2.25 3.792 3.184 6.03 2.1 1.394-.667 2.787-1.334 4.19-1.99 4.18-1.99 8.35-3.981 12.53-5.971.785-.389 6.746-3.493 6.746-3.493-2.378-4.518-3.732-8.29-7.035-14.63z"/>
    <rect width="24.215" height="2.935" x="10.508" y="70.559" fill="#E0E0E0" rx="1.468"/>
</svg>
