<svg xmlns="http://www.w3.org/2000/svg" width="118" height="27" fill="none" viewBox="0 0 118 27">
    <path fill="#000" d="M47.863 12.737h-6.056v-1.591h4.063c.293 0 .508-.099.642-.297.134-.197.201-.437.201-.718 0-.268-.067-.501-.201-.7-.134-.198-.348-.297-.642-.297h-8.356c-.295 0-.441-.146-.441-.44V7.332c0-.293.146-.44.44-.44h8.165c.294 0 .508-.1.642-.297.134-.198.201-.438.201-.719 0-.268-.067-.5-.201-.699-.134-.197-.348-.296-.642-.296H36.23c-.614 0-1.039.115-1.274.345-.237.23-.355.646-.355 1.246v3.085c0 .601.118 1.016.355 1.246.236.23.661.345 1.274.345h3.162v1.591h-6.056c-.294 0-.508.099-.642.297-.134.197-.2.437-.2.718 0 .28.066.52.2.718.134.198.348.297.642.297h14.527c.294 0 .508-.1.642-.297.134-.198.201-.437.201-.718 0-.28-.067-.52-.2-.718-.135-.2-.349-.3-.643-.3zM45.028 16.503c-.524-.275-1.16-.48-1.907-.614-.748-.134-1.588-.201-2.52-.201-.946 0-1.79.067-2.53.201-.741.134-1.374.339-1.898.614-.524.275-.923.626-1.198 1.054-.275.429-.413.937-.413 1.524 0 .588.138 1.096.413 1.524.275.429.674.78 1.198 1.055.524.275 1.155.48 1.898.613.74.135 1.584.202 2.53.202.932 0 1.772-.067 2.52-.202.747-.134 1.383-.338 1.907-.613.523-.275.922-.626 1.197-1.055.275-.428.413-.936.413-1.524 0-.587-.138-1.095-.413-1.524-.275-.428-.675-.78-1.197-1.054zm-1.658 3.65c-.556.256-1.479.383-2.77.383-1.29 0-2.214-.129-2.77-.383-.555-.256-.833-.614-.833-1.073 0-.46.278-.817.834-1.073.555-.255 1.478-.383 2.77-.383 1.289 0 2.213.129 2.769.383.555.256.834.614.834 1.073-.001.46-.279.817-.834 1.073zM64.584 19.828h-8.26c-.294 0-.44-.146-.44-.44v-2.684c0-.357-.125-.619-.374-.785-.249-.166-.534-.249-.852-.249-.332 0-.623.083-.872.25-.249.165-.374.428-.374.784v3.622c0 .6.118 1.016.355 1.246.236.23.661.345 1.274.345h9.543c.294 0 .511-.102.651-.307.141-.204.21-.447.21-.728 0-.294-.07-.543-.21-.748-.14-.203-.357-.306-.65-.306zM55.404 12.287c.192-.236.313-.463.364-.68h.02c.05.191.162.39.335.594.172.204.481.492.93.862.37.32.72.61 1.054.872.331.262.607.47.824.623.28.204.564.255.852.153.287-.102.501-.256.642-.46.178-.242.261-.498.249-.767-.013-.268-.147-.505-.402-.71-.269-.204-.582-.446-.94-.728-.357-.28-.747-.6-1.169-.958-.409-.358-.709-.744-.9-1.159-.193-.415-.288-.917-.288-1.505v-.92H59.6c.293 0 .51-.102.651-.307.141-.204.211-.447.211-.728 0-.294-.07-.544-.21-.748-.142-.205-.359-.307-.652-.307h-7.896c-.294 0-.511.102-.651.307-.14.204-.211.453-.211.748 0 .28.07.524.211.728.14.205.358.307.651.307h2.817V8.5c0 .587-.095 1.09-.287 1.504-.192.415-.492.802-.901 1.16-.422.357-.822.687-1.198.987-.377.3-.77.598-1.179.89-.294.218-.437.473-.431.768.006.294.092.556.259.785.14.205.354.358.642.46.287.103.571.052.852-.153.358-.256.716-.524 1.073-.805.358-.28.721-.58 1.092-.9.45-.37.77-.674.961-.91z"/>
    <path fill="#000" d="M59.698 9.153c-.141.204-.212.453-.212.747 0 .281.07.524.212.729.14.205.358.307.65.307h2.243v5.385c0 .358.125.62.374.785.249.166.533.25.852.25.307 0 .584-.084.834-.25.25-.166.374-.428.374-.785v-11c0-.358-.125-.62-.374-.786-.249-.165-.527-.248-.834-.248-.32 0-.603.083-.852.248-.249.166-.374.429-.374.786v3.526h-2.242c-.294 0-.511.102-.651.306zM73.317 16.637c.811-.032 1.587-.067 2.328-.106.741-.038 1.419-.083 2.032-.134.293-.025.498-.143.614-.354.115-.212.159-.445.134-.7-.026-.268-.113-.486-.26-.652-.146-.165-.366-.236-.66-.21-.55.051-1.1.094-1.648.125-.55.032-1.106.06-1.668.087v-1.226c.74-.1 1.359-.296 1.85-.595.734-.447 1.102-1.092 1.102-1.935s-.367-1.489-1.103-1.935c-.735-.447-1.747-.671-3.037-.671-1.291 0-2.304.224-3.038.67-.735.448-1.102 1.093-1.102 1.936s.367 1.489 1.102 1.935c.491.299 1.11.496 1.85.595v1.282c-.615.013-1.225.02-1.832.02h-1.83c-.293 0-.507.099-.641.296-.134.198-.201.425-.201.681 0 .256.067.482.2.68.135.199.349.297.643.297.882 0 1.76-.006 2.635-.019.875-.012 1.718-.035 2.53-.067zm-2.253-5.701c0-.563.646-.844 1.936-.844s1.935.281 1.935.844c0 .562-.645.843-1.935.843s-1.936-.28-1.936-.843zM83.101 9.862h-1.552v-4.56c0-.346-.122-.6-.365-.767-.243-.166-.524-.25-.843-.25-.32 0-.601.084-.844.25-.243.165-.363.421-.363.767v11.614c0 .345.121.6.363.767.243.166.524.249.844.249.319 0 .6-.083.843-.25.242-.165.365-.42.365-.766v-4.927H83.1c.307 0 .53-.105.67-.316.141-.21.21-.462.21-.756s-.07-.544-.21-.748c-.14-.204-.363-.307-.67-.307zM68.594 7.678h8.624c.28 0 .485-.096.614-.288.127-.192.192-.415.192-.67 0-.268-.064-.498-.192-.69-.128-.192-.332-.288-.614-.288h-2.99v-.747c0-.332-.125-.581-.374-.748-.249-.166-.534-.249-.852-.249-.332 0-.62.083-.863.249-.243.166-.363.415-.363.748v.747h-3.181c-.28 0-.486.096-.614.288-.128.192-.192.422-.192.69 0 .255.064.48.192.67.127.192.332.288.613.288zM81.166 19.982h-8.51c-.294 0-.44-.147-.44-.441v-1.189c0-.358-.125-.62-.374-.785-.249-.166-.527-.25-.834-.25-.307 0-.584.084-.834.25-.25.166-.374.428-.374.785v2.013c0 .6.118 1.016.354 1.245.237.23.662.346 1.275.346h9.736c.28 0 .485-.1.614-.297.127-.198.192-.425.192-.68 0-.269-.064-.502-.192-.7-.128-.198-.332-.297-.613-.297zM93.971 9.153c-.14.204-.211.453-.211.747 0 .281.07.524.211.729.141.205.358.307.651.307h2.242v5.385c0 .358.125.62.374.785.25.166.533.25.853.25.306 0 .584-.084.834-.25.249-.166.374-.428.374-.785v-11c0-.358-.125-.62-.374-.786-.25-.165-.528-.248-.834-.248-.32 0-.604.083-.853.248-.249.166-.374.429-.374.786v3.526h-2.242c-.293 0-.51.102-.65.306z"/>
    <path fill="#000" d="M89.678 12.287c.192-.236.312-.463.363-.68h.02c.05.191.162.39.335.594.173.204.482.492.93.862.37.32.721.61 1.054.872.332.262.607.47.824.623.28.204.565.255.852.153.288-.102.501-.256.642-.46.179-.242.262-.498.25-.767-.013-.268-.147-.505-.403-.71-.268-.204-.582-.446-.939-.728-.358-.28-.748-.6-1.17-.958-.408-.358-.708-.744-.9-1.159-.192-.415-.288-.917-.288-1.505v-.92h2.625c.293 0 .51-.102.651-.307.141-.204.212-.447.212-.728 0-.294-.07-.544-.212-.748-.14-.205-.358-.307-.65-.307h-7.896c-.295 0-.512.102-.652.307-.14.204-.211.453-.211.748 0 .28.07.524.211.728.141.205.358.307.652.307h2.817V8.5c0 .587-.096 1.09-.288 1.504-.192.415-.492.802-.901 1.16-.422.357-.822.687-1.198.987-.377.3-.77.598-1.178.89-.295.218-.438.473-.43.768.006.294.091.556.258.785.141.205.355.358.642.46.288.103.572.052.852-.153.358-.256.716-.524 1.073-.805.358-.28.722-.58 1.092-.9.45-.37.769-.674.96-.91zM98.859 19.828h-8.26c-.294 0-.44-.146-.44-.44v-2.684c0-.357-.126-.619-.375-.785-.249-.166-.534-.249-.852-.249-.332 0-.623.083-.872.25-.249.165-.374.428-.374.784v3.622c0 .6.119 1.016.355 1.246.237.23.662.345 1.274.345h9.544c.294 0 .51-.102.65-.307.142-.204.21-.447.21-.728 0-.294-.07-.543-.21-.748-.14-.203-.357-.306-.65-.306zM103.298 14.27c.268.102.536.083.805-.058.626-.345 1.217-.683 1.772-1.016.556-.332 1.096-.663 1.62-.996.575-.371 1.005-.719 1.293-1.045.287-.326.462-.616.527-.871h.02c.051.217.22.488.507.814.288.326.719.674 1.294 1.045.524.332 1.063.664 1.619.996.556.332 1.147.67 1.773 1.016.268.141.54.16.815.058.275-.102.482-.275.622-.517.141-.23.205-.495.193-.795-.013-.3-.147-.52-.403-.662-.549-.307-1.099-.623-1.648-.949-.548-.326-1.118-.673-1.705-1.044-.651-.422-1.122-.888-1.409-1.399-.288-.511-.431-1.124-.431-1.84V6.07c0-.37-.125-.64-.374-.805-.249-.166-.54-.249-.872-.249-.331 0-.622.083-.871.249-.249.166-.374.434-.374.805v.938c0 .716-.144 1.329-.431 1.84-.287.511-.757.977-1.409 1.399-.588.37-1.157.718-1.706 1.044-.549.327-1.099.642-1.648.95-.255.14-.389.363-.402.67-.012.307.051.582.192.824.151.255.363.434.631.536z"/>
    <path fill="#000" d="M117.212 17.701c-.141-.205-.358-.307-.652-.307h-6.017v-2.549c0-.358-.125-.62-.374-.785-.249-.166-.534-.249-.852-.249-.319 0-.604.083-.852.249-.249.166-.374.428-.374.785v2.55h-6.018c-.294 0-.511.101-.651.306-.141.204-.211.448-.211.728 0 .281.07.524.211.729.141.204.358.307.651.307h14.489c.293 0 .511-.103.651-.307.141-.205.211-.447.211-.729-.001-.28-.072-.523-.212-.728z"/>
    <path fill="#FF8200" d="M16.856 14.078c.465-2-.779-3.998-2.778-4.463-2-.465-3.998.779-4.463 2.778-.465 2 .778 3.998 2.778 4.463 2 .465 3.998-.779 4.463-2.778z"/>
    <path fill="#FF8200" d="M4.908 13.665c-.007-.143-.011-.286-.011-.43 0-2.227.867-4.32 2.442-5.895 1.575-1.575 3.67-2.442 5.897-2.442 1.352 0 2.449-1.097 2.449-2.449 0-1.352-1.097-2.449-2.45-2.449C9.7 0 6.377 1.376 3.877 3.876S0 9.7 0 13.236c0 3.535 1.376 6.86 3.876 9.358.33.33.675.64 1.032.93v-9.859zM24.073 10.787c-1.376-.029-2.5 1.078-2.5 2.447 0 2.356-.971 4.563-2.722 6.163-1.36 1.243-3.106 2.004-4.943 2.148-.917.073-1.818-.005-2.677-.216-.872-.215-1.711.449-1.711 1.347v3.266c1.192.346 2.44.527 3.717.527 3.535 0 6.86-1.376 9.358-3.876 2.475-2.475 3.849-5.757 3.876-9.254.01-1.358-1.037-2.524-2.398-2.552z"/>
</svg>
