<svg xmlns="http://www.w3.org/2000/svg" width="126" height="126" fill="none" viewBox="0 0 126 126">
    <path fill="#FF8200" d="M63.304 47.264c5.63 0 10.194-4.564 10.194-10.194 0-5.63-4.564-10.194-10.194-10.194-5.63 0-10.194 4.564-10.194 10.194 0 5.63 4.564 10.194 10.194 10.194z"/>
    <path fill="#FF8200" d="M40.466 38.247c-.019-.393-.03-.785-.03-1.178 0-6.107 2.378-11.851 6.7-16.17 4.316-4.32 10.06-6.7 16.167-6.7 3.709 0 6.719-3.007 6.719-6.719S67.015.766 63.303.766c-9.695 0-18.813 3.777-25.67 10.633C30.778 18.256 27 27.373 27 37.07c0 9.696 3.777 18.813 10.634 25.67.905.905 1.85 1.756 2.832 2.552V38.247zM93.035 30.355c-3.778-.08-6.86 2.96-6.86 6.715 0 6.46-2.662 12.513-7.468 16.904-3.73 3.41-8.521 5.497-13.556 5.894-2.516.196-4.988-.011-7.344-.593-2.388-.589-4.697 1.232-4.697 3.694v8.96c3.272.953 6.693 1.448 10.194 1.448 9.696 0 18.814-3.777 25.67-10.634C95.76 55.956 99.53 46.951 99.608 37.36c.029-3.73-2.843-6.929-6.573-7.005z"/>
    <path fill="#000" d="M22.772 110.873h-8.973v-2.357h6.021c.436 0 .752-.147.95-.439.199-.293.3-.649.3-1.065 0-.397-.101-.742-.3-1.037-.198-.292-.516-.44-.95-.44H7.44c-.437 0-.655-.218-.655-.654v-2.017c0-.436.218-.654.654-.654h12.098c.436 0 .752-.147.95-.44.2-.292.3-.648.3-1.064 0-.397-.1-.743-.3-1.037-.198-.293-.516-.44-.95-.44h-14c-.91 0-1.538.17-1.89.51-.352.34-.524.957-.524 1.847v4.574c0 .889.174 1.504.524 1.846.35.34.98.51 1.89.51h4.685v2.357H1.25c-.436 0-.752.147-.95.44-.199.295-.299.648-.299 1.065 0 .416.1.771.299 1.064.198.295.514.44.95.44h21.527c.436 0 .752-.147.95-.44.199-.293.299-.648.299-1.064 0-.417-.1-.772-.299-1.065-.202-.293-.52-.44-.954-.44zM18.57 116.453c-.776-.406-1.719-.709-2.826-.909-1.108-.2-2.353-.298-3.734-.298-1.4 0-2.651.1-3.749.298-1.098.198-2.035.503-2.812.909-.776.407-1.367.927-1.776 1.562-.406.634-.61 1.386-.61 2.258 0 .87.202 1.624.61 2.259.407.634.998 1.155 1.776 1.561.775.407 1.712.709 2.812.909 1.098.199 2.347.299 3.75.299 1.382 0 2.627-.1 3.733-.299 1.105-.198 2.048-.502 2.826-.909.776-.406 1.367-.927 1.775-1.561.407-.635.61-1.387.61-2.259 0-.87-.203-1.622-.61-2.258-.408-.633-1-1.153-1.775-1.562zm-2.457 5.411c-.823.379-2.192.568-4.103.568-1.913 0-3.28-.189-4.102-.568-.823-.379-1.236-.909-1.236-1.591 0-.681.413-1.211 1.236-1.591.822-.379 2.191-.567 4.102-.567 1.913 0 3.28.188 4.103.567.823.38 1.235.91 1.235 1.591 0 .682-.412 1.212-1.235 1.591zM47.55 121.38H35.31c-.436 0-.654-.218-.654-.654v-3.975c0-.53-.185-.917-.554-1.164-.37-.246-.791-.37-1.263-.37-.493 0-.923.124-1.292.37-.37.245-.554.634-.554 1.164v5.368c0 .889.175 1.504.524 1.846.35.341.98.51 1.89.51h14.142c.436 0 .756-.151.966-.453.209-.303.313-.664.313-1.081 0-.436-.104-.805-.313-1.107-.21-.303-.532-.454-.966-.454zM33.944 110.206c.285-.35.464-.685.54-1.008h.028c.075.285.242.578.497.88.255.303.715.729 1.377 1.279.547.473 1.07.903 1.56 1.292.494.389.9.695 1.223.923.416.303.838.379 1.262.228.427-.151.743-.379.95-.682.266-.359.39-.738.37-1.135-.02-.396-.218-.748-.597-1.05-.397-.303-.862-.662-1.39-1.081-.53-.416-1.108-.889-1.733-1.42-.606-.53-1.05-1.101-1.335-1.718-.285-.615-.426-1.359-.426-2.229v-1.363h3.89c.436 0 .756-.151.967-.454.208-.302.312-.662.312-1.078 0-.436-.104-.805-.313-1.108-.208-.302-.53-.453-.966-.453h-11.7c-.437 0-.759.151-.967.453-.208.303-.312.672-.312 1.108 0 .416.104.776.312 1.078.208.303.53.454.966.454h4.176v1.477c0 .872-.142 1.614-.427 2.229-.284.615-.728 1.188-1.335 1.718-.625.531-1.218 1.018-1.776 1.464-.557.445-1.14.885-1.745 1.319-.436.322-.649.701-.639 1.135.01.436.138.823.383 1.165.208.303.525.53.95.682.427.151.847.076 1.264-.228.53-.379 1.06-.776 1.59-1.192.53-.417 1.07-.863 1.619-1.336.67-.548 1.143-.998 1.425-1.349z"/>
    <path fill="#000" d="M40.305 105.563c-.208.303-.312.672-.312 1.108 0 .416.104.776.312 1.078.209.302.53.454.967.454h3.323v7.979c0 .53.184.919.553 1.165.37.245.79.369 1.263.369.454 0 .866-.124 1.236-.369.369-.246.553-.635.553-1.165v-16.3c0-.53-.184-.918-.553-1.165-.37-.246-.782-.37-1.236-.37-.473 0-.895.124-1.263.37-.369.245-.553.634-.553 1.165v5.226h-3.323c-.436.001-.758.153-.967.455zM60.49 116.653c1.201-.047 2.352-.1 3.45-.157 1.098-.057 2.102-.124 3.01-.198.437-.038.74-.212.91-.525.171-.312.236-.658.198-1.037-.037-.396-.167-.718-.383-.966-.218-.245-.543-.349-.98-.312-.814.076-1.628.137-2.443.185-.815.047-1.638.09-2.47.127v-1.816c1.096-.148 2.013-.438 2.74-.882 1.087-.662 1.631-1.619 1.631-2.868 0-1.249-.544-2.205-1.632-2.867-1.088-.662-2.588-.994-4.5-.994-1.914 0-3.414.332-4.502.994-1.088.664-1.632 1.618-1.632 2.867 0 1.249.544 2.206 1.632 2.868.728.444 1.644.734 2.74.882v1.901c-.91.019-1.813.027-2.713.027h-2.712c-.436 0-.752.147-.95.44-.199.295-.299.63-.299 1.008 0 .379.1.714.298 1.007.199.295.515.44.951.44 1.306 0 2.608-.01 3.904-.028 1.298-.015 2.55-.049 3.752-.096zm-3.337-8.449c0-.832.956-1.249 2.867-1.249 1.913 0 2.867.417 2.867 1.249 0 .833-.956 1.249-2.867 1.249-1.913 0-2.867-.416-2.867-1.249zM74.984 106.614h-2.3v-6.758c0-.51-.18-.89-.54-1.135-.359-.246-.775-.37-1.248-.37-.474 0-.89.124-1.25.37-.359.245-.54.624-.54 1.135v17.21c0 .511.181.89.54 1.135.36.246.776.369 1.25.369.473 0 .89-.123 1.249-.369.36-.245.54-.624.54-1.135v-7.3h2.3c.453 0 .785-.157.993-.469.208-.313.313-.686.313-1.122 0-.436-.105-.805-.313-1.107-.208-.303-.538-.454-.993-.454zM53.487 103.377h12.78c.416 0 .718-.141.909-.426.188-.285.284-.615.284-.994 0-.396-.094-.738-.284-1.023-.189-.285-.493-.426-.91-.426h-4.43V99.4c0-.493-.185-.862-.554-1.107-.37-.246-.792-.37-1.263-.37-.493 0-.919.124-1.278.37-.36.245-.54.614-.54 1.107v1.108h-4.714c-.416 0-.72.141-.91.426-.188.285-.284.625-.284 1.023 0 .379.094.711.285.994.19.283.493.426.909.426zM72.118 121.608H59.51c-.436 0-.654-.218-.654-.654v-1.761c0-.531-.185-.918-.554-1.165-.37-.246-.782-.369-1.236-.369-.453 0-.866.123-1.235.369-.369.245-.554.634-.554 1.165v2.981c0 .889.175 1.504.525 1.846.35.34.98.511 1.889.511h14.427c.416 0 .719-.148.91-.44.188-.295.284-.631.284-1.008 0-.397-.094-.742-.285-1.037-.19-.292-.493-.438-.909-.438zM91.094 105.563c-.209.303-.313.672-.313 1.108 0 .416.104.776.313 1.078.208.302.53.454.966.454h3.323v7.979c0 .53.184.919.554 1.165.369.245.79.369 1.262.369.454 0 .867-.124 1.236-.369.369-.246.554-.635.554-1.165v-16.3c0-.53-.185-.918-.554-1.165-.37-.246-.782-.37-1.236-.37-.473 0-.895.124-1.262.37-.37.245-.554.634-.554 1.165v5.226H92.06c-.436.001-.758.153-.966.455z"/>
    <path fill="#000" d="M84.733 110.206c.284-.35.463-.685.54-1.008h.027c.075.285.242.578.497.88.255.303.715.729 1.377 1.279.548.473 1.07.903 1.561 1.292.493.389.9.695 1.222.923.416.303.838.379 1.262.228.427-.151.743-.379.951-.682.265-.359.389-.738.37-1.135-.02-.396-.219-.748-.598-1.05-.397-.303-.862-.662-1.39-1.081-.53-.416-1.108-.889-1.733-1.42-.606-.53-1.05-1.101-1.335-1.718-.285-.615-.426-1.359-.426-2.229v-1.363h3.89c.436 0 .757-.151.967-.454.208-.302.312-.662.312-1.078 0-.436-.104-.805-.312-1.108-.209-.302-.53-.453-.967-.453h-11.7c-.437 0-.759.151-.967.453-.208.303-.312.672-.312 1.108 0 .416.104.776.312 1.078.208.303.53.454.966.454h4.176v1.477c0 .872-.142 1.614-.427 2.229-.284.615-.728 1.188-1.335 1.718-.625.531-1.218 1.018-1.776 1.464-.557.445-1.14.885-1.745 1.319-.436.322-.648.701-.639 1.135.01.436.138.823.383 1.165.209.303.525.53.95.682.427.151.847.076 1.264-.228.53-.379 1.06-.776 1.59-1.192.53-.417 1.07-.863 1.619-1.336.667-.548 1.14-.998 1.425-1.349zM98.335 121.38H86.096c-.436 0-.654-.218-.654-.654v-3.975c0-.53-.185-.917-.554-1.164-.369-.246-.791-.37-1.263-.37-.493 0-.923.124-1.292.37-.37.245-.554.634-.554 1.164v5.368c0 .889.175 1.504.525 1.846.35.341.98.51 1.889.51h14.142c.436 0 .756-.151.967-.453.208-.303.312-.664.312-1.081 0-.436-.104-.805-.313-1.107-.208-.303-.53-.454-.966-.454zM104.914 113.146c.396.151.795.124 1.192-.085.927-.51 1.803-1.013 2.627-1.504.823-.493 1.623-.984 2.4-1.477.853-.548 1.491-1.064 1.917-1.547.426-.484.686-.914.782-1.293h.027c.075.322.326.725.752 1.208.427.483 1.065 1 1.917 1.548.776.493 1.575.984 2.4 1.477.823.492 1.699.993 2.628 1.504.397.208.799.238 1.206.084.406-.151.715-.406.923-.766.208-.339.302-.732.285-1.178-.02-.444-.218-.772-.597-.98-.815-.454-1.628-.923-2.444-1.406-.815-.483-1.657-.998-2.527-1.548-.966-.624-1.662-1.316-2.088-2.074-.426-.756-.638-1.665-.638-2.726v-1.392c0-.548-.185-.947-.554-1.192-.369-.246-.799-.37-1.292-.37s-.923.124-1.292.37c-.37.245-.554.644-.554 1.192v1.392c0 1.061-.212 1.97-.639 2.726-.426.758-1.121 1.448-2.087 2.074-.87.55-1.715 1.065-2.528 1.548-.815.483-1.628.95-2.443 1.406-.379.208-.577.54-.597.994-.02.453.075.862.285 1.221.23.377.542.643.939.794z"/>
    <path fill="#000" d="M125.531 118.228c-.208-.302-.53-.454-.966-.454h-8.917v-3.776c0-.531-.184-.917-.553-1.165-.37-.245-.792-.369-1.263-.369-.474 0-.894.124-1.263.369-.369.246-.554.634-.554 1.165v3.776h-8.916c-.436 0-.758.152-.966.454-.209.302-.313.664-.313 1.078 0 .417.104.776.313 1.078.208.303.53.454.966.454h21.47c.436 0 .756-.151.966-.454.208-.302.312-.661.312-1.078-.004-.414-.108-.776-.316-1.078z"/>
</svg>
