<svg xmlns="http://www.w3.org/2000/svg" width="27" height="32" fill="none" viewBox="0 0 27 32">
    <path fill="#878787" d="M1.114 23.583c.12 0 .225.03.315.09.096.06.144.159.144.297v3.69c0 .126.063.189.189.189.162 0 .336-.003.522-.009.192-.006.384-.015.576-.027.192-.012.38-.027.567-.045.186-.018.357-.039.513-.063.102-.012.183.015.243.081.06.06.096.144.108.252.012.108-.003.204-.045.288-.036.084-.105.135-.207.153-.228.036-.576.069-1.044.099-.468.03-1.014.045-1.638.045-.264 0-.447-.048-.55-.144-.095-.096-.143-.273-.143-.531V23.97c0-.138.045-.237.135-.297.09-.06.195-.09.315-.09zm5.913-.585c.108 0 .204.03.288.09.09.054.135.141.135.261v7.074c0 .12-.045.207-.135.261-.084.06-.18.09-.288.09-.102 0-.198-.03-.288-.09-.084-.054-.126-.141-.126-.261v-3.897H5.596v3.519c0 .12-.045.207-.135.261-.084.06-.18.09-.288.09-.102 0-.198-.03-.288-.09-.084-.054-.126-.141-.126-.261v-6.606c0-.12.042-.207.126-.261.09-.06.186-.09.288-.09.108 0 .204.03.288.09.09.054.135.141.135.261v2.322h1.017v-2.412c0-.12.042-.207.126-.261.09-.06.186-.09.288-.09zm8.29.468c.108 0 .186.039.234.117.054.078.081.168.081.27 0 .102-.027.192-.08.27-.049.072-.127.108-.235.108h-1.44v.486c0 .288.045.531.135.729.09.198.243.384.46.558.21.174.404.33.584.468.186.138.348.255.486.351.102.078.156.168.162.27.006.096-.024.189-.09.279-.06.072-.14.129-.243.171-.096.036-.2.015-.315-.063l-.414-.297c-.168-.132-.348-.276-.54-.432-.228-.18-.39-.327-.486-.441-.09-.114-.147-.216-.17-.306h-.01c-.024.102-.087.213-.189.333-.096.12-.258.273-.486.459-.198.156-.39.303-.576.441-.186.138-.366.267-.54.387-.102.078-.207.099-.315.063-.102-.036-.18-.093-.234-.171-.066-.09-.096-.186-.09-.288.006-.108.06-.201.162-.279.21-.15.414-.297.612-.441.198-.144.402-.303.612-.477.21-.174.36-.36.45-.558.09-.198.135-.444.135-.738v-.504h-1.503c-.114 0-.198-.036-.252-.108-.048-.078-.072-.168-.072-.27 0-.102.024-.192.072-.27.054-.078.138-.117.252-.117h3.843zm1.926-.468c.114 0 .216.03.306.09s.135.156.135.288v4.185c0 .126-.045.219-.135.279-.09.06-.192.09-.306.09-.12 0-.225-.03-.315-.09s-.135-.153-.135-.279v-1.737h-1.296c-.114 0-.198-.039-.252-.117-.048-.078-.072-.168-.072-.27 0-.108.024-.198.072-.27.054-.078.138-.117.252-.117h1.296v-1.674c0-.132.045-.228.135-.288.09-.06.195-.09.315-.09zm-2.15 5.013c.84 0 1.487.144 1.943.432.462.282.693.705.693 1.269s-.23.987-.693 1.269c-.456.288-1.104.432-1.944.432-.84 0-1.49-.144-1.953-.432-.456-.282-.684-.705-.684-1.269s.228-.987.684-1.269c.462-.288 1.113-.432 1.953-.432zm0 .729c-.613 0-1.057.09-1.333.27-.276.174-.414.408-.414.702 0 .3.138.537.414.711.276.174.72.261 1.332.261.612 0 1.056-.087 1.332-.261.276-.174.414-.411.414-.711s-.138-.537-.414-.711c-.276-.174-.72-.261-1.332-.261zm5.41-5.364c.114 0 .216.033.306.099.096.06.144.153.144.279v1.071h3.726v-1.071c0-.126.045-.219.135-.279.096-.066.198-.099.306-.099.12 0 .225.033.315.099.096.06.144.153.144.279v3.177c0 .258-.051.435-.153.531-.096.096-.276.144-.54.144h-4.14c-.264 0-.444-.048-.54-.144-.096-.096-.144-.273-.144-.531v-3.177c0-.126.045-.219.135-.279.09-.066.192-.099.306-.099zm.45 3.285c0 .12.063.18.189.18h3.348c.126 0 .189-.06.189-.18V25.59h-3.726v1.071zm2.313 2.565h3.015c.108 0 .186.039.234.117.054.072.08.159.08.261 0 .102-.026.192-.08.27-.048.078-.126.117-.234.117h-6.93c-.108 0-.19-.039-.243-.117-.048-.078-.072-.168-.072-.27 0-.102.024-.189.072-.261.054-.078.135-.117.243-.117h3.015v-2.097h.9v2.097z"/>
    <path stroke="#878787" stroke-linecap="round" stroke-linejoin="round" stroke-miterlimit="8" stroke-width="1.3" d="M13.503 7.78c1.873 0 3.39-1.518 3.39-3.39S15.375 1 13.503 1s-3.39 1.518-3.39 3.39 1.518 3.39 3.39 3.39zM18.663 15.8H8.337C7.6 15.8 7 15.2 7 14.465c0-2.638 2.16-4.798 4.797-4.798h3.41c2.639 0 4.793 2.16 4.793 4.793 0 .742-.595 1.342-1.337 1.342z"/>
</svg>
