<svg xmlns="http://www.w3.org/2000/svg" width="26" height="27" fill="none" viewBox="0 0 26 27">
    <path stroke="#878787" stroke-linecap="round" stroke-linejoin="round" stroke-miterlimit="8" stroke-width="1.6" d="M23.322 13.472H2.584V2.902C2.584 1.863 3.431 1 4.487 1h16.947c1.04 0 1.902.847 1.902 1.903v10.57h-.014zM23.01 25.953H2.895c-1.16 0-2.052-1.04-1.873-2.186l1.56-10.287h20.738l1.561 10.287c.178 1.16-.713 2.186-1.873 2.186z"/>
    <path stroke="#878787" stroke-linecap="round" stroke-linejoin="round" stroke-miterlimit="10" stroke-width="1.3" d="M6.538 17.77h12.83M5.898 21.648h14.108M6.404 5.654h4.311M6.404 8.821h6.422"/>
    <path stroke="#878787" stroke-linecap="round" stroke-linejoin="round" stroke-miterlimit="10" d="M15.296 5.298l.817 3.805 1.07-3.805 1.056 3.805.833-3.805M14.864 7.097h4.638"/>
</svg>
