<svg xmlns="http://www.w3.org/2000/svg" width="17" height="32" fill="none" viewBox="0 0 17 32">
    <path fill="#FF8200" d="M2.847 23.241c.342 0 .642.048.9.144.264.09.483.219.657.387.174.162.306.357.396.585.09.222.135.465.135.729 0 .264-.045.51-.135.738-.09.228-.222.426-.396.594-.174.162-.393.291-.657.387-.258.09-.558.135-.9.135-.342 0-.645-.045-.91-.135-.257-.096-.473-.225-.647-.387-.174-.168-.306-.366-.396-.594-.09-.228-.135-.474-.135-.738s.045-.507.135-.729c.09-.228.222-.423.396-.585.174-.168.39-.297.648-.387.264-.096.567-.144.909-.144zm0 .738c-.216 0-.402.03-.558.09-.15.06-.276.141-.378.243-.096.102-.168.219-.216.351-.048.132-.072.273-.072.423 0 .15.024.294.072.432.048.132.12.249.216.351.102.102.228.183.378.243.156.06.342.09.558.09.216 0 .399-.03.549-.09.156-.06.282-.141.378-.243.102-.102.177-.219.225-.351.048-.138.072-.282.072-.432 0-.15-.024-.291-.072-.423-.048-.132-.123-.249-.225-.351-.096-.102-.222-.183-.378-.243-.15-.06-.333-.09-.55-.09zm3.726-.981c.12 0 .225.03.315.09s.135.156.135.288v1.323h.99c.12 0 .204.039.252.117.054.078.08.168.08.27 0 .114-.026.21-.08.288-.048.072-.132.108-.252.108h-.99v1.386c0 .132-.045.228-.135.288-.09.06-.195.09-.315.09s-.225-.03-.315-.09-.135-.156-.135-.288v-3.492c0-.132.045-.228.135-.288.09-.06.195-.09.315-.09zm-.243 4.635c.264 0 .444.048.54.144.102.096.153.273.153.531v.828c0 .258-.051.435-.153.531-.096.096-.276.144-.54.144H2.937c-.066 0-.114.015-.144.045-.03.024-.045.072-.045.144v.387c0 .126.063.189.189.189h3.987c.102 0 .177.036.225.108.048.072.072.156.072.252s-.024.18-.072.252c-.048.072-.123.108-.225.108H2.568c-.264 0-.447-.048-.55-.144-.095-.096-.143-.273-.143-.531v-.828c0-.258.048-.435.144-.531.102-.096.285-.144.549-.144h3.384c.072 0 .12-.012.144-.036.03-.03.045-.081.045-.153v-.387c0-.066-.015-.111-.045-.135-.024-.03-.072-.045-.144-.045H2.154c-.102 0-.177-.036-.225-.108-.048-.072-.072-.159-.072-.261 0-.096.024-.18.072-.252.048-.072.123-.108.225-.108H6.33zm6.004-4.23c.264 0 .444.048.54.144.102.096.153.273.153.531v1.089c0 .258-.051.435-.153.531-.096.096-.276.144-.54.144h-1.935c-.066 0-.114.015-.144.045-.03.024-.045.072-.045.144v.612c0 .12.063.18.189.18.63 0 1.209-.015 1.737-.045s1.035-.078 1.521-.144c.102-.012.183.012.243.072.066.06.105.141.117.243.012.102-.003.198-.045.288-.036.084-.105.132-.207.144-.21.03-.438.057-.684.081-.246.024-.522.045-.828.063-.3.018-.636.033-1.008.045-.366.006-.774.009-1.224.009-.264 0-.447-.048-.549-.144-.096-.096-.144-.273-.144-.531v-1.098c0-.258.048-.435.144-.531.102-.096.285-.144.549-.144h1.935c.126 0 .189-.063.189-.189v-.594c0-.072-.015-.12-.045-.144-.03-.03-.078-.045-.144-.045H9.625c-.102 0-.177-.036-.225-.108-.048-.078-.072-.168-.072-.27 0-.102.024-.189.072-.261.048-.078.123-.117.225-.117h2.709zm2.817-.405c.12 0 .225.03.315.09s.135.156.135.288v4.203c0 .132-.045.228-.135.288-.09.06-.195.09-.315.09s-.225-.03-.315-.09-.135-.156-.135-.288v-4.203c0-.132.045-.228.135-.288.09-.06.195-.09.315-.09zm-.243 5.346c.264 0 .444.048.54.144.102.096.153.273.153.531v1.557c0 .258-.051.435-.153.531-.096.096-.276.144-.54.144h-3.87c-.264 0-.447-.048-.549-.144-.096-.096-.144-.273-.144-.531v-1.557c0-.258.048-.435.144-.531.102-.096.285-.144.549-.144h3.87zm-3.483.747c-.126 0-.189.06-.189.18v1.053c0 .12.063.18.189.18h3.096c.126 0 .189-.06.189-.18v-1.053c0-.12-.063-.18-.189-.18h-3.096z"/>
    <path stroke="#FF8200" stroke-linecap="round" stroke-linejoin="round" stroke-miterlimit="8" stroke-width="1.3" d="M6 13c0 1.655 1.12 3 2.5 3s2.5-1.345 2.5-3"/>
    <path stroke="#FF8200" stroke-linecap="round" stroke-linejoin="round" stroke-miterlimit="8" stroke-width="1.3" d="M14.95 11.84c-.607-1.729-.89-3.446-1.003-4.294-.147-1.12-.12-2.205-.574-3.257-.396-.908-1.018-1.696-1.797-2.269C10.678 1.356 9.596 1 8.503 1c-1.948 0-3.78 1.144-4.707 2.937-.574 1.108-.61 2.38-.742 3.605-.112.848-.391 2.565-1.002 4.294-.2.564.2 1.164.774 1.164H14.18c.57.004.966-.596.77-1.16z"/>
</svg>
