<svg xmlns="http://www.w3.org/2000/svg" width="62" height="76" fill="none" viewBox="0 0 62 76">
    <path fill="#fff" stroke="#FFC080" stroke-linecap="round" stroke-linejoin="round" stroke-miterlimit="10" stroke-width="1.8" d="M14.758 26.91c-.836 1.614-2.843 2.25-4.466 1.413l-7.51-3.897c-1.614-.836-2.25-2.844-1.413-4.466.836-1.614 2.843-2.25 4.466-1.414l7.51 3.898c1.623.844 2.258 2.852 1.413 4.466z"/>
    <path stroke="#FFC080" stroke-linecap="round" stroke-linejoin="round" stroke-miterlimit="10" stroke-width="1.8" d="M47.928 16.323c-.125-1.405-.853-2.442-1.513-2.818-.711-.41-1.531-.427-1.531-.427H44.8c-1.823 0-2.65 1.422-2.65 3.245v25.818L19.383 57.212s5.486 5.612 13.306 7.72l19.094-10.43c.677-1.831 1.422-4.332 1.773-7.368.493-4.173.025-7.376-.092-8.154-.31-1.999-1.188-4.667-2.936-10.003-1.07-3.27-1.012-2.96-1.204-3.655-.912-3.345-1.288-6.415-1.397-8.999z"/>
    <path fill="#fff" stroke="#FFC080" stroke-linecap="round" stroke-width="1.8" d="M13.681 1h24.096C40.169 1 42.1 2.932 42.1 5.324v47.563c0 2.392-1.931 4.324-4.324 4.324H13.681c-2.392 0-4.324-1.932-4.324-4.324V5.324C9.357 2.932 11.29 1 13.681 1z"/>
    <path stroke="#FFC080" stroke-linecap="round" stroke-linejoin="round" stroke-miterlimit="10" stroke-width="1.8" d="M14.582 20.663v-4.96h4.96M36.645 20.663v-4.96h-4.96M14.582 32.797v4.96h4.96M36.645 32.797v4.96h-4.96"/>
    <path stroke="#FFC080" stroke-linecap="round" stroke-width="1.8" d="M9.355 8.125h32.518M9.355 46.096h32.518"/>
    <path stroke="#FFC080" stroke-linecap="round" stroke-linejoin="round" stroke-miterlimit="10" stroke-width="1.8" d="M25.982 53.295c.966 0 1.748-.783 1.748-1.748 0-.966-.782-1.748-1.748-1.748-.965 0-1.748.782-1.748 1.748 0 .965.783 1.748 1.748 1.748zM31.452 75.091l-3.99-7.301 29.55-16.142L61 58.958M23.883 20.863h-4.5v4.5h4.5v-4.5zM23.992 28.14h-4.5v4.5h4.5v-4.5zM31.351 20.863h-4.5v4.5h4.5v-4.5z"/>
    <path fill="#FFC080" d="M28.575 30.382h-1.94c-.285 0-.519-.235-.519-.519v-1.94c0-.284.234-.519.519-.519h1.94c.284 0 .519.235.519.519v1.94c0 .285-.235.519-.519.519zM31.554 33.358h-1.94c-.285 0-.52-.234-.52-.518V30.9c0-.285.235-.52.52-.52h1.94c.284 0 .518.235.518.52v1.94c0 .284-.234.518-.518.518z"/>
    <path fill="#fff" stroke="#FFC080" stroke-linecap="round" stroke-linejoin="round" stroke-miterlimit="10" stroke-width="1.8" d="M13.948 32.339c-.61 1.714-2.51 2.618-4.224 2.007l-5.511-1.965c-1.715-.61-2.618-2.51-2.007-4.224.61-1.714 2.509-2.618 4.223-2.007l5.512 1.965c1.714.603 2.617 2.51 2.007 4.224zM13.102 40.952c-.836 1.614-2.844 2.25-4.466 1.413l-5.194-2.693c-1.614-.836-2.25-2.844-1.413-4.466.836-1.614 2.843-2.25 4.466-1.414l5.194 2.694c1.622.844 2.258 2.851 1.413 4.466z"/>
    <path fill="#fff" stroke="#FFC080" stroke-linecap="round" stroke-linejoin="round" stroke-miterlimit="10" stroke-width="1.8" d="M13.88 47.61c-.611 1.714-2.51 2.617-4.224 2.007l-3.304-1.18c-1.714-.61-2.617-2.509-2.007-4.223.61-1.715 2.51-2.618 4.224-2.008l3.303 1.18c1.715.61 2.618 2.509 2.008 4.223z"/>
</svg>
