<svg xmlns="http://www.w3.org/2000/svg" width="74" height="47" fill="none" viewBox="0 0 74 47">
    <path fill="#fff" stroke="#FFC080" stroke-linecap="round" stroke-linejoin="round" stroke-miterlimit="10" stroke-width="1.8" d="M50.194 8.994H11.262v20.623h38.932V8.994z"/>
    <path fill="#fff" stroke="#FFC080" stroke-linecap="round" stroke-linejoin="round" stroke-miterlimit="10" stroke-width="1.8" d="M50.194 6.332H11.262v20.623h38.932V6.332z"/>
    <path fill="#fff" stroke="#FFC080" stroke-linecap="round" stroke-linejoin="round" stroke-miterlimit="10" stroke-width="1.8" d="M50.194 3.605H11.262v20.623h38.932V3.605z"/>
    <path fill="#fff" stroke="#FFC080" stroke-linecap="round" stroke-linejoin="round" stroke-miterlimit="10" stroke-width="1.8" d="M50.194 1H11.262v20.623h38.932V1z"/>
    <path fill="#fff" stroke="#FFC080" stroke-linecap="round" stroke-linejoin="round" stroke-miterlimit="10" stroke-width="1.8" d="M46.863 15.639V6.984c-1.57 0-2.845-1.276-2.845-2.845H17.42c0 1.57-1.275 2.845-2.845 2.845v8.645c1.57 0 2.845 1.276 2.845 2.845h26.598c.01-1.569 1.276-2.835 2.845-2.835z"/>
    <path fill="#fff" stroke="#FFC080" stroke-linecap="round" stroke-linejoin="round" stroke-miterlimit="10" stroke-width="1.8" d="M30.729 15.611c2.29 0 4.148-1.857 4.148-4.148 0-2.291-1.857-4.149-4.149-4.149-2.29 0-4.148 1.858-4.148 4.149s1.857 4.148 4.149 4.148zM63.92 19.629H46.94v4.258h16.98V19.63z"/>
    <path fill="#fff" stroke="#FFC080" stroke-linecap="round" stroke-linejoin="round" stroke-miterlimit="10" stroke-width="1.8" d="M66.62 15.371H49.643v4.259H66.62V15.37zM62.668 11.107H47.34v4.259h15.327v-4.259z"/>
    <path fill="#fff" stroke="#FFC080" stroke-linecap="round" stroke-linejoin="round" stroke-miterlimit="10" stroke-width="1.8" d="M65.146 7h-17.09v4.112h17.09V7zM65.971 23.883H48.992v4.258h16.98v-4.258z"/>
    <path stroke="#FFC080" stroke-linecap="round" stroke-linejoin="round" stroke-miterlimit="10" stroke-width="1.8" d="M57.475 28.139V23.88"/>
    <path stroke="#FFC080" stroke-linecap="round" stroke-linejoin="round" stroke-miterlimit="10" stroke-width="1.3" d="M56.832 11.188V7.002M60.017 15.373v-4.258"/>
    <path stroke="#FFC080" stroke-linecap="round" stroke-linejoin="round" stroke-miterlimit="10" stroke-width="1.8" d="M58.493 23.467v-3.745"/>
    <path fill="#fff" stroke="#FFC080" stroke-linecap="round" stroke-linejoin="round" stroke-miterlimit="10" stroke-width="1.8" d="M49.894 7.012c-5.971 0-10.812 4.84-10.812 10.811s4.84 10.812 10.812 10.812c5.97 0 10.811-4.84 10.811-10.812 0-5.97-4.84-10.811-10.811-10.811z"/>
    <path fill="#fff" stroke="#FFC080" stroke-linecap="round" stroke-linejoin="round" stroke-miterlimit="10" stroke-width="1.8" d="M49.894 12.178c-3.118 0-5.645 2.527-5.645 5.644 0 3.118 2.527 5.645 5.645 5.645 3.117 0 5.644-2.527 5.644-5.645 0-3.117-2.527-5.644-5.644-5.644z"/>
    <path stroke="#FFC080" stroke-linecap="round" stroke-linejoin="round" stroke-miterlimit="10" stroke-width="1.3" d="M63.155 28.139V23.88M60.32 28.139V23.88M64.092 19.621v-4.25M61.246 19.621v-4.25M62.339 11.188V7.002M59.494 11.188V7.002M61.174 23.467v-3.745"/>
    <path fill="#fff" d="M33.592 33.617H49.68c2.615 0 4.754-2.139 4.754-4.754 0-2.616-2.139-4.755-4.754-4.755H34.078c-6.26-3.772-11.298-3.983-11.298-3.983-9.83-.826-16.125 1.808-16.125 1.808L6.6 39.683c7.443 2.038 13.711 3.543 21.366 4.617 3.57.505 7.287.936 10.894.606 1.257-.11 2.496-.358 3.717-.67L69 34.489c2.45-.909 3.717-3.653 2.818-6.104-.909-2.45-3.653-3.717-6.104-2.817L54.343 29.78"/>
    <path stroke="#FFC080" stroke-linecap="round" stroke-width="1.8" d="M33.592 33.617H49.68c2.615 0 4.754-2.139 4.754-4.754 0-2.616-2.139-4.755-4.754-4.755H34.078c-6.26-3.772-11.298-3.983-11.298-3.983-9.83-.826-16.125 1.808-16.125 1.808L6.6 39.683c7.443 2.038 13.711 3.543 21.366 4.617 3.57.505 7.287.936 10.894.606 1.257-.11 2.496-.358 3.717-.67L69 34.489c2.45-.909 3.717-3.653 2.818-6.104-.909-2.45-3.653-3.717-6.104-2.817L54.343 29.78"/>
    <path fill="#fff" d="M1 18h9v28H1"/>
    <path stroke="#FFC080" stroke-linecap="round" stroke-linejoin="round" stroke-miterlimit="10" stroke-width="1.8" d="M1 18h9v28H1"/>
</svg>
