<svg xmlns="http://www.w3.org/2000/svg" width="63" height="75" fill="none" viewBox="0 0 63 75">
    <path fill="#fff" d="M61.58 19.363l-6.298 3.034L46.44 4.034 52.738 1"/>
    <path stroke="#FFC080" stroke-linecap="round" stroke-linejoin="round" stroke-miterlimit="10" stroke-width="1.8" d="M61.58 19.363l-6.298 3.034L46.44 4.034 52.738 1"/>
    <path fill="#fff" stroke="#FFC080" stroke-linecap="round" stroke-linejoin="round" stroke-miterlimit="10" stroke-width="1.8" d="M46.75 50.107H5.417v23.894h41.331V50.107zM44.046 36.129H8.111L1 43.769h50.157l-7.111-7.64zM51.158 43.77H1.001v6.336h50.157V43.77z"/>
    <path fill="#fff" stroke="#FFC080" stroke-linecap="round" stroke-linejoin="round" stroke-miterlimit="10" stroke-width="1.8" d="M43.905 25.217l-20.014-8.889-10.477 23.578h23.957l6.534-14.689z"/>
    <path stroke="#FFC080" stroke-linecap="round" stroke-linejoin="round" stroke-miterlimit="10" stroke-width="1.8" d="M20.96 23.426l19.824 8.81M10.633 39.953h30.894"/>
    <path fill="#fff" stroke="#FFC080" stroke-linecap="round" stroke-linejoin="round" stroke-miterlimit="10" stroke-width="1.8" d="M48.614 8.522c-.253-.49-.41-.743-.87-1.09-.663-.499-1.737-.823-2.56-.941-4.155-.6-9.915-1.185-12.8 2.79-1.477 2.03-2.804 4.163-4.282 6.194-.426.592-.956 1.224-1.461 1.904l5.278 2.3c.055-.064.095-.12.15-.175 1.398-1.596 3.666-4.322 6.1-3.618 1.848.529 2.402 3.12 2.425 3.231l-8.146 3.659c-1.786.86-2.528 3.01-1.667 4.788.861 1.785 3.01 2.528 4.788 1.667 1.106-.53 2.212-1.059 3.326-1.58 3.319-1.58 6.63-3.161 9.948-4.741.624-.308 5.357-2.774 5.357-2.774-1.888-3.587-2.963-6.581-5.586-11.614z"/>
    <path fill="#FFC080" d="M11.878 59.712c.314 0 .578.034.792.102.214.068.397.151.549.25.104.069.164.16.18.275.016.115-.013.225-.086.33-.063.088-.144.148-.243.18-.094.03-.194.015-.298-.048-.256-.151-.554-.227-.894-.227-.324 0-.567.1-.729.298-.157.193-.235.494-.235.901v.196c0 .392.084.69.25.894.168.199.408.298.722.298.366 0 .685-.076.956-.227.105-.058.21-.073.314-.047.11.02.193.083.25.188.058.104.08.214.064.33-.01.114-.071.208-.18.281-.163.105-.367.189-.612.251-.24.063-.507.094-.8.094-.617 0-1.097-.17-1.442-.51-.345-.339-.518-.856-.518-1.552v-.196c0-.695.17-1.212.51-1.552.345-.34.828-.51 1.45-.51zm3.829 2.477c-.262 0-.445.05-.55.149-.098.1-.148.233-.148.4v.016c0 .303.196.454.588.454.308 0 .551-.052.729-.157.125-.073.214-.159.267-.258.057-.1.086-.233.086-.4v-.204h-.972zm.203-2.477c.251 0 .484.031.698.094.214.063.397.154.549.274.157.115.277.259.36.431.09.168.134.361.134.58v2.548c0 .131-.047.228-.141.29-.09.058-.191.087-.306.087-.115 0-.22-.03-.314-.087-.088-.062-.133-.159-.133-.29v-.204h-.008c-.042.09-.102.168-.18.236-.078.068-.172.13-.282.188-.105.052-.225.094-.36.125-.137.032-.273.047-.409.047-.47 0-.833-.107-1.09-.321-.25-.214-.376-.517-.376-.91v-.125c0-.178.027-.342.079-.494.057-.151.149-.282.274-.392.13-.115.298-.204.502-.266.209-.063.468-.094.776-.094h.988v-.11c0-.267-.063-.458-.188-.572-.12-.12-.314-.18-.58-.18-.356 0-.69.093-1.004.282-.104.062-.209.08-.313.054-.1-.031-.18-.099-.244-.203-.057-.1-.08-.202-.07-.306.016-.11.076-.199.18-.267.188-.125.408-.224.659-.298.256-.078.522-.117.8-.117zm4.322 0c.518 0 .925.08 1.223.243.13.073.212.16.243.259.032.099.018.209-.04.329-.046.099-.114.167-.203.204-.089.03-.19.02-.306-.032-.12-.057-.253-.102-.4-.133-.14-.031-.276-.047-.407-.047-.298 0-.505.037-.62.11-.114.073-.172.159-.172.258v.016c0 .063.008.118.024.165.015.041.05.08.101.117.058.032.139.063.244.094.104.026.248.058.43.094.314.063.573.134.777.212.204.073.366.162.486.267.12.104.204.23.25.376.048.141.071.31.071.51v.03c0 .179-.041.343-.125.495-.078.151-.194.285-.345.4-.146.11-.327.196-.541.258-.209.063-.444.094-.706.094-.308 0-.593-.031-.854-.094-.261-.062-.491-.149-.69-.258-.11-.058-.175-.142-.196-.251-.02-.115-.005-.225.047-.33.058-.11.136-.182.235-.22.1-.036.207-.025.322.032.167.09.347.16.54.212.2.052.395.078.589.078.271 0 .46-.039.564-.117.105-.079.157-.178.157-.298v-.016c0-.063-.008-.117-.024-.164-.015-.047-.054-.09-.117-.126-.063-.036-.154-.07-.275-.102-.12-.031-.282-.068-.486-.11-.277-.052-.51-.114-.697-.188-.183-.073-.332-.162-.447-.266-.115-.11-.199-.235-.251-.377-.047-.146-.07-.313-.07-.501v-.032c0-.156.033-.305.101-.447.068-.146.17-.274.306-.384.141-.11.316-.196.525-.258.21-.068.455-.102.737-.102zm3.024-1.56c.12 0 .227.034.321.102.1.062.15.162.15.297V60.3h.015c.063-.1.141-.186.235-.259.094-.078.196-.141.306-.188.115-.047.235-.081.36-.102.126-.026.249-.04.369-.04.46 0 .826.137 1.098.408.271.267.407.664.407 1.192v2.29c0 .14-.05.245-.149.313-.1.068-.214.102-.345.102-.125 0-.24-.034-.345-.102-.099-.068-.149-.173-.149-.314v-2.077c0-.189-.02-.343-.062-.463-.042-.125-.1-.222-.173-.29-.073-.073-.162-.123-.266-.149-.1-.031-.207-.047-.322-.047-.1 0-.204.016-.313.047-.11.032-.212.086-.306.165-.089.078-.165.183-.227.313-.058.131-.087.293-.087.486V63.6c0 .141-.05.246-.149.314-.099.068-.214.102-.345.102-.125 0-.24-.034-.345-.102-.099-.068-.149-.173-.149-.314v-5.049c0-.135.047-.235.142-.297.099-.068.209-.102.329-.102zm6.852 0c.131 0 .246.034.345.102.1.068.15.172.15.313v1.662c.067-.1.15-.183.25-.25.105-.069.21-.12.314-.157.11-.042.217-.071.321-.087.11-.015.21-.023.298-.023.57 0 .993.175 1.27.525.277.345.416.855.416 1.529v.203c0 .34-.042.64-.126.902-.083.256-.201.47-.353.643-.151.172-.334.303-.548.392-.21.084-.445.125-.706.125-.287 0-.528-.052-.721-.156-.194-.105-.34-.24-.44-.408h-.023v.149c0 .136-.05.238-.149.306-.094.062-.2.094-.321.094-.12 0-.23-.032-.33-.094-.093-.068-.14-.17-.14-.306v-5.049c0-.141.05-.245.149-.313.104-.068.219-.102.344-.102zm1.482 2.406c-.33 0-.58.097-.753.29-.167.189-.25.432-.25.73v.729c0 .11.026.216.078.321.052.105.123.199.212.282.088.084.196.152.321.204.125.052.264.079.416.079.585 0 .878-.416.878-1.247v-.157c0-.407-.068-.713-.204-.917-.136-.21-.369-.314-.698-.314zm4.628-.846c.637 0 1.134.175 1.49.525.355.345.532.857.532 1.536v.196c0 .68-.177 1.195-.533 1.545-.355.345-.852.517-1.49.517-.637 0-1.133-.172-1.489-.517-.355-.35-.533-.865-.533-1.545v-.196c0-.679.178-1.191.533-1.536.355-.35.852-.525 1.49-.525zm0 .862c-.356 0-.617.097-.784.29-.162.194-.243.502-.243.925v.165c0 .423.08.732.243.925.167.193.428.29.784.29.355 0 .614-.097.776-.29.167-.193.25-.502.25-.925v-.165c0-.423-.083-.732-.25-.925-.162-.193-.42-.29-.776-.29zm5.917-.713c.104.078.17.175.196.29.026.115-.006.23-.095.345l-1.058 1.348 1.13 1.396c.088.11.124.224.109.344-.01.115-.076.223-.196.322-.1.084-.217.12-.353.11-.13-.01-.24-.076-.33-.196l-.971-1.294-.972 1.286c-.094.125-.204.19-.33.196-.12.01-.23-.021-.329-.094-.105-.084-.17-.18-.196-.29-.026-.115.005-.23.094-.345l1.153-1.435-1.035-1.31c-.09-.109-.128-.221-.118-.336.016-.12.084-.23.204-.33.1-.083.214-.12.345-.11.136.011.248.076.337.197l.878 1.207.878-1.2c.089-.125.196-.19.322-.195.125-.01.237.02.337.094z"/>
    <path fill="#FFC080" d="M13.219 60.065l-.082.125.082-.125zm.18.274l-.149.02.149-.02zm-.086.33l.122.086-.122-.087zm-.243.18l-.045-.144-.003.001.048.142zm-.298-.048l.077-.128-.077.128zm-1.623.071l-.116-.095.116.095zm.016 1.991l-.116.095.001.002.115-.097zm1.677.07l-.072-.13.072.13zm.314-.046l-.036.145.008.002.028-.147zm.314.517l-.15-.02v.007l.15.013zm-.18.282l.08.127.003-.002-.084-.125zm-.612.251l-.037-.145h-.001l.038.145zm-2.242-.415l.105-.107-.105.107zm-.008-3.3l-.105-.108-.001.001.106.106zm1.45-.36c.304 0 .552.033.747.095l.09-.286c-.233-.074-.514-.11-.837-.11v.3zm.747.095c.204.064.374.143.511.233l.165-.251c-.165-.108-.361-.197-.586-.268l-.09.286zm.512.233c.071.046.104.1.113.17l.298-.041c-.022-.162-.11-.29-.248-.38l-.163.251zm.113.17c.01.073-.006.145-.06.222l.246.172c.092-.132.133-.28.112-.435l-.298.04zm-.06.222c-.044.063-.099.102-.165.123l.09.287c.132-.042.24-.123.32-.237l-.245-.173zm-.168.124c-.043.015-.097.013-.173-.033l-.154.257c.132.08.277.11.422.06l-.095-.284zm-.174-.034c-.282-.167-.607-.248-.97-.248v.3c.317 0 .588.07.817.207l.153-.259zm-.97-.248c-.356 0-.647.11-.845.353l.232.19c.127-.155.321-.243.613-.243v-.3zm-.845.354c-.189.232-.27.574-.27.995h.3c0-.393.077-.652.203-.806l-.233-.19zm-.27.995v.196h.3v-.196h-.3zm0 .196c0 .41.088.748.286.99l.232-.19c-.137-.168-.217-.426-.217-.8h-.3zm.287.99c.202.24.488.352.836.352v-.3c-.28 0-.474-.087-.606-.244l-.23.193zm.836.352c.387 0 .732-.08 1.03-.246l-.147-.262c-.245.137-.538.208-.883.208v.3zm1.029-.246c.075-.041.14-.049.205-.033l.072-.29c-.145-.037-.288-.013-.422.06l.145.263zm.213-.03c.063.011.11.044.147.112l.263-.144c-.077-.141-.197-.234-.354-.264l-.056.295zm.147.112c.043.077.057.155.046.237l.297.04c.02-.147-.007-.29-.08-.421l-.263.144zm.045.244c-.005.063-.036.119-.114.17l.167.25c.14-.094.23-.226.246-.393l-.299-.027zm-.112.17c-.145.093-.333.171-.567.23l.074.292c.257-.066.476-.155.656-.27l-.163-.253zm-.568.231c-.226.06-.48.09-.762.09v.3c.303 0 .583-.033.838-.1l-.076-.29zm-.762.09c-.588 0-1.027-.162-1.337-.467l-.21.214c.38.374.902.552 1.547.552v-.3zm-1.337-.467c-.306-.301-.473-.773-.473-1.446h-.3c0 .718.178 1.281.562 1.66l.21-.214zm-.473-1.446v-.196h-.3v.196h.3zm0-.196c0-.673.165-1.145.466-1.446l-.212-.212c-.379.379-.554.941-.554 1.658h.3zm.465-1.445c.31-.305.75-.466 1.345-.466v-.3c-.65 0-1.175.178-1.555.552l.21.214zm4.625 2.01l-.103-.109-.003.003.106.106zm1.168.713l-.076-.13v.001l.076.13zm.267-.258l-.13-.075-.003.005.133.07zm.086-.604h.15v-.15h-.15v.15zm-.07-2.383l-.043.144.042-.144zm.548.274l-.093.118.004.003.089-.12zm.36.431l-.134.066.002.005.132-.07zm-.007 3.418l.081.126h.002l-.083-.126zm-.62 0l-.086.123.008.005.078-.128zm-.133-.494h.15v-.15h-.15v.15zm-.008 0v-.15h-.095l-.04.087.135.063zm-.18.236l-.098-.114.098.114zm-.282.188l.067.134.002-.001-.07-.133zm-.36.125l.033.146-.034-.146zm-1.498-.274l-.098.114.002.001.096-.115zm-.298-1.529l-.14-.053-.002.004.142.05zm.274-.392l.099.113-.099-.113zm.502-.266l-.043-.144h-.001l.044.144zm1.764-.094v.15h.15v-.15h-.15zm-.188-.682l-.107.106.005.004.102-.11zm-1.584.102l.077.128-.077-.128zm-.313.054l-.046.144.01.002.035-.146zm-.244-.203l-.13.075.002.002.128-.078zm-.07-.306l-.149-.021v.006l.149.015zm.18-.267l.082.126.001-.001-.083-.125zm.659-.298l.042.144h.002l-.044-.144zm.596 2.21c-.272 0-.505.05-.652.19l.206.218c.062-.059.195-.108.446-.108v-.3zm-.655.193c-.133.133-.193.307-.193.506h.3c0-.136.039-.228.105-.294l-.212-.212zm-.193.506v.016h.3v-.016h-.3zm0 .016c0 .186.062.349.205.46.136.104.322.144.533.144v-.3c-.181 0-.29-.035-.35-.082-.052-.041-.088-.106-.088-.222h-.3zm.738.604c.323 0 .595-.054.805-.177l-.152-.259c-.146.086-.36.136-.653.136v.3zm.804-.177c.143-.083.256-.188.324-.318l-.265-.14c-.036.068-.102.136-.21.199l.151.259zm.321-.313c.076-.13.107-.293.107-.475h-.3c0 .152-.027.256-.066.325l.26.15zm.107-.475v-.204h-.3v.204h.3zm-.15-.354h-.972v.3h.972v-.3zm-.769-2.177c.239 0 .457.03.656.088l.084-.288c-.23-.067-.476-.1-.74-.1v.3zm.656.088c.199.058.363.141.498.248l.186-.235c-.169-.134-.37-.234-.6-.301l-.084.288zm.502.251c.138.1.242.226.315.376l.27-.131c-.095-.195-.231-.358-.407-.487l-.178.242zm.317.38c.076.143.116.312.116.51h.3c0-.24-.049-.458-.151-.65l-.265.14zm.116.51v2.548h.3v-2.547h-.3zm0 2.548c0 .09-.03.135-.075.166l.167.25c.143-.096.208-.244.208-.416h-.3zm-.073.164c-.062.04-.135.063-.224.063v.3c.141 0 .272-.036.387-.11l-.163-.252zm-.224.063c-.089 0-.166-.022-.235-.065l-.157.256c.119.073.25.109.392.109v-.3zm-.227-.06c-.04-.028-.07-.073-.07-.167h-.3c0 .169.06.316.197.413l.173-.245zm-.07-.167v-.204h-.3v.204h.3zm-.15-.354h-.008v.3h.008v-.3zm-.144.087c-.032.069-.079.13-.142.185l.196.227c.093-.08.167-.176.218-.285l-.272-.127zm-.142.185c-.068.06-.152.116-.254.169l.14.266c.117-.062.221-.131.31-.208l-.196-.227zm-.251.168c-.092.046-.201.084-.328.113l.068.292c.145-.033.277-.078.394-.137l-.134-.268zm-.328.113c-.125.029-.25.043-.374.043v.3c.148 0 .295-.017.442-.05l-.068-.293zm-.374.043c-.449 0-.773-.102-.993-.286l-.193.23c.293.245.695.356 1.186.356v-.3zm-.992-.285c-.211-.18-.324-.438-.324-.795h-.3c0 .426.139.775.43 1.023l.194-.228zm-.324-.795v-.126h-.3v.126h.3zm0-.126c0-.163.024-.31.07-.445l-.283-.098c-.058.17-.087.35-.087.543h.3zm.07-.44c.048-.129.124-.239.232-.333l-.198-.226c-.143.126-.249.277-.315.452l.28.106zm.232-.333c.112-.098.26-.178.447-.236l-.088-.287c-.22.068-.407.166-.557.298l.198.225zm.446-.236c.19-.057.434-.087.733-.087v-.3c-.317 0-.592.032-.82.1l.087.287zm.733-.087h.988v-.3h-.988v.3zm1.138-.15v-.11h-.3v.11h.3zm0-.11c0-.285-.067-.527-.237-.683l-.203.221c.08.074.14.214.14.462h.3zm-.232-.678c-.161-.161-.402-.225-.686-.225v.3c.248 0 .394.057.474.137l.212-.212zm-.686-.225c-.384 0-.745.102-1.081.304l.154.257c.291-.174.6-.26.927-.26v-.3zm-1.081.304c-.075.045-.14.053-.2.038l-.073.29c.148.038.293.01.427-.07l-.154-.258zm-.191.04c-.059-.018-.113-.059-.16-.138l-.257.155c.078.13.186.225.326.27l.09-.287zm-.159-.136c-.043-.074-.058-.145-.05-.215l-.3-.03c-.013.139.019.272.09.396l.26-.15zm-.052-.209c.01-.061.04-.114.114-.162l-.164-.252c-.135.089-.224.213-.247.372l.297.042zm.115-.163c.174-.116.38-.21.618-.279l-.084-.288c-.264.077-.497.182-.7.317l.166.25zm.62-.28c.241-.073.493-.11.755-.11v-.3c-.291 0-.572.041-.843.124l.088.287zm6.3-.017l.073-.131-.001-.001-.072.132zm.243.259l.143-.046-.143.046zm-.04.329l-.134-.065.135.065zm-.203.204l.05.141.007-.003-.057-.138zm-.306-.032l-.064.135.002.002.062-.137zm-.4-.133l-.032.146h.001l.032-.146zm-1.175.502l-.143.047.002.005.14-.052zm.101.117l-.085.123.006.005.008.004.072-.132zm.244.094l-.044.144.007.002.037-.146zm.43.094l-.029.147.03-.147zm.777.212l-.054.14.003.001.05-.14zm.737.643l-.143.046v.001l.143-.047zm-.055 1.035l-.131-.073-.002.004.133.069zm-.345.4l.09.12-.09-.12zm-.541.258l-.042-.144h-.001l.043.144zm-1.56 0l.035-.146-.035.146zm-.69-.258l.073-.132-.003-.001-.07.133zm-.196-.251l-.148.027.148-.027zm.047-.33l-.133-.07-.001.003.134.067zm.235-.22l-.052-.14.052.14zm.322.032l.07-.132-.003-.002-.067.134zm.54.212l-.039.145h.002l.038-.145zm1.153-.04l.09.12-.09-.12zm.133-.477l-.142.047.142-.047zm-.117-.126l-.076.13.076-.13zm-.275-.102l.038-.145-.038.145zm-.486-.11l.03-.147h-.002l-.028.147zm-.697-.188l-.056.14h.001l.055-.14zm-.447-.266l-.104.108.003.003.1-.111zm-.251-.377l-.143.046.002.007.14-.053zm.031-.98l.135.066.001-.002-.136-.064zm.306-.384l-.092-.118-.002.002.094.116zm.525-.258l.043.143h.004l-.047-.143zm.737.048c.505 0 .884.08 1.151.224l.144-.263c-.329-.179-.765-.261-1.295-.261v.3zm1.15.224c.112.062.157.123.173.173l.286-.09c-.047-.15-.163-.261-.313-.345l-.146.262zm.173.173c.017.053.015.123-.031.219l.27.13c.07-.145.093-.295.047-.44l-.286.09zm-.032.22c-.033.07-.076.108-.125.129l.114.277c.128-.053.222-.15.282-.278l-.27-.129zm-.118.126c-.041.015-.102.016-.194-.026l-.124.273c.138.063.282.084.418.036l-.1-.283zm-.19-.025c-.133-.063-.278-.111-.434-.145l-.063.294c.136.029.258.07.367.121l.13-.27zm-.433-.145c-.15-.033-.297-.05-.44-.05v.3c.119 0 .244.014.375.043l.065-.293zm-.44-.05c-.3 0-.545.035-.7.133l.161.253c.076-.048.243-.086.539-.086v-.3zm-.7.133c-.14.09-.242.217-.242.385h.3c0-.03.014-.075.103-.132l-.161-.253zm-.242.385v.016h.3v-.016h-.3zm0 .016c0 .075.01.146.031.212l.285-.095c-.01-.028-.016-.066-.016-.117h-.3zm.033.217c.03.08.09.141.157.188l.172-.246c-.038-.026-.047-.043-.048-.047l-.28.105zm.17.197c.071.038.164.073.272.106l.087-.287c-.1-.03-.17-.058-.215-.082l-.143.263zm.28.108c.107.027.254.059.437.095l.06-.294c-.183-.036-.324-.067-.425-.092l-.073.29zm.437.095c.309.062.559.13.752.205l.108-.28c-.215-.082-.482-.155-.8-.219l-.06.294zm.755.206c.192.07.336.15.439.239l.196-.227c-.138-.12-.318-.217-.534-.294l-.1.282zm.439.239c.1.087.168.19.206.309l.286-.092c-.056-.173-.156-.322-.296-.444l-.197.227zm.207.31c.04.122.062.275.062.463h.3c0-.21-.024-.397-.078-.557l-.284.094zm.062.463v.03h.3v-.03h-.3zm0 .03c0 .154-.035.294-.106.422l.262.145c.096-.174.144-.364.144-.566h-.3zm-.108.426c-.067.13-.167.246-.303.35l.182.238c.167-.127.297-.277.387-.45l-.266-.138zm-.302.349c-.13.097-.292.176-.493.234l.084.288c.228-.066.425-.16.589-.282l-.18-.24zm-.494.235c-.193.057-.413.087-.663.087v.3c.274 0 .524-.032.75-.1l-.087-.287zm-.663.087c-.298 0-.57-.03-.82-.09l-.07.292c.275.066.572.098.89.098v-.3zm-.82-.09c-.25-.06-.466-.141-.651-.244l-.146.263c.213.117.456.208.728.273l.07-.292zm-.654-.245c-.075-.04-.107-.087-.119-.146l-.294.056c.03.16.128.28.273.355l.14-.265zm-.118-.145c-.015-.083-.005-.16.033-.236l-.268-.134c-.067.134-.087.277-.06.424l.295-.054zm.032-.233c.043-.083.096-.127.154-.148l-.104-.282c-.14.052-.244.154-.316.29l.266.14zm.154-.148c.052-.02.116-.019.203.024l.134-.268c-.144-.072-.294-.092-.44-.038l.103.282zm.2.023c.177.094.368.169.571.224l.079-.29c-.183-.05-.353-.116-.51-.2l-.14.266zm.572.224c.21.055.42.083.627.083v-.3c-.18 0-.363-.024-.55-.073l-.076.29zm.627.083c.275 0 .507-.037.654-.147l-.18-.24c-.062.047-.206.087-.474.087v.3zm.654-.147c.139-.104.217-.246.217-.418h-.3c0 .068-.026.125-.097.178l.18.24zm.217-.418v-.016h-.3v.016h.3zm0-.016c0-.075-.01-.146-.031-.212l-.285.095c.01.028.016.066.016.117h.3zm-.031-.212c-.032-.095-.105-.16-.185-.208l-.15.26c.021.012.034.024.042.032.007.007.008.011.008.011l.285-.095zm-.185-.208c-.08-.046-.186-.084-.312-.117l-.075.29c.114.03.19.06.236.087l.151-.26zm-.312-.117c-.124-.032-.289-.07-.494-.111l-.06.293c.203.042.362.078.479.108l.075-.29zm-.496-.112c-.271-.051-.494-.112-.671-.18l-.109.28c.2.077.442.142.724.195l.056-.295zm-.67-.18c-.17-.068-.303-.148-.401-.238l-.202.222c.131.12.297.216.492.295l.111-.279zm-.399-.236c-.1-.095-.17-.201-.213-.32l-.282.105c.06.163.158.308.288.432l.207-.217zm-.211-.313c-.042-.13-.064-.28-.064-.456h-.3c0 .2.025.383.078.547l.286-.091zm-.064-.456v-.032h-.3v.032h.3zm0-.032c0-.134.03-.26.087-.381l-.27-.13c-.078.16-.117.332-.117.511h.3zm.088-.383c.058-.124.145-.234.264-.331l-.188-.233c-.152.123-.27.268-.348.437l.272.127zm.262-.33c.124-.095.281-.174.476-.233l-.086-.287c-.223.067-.416.16-.574.284l.184.237zm.48-.234c.19-.062.42-.094.69-.094v-.3c-.294 0-.556.035-.783.109l.093.285zm4.035-1.702l-.088.121.008.005.08-.126zm.15 2.046h-.15v.15h.15v-.15zm.015 0v.15h.083l.044-.07-.127-.08zm.235-.259l.092.119.004-.004-.096-.115zm.306-.188l-.057-.139-.002.001.059.138zm.36-.102l.025.148.006-.001-.03-.147zm1.466.368l-.106.106.001.002.105-.108zm.26 3.795l-.085-.124.084.124zm-.69 0l-.085.124.002.002.082-.126zm-.212-2.854l-.143.048v.001l.143-.049zm-.173-.29l-.106.106.004.004.102-.11zm-.266-.149l-.046.143.01.003.036-.146zm-.635 0l-.042-.144.042.144zm-.306.165l-.096-.116-.003.003.099.113zm-.227.313l-.136-.065-.002.005.137.06zm-.236 2.815l.085.124-.085-.124zm-.69 0l-.084.124.003.002.081-.126zm-.007-5.66l.083.124h.001l-.084-.124zm.329.048c.09 0 .166.024.233.073l.176-.243c-.12-.087-.259-.13-.41-.13v.3zm.241.078c.049.03.08.078.08.171h.3c0-.177-.07-.33-.22-.424l-.16.253zm.08.171V60.3h.3v-1.748h-.3zm.15 1.899h.015v-.3h-.016v.3zm.142-.07c.053-.085.12-.158.2-.22l-.184-.237c-.108.083-.198.182-.27.297l.254.16zm.204-.224c.083-.07.173-.124.269-.165l-.118-.276c-.124.053-.238.123-.343.21l.192.231zm.267-.164c.104-.043.213-.074.328-.093l-.05-.296c-.135.023-.266.06-.392.111l.114.278zm.334-.094c.116-.024.229-.036.338-.036v-.3c-.131 0-.264.014-.4.042l.062.294zm.338-.036c.428 0 .753.125.991.363l.212-.212c-.305-.305-.712-.451-1.203-.451v.3zm.992.364c.234.23.363.581.363 1.085h.3c0-.552-.142-.995-.453-1.299l-.21.215zm.363 1.085v2.29h.3v-2.29h-.3zm0 2.29c0 .1-.033.154-.084.189l.17.248c.148-.101.214-.257.214-.438h-.3zm-.084.189c-.072.05-.157.076-.26.076v.3c.158 0 .303-.042.43-.128l-.17-.248zm-.26.076c-.096 0-.183-.026-.263-.078l-.164.252c.13.083.273.126.427.126v-.3zm-.26-.076c-.051-.035-.084-.088-.084-.19h-.3c0 .181.067.337.215.438l.169-.248zm-.084-.19v-2.077h-.3V63.6h.3zm0-2.077c0-.198-.021-.37-.07-.512l-.284.098c.034.1.054.235.054.414h.3zm-.07-.51c-.047-.142-.116-.263-.213-.353l-.204.22c.05.046.096.118.132.228l.285-.095zm-.209-.349c-.093-.093-.206-.156-.336-.188l-.073.29c.08.02.144.057.197.11l.212-.212zm-.327-.186c-.116-.036-.238-.054-.367-.054v.3c.101 0 .193.014.276.04l.09-.286zm-.367-.054c-.115 0-.233.018-.355.053l.083.288c.098-.028.189-.04.272-.04v-.3zm-.355.053c-.13.037-.251.103-.36.194l.192.23c.08-.066.163-.11.25-.136l-.082-.288zm-.363.196c-.107.095-.194.217-.264.361l.27.13c.057-.116.121-.203.192-.266l-.198-.225zm-.266.366c-.068.155-.099.34-.099.546h.3c0-.18.027-.32.074-.425l-.275-.121zm-.099.546V63.6h.3v-2.015h-.3zm0 2.015c0 .102-.033.155-.083.19l.169.248c.148-.101.214-.257.214-.438h-.3zm-.083.19c-.073.05-.157.076-.26.076v.3c.157 0 .303-.042.429-.128l-.17-.248zm-.26.076c-.097 0-.184-.026-.264-.078l-.163.252c.129.083.272.126.426.126v-.3zm-.26-.076c-.052-.035-.084-.088-.084-.19h-.3c0 .181.066.337.214.438l.17-.248zm-.084-.19v-5.049h-.3v5.05h.3zm0-5.049c0-.097.03-.144.074-.173l-.167-.25c-.144.097-.207.249-.207.423h.3zm.075-.174c.075-.05.155-.075.245-.075v-.3c-.15 0-.29.043-.414.128l.17.247zm7.442-.123l.085-.124-.085.124zm.15 1.975h-.15v.485l.273-.4-.124-.085zm.25-.25l-.082-.127-.003.003.085.123zm.314-.157l.05.141.003-.001-.053-.14zm.321-.087l-.021-.148h-.001l.022.148zm1.568.502l-.117.093.117-.093zm.29 2.634l.143.047v-.001l-.143-.046zm-.353.643l.113.099-.113-.1zm-.548.392l.055.14.002-.002-.057-.138zm-1.427-.031l-.072.132.072-.132zm-.44-.408l.13-.077-.044-.073h-.085v.15zm-.023 0v-.15h-.15v.15h.15zm-.149.455l.084.124h.001l-.085-.124zm-.65 0l-.088.121.008.005.08-.126zm.008-5.668l-.082-.126-.003.002.085.124zm1.073 2.595l-.111-.1.111.1zm-.172 1.78l-.134.066.134-.067zm.212.281l.103-.109-.103.11zm.321.204l-.058.139.058-.139zm1.09-2.242l-.126.082.001.001.125-.083zm-2.18-2.57c.104 0 .188.026.26.075l.17-.247c-.126-.087-.271-.128-.43-.128v.3zm.26.075c.052.035.084.089.084.19h.3c0-.18-.066-.336-.214-.437l-.17.247zm.084.19v1.662h.3v-1.662h-.3zm.274 1.747c.058-.084.128-.154.212-.212l-.17-.247c-.114.078-.211.175-.29.29l.248.169zm.209-.21c.096-.062.19-.109.281-.14l-.099-.284c-.117.04-.232.099-.346.172l.164.252zm.285-.142c.1-.039.198-.065.29-.078l-.044-.297c-.116.017-.234.05-.353.094l.107.28zm.29-.078c.104-.015.196-.022.276-.022v-.3c-.097 0-.204.008-.319.025l.042.297zm.276-.022c.538 0 .911.163 1.152.468l.236-.186c-.313-.396-.786-.582-1.388-.582v.3zm1.153.469c.247.307.383.778.383 1.435h.3c0-.692-.142-1.24-.449-1.623l-.234.188zm.383 1.435v.203h.3v-.203h-.3zm0 .203c0 .328-.04.613-.119.856l.286.092c.09-.28.133-.596.133-.948h-.3zm-.118.855c-.079.24-.187.436-.323.59l.225.199c.167-.19.294-.423.383-.695l-.285-.093zm-.323.59c-.137.156-.3.273-.494.353l.115.277c.235-.097.437-.241.604-.431l-.225-.198zm-.492.353c-.189.075-.405.114-.65.114v.3c.277 0 .532-.044.761-.136l-.111-.278zm-.65.114c-.27 0-.484-.049-.65-.138l-.142.264c.22.119.487.174.792.174v-.3zm-.65-.138c-.173-.094-.297-.212-.381-.353l-.258.154c.115.193.282.347.497.463l.142-.264zm-.51-.426h-.024v.3h.024v-.3zm-.174.15v.149h.3v-.15h-.3zm0 .149c0 .094-.03.146-.083.182l.169.247c.146-.1.214-.251.214-.43h-.3zm-.082.18c-.068.046-.146.07-.238.07v.3c.148 0 .284-.04.404-.12l-.166-.25zm-.238.07c-.093 0-.175-.024-.25-.071l-.16.253c.124.079.262.118.41.118v-.3zm-.242-.066c-.047-.035-.078-.087-.078-.184h-.3c0 .175.063.326.203.427l.175-.243zm-.078-.184v-5.049h-.3v5.049h.3zm0-5.049c0-.101.032-.155.083-.19l-.17-.247c-.147.1-.213.256-.213.437h.3zm.08-.188c.08-.052.167-.077.263-.077v-.3c-.154 0-.297.042-.426.126l.163.251zm1.745 2.03c-.36 0-.656.106-.864.34l.223.2c.137-.154.342-.24.641-.24v-.3zm-.865.34c-.196.22-.288.501-.288.829h.3c0-.269.074-.474.213-.63l-.225-.2zm-.288.829v.729h.3v-.73h-.3zm0 .729c0 .134.032.264.094.388l.268-.134c-.042-.085-.062-.17-.062-.254h-.3zm.094.388c.06.121.142.23.243.325l.206-.219c-.077-.072-.137-.152-.18-.24l-.27.134zm.243.325c.103.097.226.174.366.233l.116-.277c-.11-.046-.202-.105-.276-.175l-.206.218zm.366.233c.146.06.305.09.474.09v-.3c-.134 0-.253-.023-.358-.067l-.116.277zm.474.09c.333 0 .602-.122.78-.376.173-.244.248-.593.248-1.021h-.3c0 .403-.072.678-.192.849-.114.16-.284.247-.536.247v.3zm1.028-1.397v-.157h-.3v.157h.3zm0-.157c0-.42-.07-.76-.23-1l-.249.166c.112.168.179.439.179.834h.3zm-.228-.999c-.173-.265-.462-.382-.824-.382v.3c.297 0 .473.093.572.246l.252-.164zm5.293-.553l-.105.107.105-.107zm0 3.277l.105.108v-.001l-.105-.107zm-2.979 0l-.105.107.105-.107zm0-3.277l.105.108v-.001l-.105-.107zm.706.627l-.114-.098-.001.002.115.096zm0 2.015l-.115.096.001.002.114-.098zm1.56 0l-.114-.098-.001.002.115.096zm0-2.015l-.115.097.001.001.114-.098zm-.776-1.002c.61 0 1.064.166 1.384.482l.21-.214c-.39-.385-.929-.568-1.594-.568v.3zm1.385.483c.316.307.487.774.487 1.428h.3c0-.704-.184-1.261-.578-1.644l-.21.216zm.487 1.428v.196h.3v-.196h-.3zm0 .196c0 .655-.17 1.125-.488 1.438l.21.214c.394-.388.578-.947.578-1.652h-.3zm-.487 1.437c-.32.31-.775.475-1.385.475v.3c.665 0 1.203-.18 1.594-.56l-.21-.215zm-1.385.475c-.61 0-1.065-.164-1.385-.475l-.21.216c.391.379.93.56 1.595.56v-.3zm-1.385-.474c-.317-.313-.488-.783-.488-1.438h-.3c0 .705.185 1.264.578 1.652l.21-.214zm-.488-1.438v-.196h-.3v.196h.3zm0-.196c0-.654.17-1.12.488-1.428l-.21-.216c-.393.383-.578.94-.578 1.645h.3zm.488-1.43c.32-.315.775-.481 1.385-.481v-.3c-.666 0-1.205.183-1.595.568l.21.214zm1.385.081c-.382 0-.692.104-.898.342l.227.196c.13-.149.341-.238.67-.238v-.3zm-.9.344c-.195.233-.277.585-.277 1.021h.3c0-.41.08-.675.208-.828l-.23-.193zm-.277 1.021v.165h.3v-.165h-.3zm0 .165c0 .437.082.788.278 1.021l.23-.192c-.129-.154-.208-.42-.208-.83h-.3zm.28 1.023c.205.238.515.342.897.342v-.3c-.33 0-.542-.09-.67-.238l-.228.196zm.897.342c.38 0 .69-.104.89-.344l-.23-.192c-.123.147-.33.236-.66.236v.3zm.89-.342c.201-.233.287-.586.287-1.023h-.3c0 .41-.082.674-.215.827l.227.196zm.287-1.023v-.165h-.3v.165h.3zm0-.165c0-.437-.086-.79-.288-1.023l-.227.196c.133.153.215.418.215.827h.3zm-.286-1.021c-.201-.24-.51-.344-.891-.344v.3c.33 0 .537.09.66.237l.23-.193zm5.026-.907l.09-.12-.001-.001-.09.12zm.196.29l-.147.033.147-.033zm-.095.345l.119.092-.118-.092zm-1.058 1.348l-.118-.093-.074.095.076.092.116-.094zm1.13 1.396l-.117.094.116-.094zm.109.344l-.149-.019v.006l.149.014zm-.196.322l-.096-.116v.001l.096.115zm-.353.11l-.012.15.012-.15zm-.33-.196l.121-.09-.12.09zm-.971-1.294l.12-.09-.12-.159-.12.159.12.09zm-.972 1.286l-.12-.09.12.09zm-.33.196l-.006-.15h-.007l.013.15zm-.329-.094l-.094.117.005.003.09-.12zm-.196-.29l-.146.033v.001l.146-.034zm.094-.345l-.117-.094-.002.002.12.092zm1.153-1.435l.116.094.075-.093-.074-.094-.117.093zm-1.035-1.31l.117-.092v-.002l-.117.095zm-.118-.336l-.149-.02v.006l.15.014zm.204-.33l.096.116-.096-.116zm.345-.11l-.012.15.012-.15zm.337.197l.121-.088v-.001l-.121.089zm.878 1.207l-.121.088.12.166.122-.165-.12-.089zm.878-1.2l.121.09.002-.003-.123-.086zm.322-.195l.006.15h.006l-.013-.15zm.247.214c.079.06.122.127.14.203l.292-.066c-.035-.154-.123-.28-.252-.377l-.18.24zm.14.203c.013.061.001.131-.067.22l.237.183c.11-.141.16-.3.122-.47l-.293.067zm-.067.22L41.06 61.75l.236.186 1.059-1.349-.236-.185zm-1.056 1.534l1.129 1.396.233-.189-1.13-1.395-.232.188zm1.129 1.396c.067.083.087.158.077.231l.298.039c.021-.168-.032-.323-.142-.459l-.233.189zm.076.237c-.005.063-.041.136-.142.22l.191.23c.14-.115.235-.256.25-.423l-.299-.027zm-.143.22c-.067.057-.146.083-.244.075l-.023.3c.172.013.33-.035.46-.145l-.193-.23zm-.244.075c-.081-.006-.154-.045-.22-.136l-.242.179c.11.15.258.242.438.256l.024-.299zm-.221-.136l-.972-1.294-.24.18.972 1.294.24-.18zm-1.212-1.294l-.972 1.285.24.181.971-1.285-.239-.181zm-.972 1.286c-.075.1-.146.133-.216.136l.013.3c.18-.008.329-.105.443-.256l-.24-.18zm-.223.136c-.083.008-.156-.013-.227-.065l-.178.241c.128.095.274.137.431.123l-.026-.299zm-.222-.061c-.084-.067-.127-.137-.144-.208l-.292.07c.035.148.123.271.248.372l.188-.234zm-.144-.206c-.014-.062-.002-.132.067-.22l-.238-.184c-.109.141-.16.301-.121.47l.292-.066zm.065-.218l1.152-1.435-.233-.188-1.153 1.435.234.188zm1.153-1.622l-1.035-1.31-.235.187 1.035 1.31.235-.187zm-1.036-1.31c-.07-.087-.09-.162-.084-.23l-.3-.027c-.014.162.044.312.151.445l.233-.188zm-.085-.224c.01-.072.05-.15.15-.233l-.19-.231c-.141.116-.236.258-.258.425l.298.04zm.152-.234c.068-.058.144-.082.236-.075l.024-.299c-.17-.013-.324.035-.454.145l.194.23zm.236-.075c.088.007.163.047.228.136l.242-.178c-.112-.152-.263-.243-.447-.257l-.023.3zm.228.135l.878 1.207.242-.176-.878-1.207-.242.176zm1.12 1.208l.878-1.2-.242-.177-.878 1.2.242.177zm.88-1.202c.068-.097.136-.13.205-.133l-.013-.3c-.182.008-.328.106-.437.26l.245.173zm.211-.133c.09-.007.166.014.236.065l.178-.241c-.13-.095-.278-.136-.439-.123l.025.3z"/>
</svg>
