<svg xmlns="http://www.w3.org/2000/svg" width="125" height="19" fill="none" viewBox="0 0 125 19">
    <path fill="#7C7C7C" fill-opacity=".3" d="M1 18.9c-.497 0-.9-.403-.9-.9s.403-.9.9-.9v1.8zm101.413-.9v-.9.9zM123.1 1c0-.497.403-.9.9-.9s.9.403.9.9h-1.8zM1.994 17.1c.497 0 .9.403.9.9s-.403.9-.9.9v-1.8zm3.977 1.8c-.497 0-.9-.403-.9-.9s.403-.9.9-.9v1.8zm1.989-1.8c.497 0 .9.403.9.9s-.403.9-.9.9v-1.8zm3.977 1.8c-.497 0-.9-.403-.9-.9s.403-.9.9-.9v1.8zm1.988-1.8c.497 0 .9.403.9.9s-.403.9-.9.9v-1.8zm3.977 1.8c-.497 0-.9-.403-.9-.9s.403-.9.9-.9v1.8zm1.989-1.8c.497 0 .9.403.9.9s-.403.9-.9.9v-1.8zm3.977 1.8c-.497 0-.9-.403-.9-.9s.403-.9.9-.9v1.8zm1.988-1.8c.497 0 .9.403.9.9s-.403.9-.9.9v-1.8zm3.977 1.8c-.497 0-.9-.403-.9-.9s.403-.9.9-.9v1.8zm1.989-1.8c.497 0 .9.403.9.9s-.403.9-.9.9v-1.8zm3.976 1.8c-.497 0-.9-.403-.9-.9s.403-.9.9-.9v1.8zm1.989-1.8c.497 0 .9.403.9.9s-.403.9-.9.9v-1.8zm3.977 1.8c-.497 0-.9-.403-.9-.9s.403-.9.9-.9v1.8zm1.988-1.8c.498 0 .9.403.9.9s-.402.9-.9.9v-1.8zm3.977 1.8c-.497 0-.9-.403-.9-.9s.403-.9.9-.9v1.8zm1.989-1.8c.497 0 .9.403.9.9s-.403.9-.9.9v-1.8zm3.977 1.8c-.497 0-.9-.403-.9-.9s.403-.9.9-.9v1.8zm1.988-1.8c.498 0 .9.403.9.9s-.402.9-.9.9v-1.8zm3.977 1.8c-.497 0-.9-.403-.9-.9s.403-.9.9-.9v1.8zm1.989-1.8c.497 0 .9.403.9.9s-.403.9-.9.9v-1.8zm3.977 1.8c-.497 0-.9-.403-.9-.9s.403-.9.9-.9v1.8zm1.988-1.8c.497 0 .9.403.9.9s-.403.9-.9.9v-1.8zm3.977 1.8c-.497 0-.9-.403-.9-.9s.403-.9.9-.9v1.8zm1.989-1.8c.497 0 .9.403.9.9s-.403.9-.9.9v-1.8zm3.977 1.8c-.497 0-.9-.403-.9-.9s.403-.9.9-.9v1.8zm1.988-1.8c.497 0 .9.403.9.9s-.403.9-.9.9v-1.8zm3.977 1.8c-.497 0-.9-.403-.9-.9s.403-.9.9-.9v1.8zm1.989-1.8c.497 0 .9.403.9.9s-.403.9-.9.9v-1.8zm3.977 1.8c-.497 0-.9-.403-.9-.9s.403-.9.9-.9v1.8zm1.988-1.8c.497 0 .9.403.9.9s-.403.9-.9.9v-1.8zm3.977 1.8c-.497 0-.9-.403-.9-.9s.403-.9.9-.9v1.8zm1.989-1.8c.497 0 .9.403.9.9s-.403.9-.9.9v-1.8zm3.977 1.8c-.497 0-.9-.403-.9-.9s.403-.9.9-.9v1.8zm1.975-1.818c.497-.018.914.37.932.867.019.496-.369.914-.866.932l-.066-1.799zm4.227 1.336c-.488.092-.959-.23-1.051-.718-.092-.488.23-.959.718-1.05l.333 1.768zm1.575-2.206c.48-.13.974.154 1.104.634.129.48-.154.974-.634 1.104l-.47-1.738zm4.421.315c-.452.207-.986.008-1.193-.444-.207-.452-.008-.986.444-1.193l.749 1.637zm.984-2.524c.432-.246.982-.095 1.228.337.246.432.095.982-.337 1.228l-.891-1.565zm4.346-.863c-.377.324-.945.282-1.27-.094-.324-.376-.282-.945.094-1.27l1.176 1.364zm.216-2.7c.339-.364.909-.383 1.272-.044s.383.908.044 1.272l-1.316-1.228zm3.834-2.215c-.241.435-.789.592-1.224.351-.434-.24-.592-.788-.351-1.223l1.575.872zm-.768-2.595c.179-.464.7-.695 1.164-.515.464.179.694.7.515 1.163l-1.679-.648zm2.631-3.55c-.037.496-.469.868-.965.831-.495-.037-.867-.469-.83-.965l1.795.135zM1 17.1h.994v1.8H1v-1.8zm4.971 0H7.96v1.8H5.97v-1.8zm5.966 0h1.988v1.8h-1.988v-1.8zm5.965 0h1.989v1.8h-1.989v-1.8zm5.966 0h1.988v1.8h-1.988v-1.8zm5.965 0h1.989v1.8h-1.989v-1.8zm5.965 0h1.989v1.8h-1.989v-1.8zm5.966 0h1.988v1.8h-1.988v-1.8zm5.965 0h1.989v1.8h-1.989v-1.8zm5.966 0h1.988v1.8h-1.988v-1.8zm5.965 0h1.989v1.8H59.66v-1.8zm5.966 0h1.988v1.8h-1.988v-1.8zm5.965 0h1.989v1.8H71.59v-1.8zm5.966 0h1.988v1.8h-1.988v-1.8zm5.965 0h1.989v1.8h-1.989v-1.8zm5.966 0h1.988v1.8h-1.988v-1.8zm5.965 0h1.989v1.8h-1.989v-1.8zm5.966 0h.994v1.8h-.994v-1.8zm.994 0c.329 0 .656-.006.981-.018l.066 1.799c-.347.013-.696.019-1.047.019v-1.8zm4.875-.45c.649-.123 1.285-.269 1.908-.438l.47 1.738c-.668.18-1.35.337-2.045.468l-.333-1.769zm5.58-1.76c.598-.273 1.176-.57 1.733-.887l.891 1.565c-.604.343-1.23.664-1.875.96l-.749-1.638zm4.903-3.113c.494-.427.959-.873 1.392-1.337l1.316 1.228c-.478.513-.99 1.004-1.532 1.472l-1.176-1.363zm3.651-4.424c.31-.56.58-1.135.807-1.723l1.679.648c-.258.668-.563 1.317-.911 1.947l-1.575-.872zm1.643-5.407c.023-.313.035-.628.035-.946h1.8c0 .363-.014.723-.04 1.08l-1.795-.134z"/>
</svg>
