<svg xmlns="http://www.w3.org/2000/svg" width="56" height="57" fill="none" viewBox="0 0 56 57">
    <path fill="#BDBDBD" d="M23.333 30.38h-21c-.619 0-1.212-.247-1.65-.684C.246 29.258 0 28.665 0 28.046s.246-1.212.683-1.65c.438-.438 1.031-.683 1.65-.683h21c.62 0 1.213-.246 1.65-.684.438-.437.684-1.03.684-1.65v-21c0-.619.245-1.212.683-1.65.438-.437 1.031-.683 1.65-.683s1.212.246 1.65.683c.438.438.683 1.031.683 1.65v21c0 1.857-.737 3.637-2.05 4.95-1.313 1.313-3.093 2.05-4.95 2.05zM21 18.712v-14c0-1.238-.492-2.425-1.367-3.3S17.571.046 16.333.046H4.667c-1.238 0-2.425.492-3.3 1.367S0 3.475 0 4.713v11.666c0 1.238.492 2.425 1.367 3.3s2.062 1.367 3.3 1.367h4.666c.62 0 1.213-.246 1.65-.683.438-.438.684-1.032.684-1.65 0-.62-.246-1.213-.684-1.65-.437-.438-1.03-.684-1.65-.684H4.667V4.713h11.666v14c0 .618.246 1.212.684 1.65.437.437 1.03.683 1.65.683.618 0 1.212-.246 1.65-.683.437-.438.683-1.032.683-1.65zm35-2.334V4.713c0-1.238-.492-2.425-1.367-3.3S52.571.046 51.333.046H39.667c-1.238 0-2.425.492-3.3 1.367S35 3.475 35 4.713v4.666c0 .62.246 1.213.683 1.65.438.438 1.032.684 1.65.684.62 0 1.213-.246 1.65-.684.438-.437.684-1.03.684-1.65V4.713h11.666v11.666h-14c-.618 0-1.212.246-1.65.684-.437.437-.683 1.03-.683 1.65 0 .618.246 1.212.683 1.65.438.437 1.032.683 1.65.683h14c1.238 0 2.425-.492 3.3-1.367S56 17.617 56 16.38zm-35 35v-4.666c0-.62-.246-1.213-.683-1.65-.438-.438-1.032-.684-1.65-.684-.62 0-1.213.246-1.65.684-.438.437-.684 1.03-.684 1.65v4.666H4.667V39.713h14c.618 0 1.212-.246 1.65-.684.437-.437.683-1.03.683-1.65 0-.619-.246-1.212-.683-1.65-.438-.437-1.032-.683-1.65-.683h-14c-1.238 0-2.425.492-3.3 1.367S0 38.475 0 39.713v11.666c0 1.238.492 2.425 1.367 3.3s2.062 1.367 3.3 1.367h11.666c1.238 0 2.425-.492 3.3-1.367S21 52.617 21 51.38zm35 0V39.713c0-1.238-.492-2.425-1.367-3.3s-2.062-1.367-3.3-1.367h-4.666c-.62 0-1.213.246-1.65.683-.438.438-.684 1.031-.684 1.65 0 .62.246 1.213.684 1.65.437.438 1.03.684 1.65.684h4.666v11.666H39.667v-14c0-.619-.246-1.212-.684-1.65-.437-.437-1.03-.683-1.65-.683-.618 0-1.212.246-1.65.683-.437.438-.683 1.031-.683 1.65v14c0 1.238.492 2.425 1.367 3.3s2.062 1.367 3.3 1.367h11.666c1.238 0 2.425-.492 3.3-1.367S56 52.617 56 51.38zm-25.667 2.334V37.379c0-.619-.245-1.212-.683-1.65-.438-.437-1.031-.683-1.65-.683s-1.212.246-1.65.683c-.438.438-.683 1.031-.683 1.65v16.334c0 .618.245 1.212.683 1.65.438.437 1.031.683 1.65.683s1.212-.246 1.65-.684c.438-.437.683-1.03.683-1.65zM56 28.046c0-.619-.246-1.212-.683-1.65-.438-.438-1.032-.683-1.65-.683H37.333c-.618 0-1.212.245-1.65.683-.437.438-.683 1.031-.683 1.65s.246 1.212.683 1.65c.438.437 1.032.683 1.65.683h16.334c.618 0 1.212-.246 1.65-.683.437-.438.683-1.031.683-1.65z"/>
</svg>
