<svg xmlns="http://www.w3.org/2000/svg" width="121" height="145" fill="none" viewBox="0 0 121 145">
    <path fill="#fff" d="M118.583 37.339l-12.119 5.839L89.448 7.839 101.567 2"/>
    <path stroke="#E0E0E0" stroke-linecap="round" stroke-linejoin="round" stroke-miterlimit="10" stroke-width="3.259" d="M118.583 37.339l-12.119 5.839L89.448 7.839 101.567 2"/>
    <path fill="#fff" stroke="#E0E0E0" stroke-linecap="round" stroke-linejoin="round" stroke-miterlimit="10" stroke-width="3.259" d="M90.045 96.508H10.503v45.983h79.542V96.508zM84.842 69.605H15.685L2 84.31h96.527L84.842 69.605z"/>
    <path fill="#fff" stroke="#E0E0E0" stroke-linecap="round" stroke-linejoin="round" stroke-miterlimit="10" stroke-width="3.259" d="M98.528 84.308H2.001v12.195h96.527V84.308zM84.571 48.606L46.055 31.5 25.892 76.874h46.104l12.575-28.267z"/>
    <path stroke="#E0E0E0" stroke-linecap="round" stroke-linejoin="round" stroke-miterlimit="10" stroke-width="3.259" d="M40.411 45.158l38.152 16.955M20.538 76.964h59.455"/>
    <path fill="#fff" stroke="#E0E0E0" stroke-linecap="round" stroke-linejoin="round" stroke-miterlimit="10" stroke-width="3.259" d="M93.633 16.475c-.486-.943-.79-1.43-1.672-2.099-1.278-.958-3.346-1.581-4.927-1.81-7.998-1.155-19.083-2.28-24.634 5.368-2.843 3.908-5.398 8.014-8.241 11.922-.821 1.14-1.84 2.357-2.813 3.664l10.157 4.425c.107-.121.183-.228.29-.334 2.69-3.072 7.055-8.318 11.738-6.964 3.558 1.018 4.623 6.006 4.668 6.219l-15.677 7.04c-3.436 1.657-4.866 5.794-3.208 9.215 1.657 3.436 5.793 4.866 9.214 3.208 2.13-1.018 4.258-2.037 6.402-3.04 6.387-3.042 12.758-6.083 19.144-9.124 1.202-.593 10.31-5.338 10.31-5.338-3.634-6.903-5.702-12.666-10.75-22.352z"/>
    <path fill="#E0E0E0" d="M22.934 114.52c.603 0 1.111.065 1.523.196.413.131.765.292 1.057.483.2.131.316.307.347.528.03.221-.026.432-.166.634-.121.171-.277.286-.468.347-.181.06-.372.03-.573-.091-.493-.292-1.067-.437-1.72-.437-.624 0-1.092.191-1.404.573-.301.372-.452.95-.452 1.735v.377c0 .754.16 1.328.483 1.72.322.382.784.573 1.388.573.704 0 1.317-.145 1.84-.437.201-.111.403-.141.604-.091.211.041.372.161.483.362.11.202.15.413.12.634-.02.221-.135.402-.347.543-.312.201-.704.362-1.177.483-.462.121-.975.181-1.538.181-1.187 0-2.113-.327-2.776-.981-.664-.653-.996-1.649-.996-2.987v-.377c0-1.338.327-2.334.98-2.987.664-.654 1.595-.981 2.792-.981zm7.367 4.768c-.502 0-.854.095-1.056.286-.19.191-.286.448-.286.77v.03c0 .583.377.875 1.131.875.594 0 1.061-.101 1.403-.302.242-.141.413-.307.513-.498.111-.191.166-.447.166-.769v-.392h-1.87zm.393-4.768c.483 0 .93.06 1.342.181.413.121.765.297 1.057.528.301.221.533.498.694.83.17.322.256.694.256 1.116v4.904c0 .251-.09.437-.271.558-.172.111-.368.166-.589.166-.221 0-.422-.055-.603-.166-.171-.121-.257-.307-.257-.558v-.393h-.015c-.08.171-.196.322-.347.453-.15.131-.332.251-.543.362-.201.101-.433.181-.694.242-.262.06-.523.09-.785.09-.905 0-1.604-.206-2.097-.619-.483-.412-.724-.995-.724-1.75v-.241c0-.342.05-.659.15-.951.111-.291.287-.543.529-.754.251-.221.573-.392.965-.513.403-.121.9-.181 1.494-.181h1.901v-.211c0-.513-.12-.88-.362-1.102-.231-.231-.603-.347-1.116-.347-.684 0-1.328.181-1.932.544-.2.12-.402.155-.603.105-.191-.06-.347-.191-.468-.392-.11-.191-.156-.387-.135-.588.03-.212.145-.383.346-.513.363-.242.785-.433 1.268-.574.493-.151 1.006-.226 1.539-.226zm8.317 0c.996 0 1.78.156 2.353.468.252.14.408.306.468.498.06.191.035.402-.075.633-.09.191-.221.322-.392.392-.172.061-.368.041-.589-.06-.231-.111-.488-.196-.77-.256-.271-.061-.532-.091-.784-.091-.573 0-.97.071-1.192.211-.221.141-.332.307-.332.498v.03c0 .121.015.227.045.317.03.081.096.156.197.227.11.06.266.12.467.181.202.05.478.11.83.181.604.12 1.102.256 1.494.407.392.141.704.312.935.513.232.201.393.443.483.724.09.272.136.599.136.981v.06c0 .342-.08.659-.242.951-.15.291-.372.548-.663.769-.282.211-.63.377-1.041.498-.403.121-.855.181-1.358.181-.594 0-1.142-.06-1.645-.181-.503-.121-.945-.287-1.328-.498-.21-.111-.337-.271-.377-.483-.04-.221-.01-.432.09-.633.111-.212.262-.352.453-.423.191-.07.398-.05.619.061.322.171.669.306 1.041.407.382.101.76.151 1.132.151.523 0 .885-.076 1.086-.227.201-.15.302-.341.302-.573v-.03c0-.121-.015-.226-.046-.317-.03-.09-.105-.171-.226-.241-.12-.071-.297-.136-.528-.196-.231-.061-.543-.131-.935-.212-.533-.1-.981-.221-1.343-.362-.352-.141-.639-.312-.86-.513-.221-.211-.382-.452-.483-.724-.09-.281-.136-.603-.136-.965v-.061c0-.302.066-.588.196-.86.131-.281.327-.528.589-.739.271-.211.608-.377 1.01-.498.403-.131.876-.196 1.419-.196zm5.819-3.002c.231 0 .438.065.619.196.19.12.286.311.286.573v3.364h.03c.121-.191.272-.357.453-.497.181-.151.377-.272.588-.363.222-.09.453-.155.694-.196.242-.05.478-.075.71-.075.885 0 1.589.261 2.112.784.523.513.784 1.278.784 2.294v4.405c0 .272-.095.473-.286.604-.191.131-.413.196-.664.196-.242 0-.463-.065-.664-.196-.191-.131-.287-.332-.287-.604v-3.998c0-.362-.04-.659-.12-.89-.08-.241-.191-.428-.332-.558-.141-.141-.312-.237-.513-.287-.191-.06-.398-.09-.619-.09-.191 0-.392.03-.603.09-.212.06-.408.166-.589.317-.17.151-.317.352-.437.603-.11.252-.166.564-.166.936v3.877c0 .272-.096.473-.287.604-.191.131-.412.196-.664.196-.241 0-.462-.065-.664-.196-.19-.131-.286-.332-.286-.604v-9.716c0-.262.09-.453.271-.573.191-.131.403-.196.634-.196zm13.188 0c.251 0 .472.065.664.196.19.13.286.332.286.603v3.199c.131-.191.292-.352.483-.483.201-.131.402-.231.603-.302.212-.08.418-.136.62-.166.21-.03.401-.045.572-.045 1.097 0 1.911.337 2.445 1.011.533.664.8 1.644.8 2.942v.392c0 .654-.081 1.232-.242 1.735-.161.493-.387.905-.68 1.237-.29.332-.643.584-1.055.755-.403.161-.855.241-1.358.241-.553 0-1.016-.101-1.388-.302-.372-.201-.654-.462-.845-.784h-.045v.286c0 .262-.096.458-.287.589-.181.121-.387.181-.619.181-.23 0-.442-.06-.633-.181-.181-.131-.272-.327-.272-.589v-9.716c0-.271.096-.473.287-.603.201-.131.422-.196.664-.196zm2.851 4.631c-.633 0-1.116.186-1.448.559-.322.362-.483.829-.483 1.403v1.403c0 .211.05.417.15.618.102.202.237.383.408.544.171.16.377.291.619.392.241.1.508.151.8.151 1.126 0 1.69-.8 1.69-2.399v-.302c0-.784-.131-1.373-.393-1.765-.262-.402-.71-.604-1.343-.604zm8.906-1.629c1.227 0 2.183.337 2.867 1.011.684.664 1.026 1.649 1.026 2.957v.377c0 1.308-.342 2.298-1.026 2.972-.684.664-1.64.996-2.867.996s-2.183-.332-2.867-.996c-.683-.674-1.026-1.664-1.026-2.972v-.377c0-1.308.343-2.293 1.026-2.957.684-.674 1.64-1.011 2.867-1.011zm0 1.66c-.684 0-1.187.186-1.509.558-.312.372-.467.965-.467 1.78v.317c0 .815.155 1.408.467 1.78.322.372.825.558 1.509.558.684 0 1.182-.186 1.494-.558.322-.372.482-.965.482-1.78v-.317c0-.815-.16-1.408-.482-1.78-.312-.372-.81-.558-1.494-.558zm11.387-1.373c.201.15.327.337.377.558.05.221-.01.442-.18.664l-2.037 2.595 2.172 2.685c.171.211.242.433.211.664-.02.221-.145.428-.377.619-.191.161-.417.231-.679.211-.251-.02-.463-.146-.633-.377l-1.871-2.49-1.871 2.475c-.181.241-.392.367-.634.377-.231.02-.442-.04-.633-.181-.202-.161-.327-.347-.378-.558-.05-.222.01-.443.181-.664l2.218-2.761-1.991-2.52c-.171-.211-.247-.427-.227-.649.03-.231.161-.442.393-.633.19-.161.412-.232.663-.212.262.021.478.146.65.378l1.69 2.323 1.689-2.308c.17-.242.377-.367.618-.377.242-.021.458.04.65.181z"/>
    <path fill="#E0E0E0" d="M24.457 114.716l.099-.311-.099.311zm1.057.483l-.18.272.002.001.178-.273zm.347.528l-.323.044.323-.044zm-.166.634l.266.188v-.001l-.266-.187zm-.468.347l-.098-.311-.005.001.103.31zm-.573-.091l.167-.279-.001-.001-.166.28zm-3.123.136l-.253-.206v.001l.253.205zm.03 3.832l-.252.207.002.003.25-.21zm3.228.136l-.157-.286-.001.001.158.285zm.604-.091l-.08.317.01.002.009.001.06-.32zm.603.996l-.323-.044v.007l-.001.008.324.029zm-.347.543l.177.274.004-.003-.18-.271zm-1.177.483l-.08-.316-.002.001.082.315zm-4.314-.8l.228-.232-.228.232zm-.016-6.351l-.228-.233-.002.002.23.231zm2.792-.655c.582 0 1.054.063 1.425.181l.197-.622c-.454-.144-.998-.211-1.622-.211v.652zm1.425.181c.39.124.714.273.976.444l.357-.545c-.322-.211-.702-.383-1.136-.521l-.197.622zm.977.445c.128.084.185.179.202.299l.645-.088c-.043-.323-.218-.579-.492-.757l-.355.546zm.202.299c.018.132-.012.261-.11.403l.534.374c.182-.262.264-.554.221-.865l-.645.088zm-.11.402c-.081.115-.18.186-.3.224l.197.621c.262-.082.476-.243.636-.469l-.533-.376zm-.304.225c-.07.024-.163.024-.303-.06l-.335.559c.262.157.552.217.844.12l-.206-.619zm-.304-.061c-.55-.326-1.183-.483-1.886-.483v.651c.603 0 1.118.135 1.554.393l.332-.561zm-1.886-.483c-.694 0-1.267.215-1.656.693l.505.412c.234-.287.597-.454 1.15-.454v-.651zm-1.657.694c-.37.457-.525 1.125-.525 1.94h.652c0-.754.147-1.243.38-1.53l-.507-.41zm-.525 1.94v.377h.652v-.377h-.652zm0 .377c0 .794.169 1.454.557 1.927l.504-.414c-.256-.311-.41-.799-.41-1.513h-.651zm.56 1.93c.396.471.959.689 1.637.689v-.652c-.53 0-.892-.164-1.139-.457l-.499.42zm1.637.689c.75 0 1.42-.155 2-.479l-.318-.569c-.467.26-1.024.396-1.682.396v.652zm1.997-.478c.138-.075.255-.088.368-.059l.158-.633c-.29-.072-.575-.024-.84.121l.314.571zm.386-.056c.108.021.19.077.258.199l.571-.314c-.154-.279-.393-.465-.707-.525l-.122.64zm.258.199c.078.142.104.283.083.433l.646.088c.04-.293-.014-.574-.158-.835l-.57.314zm.082.448c-.01.108-.061.206-.204.301l.362.542c.28-.186.46-.45.491-.784l-.65-.059zm-.2.298c-.274.177-.631.327-1.08.441l.161.632c.497-.127.924-.3 1.273-.525l-.353-.548zm-1.082.442c-.431.112-.916.17-1.456.17v.652c.586 0 1.127-.063 1.62-.192l-.164-.63zm-1.456.17c-1.126 0-1.96-.308-2.548-.887l-.457.465c.74.729 1.757 1.074 3.005 1.074v-.652zm-2.548-.887c-.578-.57-.898-1.466-.898-2.755h-.652c0 1.387.344 2.482 1.093 3.22l.457-.465zm-.898-2.755v-.377h-.652v.377h.652zm0-.377c0-1.29.315-2.187.885-2.757l-.461-.461c-.738.738-1.076 1.832-1.076 3.218h.652zm.883-2.755c.587-.578 1.426-.887 2.563-.887v-.652c-1.258 0-2.28.345-3.02 1.074l.457.465zm8.874 3.841l-.224-.236-.006.006.23.23zm2.248 1.373l-.164-.281.164.281zm.513-.498l-.282-.163-.006.011.288.152zm.166-1.161h.326v-.326h-.326v.326zm-.136-4.587l-.091.313.091-.313zm1.057.528l-.203.256.01.007.193-.263zm.694.83l-.294.142.006.011.288-.153zm-.015 6.578l.177.274.003-.003-.18-.271zm-1.192 0l-.188.266.008.006.01.006.17-.278zm-.257-.951h.326v-.326h-.326v.326zm-.015 0v-.326h-.207l-.088.188.295.138zm-.347.453l-.213-.246.213.246zm-.543.362l.146.292.005-.003-.151-.289zm-.694.242l.073.317-.073-.317zm-2.882-.529l-.211.248.002.002.21-.25zm-.573-2.942l-.305-.115-.003.009.308.106zm.528-.754l.215.245-.215-.245zm.965-.513l-.093-.312-.002.001.095.311zm3.395-.181v.326h.326v-.326h-.326zm-.362-1.313l-.23.231.005.005.005.005.22-.241zm-3.048.197l.168.279-.168-.279zm-.603.105l-.098.311.01.003.009.002.079-.316zm-.468-.392l-.282.163.003.005.28-.168zm-.135-.588l-.323-.047-.002.014.325.033zm.346-.513l.178.273.003-.002-.18-.271zm1.268-.574l.091.313.004-.001-.095-.312zm1.146 4.216c-.525 0-.985.096-1.28.376l.449.472c.107-.101.35-.197.831-.197v-.651zm-1.286.382c-.264.263-.382.609-.382 1h.652c0-.253.072-.421.19-.539l-.46-.461zm-.382 1v.03h.652v-.03h-.652zm0 .03c0 .367.123.693.41.914.27.209.637.287 1.047.287v-.652c-.344 0-.542-.068-.649-.151-.09-.07-.156-.182-.156-.398h-.652zm1.457 1.201c.625 0 1.158-.105 1.569-.347l-.33-.562c-.274.161-.677.257-1.239.257v.652zm1.568-.346c.278-.163.5-.369.637-.628l-.577-.304c-.065.124-.185.25-.389.369l.329.563zm.63-.616c.15-.259.21-.579.21-.933h-.652c0 .289-.05.482-.122.606l.564.327zm.21-.933v-.392h-.652v.392h.652zm-.326-.718h-1.87v.651h1.87v-.651zm-1.478-4.116c.455 0 .872.057 1.25.168l.184-.626c-.445-.13-.924-.194-1.434-.194v.652zm1.25.168c.38.11.692.269.946.47l.405-.51c-.33-.262-.72-.455-1.167-.586l-.183.626zm.956.478c.26.19.456.426.593.709l.587-.284c-.184-.381-.45-.699-.795-.951l-.385.526zm.599.72c.142.268.218.586.218.963h.652c0-.467-.095-.893-.294-1.269l-.576.306zm.218.963v4.904h.652v-4.904h-.652zm0 4.904c0 .162-.051.237-.126.287l.361.542c.287-.191.417-.489.417-.829h-.652zm-.123.284c-.113.074-.247.114-.41.114v.652c.278 0 .536-.071.765-.218l-.355-.548zm-.41.114c-.165 0-.307-.04-.434-.118l-.34.556c.234.143.495.214.773.214v-.652zm-.416-.106c-.067-.047-.119-.123-.119-.292h-.652c0 .333.12.63.395.824l.376-.532zm-.119-.292v-.393h-.652v.393h.652zm-.326-.719h-.015v.652h.015v-.652zm-.31.188c-.06.127-.147.242-.265.345l.427.492c.183-.158.327-.345.428-.56l-.59-.277zm-.265.345c-.129.111-.288.218-.481.319l.302.578c.23-.12.432-.255.606-.405l-.427-.492zm-.476.317c-.174.087-.38.159-.621.215l.146.635c.282-.065.538-.153.767-.267l-.292-.583zm-.621.215c-.238.055-.476.082-.712.082v.652c.287 0 .573-.033.858-.099l-.146-.635zm-.712.082c-.86 0-1.473-.196-1.888-.543l-.418.5c.572.479 1.355.695 2.306.695v-.652zm-1.885-.54c-.397-.339-.61-.824-.61-1.503h-.652c0 .83.27 1.512.838 1.998l.424-.495zm-.61-1.503v-.241h-.652v.241h.652zm0-.241c0-.31.045-.59.133-.844l-.616-.213c-.114.33-.169.683-.169 1.057h.652zm.13-.835c.09-.24.235-.448.438-.625l-.43-.49c-.28.245-.488.541-.618.884l.61.231zm.438-.625c.21-.185.488-.336.846-.446l-.191-.623c-.427.131-.792.322-1.085.579l.43.49zm.844-.446c.362-.108.826-.167 1.4-.167v-.652c-.613 0-1.145.062-1.587.195l.187.624zm1.4-.167h1.901v-.652h-1.9v.652zm2.227-.326v-.211h-.652v.211h.652zm0-.211c0-.554-.129-1.031-.468-1.342l-.44.481c.144.132.256.388.256.861h.652zm-.457-1.332c-.32-.319-.796-.443-1.347-.443v.652c.474 0 .742.109.886.252l.46-.461zm-1.347-.443c-.745 0-1.447.199-2.1.59l.336.559c.555-.333 1.14-.497 1.764-.497v-.652zm-2.1.59c-.137.083-.25.095-.356.069l-.158.632c.296.074.585.017.85-.142l-.335-.559zm-.337.074c-.102-.032-.2-.104-.286-.249l-.56.336c.155.257.37.447.65.535l.196-.622zm-.284-.244c-.08-.138-.106-.266-.093-.393l-.649-.065c-.027.276.037.54.178.784l.564-.326zm-.095-.379c.015-.106.069-.2.202-.286l-.355-.547c-.27.175-.447.424-.492.74l.645.093zm.205-.288c.33-.221.722-.399 1.178-.532l-.182-.626c-.51.149-.964.353-1.357.615l.361.543zm1.182-.533c.461-.141.942-.212 1.444-.212v-.652c-.565 0-1.11.08-1.635.241l.191.623zm12.114-.07l.16-.285-.004-.002-.156.287zm.468.498l.311-.099-.31.099zm-.075.633l-.294-.14v.001l.294.139zm-.392.392l.108.308.008-.003.008-.003-.124-.302zm-.589-.06l-.14.294.005.003.135-.297zm-.77-.256l-.07.318h.002l.069-.318zm-2.263.965l-.309.103.004.012.305-.115zm.197.227l-.187.267.015.01.016.009.156-.286zm.467.181l-.093.312.007.002.007.002.08-.316zm.83.181l-.064.319.064-.319zm1.494.407l-.117.304.007.003.11-.307zm.935.513l.214-.246-.214.246zm.483.724l-.31.1v.003l.31-.103zm-.106 1.992l-.285-.158-.004.008.29.15zm-.663.769l.195.261.002-.001-.197-.26zm-1.041.498l-.092-.313-.002.001.094.312zm-3.003 0l.076-.317-.076.317zm-1.328-.498l.158-.285-.006-.004-.151.289zm-.377-.483l-.32.059v.002l.32-.061zm.09-.633l-.288-.152-.003.006.292.146zm.453-.423l-.112-.306.112.306zm.619.061l.153-.288-.007-.004-.146.292zm1.041.407l-.085.315h.002l.083-.315zm2.218-.076l.195.261-.195-.261zm.256-.92l-.309.103.31-.103zm-.226-.241l-.164.281.164-.281zm-.528-.196l.082-.316-.082.316zm-.935-.212l.065-.319-.005-.001-.06.32zm-1.343-.362l-.121.303.003.001.118-.304zm-.86-.513l-.225.236.006.006.219-.242zm-.483-.724l-.31.1.002.007.002.006.306-.113zm.06-1.886l.294.142.002-.005-.296-.137zm.589-.739l-.2-.257-.005.003.205.254zm1.01-.498l.094.312.007-.002-.1-.31zm1.419.13c.967 0 1.69.152 2.198.428l.311-.573c-.64-.348-1.485-.507-2.51-.507v.652zm2.194.426c.21.118.29.228.316.312l.622-.197c-.094-.299-.327-.52-.62-.684l-.318.569zm.316.312c.03.092.027.216-.058.395l.588.281c.136-.284.184-.582.092-.873l-.622.197zm-.059.396c-.061.129-.136.195-.222.23l.249.603c.256-.106.442-.301.562-.554l-.589-.279zm-.206.224c-.068.024-.174.028-.345-.05l-.27.594c.271.123.558.168.832.071l-.217-.615zm-.34-.047c-.256-.123-.537-.216-.841-.281l-.137.637c.26.056.492.134.697.232l.282-.588zm-.839-.281c-.292-.065-.577-.098-.855-.098v.652c.225 0 .463.027.714.083l.141-.637zm-.855-.098c-.577 0-1.06.067-1.367.262l.35.55c.136-.086.448-.16 1.017-.16v-.652zm-1.367.262c-.276.176-.483.431-.483.773h.652c0-.04.015-.117.181-.223l-.35-.55zm-.483.773v.03h.652v-.03h-.652zm0 .03c0 .147.019.289.062.42l.619-.206c-.017-.05-.029-.119-.029-.214h-.652zm.066.432c.062.163.182.286.315.379l.374-.535c-.07-.048-.08-.076-.078-.073l-.61.229zm.346.398c.139.076.32.144.53.207l.187-.625c-.192-.057-.323-.11-.405-.155l-.312.573zm.544.211c.209.052.491.113.845.184l.128-.639c-.35-.07-.62-.129-.815-.178l-.158.633zm.845.184c.593.119 1.072.25 1.44.392l.235-.608c-.416-.16-.933-.3-1.547-.423l-.128.639zm1.448.395c.367.132.64.285.831.452l.428-.492c-.27-.235-.622-.424-1.04-.574l-.22.614zm.831.452c.189.164.315.355.387.578l.62-.2c-.11-.34-.304-.631-.579-.87l-.428.492zm.388.581c.076.23.119.52.119.878h.652c0-.406-.048-.77-.153-1.084l-.618.206zm.119.878v.06h.652v-.06h-.652zm0 .06c0 .289-.067.551-.201.793l.57.315c.19-.341.283-.712.283-1.108h-.652zm-.205.801c-.126.244-.314.464-.571.659l.394.52c.325-.247.58-.54.756-.88l-.58-.299zm-.57.658c-.244.184-.554.334-.937.446l.183.626c.442-.13.826-.311 1.145-.55l-.391-.522zm-.94.447c-.366.11-.786.167-1.263.167v.652c.528 0 1.013-.063 1.451-.195l-.187-.624zm-1.263.167c-.572 0-1.094-.058-1.569-.172l-.152.634c.531.127 1.105.19 1.72.19v-.652zm-1.569-.172c-.48-.115-.893-.271-1.246-.466l-.315.57c.412.228.883.404 1.41.53l.151-.634zm-1.252-.47c-.134-.07-.19-.153-.208-.255l-.64.122c.06.321.257.56.545.711l.303-.578zm-.208-.252c-.028-.152-.008-.291.061-.43l-.583-.291c-.132.264-.172.547-.12.838l.642-.117zm.059-.424c.08-.153.173-.23.276-.268l-.225-.612c-.28.103-.488.308-.629.577l.578.303zm.276-.268c.09-.033.2-.034.36.046l.292-.583c-.283-.142-.584-.183-.877-.075l.225.612zm.353.042c.345.183.715.328 1.109.435l.17-.63c-.35-.094-.674-.221-.973-.38l-.306.575zm1.111.435c.408.107.813.162 1.215.162v-.652c-.343 0-.692-.046-1.049-.14l-.166.63zm1.215.162c.53 0 .989-.072 1.281-.292l-.39-.521c-.11.082-.376.161-.891.161v.652zm1.281-.292c.275-.206.433-.49.433-.834h-.652c0 .119-.044.217-.172.313l.391.521zm.433-.834v-.03h-.652v.03h.652zm0-.03c0-.147-.019-.289-.062-.42l-.619.206c.017.05.029.119.029.214h.652zm-.062-.42c-.065-.194-.214-.328-.372-.42l-.328.563c.083.049.085.076.081.063l.619-.206zm-.372-.42c-.158-.092-.367-.166-.61-.23l-.164.631c.22.057.363.114.446.162l.328-.563zm-.61-.23c-.24-.062-.557-.134-.952-.215l-.13.639c.389.08.694.149.918.207l.164-.631zm-.957-.216c-.52-.098-.947-.214-1.285-.345l-.236.607c.386.15.855.276 1.4.379l.121-.641zm-1.282-.344c-.325-.13-.576-.283-.762-.452l-.438.483c.256.233.579.422.958.574l.242-.605zm-.756-.446c-.188-.179-.32-.38-.402-.602l-.612.226c.12.321.309.604.564.847l.45-.471zm-.398-.589c-.078-.243-.12-.53-.12-.865h-.652c0 .388.049.745.152 1.065l.62-.2zm-.12-.865v-.061h-.652v.061h.652zm0-.061c0-.253.055-.491.164-.718l-.587-.283c-.152.316-.229.651-.229 1.001h.652zm.166-.723c.108-.232.272-.44.498-.622l-.41-.508c-.297.24-.526.525-.68.856l.592.274zm.493-.619c.234-.181.532-.331.904-.443l-.187-.624c-.433.13-.808.312-1.117.553l.4.514zm.911-.445c.363-.118.8-.18 1.318-.18v-.652c-.568 0-1.077.068-1.52.212l.202.62zm7.756-3.312l-.191.264.008.006.009.005.174-.275zm.286 3.937h-.326v.326h.326v-.326zm.03 0v.326h.18l.096-.151-.276-.175zm.453-.497l.2.257.009-.007-.209-.25zm.588-.363l-.123-.301-.005.002.128.299zm.694-.196l.054.322.013-.003-.067-.319zm2.822.709l-.23.231.002.002.228-.233zm.498 7.303l-.184-.269.184.269zm-1.328 0l-.184.269.006.004.178-.273zm-.407-5.492l-.31.103.002.004.308-.107zm-.332-.558l-.231.23.009.009.222-.239zm-.513-.287l-.098.311.009.003.01.002.079-.316zm-1.222 0l-.09-.313.09.313zm-.589.317l-.209-.251-.006.006.215.245zm-.437.603l-.294-.141-.005.01.299.131zm-.453 5.417l.184.269-.184-.269zm-1.328 0l-.184.269.007.004.177-.273zm-.015-10.893l.181.271.003-.002-.184-.269zm.634.129c.165 0 .304.046.428.135l.381-.529c-.238-.172-.512-.257-.809-.257v.651zm.445.146c.08.051.134.128.134.298h.652c0-.353-.136-.658-.438-.849l-.348.551zm.134.298v3.364h.652v-3.364h-.652zm.326 3.69h.03v-.651h-.03v.651zm.306-.151c.1-.159.225-.297.377-.415l-.4-.515c-.21.164-.387.358-.528.581l.551.349zm.386-.422c.157-.131.326-.235.508-.313l-.257-.599c-.24.103-.464.241-.669.411l.418.501zm.503-.311c.198-.081.406-.14.624-.176l-.107-.643c-.265.044-.52.116-.764.216l.247.603zm.637-.179c.22-.046.435-.068.642-.068v-.652c-.255 0-.513.028-.775.082l.133.638zm.642-.068c.817 0 1.432.239 1.882.689l.461-.461c-.596-.596-1.39-.88-2.343-.88v.652zm1.884.691c.44.431.687 1.098.687 2.061h.652c0-1.069-.276-1.931-.882-2.526l-.456.465zm.687 2.061v4.405h.652v-4.405h-.652zm0 4.405c0 .186-.058.276-.144.335l.368.538c.296-.203.428-.515.428-.873h-.652zm-.144.335c-.133.09-.289.139-.48.139v.652c.311 0 .598-.082.848-.253l-.368-.538zm-.48.139c-.179 0-.338-.047-.486-.144l-.356.547c.255.165.538.249.842.249v-.652zm-.48-.139c-.086-.059-.145-.149-.145-.335h-.652c0 .358.133.67.429.873l.368-.538zm-.145-.335v-3.998h-.652v3.998h.652zm0-3.998c0-.383-.042-.719-.139-.997l-.615.214c.064.185.102.442.102.783h.652zm-.137-.993c-.093-.277-.228-.516-.42-.694l-.443.478c.09.083.176.216.244.422l.619-.206zm-.41-.686c-.185-.184-.41-.308-.665-.372l-.158.632c.146.037.264.104.361.201l.461-.461zm-.646-.367c-.226-.071-.466-.105-.717-.105v.651c.191 0 .364.027.52.076l.197-.622zm-.717-.105c-.225 0-.457.035-.693.103l.18.626c.186-.053.356-.078.513-.078v-.651zm-.693.103c-.258.073-.494.202-.707.379l.417.501c.149-.124.305-.207.47-.254l-.18-.626zm-.714.385c-.21.186-.38.425-.516.707l.587.282c.107-.22.228-.383.36-.5l-.431-.489zm-.52.717c-.135.305-.194.665-.194 1.067h.652c0-.342.05-.606.138-.804l-.597-.263zm-.194 1.067v3.877h.652v-3.877H45.5zm0 3.877c0 .186-.059.276-.145.335l.368.538c.296-.203.429-.515.429-.873H45.5zm-.145.335c-.132.09-.288.139-.48.139v.652c.312 0 .598-.082.848-.253l-.368-.538zm-.48.139c-.178 0-.338-.047-.486-.144l-.355.547c.254.165.537.249.841.249v-.652zm-.48-.139c-.086-.059-.144-.149-.144-.335h-.652c0 .358.132.67.428.873l.368-.538zm-.144-.335v-9.716h-.652v9.716h.652zm0-9.716c0-.178.055-.255.126-.302l-.361-.543c-.291.194-.417.5-.417.845h.652zm.13-.304c.136-.094.283-.14.449-.14v-.651c-.297 0-.572.085-.818.253l.368.538zm14.3-.269l.185-.269-.184.269zm.287 3.802h-.326v1.053l.595-.869-.269-.184zm.483-.483l-.178-.273-.006.004.184.269zm.603-.302l.108.308.009-.003-.117-.305zm.62-.166l-.047-.322h-.002l.048.322zm3.017.966l-.256.202.001.002.255-.204zm.558 5.069l.31.101v-.002l-.31-.099zm-.68 1.237l.246.215-.245-.215zm-1.055.755l.12.302.005-.001-.125-.301zm-2.746-.061l-.155.287.155-.287zm-.845-.784l.28-.167-.095-.159h-.185v.326zm-.045 0v-.326h-.326v.326h.326zm-.287.875l.18.271.004-.002-.184-.269zm-1.252 0l-.191.264.008.006.009.005.174-.275zm.015-10.908l-.178-.274-.006.005.184.269zm2.067 4.994l-.243-.217.243.217zm-.332 3.424l-.292.146.292-.146zm.407.544l.224-.238-.224.238zm.619.392l-.126.301.126-.301zm2.097-4.315l-.273.178.002.003.271-.181zm-4.194-4.91c.191 0 .347.049.48.14l.368-.538c-.25-.171-.537-.253-.848-.253v.651zm.48.14c.086.059.144.149.144.334h.652c0-.358-.132-.67-.428-.872l-.368.538zm.144.334v3.199h.652v-3.199h-.652zm.595 3.383c.108-.158.24-.29.398-.398l-.368-.538c-.225.153-.414.343-.568.568l.538.368zm.392-.394c.182-.118.36-.206.533-.267l-.215-.616c-.229.081-.453.193-.674.337l.356.546zm.542-.27c.191-.073.375-.122.55-.148l-.096-.645c-.227.034-.456.096-.687.184l.233.609zm.548-.148c.2-.029.375-.042.527-.042v-.652c-.19 0-.396.017-.619.049l.092.645zm.527-.042c1.027 0 1.734.312 2.189.887l.511-.404c-.611-.773-1.534-1.135-2.7-1.135v.652zm2.19.889c.468.582.728 1.477.728 2.738h.652c0-1.335-.273-2.401-.871-3.146l-.509.408zm.728 2.738v.392h.652v-.392h-.652zm0 .392c0 .628-.077 1.172-.226 1.636l.621.198c.174-.541.257-1.154.257-1.834h-.652zm-.225 1.634c-.15.458-.356.83-.614 1.123l.49.43c.325-.37.571-.823.744-1.351l-.62-.202zm-.614 1.123c-.258.294-.57.516-.936.669l.25.602c.457-.19.85-.471 1.176-.841l-.49-.43zm-.932.667c-.358.143-.77.218-1.237.218v.652c.538 0 1.032-.086 1.479-.265l-.242-.605zm-1.237.218c-.515 0-.921-.094-1.233-.262l-.31.573c.432.234.952.341 1.543.341v-.652zm-1.233-.262c-.327-.177-.563-.4-.72-.665l-.56.333c.225.379.553.68.97.905l.31-.573zm-1-.824h-.045v.652h.045v-.652zm-.371.326v.286h.652v-.286h-.652zm0 .286c0 .171-.055.258-.145.32l.368.538c.293-.2.429-.505.429-.858h-.652zm-.142.318c-.124.082-.266.126-.438.126v.652c.292 0 .562-.077.8-.236l-.362-.542zm-.438.126c-.17 0-.321-.044-.46-.131l-.347.551c.244.155.516.232.807.232v-.652zm-.442-.119c-.081-.059-.137-.147-.137-.325h-.652c0 .346.126.65.407.853l.382-.528zm-.137-.325v-9.716h-.652v9.716h.652zm0-9.716c0-.185.059-.275.145-.334l-.368-.538c-.296.202-.429.514-.429.872h.652zm.139-.33c.148-.096.307-.144.486-.144v-.651c-.304 0-.587.083-.842.248l.355.547zm3.337 3.836c-.7 0-1.282.208-1.691.668l.486.434c.254-.285.638-.45 1.205-.45v-.652zm-1.692.668c-.384.432-.565.982-.565 1.62h.652c0-.509.141-.895.4-1.187l-.487-.433zm-.565 1.62v1.403h.652v-1.403h-.652zm0 1.403c0 .265.064.521.185.764l.584-.291c-.08-.159-.117-.316-.117-.473h-.652zm.185.764c.119.237.278.449.476.635l.447-.475c-.145-.136-.257-.286-.34-.451l-.583.291zm.476.635c.202.191.443.342.716.456l.251-.602c-.209-.087-.381-.198-.52-.329l-.447.475zm.716.456c.286.119.596.176.925.176v-.652c-.253 0-.476-.044-.674-.126l-.25.602zm.925.176c.651 0 1.182-.238 1.534-.738.338-.48.482-1.159.482-1.987h-.652c0 .771-.137 1.291-.363 1.611-.21.299-.525.462-1 .462v.652zm2.016-2.725v-.302h-.652v.302h.652zm0-.302c0-.81-.133-1.475-.447-1.946l-.542.362c.209.313.337.825.337 1.584h.652zm-.445-1.943c-.34-.523-.911-.752-1.616-.752v.652c.563 0 .887.175 1.07.455l.546-.355zm10.157-1.044l-.23.232.003.002.227-.234zm0 6.306l.227.234.001-.002-.228-.232zm-5.734 0l-.228.232.001.002.227-.234zm0-6.306l.227.234.002-.002-.229-.232zm1.358 1.207l-.246-.213-.004.003.25.21zm0 3.877l-.25.21.004.003.246-.213zm3.003 0l-.247-.213-.003.004.25.209zm0-3.877l-.25.209.003.004.247-.213zm-1.494-1.892c1.166 0 2.03.319 2.638.917l.457-.464c-.76-.75-1.807-1.105-3.095-1.105v.652zm2.64.919c.6.582.927 1.47.927 2.723h.651c0-1.362-.356-2.446-1.124-3.191l-.454.468zm.927 2.723v.377h.651v-.377h-.651zm0 .377c0 1.253-.327 2.147-.93 2.74l.458.464c.766-.754 1.123-1.842 1.123-3.204h-.651zm-.927 2.738c-.608.59-1.472.904-2.64.904v.652c1.286 0 2.333-.349 3.094-1.088l-.454-.468zm-2.64.904c-1.168 0-2.032-.314-2.64-.904l-.454.468c.761.739 1.808 1.088 3.094 1.088v-.652zm-2.638-.902c-.602-.593-.929-1.487-.929-2.74h-.651c0 1.362.357 2.45 1.123 3.204l.457-.464zm-.929-2.74v-.377h-.651v.377h.651zm0-.377c0-1.253.327-2.141.927-2.723l-.454-.468c-.767.745-1.124 1.829-1.124 3.191h.651zm.93-2.725c.606-.598 1.47-.917 2.637-.917v-.652c-1.288 0-2.335.355-3.095 1.105l.457.464zm2.637.091c-.74 0-1.35.202-1.755.671l.493.426c.238-.276.634-.446 1.262-.446v-.651zm-1.759.674c-.384.46-.543 1.147-.543 1.99h.651c0-.786.153-1.286.392-1.571l-.5-.419zm-.543 1.99v.317h.651v-.317h-.651zm0 .317c0 .843.159 1.53.543 1.99l.5-.419c-.239-.285-.392-.785-.392-1.571h-.651zm.547 1.993c.405.469 1.015.671 1.755.671v-.652c-.628 0-1.024-.169-1.262-.445l-.493.426zm1.755.671c.74 0 1.347-.202 1.743-.674l-.5-.419c-.227.272-.614.441-1.243.441v.652zm1.74-.671c.398-.459.562-1.148.562-1.993h-.651c0 .784-.158 1.282-.404 1.567l.493.426zm.562-1.993v-.317h-.651v.317h.651zm0-.317c0-.845-.164-1.534-.562-1.993l-.493.426c.246.285.403.783.403 1.567h.652zm-.558-1.99c-.397-.472-1.005-.674-1.744-.674v.651c.629 0 1.016.17 1.244.442l.5-.419zm9.643-1.721l.196-.261-.002-.002-.194.263zm.377.558l-.317.072.317-.072zm-.18.664l.256.201.001-.002-.258-.199zm-2.037 2.595l-.257-.202-.16.205.163.202.254-.205zm2.172 2.685l-.253.205.253-.205zm.211.664l-.323-.042-.001.013.324.029zm-.377.619l-.207-.252-.003.002.21.25zm-.679.211l-.026.325h.001l.025-.325zm-.633-.377l.262-.194-.002-.002-.26.196zm-1.871-2.49l.26-.196-.26-.345-.26.345.26.196zm-1.871 2.475l-.26-.197v.001l.26.196zm-.634.377l-.013-.326h-.008l-.007.001.028.325zm-.633-.181l-.204.254.01.008.194-.262zm-.378-.558l-.318.072.001.003.317-.075zm.181-.664l-.254-.204-.004.004.258.2zm2.218-2.761l.254.204.163-.203-.161-.203-.256.202zm-1.991-2.52l.255-.202-.002-.003-.253.205zm-.227-.649l-.323-.042-.001.013.324.029zm.393-.633l.207.251.003-.002-.21-.249zm.663-.212l-.025.325.026-.325zm.65.378l.263-.192-.002-.002-.262.194zm1.69 2.323l-.264.192.262.361.264-.36-.263-.193zm1.689-2.308l.263.192.003-.004-.266-.188zm.618-.377l.014.325.013-.001-.027-.324zm.454.441c.146.11.223.232.255.37l.635-.144c-.07-.305-.243-.555-.5-.747l-.39.521zm.255.37c.023.105.005.228-.122.392l.516.399c.216-.279.318-.597.241-.935l-.635.144zm-.12.39l-2.037 2.595.513.403 2.037-2.595-.513-.403zm-2.034 3.002l2.173 2.685.507-.41-2.173-2.685-.507.41zm2.173 2.685c.125.155.158.289.141.417l.646.084c.044-.334-.064-.643-.28-.911l-.507.41zm.14.43c-.01.107-.072.241-.26.396l.415.503c.274-.227.463-.506.494-.84l-.65-.059zm-.263.398c-.122.103-.263.15-.444.136l-.05.65c.342.026.654-.068.914-.287l-.42-.499zm-.443.136c-.144-.012-.274-.079-.397-.246l-.525.387c.219.296.511.48.87.509l.052-.65zm-.399-.248l-1.87-2.49-.522.392 1.871 2.49.521-.392zm-2.391-2.49l-1.871 2.474.52.393 1.87-2.474-.52-.393zm-1.872 2.475c-.138.184-.267.242-.386.247l.027.651c.363-.015.657-.208.88-.507l-.52-.391zm-.401.248c-.15.013-.283-.024-.412-.119l-.387.525c.254.187.543.271.855.244l-.056-.65zm-.402-.111c-.155-.124-.233-.251-.263-.379l-.635.151c.07.294.244.54.49.737l.408-.509zm-.263-.376c-.024-.104-.005-.228.121-.392l-.516-.399c-.215.279-.317.598-.24.936l.635-.145zm.117-.387l2.218-2.761-.508-.408-2.218 2.761.508.408zm2.22-3.167l-1.992-2.52-.511.404 1.991 2.52.512-.404zm-1.994-2.523c-.13-.161-.166-.295-.155-.414l-.65-.059c-.029.324.087.622.298.883l.507-.41zm-.156-.402c.016-.128.09-.27.276-.424l-.415-.503c-.276.228-.464.509-.508.843l.647.084zm.279-.426c.124-.105.26-.149.428-.136l.052-.649c-.337-.027-.643.07-.9.286l.42.499zm.428-.136c.158.013.291.083.412.246l.524-.387c-.22-.299-.52-.48-.886-.509l-.05.65zm.41.244l1.69 2.324.528-.384-1.69-2.323-.527.383zm2.217 2.325l1.69-2.309-.526-.385-1.69 2.309.526.385zm1.693-2.313c.127-.179.248-.235.366-.24l-.027-.651c-.365.015-.656.211-.871.514l.532.377zm.38-.241c.164-.013.302.026.428.119l.387-.525c-.256-.188-.551-.27-.87-.243l.054.649z"/>
</svg>
