<svg xmlns="http://www.w3.org/2000/svg" width="14" height="13" fill="none" viewBox="0 0 14 13">
    <path fill="#FF8200" d="M6.997.276c.182-.368.707-.368.889 0L9.51 3.568c.073.147.212.248.374.271l3.633.528c.406.06.568.559.274.845l-2.629 2.563c-.116.114-.17.278-.142.439l.62 3.618c.07.405-.355.713-.719.522l-3.249-1.708c-.144-.076-.317-.076-.461 0l-3.25 1.708c-.363.191-.788-.117-.719-.522l.621-3.618c.028-.161-.026-.325-.143-.439L1.092 5.212c-.295-.286-.132-.786.274-.845L5 3.84c.162-.023.301-.124.373-.27L6.997.275z"/>
</svg>
