<svg xmlns="http://www.w3.org/2000/svg" width="118" height="175" fill="none" viewBox="0 0 118 175">
    <path fill="#fff" stroke="#000" stroke-linecap="round" stroke-linejoin="round" stroke-miterlimit="10" stroke-width="2" d="M97.175 93.9H1.01V174h96.165V93.9zM83.537 67H14.638L1 81.7h96.165L83.537 67z"/>
    <path fill="#fff" stroke="#000" stroke-linecap="round" stroke-linejoin="round" stroke-miterlimit="10" stroke-width="2" d="M97.175 81.71H1.01v12.2h96.165v-12.2z"/>
    <path stroke="#000" stroke-linecap="round" stroke-linejoin="round" stroke-miterlimit="10" stroke-width="2" d="M23.186 74H74.99"/>
    <path fill="#000" d="M15.455 106h42.837c.827 0 1.495.67 1.495 1.5s-.668 1.5-1.495 1.5H15.455c-.827 0-1.495-.67-1.495-1.5 0-.82.678-1.5 1.495-1.5z"/>
    <path fill="#fff" stroke="#000" stroke-linecap="round" stroke-linejoin="round" stroke-miterlimit="10" stroke-width="2" d="M55.334 108H18.952l-.996 11.88h36.382l.996-11.88z"/>
    <path fill="#000" d="M18.484 146.63c-.478 0-.817-.09-1.006-.27-.18-.18-.27-.51-.27-.97v-2.42c0-.47.09-.79.27-.97.189-.18.528-.27 1.006-.27h7.362c.23 0 .398.08.498.24.11.15.17.33.17.54 0 .22-.06.41-.17.57-.1.15-.259.22-.498.22H19.48c-.229 0-.349.11-.349.35v1.07c0 .23.12.34.35.34h6.514c.23 0 .389.08.498.24.11.15.16.33.16.54 0 .22-.05.41-.16.57-.1.15-.258.23-.498.23h-7.511v-.01zm-2.262 2.83c-.229 0-.398-.07-.508-.22-.1-.16-.15-.35-.15-.57 0-.22.05-.4.15-.55.11-.16.28-.24.508-.24h4.723v-2.01h1.882v2.01h4.722c.23 0 .399.08.499.24.11.15.169.34.169.55 0 .22-.06.41-.17.57-.099.15-.258.22-.498.22H16.223zm.957 3.38c0-.46.1-.85.309-1.18.219-.34.538-.61.936-.82.409-.22.907-.38 1.485-.48.577-.11 1.235-.16 1.972-.16.727 0 1.385.05 1.953.16.587.1 1.085.26 1.494.48.408.21.717.48.926.82.22.33.33.73.33 1.18 0 .46-.11.86-.33 1.18-.209.34-.518.62-.926.83-.409.22-.907.38-1.494.48-.578.11-1.226.16-1.953.16-.737 0-1.395-.05-1.973-.16-.577-.1-1.066-.26-1.484-.48-.408-.21-.717-.48-.936-.83-.2-.33-.31-.72-.31-1.18zm7.521 0c0-.36-.219-.64-.657-.84-.429-.2-1.146-.3-2.152-.3-1.006 0-1.733.1-2.172.3-.428.2-.637.48-.637.84s.209.64.637.84c.438.2 1.166.3 2.172.3 1.006 0 1.723-.1 2.152-.3.438-.2.657-.48.657-.84zm9.733-9.06v.72c0 .46.08.85.22 1.18.149.32.388.62.707.9.329.28.637.53.916.75.28.22.518.41.738.57.199.16.308.35.318.56.01.21-.06.41-.189.6-.11.16-.279.28-.508.36-.22.08-.438.04-.657-.12-.17-.12-.38-.28-.638-.48-.26-.21-.538-.44-.817-.69-.349-.29-.598-.52-.737-.67-.13-.16-.22-.32-.26-.47h-.01c-.039.17-.139.35-.278.54-.15.18-.399.42-.747.71-.29.25-.578.48-.857.71-.279.22-.558.43-.837.63-.219.16-.438.2-.677.12-.22-.08-.389-.2-.498-.36-.13-.18-.2-.39-.21-.62 0-.23.12-.43.35-.6.318-.23.617-.46.916-.69.299-.24.607-.5.936-.78.319-.28.558-.58.707-.9.15-.33.22-.72.22-1.18v-.78h-2.202c-.23 0-.399-.08-.508-.24-.11-.16-.17-.35-.17-.57 0-.23.06-.42.17-.58.11-.16.279-.24.508-.24h6.157c.229 0 .398.08.508.24.11.16.169.35.169.58 0 .22-.06.41-.17.57-.109.16-.278.24-.508.24h-2.062v-.01zm4.374 2.68h-1.754c-.229 0-.398-.08-.508-.24-.11-.16-.169-.35-.169-.57 0-.23.06-.42.17-.58.109-.16.278-.24.507-.24h1.754v-2.76c0-.28.1-.48.279-.61.199-.13.428-.2.677-.2.24 0 .449.07.638.2.199.13.299.33.299.61v8.61c0 .28-.1.48-.3.61-.188.13-.398.2-.637.2-.249 0-.478-.07-.677-.2-.19-.13-.28-.33-.28-.61v-4.22zm-5.888 8.6c-.478 0-.817-.09-.996-.27-.18-.18-.27-.51-.27-.97v-2.84c0-.28.1-.48.29-.61.2-.13.428-.2.687-.2.25 0 .468.07.658.2.199.13.299.34.299.61v2.1c0 .23.11.34.348.34h6.436c.229 0 .398.08.508.24.11.16.17.36.17.59 0 .22-.05.41-.17.57-.11.16-.279.24-.508.24h-7.452zm14.246-10.64c1.006 0 1.793.17 2.361.53.578.35.867.85.867 1.51s-.29 1.17-.867 1.52c-.568.35-1.355.53-2.36.53-1.007 0-1.794-.17-2.372-.53-.568-.35-.857-.85-.857-1.52 0-.66.29-1.16.857-1.51.568-.35 1.365-.53 2.371-.53zm-3.437-.51c-.219 0-.378-.08-.478-.22-.1-.15-.15-.33-.15-.53 0-.21.05-.39.15-.54.1-.15.259-.23.478-.23h2.48v-.58c0-.26.1-.46.29-.59.189-.13.418-.2.667-.2.25 0 .468.07.658.2.199.13.298.33.298.59v.58h2.332c.219 0 .378.08.478.23.1.15.15.33.15.54 0 .2-.05.38-.15.53-.1.15-.26.22-.478.22h-6.725zm3.437 3.21c1.006 0 1.514-.22 1.514-.66 0-.44-.508-.66-1.514-.66s-1.504.22-1.504.66c0 .44.498.66 1.504.66zm6.665-1.5h1.205c.24 0 .419.08.528.24.11.16.16.35.16.59 0 .23-.05.43-.16.6-.11.16-.289.24-.528.24H53.83v3.86c0 .27-.1.47-.29.6-.188.13-.407.2-.657.2-.249 0-.468-.07-.657-.2-.19-.13-.289-.33-.289-.6v-9.09c0-.27.1-.47.289-.6.19-.13.408-.2.657-.2.25 0 .469.07.658.2.19.13.289.33.289.6v3.56zm-3.019 5.12c-.478.04-1.006.08-1.584.1-.577.03-1.185.06-1.823.09-.627.02-1.285.03-1.972.04-.678.01-1.355.02-2.043.02-.229 0-.398-.08-.508-.22-.1-.16-.15-.34-.15-.54s.05-.38.15-.52c.11-.16.28-.24.508-.24h1.415c.478 0 .956 0 1.435-.01v-1.71h1.853v1.66l1.295-.06c.428-.03.856-.07 1.285-.1.229-.02.398.03.508.16.12.13.19.3.21.51.019.2-.02.39-.11.55-.08.16-.24.25-.469.27zm-4.871 4.35c-.478 0-.817-.09-1.006-.27-.18-.18-.27-.51-.27-.98v-1.57c0-.28.1-.49.28-.62.199-.13.418-.19.657-.19.24 0 .458.06.648.19.199.13.298.34.298.62v.93c0 .23.11.34.35.34h6.634c.22 0 .379.08.478.23.1.16.15.34.15.55 0 .2-.05.38-.15.52-.1.16-.259.24-.478.24H45.94v.01zm15.69-11.31v.72c0 .46.08.85.23 1.18.149.32.388.62.707.9.328.28.627.53.906.75.28.22.518.41.737.57.2.16.3.35.32.56.01.21-.06.41-.2.6-.11.16-.279.28-.508.36-.22.08-.438.04-.658-.12-.169-.12-.378-.28-.637-.48-.26-.21-.538-.44-.827-.69-.349-.29-.598-.52-.727-.67-.13-.16-.21-.32-.26-.47h-.01c-.04.17-.139.35-.288.54-.15.18-.399.42-.747.71-.29.25-.578.48-.857.71-.279.22-.558.43-.837.63-.22.16-.448.2-.677.12-.22-.08-.379-.2-.488-.36-.13-.18-.2-.39-.21-.62 0-.23.11-.43.349-.6.319-.23.618-.46.916-.69.3-.24.608-.5.937-.78.319-.28.558-.58.707-.9.15-.33.23-.72.23-1.18v-.78h-2.202c-.23 0-.399-.08-.508-.24-.11-.16-.17-.35-.17-.57 0-.23.05-.42.17-.58.11-.16.279-.24.508-.24h6.156c.23 0 .399.08.509.24.11.16.169.35.169.58 0 .22-.05.41-.17.57-.11.16-.279.24-.508.24H61.63v-.01zm4.384 2.68H64.26c-.229 0-.398-.08-.508-.24-.11-.16-.17-.35-.17-.57 0-.23.06-.42.17-.58.11-.16.28-.24.508-.24h1.754v-2.76c0-.28.1-.48.288-.61.2-.13.419-.2.668-.2.24 0 .448.07.638.2.199.13.298.33.298.61v8.61c0 .28-.1.48-.299.61-.189.13-.398.2-.637.2-.25 0-.478-.07-.668-.2-.189-.13-.288-.33-.288-.61v-4.22zm-5.888 8.6c-.478 0-.817-.09-1.006-.27-.18-.18-.27-.51-.27-.97v-2.84c0-.28.1-.48.28-.61.199-.13.428-.2.687-.2.25 0 .468.07.658.2.199.13.298.34.298.61v2.1c0 .23.11.34.35.34h6.435c.229 0 .398.08.508.24.11.16.17.36.17.59 0 .22-.05.41-.17.57-.11.16-.28.24-.508.24h-7.432zm21.19-7.58c.199.11.308.29.318.53.01.23-.04.43-.15.61-.109.19-.268.33-.487.4-.21.08-.419.07-.628-.04-.488-.27-.946-.53-1.385-.79-.428-.26-.846-.52-1.255-.78-.448-.29-.787-.56-1.016-.81-.22-.26-.349-.47-.388-.64h-.01c-.05.2-.19.43-.419.69-.22.25-.548.52-1.006.81-.409.26-.827.52-1.265.78-.429.26-.887.53-1.375.79-.21.11-.418.12-.628.05-.209-.08-.378-.22-.488-.42-.11-.19-.16-.4-.15-.64.01-.24.11-.42.32-.53.428-.24.856-.48 1.285-.73.428-.26.876-.54 1.325-.83.508-.33.876-.7 1.096-1.09.229-.4.348-.88.348-1.44v-.74c0-.29.1-.5.289-.63.2-.13.428-.19.687-.19.26 0 .479.07.668.19.2.13.299.34.299.63v.74c0 .56.11 1.04.328 1.44.23.4.598.76 1.106 1.09.459.29.897.57 1.335.83.389.24.817.48 1.246.72zm.627 4.04c.23 0 .399.08.508.24.11.16.17.35.17.57 0 .22-.06.41-.17.57-.11.16-.279.24-.508.24H70.646c-.23 0-.398-.08-.508-.24-.11-.16-.16-.35-.16-.57 0-.22.05-.41.16-.57.11-.16.279-.24.508-.24h4.692v-2c0-.28.1-.48.29-.61.198-.13.427-.2.677-.2.249 0 .468.07.657.2.2.13.299.34.299.61v2h4.682z"/>
    <path fill="#fff" d="M116.811 36.34l-12.075 5.84L87.781 6.84 99.855 1"/>
    <path stroke="#000" stroke-linecap="round" stroke-linejoin="round" stroke-miterlimit="10" stroke-width="2" d="M117 36.34l-12.075 5.84L87.97 6.84 100.044 1"/>
    <path fill="#FFB81C" stroke="#000" stroke-linecap="round" stroke-linejoin="round" stroke-miterlimit="10" stroke-width="2" d="M82.54 47.3L46.369 31.17 27.43 73.95h43.296L82.54 47.3z"/>
    <path stroke="#000" stroke-linecap="round" stroke-linejoin="round" stroke-miterlimit="10" stroke-width="2" d="M40.849 43.92L76.683 59.9"/>
    <path fill="#fff" stroke="#000" stroke-linecap="round" stroke-linejoin="round" stroke-miterlimit="10" stroke-width="2" d="M60.136 36.95c.11-.12.179-.23.288-.33 2.68-3.07 7.034-8.32 11.696-6.96 3.547 1.02 4.603 6.01 4.652 6.22l-15.62 7.04c-3.427 1.66-4.852 5.79-3.198 9.21 1.654 3.44 5.768 4.87 9.175 3.21 2.122-1.02 4.244-2.04 6.376-3.04 6.366-3.04 12.712-6.08 19.068-9.12 1.195-.59 10.271-5.34 10.271-5.34-3.617-6.9-5.679-12.67-10.71-22.35-.488-.94-.787-1.43-1.663-2.1-1.276-.96-3.338-1.58-4.912-1.81-7.97-1.16-19.008-2.28-24.537 5.37-2.829 3.91-5.38 8.01-8.209 11.92-.817 1.14-1.833 2.36-2.799 3.66l-.14.19 10.062 4.48.2-.25z"/>
</svg>
