<svg xmlns="http://www.w3.org/2000/svg" width="182" height="109" fill="none" viewBox="0 0 182 109">
    <path fill="#fff" stroke="#000" stroke-linecap="round" stroke-linejoin="round" stroke-miterlimit="10" stroke-width="2" d="M180.99 27.893H84.744V108h96.246V27.893zM167.351 1H98.394l-13.64 14.701H181L167.351 1z"/>
    <path fill="#fff" stroke="#000" stroke-linecap="round" stroke-linejoin="round" stroke-miterlimit="10" stroke-width="2" d="M180.99 15.701H84.744v12.201h96.246v-12.2z"/>
    <path stroke="#000" stroke-linecap="round" stroke-linejoin="round" stroke-miterlimit="10" stroke-width="2" d="M110.937 8h43.87"/>
    <path fill="#000" d="M99.21 40.004h42.875c.827 0 1.495.67 1.495 1.5s-.668 1.5-1.495 1.5H99.211c-.828 0-1.496-.67-1.496-1.5s.668-1.5 1.496-1.5z"/>
    <path fill="#fff" stroke="#000" stroke-linecap="round" stroke-linejoin="round" stroke-miterlimit="10" stroke-width="2" d="M139.113 42.004h-36.412l-.997 11.881h36.412l.997-11.881z"/>
    <path fill="#000" d="M102.232 80.627c-.478 0-.817-.09-1.007-.27-.179-.18-.269-.51-.269-.98v-2.41c0-.47.09-.8.269-.98.19-.18.529-.27 1.007-.27h7.379c.229 0 .398.08.488.24.11.15.17.33.17.54 0 .22-.06.41-.17.57-.1.15-.259.23-.488.23h-6.372c-.229 0-.349.12-.349.35v1.06c0 .23.12.35.349.35h6.521c.229 0 .399.08.499.24.109.15.159.33.159.54 0 .22-.05.41-.159.57-.1.15-.26.23-.499.23h-7.528v-.01zm-2.253 2.84c-.23 0-.399-.08-.509-.23-.1-.16-.15-.35-.15-.57 0-.22.05-.4.15-.55.11-.16.28-.24.509-.24h4.726v-2.01h1.884v2.01h4.726c.23 0 .399.08.499.24.11.15.16.33.16.55 0 .22-.05.41-.16.57-.1.15-.259.23-.499.23H99.979zm.957 3.371c0-.46.1-.86.309-1.18.219-.34.539-.61.947-.83.409-.22.898-.38 1.486-.48.578-.11 1.236-.17 1.974-.17.728 0 1.386.05 1.954.17.589.1 1.087.26 1.496.48.409.21.718.49.927.83.22.33.329.73.329 1.18 0 .45-.109.86-.329 1.18-.209.34-.518.61-.927.83-.409.22-.907.38-1.496.48-.578.11-1.226.17-1.954.17-.738 0-1.396-.05-1.974-.17-.578-.1-1.067-.26-1.486-.48-.408-.21-.728-.49-.947-.83-.209-.32-.309-.72-.309-1.18zm7.518 0c0-.36-.219-.64-.658-.84-.429-.2-1.147-.3-2.154-.3s-1.735.1-2.173.3c-.429.2-.639.48-.639.84s.21.64.639.84c.438.2 1.166.3 2.173.3 1.007 0 1.725-.1 2.154-.3.439-.2.658-.48.658-.84zm9.741-9.06v.72c0 .46.07.85.22 1.18.149.32.388.62.707.9.33.28.639.53.918.75.279.22.518.41.738.57.199.16.299.35.319.55.01.21-.06.41-.2.6-.109.16-.279.28-.508.36-.22.08-.439.04-.658-.12-.17-.12-.379-.28-.648-.48-.26-.21-.539-.44-.818-.69-.349-.29-.598-.52-.738-.68-.129-.16-.209-.32-.259-.46h-.01c-.04.17-.13.35-.279.54-.15.18-.399.42-.748.7-.289.25-.578.49-.857.71-.28.22-.559.43-.838.63-.219.16-.439.2-.678.12-.219-.08-.379-.2-.489-.36-.129-.18-.199-.38-.209-.61 0-.23.12-.43.349-.6.319-.23.618-.46.917-.69.299-.24.609-.5.938-.78.319-.28.558-.58.707-.9.15-.33.23-.73.23-1.18v-.78h-2.204c-.229 0-.399-.08-.508-.24-.11-.16-.17-.35-.17-.57 0-.231.06-.431.17-.591.109-.16.279-.24.508-.24h6.162c.229 0 .399.08.509.24.109.16.159.36.159.59 0 .22-.05.41-.159.57-.11.16-.28.24-.509.24h-2.064zm4.387 2.69h-1.755c-.229 0-.398-.08-.508-.24-.11-.16-.17-.35-.17-.57 0-.23.06-.43.17-.58.11-.16.279-.24.508-.24h1.755v-2.761c0-.28.1-.49.279-.62.2-.13.429-.2.678-.2.24 0 .459.07.649.2.199.13.299.34.299.62v8.61c0 .28-.1.49-.299.61-.19.13-.399.2-.649.2-.249 0-.468-.07-.678-.2-.189-.13-.279-.33-.279-.61v-4.22zm-5.892 8.59c-.479 0-.818-.09-1.007-.27-.18-.18-.27-.51-.27-.98v-2.84c0-.28.1-.48.29-.61.199-.13.428-.2.688-.2.249 0 .468.07.658.2.199.13.299.33.299.61v2.1c0 .23.109.35.349.35h6.441c.229 0 .399.08.508.24.11.16.17.35.17.58 0 .22-.06.41-.17.57-.109.16-.279.24-.508.24h-7.448v.01zm14.248-10.63c1.007 0 1.794.18 2.363.52.578.35.867.86.867 1.52s-.289 1.17-.867 1.51c-.569.35-1.356.53-2.363.53s-1.795-.18-2.373-.53c-.569-.35-.848-.85-.848-1.51s.279-1.17.848-1.52c.578-.35 1.366-.52 2.373-.52zm-3.44-.51c-.22 0-.379-.08-.479-.23-.099-.15-.149-.33-.149-.52 0-.211.05-.39.149-.541.1-.15.259-.23.479-.23h2.483v-.58c0-.26.099-.46.289-.59.189-.13.408-.19.668-.19.249 0 .468.07.658.19.199.13.299.33.299.59v.58h2.333c.219 0 .379.08.479.23.099.15.149.33.149.54 0 .2-.05.38-.149.52-.1.15-.26.23-.479.23h-6.73zm3.44 3.21c1.007 0 1.505-.22 1.505-.66 0-.44-.498-.66-1.505-.66s-1.506.22-1.506.66c0 .44.499.66 1.506.66zm6.67-1.5h1.207c.239 0 .418.08.528.24.11.16.159.36.159.58 0 .23-.049.43-.159.6-.11.16-.289.24-.528.24h-1.207v3.85c0 .27-.1.47-.289.6-.19.13-.409.2-.658.2-.249 0-.469-.07-.658-.2-.19-.13-.289-.33-.289-.6v-9.091c0-.27.099-.47.289-.6.189-.13.409-.2.658-.2.249 0 .468.07.658.2.189.13.289.33.289.6v3.58zm-3.021 5.11c-.479.04-1.007.08-1.585.11-.579.03-1.187.06-1.825.09-.628.02-1.286.04-1.974.04-.678.01-1.366.02-2.054.02-.229 0-.399-.08-.509-.23-.099-.16-.149-.34-.149-.54s.05-.38.149-.52c.11-.16.28-.24.509-.24h1.426c.478 0 .957-.01 1.435-.02v-1.71h1.855v1.67l1.296-.06c.429-.03.858-.07 1.286-.11.23-.02.399.04.509.17.12.13.189.3.209.51.02.2-.01.38-.109.55-.08.16-.24.25-.469.27zm-4.876 4.35c-.478 0-.817-.09-1.007-.27-.179-.18-.269-.51-.269-.98v-1.58c0-.28.1-.48.279-.61.2-.13.419-.2.658-.2.24 0 .459.07.648.2.2.13.3.33.3.61v.93c0 .23.109.35.349.35h6.64c.219 0 .379.08.479.23.099.16.149.35.149.55 0 .2-.05.38-.149.53-.1.16-.26.24-.479.24h-7.598zm15.714-11.31v.72c0 .46.07.85.229 1.18.15.32.379.62.708.9.329.28.628.53.908.75.279.22.518.41.737.57.2.16.3.35.32.55.009.21-.06.41-.2.6-.11.16-.279.28-.508.36-.22.08-.439.04-.658-.12-.17-.12-.379-.28-.649-.48-.259-.21-.528-.44-.817-.69-.349-.29-.598-.52-.738-.68-.13-.16-.209-.32-.249-.46h-.01c-.04.17-.14.35-.289.54-.15.18-.399.42-.748.7-.289.25-.568.49-.848.71-.279.22-.558.43-.837.63-.22.16-.439.2-.678.12-.22-.08-.379-.2-.489-.36-.129-.18-.199-.38-.209-.61 0-.23.11-.43.349-.6.319-.23.618-.46.907-.69.299-.24.618-.5.937-.78.319-.28.559-.58.708-.9.15-.33.23-.73.23-1.18v-.78h-2.204c-.229 0-.399-.08-.508-.24-.11-.16-.17-.35-.17-.57 0-.231.06-.431.17-.591.109-.16.279-.24.508-.24h6.162c.229 0 .399.08.508.24.11.16.16.36.16.59 0 .22-.05.41-.16.57-.109.16-.279.24-.508.24h-2.064zm4.377 2.69h-1.755c-.229 0-.398-.08-.508-.24-.11-.16-.17-.35-.17-.57 0-.23.06-.43.17-.58.11-.16.279-.24.508-.24h1.755v-2.761c0-.28.1-.49.289-.62.2-.13.419-.2.668-.2.24 0 .459.07.648.2.2.13.3.34.3.62v8.61c0 .28-.1.49-.3.61-.189.13-.398.2-.648.2-.249 0-.468-.07-.668-.2-.189-.13-.289-.33-.289-.61v-4.22zm-5.892 8.59c-.479 0-.818-.09-1.008-.27-.179-.18-.269-.51-.269-.98v-2.84c0-.28.1-.48.279-.61.2-.13.429-.2.688-.2.25 0 .469.07.658.2.2.13.3.33.3.61v2.1c0 .23.109.35.349.35h6.441c.229 0 .398.08.508.24.11.16.17.35.17.58 0 .22-.06.41-.17.57-.11.16-.279.24-.508.24h-7.438v.01zm21.207-7.57c.199.11.309.29.319.52.01.23-.04.44-.149.62-.11.19-.28.32-.489.4-.209.08-.419.07-.628-.05-.489-.27-.957-.54-1.396-.79-.429-.26-.848-.52-1.256-.78-.449-.29-.788-.56-1.017-.81-.22-.26-.349-.48-.389-.65h-.01c-.05.2-.19.43-.419.69-.219.25-.558.52-1.007.81-.409.26-.828.52-1.266.78-.429.26-.888.52-1.376.8-.21.11-.419.12-.628.04-.21-.08-.379-.22-.489-.42-.11-.19-.159-.4-.149-.65.01-.24.109-.41.319-.52.428-.24.857-.48 1.286-.73.429-.26.877-.54 1.336-.83.508-.33.877-.7 1.087-1.1.229-.4.349-.88.349-1.44v-.731c0-.29.099-.5.289-.63.199-.13.429-.2.688-.2.259 0 .488.07.678.2.199.13.299.34.299.63v.73c0 .56.11 1.04.329 1.44.229.4.598.77 1.107 1.1.458.29.897.57 1.336.83.389.25.817.5 1.246.74zm.628 4.03c.23 0 .399.08.509.24.109.16.169.35.169.57 0 .22-.06.41-.169.57-.11.16-.279.24-.509.24h-11.306c-.23 0-.399-.08-.509-.24-.11-.16-.16-.35-.16-.57 0-.22.06-.41.16-.57.11-.16.279-.24.509-.24h4.696v-1.99c0-.28.099-.48.289-.61.199-.13.429-.2.678-.2.249 0 .468.07.658.2.199.13.299.33.299.61v1.99h4.686z"/>
    <path fill="#FFB81C" stroke="#000" stroke-linecap="round" stroke-linejoin="round" stroke-miterlimit="10" stroke-width="2" d="M72.938 36.283H16.006v29.963h56.932V36.283z"/>
    <path fill="#FFB81C" stroke="#000" stroke-linecap="round" stroke-linejoin="round" stroke-miterlimit="10" stroke-width="2" d="M72.938 32.412H16.006v29.963h56.932V32.412z"/>
    <path fill="#FFB81C" stroke="#000" stroke-linecap="round" stroke-linejoin="round" stroke-miterlimit="10" stroke-width="2" d="M72.938 28.452H16.006v29.963h56.932V28.452z"/>
    <path fill="#FFB81C" stroke="#000" stroke-linecap="round" stroke-linejoin="round" stroke-miterlimit="10" stroke-width="2" d="M72.938 24.662H16.006v29.963h56.932V24.662z"/>
    <path fill="#FFB81C" stroke="#000" stroke-linecap="round" stroke-linejoin="round" stroke-miterlimit="10" stroke-width="2" d="M68.073 45.934V33.363c-2.294 0-4.158-1.85-4.158-4.13H25.009c0 2.28-1.864 4.13-4.157 4.13v12.56c2.293 0 4.157 1.85 4.157 4.131h38.896c.02-2.28 1.864-4.12 4.168-4.12z"/>
    <path fill="#FFB81C" stroke="#000" stroke-linecap="round" stroke-linejoin="round" stroke-miterlimit="10" stroke-width="2" d="M44.472 45.893c3.35 0 6.062-2.7 6.062-6.03s-2.712-6.03-6.062-6.03-6.062 2.7-6.062 6.03 2.712 6.03 6.062 6.03zM93.009 51.725H68.182v6.19H93.01v-6.19z"/>
    <path fill="#FFB81C" stroke="#000" stroke-linecap="round" stroke-linejoin="round" stroke-miterlimit="10" stroke-width="2" d="M96.968 45.544H72.14v6.19h24.826v-6.19zM91.184 39.354H68.772v6.19h22.413v-6.19zM94.804 33.382H69.817v5.97h24.987v-5.97zM96.01 57.915H71.184v6.19H96.01v-6.19z"/>
    <path stroke="#000" stroke-linecap="round" stroke-linejoin="round" stroke-miterlimit="10" stroke-width="2" d="M83.587 64.095v-6.19M82.65 39.462v-6.08M87.306 45.544v-6.19M85.072 57.305v-5.44"/>
    <path fill="#FFB81C" stroke="#000" stroke-linecap="round" stroke-linejoin="round" stroke-miterlimit="10" stroke-width="2" d="M72.5 33.402c-8.735 0-15.814 7.03-15.814 15.712 0 8.67 7.08 15.711 15.813 15.711 8.735 0 15.814-7.03 15.814-15.711 0-8.681-7.08-15.712-15.814-15.712z"/>
    <path fill="#FFB81C" stroke="#000" stroke-linecap="round" stroke-linejoin="round" stroke-miterlimit="10" stroke-width="2" d="M72.5 40.904c-4.557 0-8.256 3.67-8.256 8.2 0 4.531 3.7 8.201 8.256 8.201s8.255-3.67 8.255-8.2c0-4.53-3.699-8.201-8.255-8.201z"/>
    <path stroke="#000" stroke-linecap="round" stroke-linejoin="round" stroke-miterlimit="10" stroke-width="2" d="M91.893 64.095v-6.19M87.745 64.095v-6.19M93.269 51.724v-6.17M89.1 51.724v-6.17M90.696 39.462v-6.08M86.538 39.462v-6.08M89 57.305v-5.44"/>
    <path fill="#fff" d="M48.66 72.057h23.53c3.83 0 6.95-3.11 6.95-6.911 0-3.8-3.13-6.91-6.95-6.91H49.379c-9.153-5.481-16.521-5.791-16.521-5.791-14.378-1.2-23.58 2.63-23.58 2.63l-.08 25.793c10.887 2.96 20.05 5.15 31.247 6.71 5.225.73 10.659 1.36 15.933.88 1.835-.16 3.65-.52 5.434-.97l38.637-14.161c3.579-1.32 5.434-5.31 4.117-8.871-1.326-3.56-5.344-5.4-8.923-4.09l-16.631 6.12"/>
    <path stroke="#000" stroke-linecap="round" stroke-width="2" d="M48.66 72.057h23.53c3.83 0 6.95-3.11 6.95-6.911 0-3.8-3.13-6.91-6.95-6.91H49.379c-9.153-5.481-16.521-5.791-16.521-5.791-14.378-1.2-23.58 2.63-23.58 2.63l-.08 25.793c10.887 2.96 20.05 5.15 31.247 6.71 5.225.73 10.659 1.36 15.933.88 1.835-.16 3.65-.52 5.434-.97l38.637-14.161c3.579-1.32 5.434-5.31 4.117-8.871-1.326-3.56-5.344-5.4-8.923-4.09l-16.631 6.12"/>
    <path fill="#fff" d="M1 49.365h13.161v40.683H1"/>
    <path stroke="#000" stroke-linecap="round" stroke-linejoin="round" stroke-miterlimit="10" stroke-width="2" d="M1 49.365h13.161v40.683H1"/>
</svg>
