<svg xmlns="http://www.w3.org/2000/svg" width="267" height="113" fill="none" viewBox="0 0 267 113">
    <path fill="#fff" stroke="#000" stroke-linecap="round" stroke-linejoin="round" stroke-miterlimit="10" stroke-width="1.988" d="M111.297 45.57H22.203v53.192h89.094V45.571z"/>
    <path fill="#fff" d="M22.603 73.993s46.239-30.65 89.094 0H22.603z"/>
    <path stroke="#000" stroke-linecap="round" stroke-linejoin="round" stroke-miterlimit="10" stroke-width="2" d="M22.203 73.993s46.239-30.65 89.094 0"/>
    <path fill="#FFB81C" stroke="#000" stroke-linecap="round" stroke-linejoin="round" stroke-miterlimit="10" stroke-width="2" d="M66.75 81.731c13.294 0 24.065-10.799 24.065-24.127S80.044 33.477 66.749 33.477c-13.293 0-24.065 10.799-24.065 24.127S53.466 81.731 66.75 81.731z"/>
    <path fill="#FFB81C" stroke="#000" stroke-linecap="round" stroke-linejoin="round" stroke-miterlimit="10" stroke-width="2" d="M66.76 70.2c6.937 0 12.553-5.64 12.553-12.586 0-6.945-5.626-12.585-12.554-12.585-6.927 0-12.553 5.64-12.553 12.585 0 6.945 5.616 12.586 12.553 12.586z"/>
    <path fill="#fff" d="M111.297 110.886V73.752H22.203v37.134"/>
    <path stroke="#000" stroke-linecap="round" stroke-linejoin="round" stroke-miterlimit="10" stroke-width="2" d="M111.297 110.886V73.752H22.203v37.134"/>
    <path stroke="#000" stroke-linecap="round" stroke-linejoin="round" stroke-miterlimit="10" stroke-width="2" d="M63.436 85.796h-8.088v8.11h8.088v-8.11zM63.436 98.903h-8.088v8.109h8.088v-8.109zM76.86 85.796h-8.088v8.11h8.088v-8.11z"/>
    <path fill="#000" d="M71.875 102.948h-3.484c-.51 0-.93-.422-.93-.934v-3.502c0-.512.42-.934.93-.934h3.484c.51 0 .931.422.931.934v3.502c0 .512-.42.934-.93.934zM77.23 108.317h-3.483c-.51 0-.931-.422-.931-.933v-3.493c0-.512.42-.933.93-.933h3.485c.51 0 .93.421.93.933v3.493c0 .511-.42.933-.93.933z"/>
    <path fill="#fff" d="M1 37.24l12.403 5.982 17.409-36.24L18.408 1"/>
    <path stroke="#000" stroke-linecap="round" stroke-linejoin="round" stroke-miterlimit="10" stroke-width="2" d="M1 37.24l12.403 5.982 17.409-36.24L18.408 1"/>
    <path fill="#fff" stroke="#000" stroke-linecap="round" stroke-linejoin="round" stroke-miterlimit="10" stroke-width="2" d="M58.36 43.995l-16.047-7.236c.04-.22 1.121-5.34 4.765-6.383 3.464-1.004 6.938 2.318 9.44 4.908.07-.05.24.07.47.27 2.984-1.334 6.287-2.077 9.761-2.077.48 0 .961.02 1.431.05l.03.06c-1.02-2.187-2.062-5.158-4.304-8.7-3.424-5.4-7.298-11.312-13.825-13.058-5.445-1.465-11.282-.783-16.787.02-1.622.241-3.724.883-5.026 1.867-.9.682-1.2 1.184-1.721 2.148-5.166 9.925-7.298 15.827-11.002 22.922 0 0 9.32 4.858 10.541 5.48 6.527 3.111 13.044 6.222 19.57 9.344l6.548 3.131c3.503 1.706 7.738.22 9.44-3.292 1.711-3.513.22-7.748-3.284-9.454z"/>
    <path fill="#fff" d="M266 111.739V45.5h-89.094v66.239"/>
    <path stroke="#000" stroke-linecap="round" stroke-linejoin="round" stroke-miterlimit="10" stroke-width="2" d="M266 111.739V45.5h-89.094v66.239"/>
    <path stroke="#000" stroke-linecap="round" stroke-linejoin="round" stroke-miterlimit="10" stroke-width="2" d="M266 111.338V68.182h-89.094v43.156"/>
    <path fill="#FFF1D2" stroke="#CCC" stroke-miterlimit="10" stroke-width="2" d="M211.122 110.334c7.468 0 13.514-6.062 13.514-13.549 0-7.487-6.046-13.548-13.514-13.548-7.468 0-13.515 6.061-13.515 13.548s6.047 13.549 13.515 13.549z"/>
    <path fill="#FFF1D2" stroke="#CCC" stroke-miterlimit="10" stroke-width="2" d="M211.122 103.861c3.894 0 7.048-3.161 7.048-7.065 0-3.904-3.154-7.066-7.048-7.066s-7.047 3.162-7.047 7.066c-.01 3.894 3.153 7.065 7.047 7.065zM191.922 112c6.267 0 11.342-5.088 11.342-11.371 0-6.282-5.075-11.37-11.342-11.37s-11.342 5.088-11.342 11.37c.01 6.273 5.085 11.371 11.342 11.371z"/>
    <path fill="#FFF1D2" stroke="#CCC" stroke-miterlimit="10" stroke-width="2" d="M191.922 106.561c3.263 0 5.916-2.66 5.916-5.932 0-3.271-2.653-5.931-5.916-5.931-3.264 0-5.917 2.66-5.917 5.931 0 3.272 2.653 5.932 5.917 5.932zM232.144 110.334c8.019 0 14.516-6.513 14.516-14.552s-6.497-14.552-14.516-14.552c-8.018 0-14.515 6.513-14.515 14.552s6.497 14.552 14.515 14.552z"/>
    <path fill="#FFF1D2" stroke="#CCC" stroke-miterlimit="10" stroke-width="2" d="M232.144 103.379c4.185 0 7.578-3.402 7.578-7.597s-3.393-7.597-7.578-7.597c-4.184 0-7.578 3.402-7.578 7.597s3.394 7.597 7.578 7.597z"/>
    <path fill="#FFF1D2" stroke="#CCC" stroke-miterlimit="10" stroke-width="2" d="M250.984 112c6.267 0 11.342-5.088 11.342-11.371 0-6.282-5.075-11.37-11.342-11.37s-11.342 5.088-11.342 11.37c.01 6.273 5.085 11.371 11.342 11.371z"/>
    <path fill="#FFF1D2" stroke="#CCC" stroke-miterlimit="10" stroke-width="2" d="M250.984 106.561c3.264 0 5.916-2.66 5.916-5.932 0-3.271-2.652-5.931-5.916-5.931-3.263 0-5.916 2.66-5.916 5.931 0 3.272 2.653 5.932 5.916 5.932z"/>
    <path stroke="#000" stroke-linecap="round" stroke-linejoin="round" stroke-miterlimit="10" stroke-width="2" d="M218.139 85.726h-8.088v8.109h8.088v-8.11zM218.139 98.843h-8.088v8.109h8.088v-8.109zM231.564 85.726h-8.089v8.109h8.089v-8.11z"/>
    <path fill="#000" d="M226.578 102.887h-3.493c-.511 0-.931-.421-.931-.933v-3.503c0-.511.42-.933.931-.933h3.493c.511 0 .931.422.931.933v3.503c0 .512-.42.933-.931.933zM231.934 108.247h-3.494c-.51 0-.931-.421-.931-.933v-3.493c0-.512.421-.933.931-.933h3.494c.51 0 .931.421.931.933v3.493c0 .512-.421.933-.931.933z"/>
    <path fill="#fff" stroke="#000" stroke-linecap="round" stroke-linejoin="round" stroke-miterlimit="10" stroke-width="2" d="M156.364 77.506l-9.129-7.096c-.951-.742-2.303-.02-2.303 1.245v2.96h-12.303c-.841 0-1.511.723-1.511 1.616v5.059c0 .893.68 1.615 1.511 1.615h12.303v2.961c0 1.255 1.342 1.987 2.303 1.245l9.129-7.096c.791-.632.791-1.887 0-2.51z"/>
</svg>
