<svg xmlns="http://www.w3.org/2000/svg" width="238" height="182" fill="none" viewBox="0 0 238 182">
    <path fill="#fff" stroke="#000" stroke-linecap="round" stroke-linejoin="round" stroke-miterlimit="10" stroke-width="2" d="M97.428 27.946H1v80.239h96.428V27.946zM83.752 1H14.676L1 15.725h96.428L83.752 1zM97.428 15.725H1v12.221h96.428v-12.22z"/>
    <path stroke="#000" stroke-linecap="round" stroke-linejoin="round" stroke-miterlimit="10" stroke-width="2" d="M27.232 8.012h43.953"/>
    <path fill="#000" d="M15.495 40.067h42.954c.83 0 1.498.671 1.498 1.503 0 .831-.669 1.502-1.498 1.502H15.495c-.83 0-1.499-.67-1.499-1.502s.67-1.503 1.498-1.503z"/>
    <path fill="#fff" stroke="#000" stroke-linecap="round" stroke-linejoin="round" stroke-miterlimit="10" stroke-width="2" d="M55.472 42.07H18.991l-1 11.901h36.482l.999-11.9z"/>
    <path fill="#000" d="M18.521 80.767c-.48 0-.819-.09-1.009-.27-.18-.18-.27-.511-.27-.982v-2.424c0-.47.09-.791.27-.972.19-.18.53-.27 1.01-.27h7.381c.23 0 .4.08.5.24.11.15.17.33.17.541 0 .22-.06.411-.17.571-.1.15-.26.23-.5.23H19.52c-.23 0-.35.11-.35.351v1.072c0 .23.12.35.35.35h6.533c.23 0 .39.08.5.241.11.15.16.33.16.541 0 .22-.05.41-.16.571-.1.15-.26.22-.5.22h-7.532v-.01zm-2.268 2.835c-.23 0-.399-.08-.509-.23-.1-.16-.15-.35-.15-.571 0-.22.05-.4.15-.551.11-.16.28-.24.51-.24h4.734v-2.014h1.889v2.014h4.735c.23 0 .4.08.499.24.11.15.17.33.17.55 0 .221-.06.412-.17.572-.1.15-.26.23-.5.23H16.253zm.96 3.386c0-.46.1-.861.31-1.182.219-.34.539-.621.938-.831.41-.22.91-.381 1.489-.481.579-.11 1.238-.16 1.977-.16.73 0 1.39.05 1.959.16.589.1 1.088.26 1.498.48.41.211.72.481.929.832.22.33.33.721.33 1.182 0 .46-.11.852-.33 1.182-.21.34-.52.611-.93.822-.409.22-.908.38-1.497.48-.58.11-1.23.17-1.959.17-.739 0-1.398-.06-1.977-.17-.58-.1-1.07-.26-1.489-.48-.41-.21-.719-.481-.939-.822-.2-.33-.31-.721-.31-1.182zm7.541 0c0-.36-.22-.641-.659-.841-.43-.2-1.149-.3-2.157-.3-1.01 0-1.739.1-2.178.3-.43.2-.64.48-.64.841 0 .36.21.641.64.841.44.2 1.169.301 2.177.301 1.01 0 1.729-.1 2.158-.3.44-.2.66-.481.66-.842zm9.76-9.076v.722c0 .46.08.851.23 1.182.15.32.38.62.71.901.329.28.629.531.908.752.28.22.53.41.74.57.2.16.31.351.32.552.01.2-.05.41-.19.6-.11.16-.28.281-.51.361-.22.08-.44.04-.66-.12-.17-.12-.379-.28-.639-.48-.26-.211-.54-.442-.819-.692-.35-.29-.6-.51-.74-.671-.129-.16-.219-.32-.259-.461h-.01c-.04.17-.14.35-.29.54-.15.181-.4.412-.749.702-.29.25-.57.481-.849.701-.28.22-.56.431-.839.631-.22.16-.45.2-.68.12-.219-.08-.389-.2-.499-.36-.13-.18-.2-.39-.21-.611 0-.23.12-.43.35-.601.32-.23.62-.46.91-.691.299-.24.619-.501.948-.782.32-.28.55-.58.71-.901.15-.33.22-.731.22-1.182v-.782h-2.208c-.23 0-.4-.08-.51-.24-.11-.16-.16-.35-.16-.57 0-.231.05-.422.16-.582.11-.16.28-.24.51-.24h6.173c.23 0 .4.08.51.24.11.16.17.36.17.581 0 .22-.06.41-.17.571-.11.16-.28.24-.51.24h-2.068zm4.386 2.685H37.14c-.23 0-.4-.08-.51-.24-.109-.16-.159-.35-.159-.571 0-.23.05-.431.16-.591.11-.16.28-.24.51-.24H38.9v-2.766c0-.28.1-.48.29-.61.199-.13.429-.2.678-.2.24 0 .46.07.64.2.2.13.3.33.3.61v8.625c0 .28-.1.481-.3.611-.19.13-.4.2-.64.2-.25 0-.479-.07-.679-.2-.19-.13-.29-.33-.29-.61v-4.218zm-5.904 8.615c-.48 0-.82-.09-1-.27-.179-.18-.269-.511-.269-.982v-2.835c0-.28.1-.48.29-.611.2-.13.43-.2.69-.2.249 0 .469.07.658.2.2.13.3.33.3.61v2.105c0 .23.12.35.35.35h6.453c.23 0 .4.08.51.24.11.16.16.351.16.581 0 .22-.05.411-.16.572-.11.16-.28.24-.51.24h-7.472zM47.28 78.554c1.009 0 1.798.17 2.367.52.58.351.87.862.87 1.523 0 .661-.29 1.162-.87 1.513-.57.35-1.358.52-2.367.52-1.01 0-1.798-.17-2.378-.52-.57-.35-.849-.852-.849-1.513 0-.661.28-1.172.85-1.522.569-.341 1.368-.521 2.377-.521zm-3.447-.511c-.22 0-.38-.07-.48-.23-.1-.151-.149-.321-.149-.522 0-.21.05-.39.15-.54.1-.15.26-.23.48-.23h2.487v-.592c0-.26.1-.45.29-.58.19-.131.409-.201.669-.201.25 0 .47.07.659.2.2.13.3.33.3.581v.591h2.337c.22 0 .38.07.48.23.1.15.15.331.15.541 0 .2-.05.381-.15.521-.1.15-.26.23-.48.23h-6.743zm3.447 3.215c1.009 0 1.508-.22 1.508-.66 0-.442-.5-.662-1.508-.662-1.01 0-1.509.22-1.509.661 0 .44.5.661 1.509.661zm6.683-1.502h1.208c.24 0 .42.08.53.24.11.16.16.35.16.581 0 .23-.05.43-.16.601-.11.16-.29.24-.53.24h-1.208v3.867c0 .27-.1.471-.29.601-.19.13-.41.19-.66.19-.25 0-.469-.06-.659-.19-.19-.13-.29-.33-.29-.6V76.18c0-.271.1-.471.29-.602.19-.13.41-.2.66-.2.25 0 .47.07.659.2.19.13.29.331.29.602v3.576zm-3.027 5.129c-.48.04-1.01.07-1.588.1-.58.03-1.19.06-1.829.09-.629.02-1.288.03-1.978.04-.679.01-1.368.02-2.057.02-.23 0-.4-.08-.51-.23-.1-.16-.15-.341-.15-.541s.05-.381.15-.521c.11-.16.28-.24.51-.24h1.428c.48 0 .96-.01 1.439-.02v-1.714h1.858v1.673l1.298-.06c.43-.03.86-.06 1.289-.1.23-.02.4.04.51.17.12.13.19.3.21.511.02.2-.01.39-.11.551-.08.16-.24.25-.47.27zm-4.885 4.357c-.48 0-.82-.09-1.009-.27-.18-.18-.27-.511-.27-.982v-1.573c0-.28.1-.49.28-.611.2-.13.42-.2.66-.2.24 0 .459.07.649.2.2.13.3.33.3.611v.932c0 .23.11.35.349.35h6.653c.22 0 .38.08.48.23.1.161.15.351.15.552 0 .2-.05.38-.15.52-.1.16-.26.241-.48.241h-7.612zm15.733-11.33v.722c0 .46.07.851.23 1.182.15.32.38.62.71.901.329.28.629.531.908.752.28.22.52.41.74.57.2.16.3.351.32.552.01.21-.06.41-.2.6-.11.16-.28.281-.51.361-.22.08-.44.04-.66-.12-.17-.12-.379-.28-.649-.48-.26-.211-.53-.442-.819-.692-.35-.29-.6-.51-.739-.671-.13-.16-.21-.32-.25-.461h-.01c-.04.17-.14.35-.29.54-.15.181-.399.412-.749.702-.29.25-.569.481-.849.701-.28.22-.56.431-.839.631-.22.16-.44.2-.68.12-.219-.08-.379-.2-.489-.36-.13-.18-.2-.39-.21-.611 0-.23.11-.43.35-.601.32-.23.62-.46.91-.691.299-.24.619-.501.938-.782.32-.28.56-.58.71-.901.15-.33.23-.731.23-1.182v-.782H57.68c-.23 0-.4-.08-.51-.24-.11-.16-.17-.35-.17-.57 0-.231.06-.422.17-.582.11-.16.28-.24.51-.24h6.173c.23 0 .4.08.51.24.11.16.16.36.16.581 0 .22-.05.41-.16.571-.11.16-.28.24-.51.24h-2.068zm4.396 2.685h-1.758c-.23 0-.4-.08-.51-.24-.11-.16-.17-.35-.17-.571 0-.23.06-.431.17-.591.11-.16.28-.24.51-.24h1.758v-2.766c0-.28.1-.48.29-.61.2-.13.419-.2.669-.2.24 0 .46.07.649.2.2.13.3.33.3.61v8.625c0 .28-.1.481-.3.611-.19.13-.4.2-.65.2s-.469-.07-.669-.2c-.19-.13-.29-.33-.29-.61v-4.218zm-5.904 8.615c-.48 0-.82-.09-1.009-.27-.18-.18-.27-.511-.27-.982v-2.835c0-.28.1-.48.28-.611.2-.13.43-.2.69-.2.249 0 .469.07.658.2.2.13.3.33.3.61v2.105c0 .23.11.35.35.35h6.453c.23 0 .4.08.51.24.11.16.17.361.17.591 0 .22-.06.411-.17.572-.11.16-.28.24-.51.24h-7.452v-.01zm21.247-7.593c.2.11.31.29.32.52.01.231-.04.431-.15.622-.11.19-.28.32-.49.4-.21.08-.419.06-.629-.05-.49-.27-.959-.54-1.398-.801-.43-.26-.85-.52-1.259-.781-.45-.29-.789-.561-1.019-.812-.22-.26-.35-.47-.39-.64h-.01c-.05.2-.19.43-.419.69-.22.25-.56.521-1.009.812-.41.26-.829.52-1.268.781-.43.26-.89.521-1.379.802-.21.11-.42.12-.63.04-.21-.08-.379-.22-.489-.421-.11-.19-.16-.4-.15-.651.01-.24.11-.421.32-.521.43-.24.86-.481 1.289-.731.43-.26.879-.541 1.338-.832.51-.33.88-.701 1.09-1.102.229-.4.349-.881.349-1.442v-.731c0-.291.1-.501.29-.632.2-.13.429-.2.689-.2.26 0 .49.07.679.2.2.13.3.341.3.632v.73c0 .562.11 1.043.33 1.443.23.4.599.761 1.108 1.102.46.29.9.571 1.339.832.39.26.819.5 1.248.74zm.63 4.047c.23 0 .4.08.51.24.11.16.169.35.169.571 0 .22-.06.41-.17.571-.11.16-.28.24-.51.24H70.827c-.23 0-.4-.08-.51-.24-.11-.16-.16-.35-.16-.57 0-.221.06-.411.16-.572.11-.16.28-.24.51-.24h4.705v-1.994c0-.28.1-.49.29-.62.2-.13.429-.191.679-.191.25 0 .47.07.659.19.2.13.3.34.3.621v1.994h4.695z"/>
    <path fill="#fff" stroke="#000" stroke-linecap="round" stroke-linejoin="round" stroke-miterlimit="10" stroke-width="2" d="M166.624 55.614h-36.481v35.18h36.481v-35.18zM166.624 43.714h-36.481v11.9h36.481v-11.9z"/>
    <path stroke="#000" stroke-linecap="round" stroke-linejoin="round" stroke-miterlimit="10" stroke-width="2" d="M145.926 64.75h-6.003v6.02h6.003v-6.02zM145.926 74.477h-6.003v6.02h6.003v-6.02zM155.886 64.75h-6.004v6.02h6.004v-6.02z"/>
    <path fill="#000" d="M152.19 77.472h-2.588c-.379 0-.689-.31-.689-.691v-2.595c0-.38.31-.691.689-.691h2.588c.379 0 .689.31.689.691v2.594c0 .381-.31.692-.689.692zM156.155 81.448h-2.587c-.379 0-.689-.31-.689-.69v-2.595c0-.38.31-.691.689-.691h2.587c.38 0 .69.31.69.69v2.595c0 .381-.31.691-.69.691z"/>
    <path fill="#fff" stroke="#000" stroke-linecap="round" stroke-linejoin="round" stroke-miterlimit="10" stroke-width="2" d="M164.647 105.4c-1.309 2.534-4.446 3.526-6.983 2.214l-11.748-6.121c-2.527-1.312-3.516-4.457-2.207-7.012 1.308-2.534 4.445-3.526 6.992-2.214l11.748 6.11c2.527 1.343 3.526 4.499 2.198 7.023z"/>
    <path stroke="#000" stroke-linecap="round" stroke-linejoin="round" stroke-miterlimit="10" stroke-width="2" d="M216.551 88.791c-.199-2.203-1.338-3.836-2.367-4.417-1.109-.641-2.398-.671-2.398-.671h-.129c-2.857 0-4.146 2.233-4.146 5.088v40.51l-35.622 23.651s8.581 8.805 20.818 12.111l29.878-16.369c1.059-2.875 2.228-6.791 2.777-11.559.769-6.552.04-11.57-.14-12.792-.489-3.136-1.858-7.323-4.595-15.698-1.678-5.128-1.578-4.648-1.888-5.729-1.428-5.25-2.018-10.068-2.188-14.125z"/>
    <path fill="#FFB81C" stroke="#000" stroke-linecap="round" stroke-width="2" d="M162.958 64.75h37.7c3.746 0 6.763 3.035 6.763 6.781v74.629c0 3.756-3.027 6.782-6.763 6.782h-37.7c-3.746 0-6.763-3.036-6.763-6.782V71.531c-.01-3.746 3.017-6.781 6.763-6.781z"/>
    <path stroke="#000" stroke-linecap="round" stroke-width="2" d="M156.365 75.93h50.876M156.365 135.512h50.876"/>
    <path stroke="#000" stroke-linecap="round" stroke-linejoin="round" stroke-miterlimit="10" stroke-width="2" d="M181.808 146.801c1.509 0 2.737-1.232 2.737-2.745 0-1.512-1.218-2.744-2.737-2.744-1.508 0-2.737 1.232-2.737 2.744 0 1.523 1.219 2.745 2.737 2.745zM190.769 181l-6.243-11.46 46.231-25.323L237 155.686M164.547 95.903V88.12h7.762M199.07 95.903V88.12h-7.761M164.547 114.946v7.784h7.762M199.07 114.946v7.784h-7.761M178.921 95.623h-7.042v7.062h7.042v-7.062zM178.921 107.033h-7.042v7.062h7.042v-7.062zM190.609 95.623h-7.042v7.062h7.042v-7.062z"/>
    <path fill="#000" d="M186.263 110.549h-3.036c-.44 0-.81-.371-.81-.812v-3.045c0-.451.37-.811.81-.811h3.036c.45 0 .81.37.81.811v3.045c0 .451-.37.812-.81.812zM190.919 115.227h-3.037c-.45 0-.809-.371-.809-.812v-3.045c0-.451.369-.811.809-.811h3.037c.439 0 .809.37.809.811v3.045c0 .441-.36.812-.809.812z"/>
    <path fill="#fff" stroke="#000" stroke-linecap="round" stroke-linejoin="round" stroke-miterlimit="10" stroke-width="2" d="M163.378 113.924c-.959 2.695-3.926 4.107-6.613 3.146l-8.621-3.085c-2.687-.962-4.096-3.937-3.137-6.622.959-2.695 3.926-4.107 6.603-3.145l8.621 3.085c2.697.932 4.106 3.927 3.147 6.621zM162.059 127.438c-1.309 2.534-4.445 3.526-6.993 2.213l-8.131-4.227c-2.527-1.312-3.516-4.458-2.208-7.002 1.309-2.534 4.446-3.526 6.983-2.214l8.121 4.228c2.558 1.322 3.547 4.467 2.228 7.002z"/>
    <path fill="#fff" stroke="#000" stroke-linecap="round" stroke-linejoin="round" stroke-miterlimit="10" stroke-width="2" d="M163.278 137.886c-.959 2.684-3.926 4.107-6.613 3.145l-5.164-1.853c-2.687-.962-4.096-3.937-3.137-6.632.959-2.684 3.926-4.107 6.603-3.145l5.175 1.853c2.677.962 4.095 3.937 3.136 6.632z"/>
    <path fill="#000" d="M43.965 49.043c-.38-.401-1.01-.431-1.409-.05-.4.38-.43 1.011-.05 1.412l1.459-1.362zm81.523 18.712l-7.731-2.344c-.74-.22-1.439.44-1.259 1.182l1.838 7.883c.18.752 1.099 1.032 1.658.501l5.894-5.54c.549-.52.33-1.462-.4-1.682zm-82.992-17.35c6.144 6.642 14.755 13.964 27.062 18.582s28.26 6.481 49.028 2.304l-.39-1.963c-20.458 4.117-36.012 2.254-47.94-2.214-11.926-4.468-20.288-11.58-26.291-18.071l-1.469 1.362z"/>
</svg>
