<svg xmlns="http://www.w3.org/2000/svg" width="132" height="132" fill="none" viewBox="0 0 132 132">
    <path fill="#000" d="M20.234 26.616c-.478 0-.816-.09-1.005-.27-.18-.18-.269-.5-.269-.98v-2.408c0-.47.09-.8.269-.98.189-.18.527-.27 1.005-.27h7.357c.23 0 .399.08.498.24.11.15.17.33.17.54 0 .22-.06.41-.17.57-.1.15-.258.23-.497.23H21.23c-.23 0-.349.11-.349.34v1.07c0 .23.12.34.349.34h6.51c.23 0 .4.08.499.239.11.15.169.33.169.54 0 .22-.06.41-.17.57-.099.15-.258.23-.497.23h-7.507zm-2.26 2.829c-.229 0-.398-.07-.507-.22-.1-.16-.15-.35-.15-.57 0-.22.05-.41.15-.56.11-.16.279-.24.507-.24h4.72v-2.008h1.881v2.009h4.719c.229 0 .398.08.498.24.11.15.169.33.169.56 0 .22-.06.409-.17.569-.099.15-.258.22-.497.22h-11.32zm.956 3.378c0-.46.1-.86.319-1.19.219-.34.527-.61.936-.819.408-.22.896-.38 1.483-.48.577-.11 1.235-.16 1.971-.16.727 0 1.384.06 1.961.16.588.1 1.086.26 1.494.48.408.21.717.48.926.82.219.33.328.73.328 1.189 0 .46-.11.85-.328 1.19-.21.34-.518.609-.926.829-.408.22-.906.38-1.494.48-.577.11-1.234.17-1.96.17-.738 0-1.395-.06-1.972-.17-.578-.1-1.075-.26-1.483-.48-.409-.21-.727-.49-.936-.83-.21-.34-.319-.73-.319-1.19zm7.517 0c0-.36-.22-.64-.657-.84-.428-.2-1.145-.3-2.15-.3-1.006 0-1.733.1-2.171.3-.428.2-.637.48-.637.84s.219.64.637.84c.438.2 1.165.3 2.17.3 1.006 0 1.723-.1 2.15-.3.439-.2.658-.48.658-.84zm9.716-9.055v.72c0 .46.07.849.23 1.179.149.32.378.62.706.9.329.28.627.529.906.749.279.22.518.41.737.57.199.16.299.35.318.56.01.21-.06.41-.199.599-.11.16-.278.28-.508.36-.218.08-.438.04-.657-.12-.169-.12-.378-.28-.647-.48-.258-.21-.527-.44-.816-.69-.348-.29-.597-.51-.737-.67-.13-.16-.209-.319-.249-.469h-.01c-.04.17-.139.35-.288.54-.15.18-.398.42-.747.7-.289.25-.567.49-.846.699-.279.22-.558.43-.836.63-.22.16-.439.2-.668.12-.218-.08-.388-.2-.497-.36-.13-.18-.2-.39-.21-.62 0-.23.11-.43.35-.6.318-.23.616-.46.915-.69.299-.239.617-.499.946-.779.318-.28.547-.58.697-.9.149-.33.229-.729.229-1.179v-.78h-2.2c-.23 0-.399-.08-.508-.24-.11-.159-.17-.349-.17-.569 0-.23.06-.42.17-.59.11-.16.278-.24.507-.24h6.153c.229 0 .398.08.508.24.11.16.16.36.16.59 0 .22-.05.41-.16.57-.11.16-.279.24-.508.24h-2.07v.01zm4.38 2.678h-1.751c-.23 0-.399-.08-.508-.24-.11-.16-.17-.35-.17-.57 0-.23.06-.419.17-.579.11-.16.279-.24.508-.24h1.752V22.06c0-.28.1-.49.289-.61.199-.13.418-.2.666-.2.24 0 .459.07.648.2.199.13.298.33.298.61v8.605c0 .28-.1.49-.298.62-.19.13-.399.19-.648.19-.248 0-.467-.07-.666-.19-.19-.13-.29-.34-.29-.62v-4.218zm-5.883 8.596c-.478 0-.816-.09-1.005-.27-.18-.18-.27-.51-.27-.97v-2.838c0-.28.1-.49.28-.61.199-.13.428-.19.686-.19.25 0 .468.06.657.19.2.13.3.33.3.61v2.099c0 .23.109.34.348.34h6.43c.23 0 .4.08.509.24.11.16.169.35.169.58 0 .22-.06.409-.17.569-.109.16-.278.24-.507.24H34.66v.01zm14.237-10.635c1.005 0 1.791.17 2.359.52.577.35.866.85.866 1.51 0 .659-.289 1.169-.866 1.519-.568.35-1.354.52-2.36.52-1.005 0-1.791-.17-2.369-.52-.567-.35-.856-.85-.856-1.52 0-.66.289-1.159.856-1.509.567-.34 1.364-.52 2.37-.52zm-3.435-.51c-.22 0-.379-.08-.478-.23-.1-.15-.15-.319-.15-.519 0-.21.05-.39.15-.54.1-.15.259-.23.478-.23h2.479v-.59c0-.259.1-.449.288-.579.19-.13.419-.19.677-.19.25 0 .468.06.657.19.2.13.3.32.3.58v.59h2.329c.219 0 .378.07.478.23.1.15.149.33.149.54 0 .199-.05.379-.15.519-.099.15-.258.23-.477.23h-6.73zm3.434 3.209c1.006 0 1.504-.22 1.504-.66 0-.44-.508-.66-1.503-.66-.996 0-1.514.22-1.514.66 0 .44.508.66 1.514.66zm6.66-1.5h1.205c.24 0 .418.08.528.24.11.16.16.35.16.58 0 .23-.06.43-.16.6-.11.16-.289.24-.528.24h-1.204v3.848c0 .27-.1.47-.289.6-.19.13-.408.19-.657.19-.249 0-.468-.06-.657-.19-.19-.13-.289-.33-.289-.6v-9.085c0-.27.1-.47.289-.6.19-.13.408-.2.657-.2.249 0 .468.07.657.2.19.13.289.33.289.6v3.578zm-3.016 5.118c-.478.04-1.005.07-1.583.1-.577.03-1.184.06-1.822.09-.627.02-1.284.03-1.97.05-.678.01-1.355.01-2.052.01-.229 0-.398-.07-.507-.23-.1-.16-.15-.34-.15-.54s.05-.38.15-.52c.11-.16.278-.24.507-.24h1.424c.478 0 .956 0 1.434-.01v-1.708h1.851v1.659l1.295-.06c.428-.03.856-.07 1.284-.1.229-.02.398.03.508.16.12.13.189.3.209.51.02.2-.01.39-.1.56-.09.16-.249.25-.478.27zm-4.868 4.348c-.478 0-.816-.09-1.006-.27-.179-.18-.268-.5-.268-.97v-1.579c0-.28.1-.49.288-.62.2-.13.419-.19.657-.19.24 0 .458.07.647.19.2.13.3.34.3.62v.93c0 .23.119.35.348.35h6.63c.22 0 .378.08.478.22.1.16.15.35.15.56 0 .199-.05.379-.15.529-.1.16-.259.24-.478.24h-7.596v-.01zm15.68-11.304v.72c0 .46.07.849.219 1.179.15.32.388.62.707.9.328.28.637.529.916.749.278.22.517.41.736.57.2.16.3.35.32.56.009.21-.06.41-.2.599-.11.16-.279.28-.508.36-.219.08-.438.04-.657-.12-.17-.12-.378-.28-.647-.48-.259-.21-.538-.44-.816-.69-.349-.29-.598-.51-.737-.67-.13-.16-.21-.319-.259-.469h-.01c-.04.17-.13.35-.279.54-.149.18-.398.42-.746.7-.289.25-.578.49-.856.699-.28.22-.558.43-.837.63-.219.16-.438.2-.677.12-.219-.08-.378-.2-.488-.36-.129-.18-.199-.39-.209-.62 0-.23.12-.43.349-.6.318-.23.617-.46.916-.69.298-.239.607-.499.936-.779.318-.28.557-.58.706-.9.15-.33.23-.729.23-1.179v-.78h-2.2c-.23 0-.399-.08-.509-.24-.109-.159-.159-.349-.159-.569 0-.23.06-.42.16-.59.109-.16.278-.24.507-.24h6.153c.229 0 .398.08.508.24.109.16.159.36.159.59 0 .22-.05.41-.16.57-.109.16-.278.24-.507.24h-2.061v.01zm4.37 2.678H65.97c-.229 0-.398-.08-.507-.24-.11-.16-.17-.35-.17-.57 0-.23.06-.419.17-.579.11-.16.278-.24.507-.24h1.752V22.06c0-.28.09-.49.28-.61.198-.13.427-.2.676-.2.24 0 .458.07.647.2.2.13.299.33.299.61v8.605c0 .28-.1.49-.299.62-.189.13-.398.19-.647.19s-.468-.07-.677-.19c-.189-.13-.279-.34-.279-.62v-4.218zm-5.883 8.596c-.478 0-.817-.09-1.006-.27-.179-.18-.269-.51-.269-.97v-2.838c0-.28.1-.49.29-.61.198-.13.427-.19.686-.19.249 0 .468.06.657.19.2.13.299.33.299.61v2.099c0 .23.11.34.338.34h6.442c.228 0 .398.08.507.24.11.16.17.35.17.58 0 .22-.06.409-.17.569-.11.16-.279.24-.507.24h-7.437v.01zm21.185-7.576c.2.11.309.28.319.52.01.23-.04.44-.15.62-.109.19-.278.319-.487.399-.21.08-.419.07-.627-.05-.488-.27-.956-.53-1.394-.8-.428-.26-.847-.52-1.255-.78-.448-.289-.786-.559-1.015-.809-.22-.26-.349-.47-.389-.64h-.01c-.05.2-.189.43-.418.69-.219.25-.557.52-1.005.81-.408.26-.826.52-1.264.78-.428.26-.886.52-1.374.799-.21.11-.418.12-.627.05-.21-.08-.379-.22-.488-.42-.11-.19-.16-.4-.15-.65.01-.24.12-.41.319-.52.428-.24.856-.479 1.284-.729.428-.26.876-.54 1.334-.83.508-.33.876-.689 1.085-1.089.23-.4.349-.88.349-1.439v-.74c0-.29.1-.5.288-.63.2-.13.429-.19.688-.19.258 0 .487.06.676.19.2.13.3.34.3.63v.74c0 .56.109 1.04.328 1.44.229.399.597.759 1.105 1.089.458.29.896.57 1.334.83.388.25.816.489 1.244.729zm.627 4.038c.23 0 .399.08.508.24.11.16.17.35.17.57 0 .22-.06.409-.17.569-.11.16-.279.24-.508.24h-11.29c-.228 0-.397-.08-.507-.24-.11-.16-.16-.35-.16-.57 0-.22.05-.41.16-.57.11-.16.279-.24.508-.24h4.689v-1.988c0-.28.1-.49.289-.61.199-.13.428-.2.677-.2.249 0 .468.07.657.2.199.13.298.33.298.61v1.989h4.68z"/>
    <path stroke="#000" stroke-linecap="round" stroke-linejoin="round" stroke-width="2" d="M100.645 115.938V14.213C100.645 6.907 94.762 1 87.485 1H14.16C6.884 1 1 6.907 1 14.213v101.725"/>
    <path stroke="#000" stroke-linecap="round" stroke-linejoin="round" stroke-width="2" d="M91.138 115.938v-2.998c0-3.868-3.116-6.997-6.97-6.997H17.467c-3.852 0-6.968 3.129-6.968 6.997v2.998"/>
    <path fill="#FFB81C" stroke="#000" stroke-width="2" d="M17.466 44.976H84.17c3.853 0 6.969 3.129 6.969 6.997v35.98c0 3.868-3.116 6.996-6.97 6.996H17.467c-3.852 0-6.968-3.128-6.968-6.996v-35.98c0-3.868 3.126-6.997 6.969-6.997z"/>
    <path fill="#000" d="M28.338 56.9c1.663 0 2.868.54 3.624 1.619.767 1.08 1.145 2.609 1.145 4.588v.77c0 1.978-.378 3.507-1.145 4.587-.756 1.08-1.961 1.619-3.624 1.619-1.662 0-2.877-.54-3.633-1.62-.757-1.079-1.125-2.608-1.125-4.587v-.77c0-1.978.378-3.508 1.125-4.587.756-1.08 1.97-1.62 3.633-1.62zm0 2.179c-.468 0-.856.08-1.184.23-.309.16-.558.41-.757.76-.18.339-.309.769-.398 1.298-.08.53-.13 1.16-.13 1.91v.45c0 .739.04 1.379.13 1.908.08.53.219.97.398 1.31.19.34.438.58.757.74.318.159.716.229 1.184.229.468 0 .857-.08 1.165-.23.319-.16.578-.4.757-.74.189-.35.328-.79.408-1.309.08-.53.13-1.16.13-1.909v-.46c0-.74-.04-1.379-.13-1.908-.08-.53-.22-.96-.408-1.3-.18-.35-.428-.6-.757-.76-.308-.14-.697-.22-1.165-.22zm12.335-2.09c.349 0 .637.08.856.23.23.16.339.41.339.76v11.024c0 .35-.11.6-.339.76-.229.16-.497.23-.806.23-.309 0-.577-.08-.806-.23-.23-.15-.339-.41-.339-.76v-9.315l-2.31 1.33c-.298.17-.577.2-.846.11-.258-.11-.468-.29-.607-.56-.13-.24-.17-.5-.13-.77.05-.28.21-.49.488-.65L39.2 57.46c.308-.17.577-.29.806-.36.23-.07.448-.11.667-.11zM39.867 6.997h21.902c.827 0 1.494.67 1.494 1.499 0 .83-.667 1.5-1.494 1.5H39.867c-.826 0-1.493-.67-1.493-1.5s.667-1.5 1.493-1.5z"/>
    <path fill="#fff" d="M96.902 131l-4.749-8.655 34.088-18.51L131 112.48"/>
    <path fill="#fff" stroke="#000" stroke-linecap="round" stroke-linejoin="round" stroke-miterlimit="10" stroke-width="2" d="M97.57 119.406l22.738-12.353c.807-3.328.886-6.826.319-10.205-.399-2.378-1.155-4.597-2.081-6.746-.996-2.309-2.19-4.547-3.355-6.826l-5.774-11.364c-1.046-2.05-3.584-2.879-5.645-1.84-2.061 1.04-2.897 3.569-1.852 5.618l1.633 3.208-.07.04-2.777-5.467c-1.046-2.049-3.584-2.879-5.645-1.839-2.061 1.04-2.897 3.568-1.852 5.617l2.778 5.467-.08.04-2.778-5.467c-1.045-2.049-3.584-2.879-5.644-1.84-2.061 1.04-2.897 3.569-1.852 5.618 0 0 2.777 5.467 2.767 5.477l-10.134-19.99c-1.046-2.048-3.584-2.878-5.645-1.838-2.06 1.04-2.897 3.568-1.852 5.617L83.084 94.57c.289.59.578 1.179.876 1.769l4.112 8.095-10.812-6.196c-2-1.15-4.58-.47-5.734 1.529-.299.609-.727 1.729-.448 2.978.288 1.28 1.174 2.069 1.672 2.499 3.385 2.918 7.407 5.537 8.562 6.276 1.384.89 2.23 1.43 3.405 2.109 3.912 2.269 8.263 4.428 12.614 5.737.07-.01.159.02.239.04z"/>
    <path stroke="#000" stroke-linecap="round" stroke-linejoin="round" stroke-miterlimit="10" stroke-width="2" d="M96.902 131l-4.749-8.655 34.088-18.51L131 112.48"/>
</svg>
