<svg xmlns="http://www.w3.org/2000/svg" width="14" height="13" fill="none" viewBox="0 0 14 13">
    <path fill="#898989" fill-rule="evenodd" d="M8.427.824c-.634-1.099-2.22-1.099-2.854 0L.223 10.09c-.634 1.099.159 2.472 1.427 2.472h10.7c1.268 0 2.06-1.373 1.427-2.472L8.427.824zm-.956 7.65H6.334l-.257-3.342-.059-1.562h1.77l-.06 1.562-.257 3.341zm.475 1.71c0 .612-.435 1.096-1.048 1.096-.603 0-1.038-.484-1.038-1.097 0-.603.435-1.087 1.038-1.087.613 0 1.048.484 1.048 1.087z" clip-rule="evenodd"/>
</svg>
