<svg xmlns="http://www.w3.org/2000/svg" width="99.652" height="99.652" viewBox="0 0 99.652 99.652">
  <g id="chip" transform="translate(0 0)">
    <path id="패스_43" data-name="패스 43" d="M167.413,128.531H139.269a10.75,10.75,0,0,0-10.738,10.738v28.144a10.75,10.75,0,0,0,10.738,10.738h28.144a10.75,10.75,0,0,0,10.738-10.738V139.269A10.75,10.75,0,0,0,167.413,128.531Zm4.9,38.882a4.9,4.9,0,0,1-4.9,4.9H139.269a4.9,4.9,0,0,1-4.9-4.9V139.269a4.9,4.9,0,0,1,4.9-4.9h28.144a4.9,4.9,0,0,1,4.9,4.9Zm0,0" transform="translate(-103.515 -103.514)" fill="#fff"/>
    <path id="패스_44" data-name="패스 44" d="M96.733,39.456a2.92,2.92,0,0,0,0-5.839H87.144V26.165h9.589a2.92,2.92,0,1,0,0-5.839h-10a10.777,10.777,0,0,0-7.411-7.411v-10a2.919,2.919,0,1,0-5.839,0v9.589H66.036V2.92a2.92,2.92,0,0,0-5.839,0v9.589H52.746V2.92a2.92,2.92,0,1,0-5.839,0v9.589H39.456V2.92a2.92,2.92,0,1,0-5.839,0v9.589H26.165V2.92a2.92,2.92,0,0,0-5.839,0v10a10.776,10.776,0,0,0-7.411,7.411h-10a2.92,2.92,0,0,0,0,5.839h9.589v7.451H2.919a2.92,2.92,0,1,0,0,5.839h9.589v7.452H2.919a2.92,2.92,0,0,0,0,5.839h9.589V60.2H2.919a2.92,2.92,0,0,0,0,5.839h9.589v7.452H2.919a2.92,2.92,0,0,0,0,5.839h10a10.78,10.78,0,0,0,7.411,7.411v10a2.92,2.92,0,0,0,5.839,0V87.144h7.452v9.589a2.92,2.92,0,0,0,5.839,0V87.144h7.451v9.589a2.919,2.919,0,0,0,5.839,0V87.144H60.2v9.589a2.92,2.92,0,0,0,5.839,0V87.144h7.451v9.589a2.92,2.92,0,0,0,5.839,0v-10a10.778,10.778,0,0,0,7.411-7.411h10a2.919,2.919,0,1,0,0-5.839H87.144V66.036h9.589a2.92,2.92,0,1,0,0-5.839H87.144V52.746h9.589a2.92,2.92,0,0,0,0-5.839H87.144V39.456ZM76.406,81.305H23.245a4.9,4.9,0,0,1-4.9-4.9V23.246a4.9,4.9,0,0,1,4.9-4.9H76.407a4.9,4.9,0,0,1,4.9,4.9V76.407a4.9,4.9,0,0,1-4.9,4.9Zm0,0" fill="#fff"/>
  </g>
</svg>
