            <svg id="github" xmlns="http://www.w3.org/2000/svg" viewBox="0 0 36.257 35.362">
              <path class="githubcolor" id="패스_4" data-name="패스 4"
                d="M18.128,0A18.13,18.13,0,0,0,12.4,35.331c.906.168,1.239-.393,1.239-.872,0-.432-.017-1.86-.025-3.375C8.568,32.18,7.5,28.944,7.5,28.944a4.8,4.8,0,0,0-2.013-2.652c-1.645-1.125.124-1.1.124-1.1a3.811,3.811,0,0,1,2.779,1.868,3.859,3.859,0,0,0,5.275,1.507,3.86,3.86,0,0,1,1.151-2.424c-4.026-.459-8.259-2.013-8.259-8.959a7.016,7.016,0,0,1,1.868-4.866,6.514,6.514,0,0,1,.176-4.8s1.522-.487,4.987,1.858a17.2,17.2,0,0,1,9.079,0c3.46-2.346,4.98-1.858,4.98-1.858a6.506,6.506,0,0,1,.178,4.8,7,7,0,0,1,1.866,4.866c0,6.963-4.241,8.5-8.278,8.945a4.334,4.334,0,0,1,1.23,3.357c0,2.426-.021,4.378-.021,4.975,0,.482.326,1.048,1.245.87A18.131,18.131,0,0,0,18.128,0"
                transform="translate(0 0)" fill="#888" />
              <path id="패스_5" data-name="패스 5"
                d="M44.825,179.779c-.04.09-.182.117-.311.055s-.205-.182-.163-.272.181-.119.312-.056.207.183.161.273m.892.8c-.086.08-.255.043-.37-.084a.277.277,0,0,1-.053-.377c.089-.08.253-.043.372.084s.142.3.051.377m.612,1.018c-.111.077-.293,0-.405-.156s-.111-.354,0-.432.291-.008.405.152.111.357,0,.436m1.035,1.179c-.1.109-.311.08-.466-.069a.349.349,0,0,1-.1-.463c.1-.11.313-.079.469.069s.205.355.1.463m1.337.4c-.044.142-.248.206-.453.146s-.339-.228-.3-.372.247-.21.454-.146.339.227.3.371m1.522.169c.005.15-.169.274-.385.276s-.392-.116-.394-.263.17-.274.387-.277.392.116.392.264m1.495-.057c.026.146-.124.3-.338.336s-.405-.052-.432-.2.127-.3.337-.338.406.05.434.2"
                transform="translate(-38.036 -153.955)" fill="#161614" />
            </svg>