             <svg id="kakaotalk" xmlns="http://www.w3.org/2000/svg" viewBox="0 0 35.362 35.362">
              <g id="그룹_3" data-name="그룹 3" transform="translate(-1602 -43)">
                <path class="kakaocolor" id="패스_1" data-name="패스 1"
                  d="M35.362,32.6A2.763,2.763,0,0,1,32.6,35.362H2.763A2.763,2.763,0,0,1,0,32.6V2.763A2.763,2.763,0,0,1,2.763,0H32.6a2.763,2.763,0,0,1,2.763,2.763Z"
                  transform="translate(1602 43)" fill="#cacaca" />
                <path id="패스_2" data-name="패스 2"
                  d="M38.366,36C30.432,36,24,41.071,24,47.327c0,4.044,2.689,7.593,6.734,9.6-.22.759-1.414,4.882-1.462,5.206,0,0-.029.243.129.336a.433.433,0,0,0,.343.021c.452-.063,5.241-3.427,6.07-4.011a18.2,18.2,0,0,0,2.552.178c7.934,0,14.366-5.071,14.366-11.327S46.3,36,38.366,36Z"
                  transform="translate(1581.315 11.973)" />
                <path class="kakaocolor" id="패스_3" data-name="패스 3"
                  d="M52.185,100.838a.812.812,0,0,1-.829-.791V95.123H50.063a.812.812,0,1,1,0-1.623h4.244a.812.812,0,1,1,0,1.623H53.014v4.924A.812.812,0,0,1,52.185,100.838Zm7.267-.011a.68.68,0,0,1-.69-.366l-.41-1.074H55.825l-.411,1.075a.679.679,0,0,1-.689.365,1.264,1.264,0,0,1-.527-.114c-.228-.105-.448-.4-.2-1.177l1.982-5.218a1.155,1.155,0,0,1,2.209,0l1.982,5.216c.252.783.033,1.073-.2,1.179a1.267,1.267,0,0,1-.527.114Zm-1.536-2.909-.828-2.352-.828,2.352Zm3.592,2.8a.778.778,0,0,1-.794-.76V94.329a.846.846,0,0,1,1.692,0V99.2h1.761a.76.76,0,1,1,0,1.519Zm4.6.11a.83.83,0,0,1-.829-.829v-5.67a.829.829,0,0,1,1.658,0V96.11L69.255,93.8a.644.644,0,0,1,.46-.184.839.839,0,0,1,.814.77.646.646,0,0,1-.183.5l-1.889,1.888,2.04,2.7a.829.829,0,0,1-1.323,1L67.23,97.9l-.288.288V100a.83.83,0,0,1-.829.829Z"
                  transform="translate(1559.553 -37.585)" fill="#cacaca" />
              </g>
            </svg>