<svg xmlns="http://www.w3.org/2000/svg" xmlns:xlink="http://www.w3.org/1999/xlink" width="38" height="38" viewBox="0 0 38 38">
  <defs>
    <clipPath id="clip-path">
      <rect id="사각형_124" data-name="사각형 124" width="38" height="38" transform="translate(18452.301 2648)" fill="none" stroke="#707070" stroke-width="1"/>
    </clipPath>
  </defs>
  <g id="마스크_그룹_13" data-name="마스크 그룹 13" transform="translate(-18452.301 -2648)" clip-path="url(#clip-path)">
    <g id="그룹_56" data-name="그룹 56" transform="translate(18452 2647.499)">
      <path id="빼기_5" data-name="빼기 5" d="M-18518-2575a8.011,8.011,0,0,1-8-8,8.01,8.01,0,0,1,8-8,8.011,8.011,0,0,1,8,8A8.011,8.011,0,0,1-18518-2575Zm-2.514-11.677a.725.725,0,0,0-.461.166,4.943,4.943,0,0,0-1.8,4.292,4.952,4.952,0,0,0,4.543,4.436q.182.014.363.014a4.923,4.923,0,0,0,4.918-4.919,4.9,4.9,0,0,0-1.84-3.831.7.7,0,0,0-.445-.16.731.731,0,0,0-.732.727.739.739,0,0,0,.279.572,3.465,3.465,0,0,1,1.283,2.692,3.474,3.474,0,0,1-3.467,3.472,3.57,3.57,0,0,1-.4-.022,3.488,3.488,0,0,1-3.055-3.083,3.471,3.471,0,0,1,1.264-3.055.747.747,0,0,0,.279-.577A.718.718,0,0,0-18520.514-2586.676Zm2.635-2.024a.725.725,0,0,0-.725.725v3.338a.725.725,0,0,0,.725.725.727.727,0,0,0,.727-.725v-3.338A.727.727,0,0,0-18517.879-2588.7Z" transform="translate(18546.301 2612)" fill="#fff"/>
      <path id="빼기_2" data-name="빼기 2" d="M32,7H0V-1H32V7ZM26.5,1.334a1.5,1.5,0,1,0,1.5,1.5A1.5,1.5,0,0,0,26.5,1.334ZM4,2A1,1,0,0,0,4,4H15a1,1,0,0,0,0-2Z" transform="translate(3 3)" fill="#fff"/>
      <path id="빼기_3" data-name="빼기 3" d="M-18508.7-2583h-17.3v-8h32v6.648a9.842,9.842,0,0,0-6.75-2.645,9.853,9.853,0,0,0-7.951,4Z" transform="translate(18529 2606)" fill="#fff"/>
      <path id="빼기_4" data-name="빼기 4" d="M-18507.873-2576H-18526v-8h14.8c-.033.33-.049.666-.049,1a8.434,8.434,0,0,0,3.373,7Z" transform="translate(18529 2612)" fill="#fff"/>
    </g>
  </g>
</svg>
