<svg xmlns="http://www.w3.org/2000/svg" width="38" height="38" viewBox="0 0 38 38">
  <g id="profile-user" transform="translate(0 -0.001)">
    <path id="패스_22" data-name="패스 22" d="M19,0A19,19,0,1,0,38,19,19,19,0,0,0,19,0Zm0,5.681a6.285,6.285,0,1,1-6.284,6.285A6.285,6.285,0,0,1,19,5.682Zm0,27.351a13.944,13.944,0,0,1-9.08-3.348,2.678,2.678,0,0,1-.94-2.036,6.338,6.338,0,0,1,6.369-6.336h7.313a6.329,6.329,0,0,1,6.359,6.336,2.672,2.672,0,0,1-.939,2.035A13.939,13.939,0,0,1,19,33.033Z" fill="#1d1d1d"/>
  </g>
</svg>
