<svg xmlns="http://www.w3.org/2000/svg" xmlns:xlink="http://www.w3.org/1999/xlink" width="5398" height="3641" viewBox="0 0 5398 3641">
  <defs>
    <clipPath id="clip-path">
      <rect id="사각형_237" data-name="사각형 237" width="5398" height="3641" transform="translate(-6892 -23140)" fill="#fff" stroke="#707070" stroke-width="1"/>
    </clipPath>
    <filter id="사각형_119" x="431.443" y="365.086" width="4375.144" height="1123.801" filterUnits="userSpaceOnUse">
      <feOffset dx="-30" dy="30" input="SourceAlpha"/>
      <feGaussianBlur stdDeviation="45" result="blur"/>
      <feFlood flood-opacity="0.102"/>
      <feComposite operator="in" in2="blur"/>
      <feComposite in="SourceGraphic"/>
    </filter>
    <clipPath id="clip-path-2">
      <rect id="사각형_39" data-name="사각형 39" width="271.664" height="228.543" fill="#fff" stroke="#707070" stroke-width="1" opacity="0.5"/>
    </clipPath>
    <clipPath id="clip-path-3">
      <rect id="사각형_11" data-name="사각형 11" width="237.167" height="237.167" fill="#fff" stroke="#707070" stroke-width="1" opacity="0.5"/>
    </clipPath>
    <filter id="사각형_119-2" x="431.443" y="1389.936" width="4375.144" height="1123.801" filterUnits="userSpaceOnUse">
      <feOffset dx="-30" dy="30" input="SourceAlpha"/>
      <feGaussianBlur stdDeviation="45" result="blur-2"/>
      <feFlood flood-opacity="0.102"/>
      <feComposite operator="in" in2="blur-2"/>
      <feComposite in="SourceGraphic"/>
    </filter>
    <filter id="사각형_119-3" x="418.58" y="2414.783" width="4375.144" height="1123.801" filterUnits="userSpaceOnUse">
      <feOffset dx="-30" dy="30" input="SourceAlpha"/>
      <feGaussianBlur stdDeviation="45" result="blur-3"/>
      <feFlood flood-opacity="0.102"/>
      <feComposite operator="in" in2="blur-3"/>
      <feComposite in="SourceGraphic"/>
    </filter>
    <clipPath id="clip-path-6">
      <rect id="사각형_38" data-name="사각형 38" width="271.664" height="228.543" transform="translate(0 0)" fill="#fff" stroke="#707070" stroke-width="1" opacity="0.5"/>
    </clipPath>
    <clipPath id="clip-path-7">
      <rect id="사각형_12" data-name="사각형 12" width="237.167" height="237.167" transform="translate(0 0)" fill="#fff" stroke="#707070" stroke-width="1" opacity="0.5"/>
    </clipPath>
  </defs>
  <g id="마스크_그룹_61" data-name="마스크 그룹 61" transform="translate(6892 23140)" clip-path="url(#clip-path)">
    <g id="그룹_343" data-name="그룹 343" transform="translate(-967 943.064)">
      <g id="그룹_342" data-name="그룹 342" transform="translate(-7223.936 -2129.297)">
        <rect id="사각형_236" data-name="사각형 236" width="4579.477" height="3640.871" transform="translate(1711.395 -21953.703)" fill="#fff"/>
        <g transform="matrix(1, 0, 0, 1, 1298.94, -21953.77)" filter="url(#사각형_119)">
          <rect id="사각형_119-4" data-name="사각형 119" width="4105.144" height="853.801" rx="27" transform="translate(596.44 470.09)" fill="#fff"/>
        </g>
        <text id="Mebong_Group" data-name="Mebong Group" transform="translate(2133.983 -21206.316)" fill="#333" font-size="147" font-family="NotoSansKR-Bold, Noto Sans KR" font-weight="700"><tspan x="0" y="0">Mebong Group</tspan></text>
        <g id="마스크_그룹_11" data-name="마스크 그룹 11" transform="translate(5566.436 -21426.186)" clip-path="url(#clip-path-2)">
          <path id="패스_127" data-name="패스 127" d="M185.766,59.346a8.044,8.044,0,0,1-6.3-3.044,104.977,104.977,0,0,0-165.069,0A8.082,8.082,0,1,1,1.772,46.2a121.087,121.087,0,0,1,190.31,0,8.088,8.088,0,0,1-6.3,13.142Zm-69.332,70.126a8.077,8.077,0,0,1-6.946-3.946,14.98,14.98,0,0,0-25.133,0,8.088,8.088,0,0,1-13.882-8.294,30.655,30.655,0,0,1,52.885,0,8.1,8.1,0,0,1-2.8,11.044,7.99,7.99,0,0,1-4.12,1.2Zm30.133-41.308a8.088,8.088,0,1,0,13.327-9.142,76.094,76.094,0,0,0-125.957,0,8.088,8.088,0,1,0,13.327,9.142,59.94,59.94,0,0,1,99.291,0Z" transform="translate(24.824 75.989)" fill="#30a0ff" fill-rule="evenodd"/>
        </g>
        <g id="마스크_그룹_5" data-name="마스크 그룹 5" transform="translate(2113.86 -21029.471)" clip-path="url(#clip-path-3)">
          <path id="패스_97" data-name="패스 97" d="M122.408,0H17.487C7.866,0,0,5.381,0,12.053V48.21C0,72.681,26.828,93.009,61.2,96v42.6H26.236v12.053H113.67V138.6H78.686V96C113.068,93.009,139.9,72.681,139.9,48.21V12.053C139.9,5.381,132.029,0,122.408,0Zm0,30.131V48.21c0,19.94-23.535,36.158-52.461,36.158S17.487,68.15,17.487,48.21V12.053H122.408Z" transform="translate(43.045 43.533)" fill="#4d708c" fill-rule="evenodd"/>
        </g>
        <text id="_" data-name="₭" transform="translate(4699.581 -20847.971)" fill="#4367b2" font-size="179" font-family="SegoeUI, Segoe UI"><tspan x="-89.5" y="0">₭</tspan></text>
        <text id="_540_000" data-name="540,000" transform="translate(5578.382 -20840.715)" fill="#4367b2" font-size="217" font-family="NotoSansKR-Bold, Noto Sans KR" font-weight="700"><tspan x="-837.403" y="0">540,000</tspan></text>
        <g id="그룹_266" data-name="그룹 266" transform="translate(5631.117 -21016.535)">
          <text id="_0" data-name="0" transform="translate(164.181 174)" fill="#aaa" font-size="150" font-family="NotoSansKR-Bold, Noto Sans KR" font-weight="700"><tspan x="-88.35" y="0">0</tspan></text>
          <text id="_2" data-name="/" transform="translate(37 159.871)" fill="#aaa" font-size="96" font-family="NotoSansKR-Medium, Noto Sans KR" font-weight="500"><tspan x="-37.44" y="0">/</tspan></text>
        </g>
        <text id="PSLA197C002" transform="translate(3080.027 -20861.973)" fill="#4d708c" font-size="115" font-family="NotoSansKR-Regular, Noto Sans KR"><tspan x="-728.985" y="0">PSLA197C002</tspan></text>
        <g transform="matrix(1, 0, 0, 1, 1298.94, -21953.77)" filter="url(#사각형_119-2)">
          <rect id="사각형_119-5" data-name="사각형 119" width="4105.144" height="853.801" rx="27" transform="translate(596.44 1494.94)" fill="#fff"/>
        </g>
        <text id="Mebong_Group-2" data-name="Mebong Group" transform="translate(2133.983 -20181.469)" fill="#333" font-size="147" font-family="NotoSansKR-Bold, Noto Sans KR" font-weight="700"><tspan x="0" y="0">Mebong Group</tspan></text>
        <g id="마스크_그룹_11-2" data-name="마스크 그룹 11" transform="translate(5566.436 -20401.338)" clip-path="url(#clip-path-2)">
          <path id="패스_127-2" data-name="패스 127" d="M185.766,59.346a8.044,8.044,0,0,1-6.3-3.044,104.977,104.977,0,0,0-165.069,0A8.082,8.082,0,1,1,1.772,46.2a121.087,121.087,0,0,1,190.31,0,8.088,8.088,0,0,1-6.3,13.142Zm-69.332,70.126a8.077,8.077,0,0,1-6.946-3.946,14.98,14.98,0,0,0-25.133,0,8.088,8.088,0,0,1-13.882-8.294,30.655,30.655,0,0,1,52.885,0,8.1,8.1,0,0,1-2.8,11.044,7.99,7.99,0,0,1-4.12,1.2Zm30.133-41.308a8.088,8.088,0,1,0,13.327-9.142,76.094,76.094,0,0,0-125.957,0,8.088,8.088,0,1,0,13.327,9.142,59.94,59.94,0,0,1,99.291,0Z" transform="translate(24.824 75.989)" fill="#30a0ff" fill-rule="evenodd"/>
        </g>
        <g id="마스크_그룹_5-2" data-name="마스크 그룹 5" transform="translate(2113.86 -20004.621)" clip-path="url(#clip-path-3)">
          <path id="패스_97-2" data-name="패스 97" d="M122.408,0H17.487C7.866,0,0,5.381,0,12.053V48.21C0,72.681,26.828,93.009,61.2,96v42.6H26.236v12.053H113.67V138.6H78.686V96C113.068,93.009,139.9,72.681,139.9,48.21V12.053C139.9,5.381,132.029,0,122.408,0Zm0,30.131V48.21c0,19.94-23.535,36.158-52.461,36.158S17.487,68.15,17.487,48.21V12.053H122.408Z" transform="translate(43.045 43.533)" fill="#4d708c" fill-rule="evenodd"/>
        </g>
        <text id="_3" data-name="₭" transform="translate(4506.972 -19801.561)" fill="#4367b2" font-size="179" font-family="SegoeUI, Segoe UI"><tspan x="-89.5" y="0">₭</tspan></text>
        <text id="_2_100_000" data-name="2,100,000" transform="translate(5579.024 -19815.865)" fill="#4367b2" font-size="217" font-family="NotoSansKR-Bold, Noto Sans KR" font-weight="700"><tspan x="-1035.741" y="0">2,100,000</tspan></text>
        <g id="그룹_266-2" data-name="그룹 266" transform="translate(5631.117 -19991.686)">
          <text id="_0-2" data-name="0" transform="translate(164.181 174)" fill="#aaa" font-size="150" font-family="NotoSansKR-Bold, Noto Sans KR" font-weight="700"><tspan x="-88.35" y="0">0</tspan></text>
          <text id="_4" data-name="/" transform="translate(37 159.871)" fill="#aaa" font-size="96" font-family="NotoSansKR-Medium, Noto Sans KR" font-weight="500"><tspan x="-37.44" y="0">/</tspan></text>
        </g>
        <text id="PSLA197C002-2" data-name="PSLA197C002" transform="translate(3080.027 -19837.127)" fill="#4d708c" font-size="115" font-family="NotoSansKR-Regular, Noto Sans KR"><tspan x="-728.985" y="0">PSLA197C002</tspan></text>
        <g transform="matrix(1, 0, 0, 1, 1298.94, -21953.77)" filter="url(#사각형_119-3)">
          <rect id="사각형_119-6" data-name="사각형 119" width="4105.144" height="853.801" rx="27" transform="translate(583.58 2519.78)" fill="#fff"/>
        </g>
        <text id="Mebong_Group-3" data-name="Mebong Group" transform="translate(2121.12 -19156.619)" fill="#333" font-size="147" font-family="NotoSansKR-Bold, Noto Sans KR" font-weight="700"><tspan x="0" y="0">Mebong Group</tspan></text>
        <g id="그룹_271" data-name="그룹 271" transform="translate(5325.029 -19043.02)">
          <g id="그룹_265" data-name="그룹 265">
            <text id="_5" data-name="₭" transform="translate(89 251.932)" fill="#4367b2" font-size="179" font-family="SegoeUI, Segoe UI"><tspan x="-89.5" y="0">₭</tspan></text>
            <text id="_0-3" data-name="0" transform="translate(244.865 251)" fill="#4367b2" font-size="216" font-family="NotoSansKR-Bold, Noto Sans KR" font-weight="700"><tspan x="-127.224" y="0">0</tspan></text>
          </g>
          <g id="그룹_266-3" data-name="그룹 266" transform="translate(293.225 76.181)">
            <text id="_0-4" data-name="0" transform="translate(164.181 174)" fill="#aaa" font-size="150" font-family="NotoSansKR-Bold, Noto Sans KR" font-weight="700"><tspan x="-88.35" y="0">0</tspan></text>
            <text id="_6" data-name="/" transform="translate(37 159.871)" fill="#aaa" font-size="96" font-family="NotoSansKR-Medium, Noto Sans KR" font-weight="500"><tspan x="-37.44" y="0">/</tspan></text>
          </g>
        </g>
        <text id="PSLA197C002-3" data-name="PSLA197C002" transform="translate(3067.164 -18812.277)" fill="#4d708c" font-size="115" font-family="NotoSansKR-Regular, Noto Sans KR"><tspan x="-728.985" y="0">PSLA197C002</tspan></text>
        <g id="마스크_그룹_10" data-name="마스크 그룹 10" transform="translate(5554.291 -19376.916)" clip-path="url(#clip-path-6)">
          <path id="패스_99" data-name="패스 99" d="M72.427,161.123a32.153,32.153,0,0,1,54.349,0A7.826,7.826,0,0,1,123.9,172.08a8.468,8.468,0,0,1-4.239,1.087,8.37,8.37,0,0,1-7.142-3.9,15.74,15.74,0,0,0-25.827,0,8.479,8.479,0,0,1-11.381,2.772,7.826,7.826,0,0,1-2.881-10.913ZM96.917,45.457A66.132,66.132,0,0,1,160.452.01a65.219,65.219,0,0,1,66.382,63.948,64.937,64.937,0,0,1-61.219,63.7,7.761,7.761,0,0,1-3.457,6.848,8.511,8.511,0,0,1-11.544-2.076,60.691,60.691,0,0,0-5.1-6.207,66.828,66.828,0,0,1-33.371-18.479,63.427,63.427,0,0,0-12.555-1.348,62.524,62.524,0,0,0-51.023,26.088,8.5,8.5,0,0,1-11.544,2.076,7.815,7.815,0,0,1-2.174-11.109A79.35,79.35,0,0,1,99.6,90.4h.478a61.665,61.665,0,0,1-6.011-26.468,10.022,10.022,0,0,1,.065-1.4c.065-.467,0-.641.054-.967a109.405,109.405,0,0,0-79.4,39.36,8.511,8.511,0,0,1-11.663,1.261,7.794,7.794,0,0,1-1.3-11.239,126.275,126.275,0,0,1,95.1-45.49ZM159.832,117.2a4.351,4.351,0,0,0,.62.054A54.349,54.349,0,0,0,215.769,63.99a54.349,54.349,0,0,0-55.317-53.262A55.165,55.165,0,0,0,108.7,45.8a51.088,51.088,0,0,0-3.261,15.816,10.471,10.471,0,0,1-.12,1.087,8.694,8.694,0,0,0-.13,1.294,51.371,51.371,0,0,0,8.337,27.783,55.556,55.556,0,0,0,45.795,25.392,4.662,4.662,0,0,1,.467.022ZM178.67,38.881a5.685,5.685,0,0,1,7.826,0,5.185,5.185,0,0,1,0,7.533L168.278,63.957l5.076,4.891,13.131,12.685a5.185,5.185,0,0,1,0,7.533,5.674,5.674,0,0,1-7.826,0L160.452,71.5l-5.065,4.881L142.234,89.045a5.674,5.674,0,0,1-7.826,0,5.185,5.185,0,0,1,0-7.533L145.2,71.11l7.424-7.152L140.06,51.848l-5.641-5.435a5.185,5.185,0,0,1,0-7.533,5.685,5.685,0,0,1,7.826,0l18.207,17.544Z" transform="translate(21.738 32.875)" fill="#ff4145" fill-rule="evenodd"/>
        </g>
        <line id="선_93" data-name="선 93" x2="4585.149" transform="translate(1705.723 -21952.557)" fill="none" stroke="#f0f0f0" stroke-width="12"/>
        <line id="선_94" data-name="선 94" x2="4585.149" transform="translate(1705 -21606.15)" fill="none" stroke="#f0f0f0" stroke-width="12"/>
        <text id="Branches" transform="translate(1930.676 -21742.877)" fill="#303030" font-size="125" font-family="NotoSansKR-Medium, Noto Sans KR" font-weight="500"><tspan x="0" y="0">Branches</tspan></text>
        <g id="마스크_그룹_6" data-name="마스크 그룹 6" transform="translate(2080.155 -18984.514)" clip-path="url(#clip-path-7)">
          <path id="패스_98" data-name="패스 98" d="M151.007,106.967H56.563L26.092,12.587H0V0H34.872l8.122,25.164H172.579ZM65.353,94.379h76.3l14.96-56.627H47.071Zm1.7,56.627a18.887,18.887,0,1,1,18.337-18.876,18.606,18.606,0,0,1-18.337,18.876Zm0-25.164a6.3,6.3,0,1,0,6.094,6.288,6.2,6.2,0,0,0-6.094-6.288Zm73.163,25.164a18.887,18.887,0,1,1,18.337-18.876,18.606,18.606,0,0,1-18.337,18.876Zm0-25.164a6.3,6.3,0,1,0,6.094,6.288,6.2,6.2,0,0,0-6.094-6.288Z" transform="translate(32.358 43.145)" fill="#4d708c" fill-rule="evenodd"/>
        </g>
      </g>
    </g>
  </g>
</svg>
