<svg xmlns="http://www.w3.org/2000/svg" xmlns:xlink="http://www.w3.org/1999/xlink" width="39" height="39" viewBox="0 0 39 39">
  <defs>
    <clipPath id="clip-path">
      <rect id="사각형_192" data-name="사각형 192" width="39" height="39" transform="translate(2478 8240.101)" fill="#fff" stroke="#707070" stroke-width="1" opacity="0.5"/>
    </clipPath>
  </defs>
  <g id="마스크_그룹_23" data-name="마스크 그룹 23" transform="translate(-2478 -8240.101)" clip-path="url(#clip-path)">
    <path id="money-bill-wave-solid" d="M37.946,33.372A18.09,18.09,0,0,0,30.835,32c-7.524,0-15.048,3.808-22.572,3.808A18.535,18.535,0,0,1,2.6,34.97a2.089,2.089,0,0,0-.632-.1A1.944,1.944,0,0,0,0,36.814V56.2A1.943,1.943,0,0,0,1.151,58a18.08,18.08,0,0,0,7.111,1.373c7.524,0,15.049-3.809,22.573-3.809a18.535,18.535,0,0,1,5.66.838,2.089,2.089,0,0,0,.632.1,1.944,1.944,0,0,0,1.97-1.943V35.172a1.945,1.945,0,0,0-1.152-1.8ZM2.932,38.122a21.259,21.259,0,0,0,3.832.546,3.914,3.914,0,0,1-3.832,3.149Zm0,17.41V52.614a3.908,3.908,0,0,1,3.892,3.751A14.757,14.757,0,0,1,2.932,55.533Zm16.616-3.984c-2.7,0-4.887-2.626-4.887-5.865s2.188-5.865,4.887-5.865,4.887,2.626,4.887,5.865S22.247,51.549,19.549,51.549Zm16.616,1.7a21.005,21.005,0,0,0-3.318-.516,3.9,3.9,0,0,1,3.318-3.01Zm0-14.424a3.9,3.9,0,0,1-3.409-3.76,14.685,14.685,0,0,1,3.409.773Z" transform="translate(2478 8214.186)" fill="#2f528f"/>
  </g>
</svg>
