<svg xmlns="http://www.w3.org/2000/svg" xmlns:xlink="http://www.w3.org/1999/xlink" width="39" height="39" viewBox="0 0 39 39">
  <defs>
    <clipPath id="clip-path">
      <rect id="사각형_249" data-name="사각형 249" width="39" height="39" transform="translate(3100 9124)" fill="#2f528f" stroke="#707070" stroke-width="1" opacity="0.5"/>
    </clipPath>
  </defs>
  <g id="마스크_그룹_49" data-name="마스크 그룹 49" transform="translate(-3100 -9124)" clip-path="url(#clip-path)">
    <g id="qr-code" transform="translate(3100 9124)">
      <path id="패스_212" data-name="패스 212" d="M371.5,0h6.246a1.219,1.219,0,1,1,0,2.438H371.5A1.068,1.068,0,0,0,370.438,3.5V9.75a1.219,1.219,0,1,1-2.437,0V3.5A3.508,3.508,0,0,1,371.5,0Z" transform="translate(-368 0)" fill="#2f528f"/>
      <path id="패스_213" data-name="패스 213" d="M9.75,10.969A1.219,1.219,0,0,1,8.531,9.75V3.5A1.068,1.068,0,0,0,7.465,2.438H1.219A1.219,1.219,0,1,1,1.219,0H7.465a3.508,3.508,0,0,1,3.5,3.5V9.75A1.219,1.219,0,0,1,9.75,10.969Z" transform="translate(28.031)" fill="#2f528f"/>
      <path id="패스_214" data-name="패스 214" d="M1.219,376.531H7.465a1.068,1.068,0,0,0,1.066-1.066v-6.246a1.219,1.219,0,1,1,2.438,0v6.246a3.508,3.508,0,0,1-3.5,3.5H1.219a1.219,1.219,0,0,1,0-2.438Z" transform="translate(28.031 -339.969)" fill="#2f528f"/>
      <path id="패스_215" data-name="패스 215" d="M369.219,368a1.219,1.219,0,0,1,1.219,1.219v6.246a1.068,1.068,0,0,0,1.066,1.066h6.246a1.219,1.219,0,1,1,0,2.438H371.5a3.508,3.508,0,0,1-3.5-3.5v-6.246A1.219,1.219,0,0,1,369.219,368Z" transform="translate(-368 -339.969)" fill="#2f528f"/>
      <path id="패스_216" data-name="패스 216" d="M273.98,285.406a1.983,1.983,0,0,1-1.98-1.98v-3.352a1.983,1.983,0,0,1,1.98-1.98h2.895V273.98a1.983,1.983,0,0,1,1.98-1.98h4.57a1.983,1.983,0,0,1,1.98,1.98v4.57a1.983,1.983,0,0,1-1.98,1.98h-4.113v2.895a1.983,1.983,0,0,1-1.98,1.98Zm.838-2.437h1.676a.381.381,0,0,0,.381-.381v-1.676a.381.381,0,0,0-.381-.381h-1.676a.381.381,0,0,0-.381.381v1.676A.381.381,0,0,0,274.818,282.969Z" transform="translate(-267.125 -251.281)" fill="#2f528f"/>
      <path id="패스_217" data-name="패스 217" d="M67.5,64h6.4a3.508,3.508,0,0,1,3.5,3.5v6.4a3.508,3.508,0,0,1-3.5,3.5H67.5A3.508,3.508,0,0,1,64,73.9V67.5A3.508,3.508,0,0,1,67.5,64Zm1.371,7.313a1.219,1.219,0,0,0,1.219,1.219h1.219a1.219,1.219,0,0,0,1.219-1.219V70.094a1.219,1.219,0,0,0-1.219-1.219H70.094a1.219,1.219,0,0,0-1.219,1.219Z" transform="translate(-43.281 -59.125)" fill="#2f528f"/>
      <path id="패스_218" data-name="패스 218" d="M275.5,64h6.4a3.508,3.508,0,0,1,3.5,3.5v6.4a3.508,3.508,0,0,1-3.5,3.5h-6.4a3.508,3.508,0,0,1-3.5-3.5V67.5A3.508,3.508,0,0,1,275.5,64Zm1.371,7.313a1.219,1.219,0,0,0,1.219,1.219h1.219a1.219,1.219,0,0,0,1.219-1.219V70.094a1.219,1.219,0,0,0-1.219-1.219h-1.219a1.219,1.219,0,0,0-1.219,1.219Z" transform="translate(-267.125 -59.125)" fill="#2f528f"/>
      <path id="패스_219" data-name="패스 219" d="M67.5,272h6.4a3.508,3.508,0,0,1,3.5,3.5v6.4a3.508,3.508,0,0,1-3.5,3.5H67.5a3.508,3.508,0,0,1-3.5-3.5v-6.4A3.508,3.508,0,0,1,67.5,272Zm1.371,7.313a1.219,1.219,0,0,0,1.219,1.219h1.219a1.219,1.219,0,0,0,1.219-1.219v-1.219a1.219,1.219,0,0,0-1.219-1.219H70.094a1.219,1.219,0,0,0-1.219,1.219Z" transform="translate(-43.281 -251.281)" fill="#2f528f"/>
    </g>
  </g>
</svg>
