<svg xmlns="http://www.w3.org/2000/svg" xmlns:xlink="http://www.w3.org/1999/xlink" width="39" height="39" viewBox="0 0 39 39">
  <defs>
    <clipPath id="clip-path">
      <rect id="사각형_193" data-name="사각형 193" width="39" height="39" transform="translate(2536 8202.105)" fill="#fff" stroke="#707070" stroke-width="1" opacity="0.5"/>
    </clipPath>
  </defs>
  <g id="마스크_그룹_24" data-name="마스크 그룹 24" transform="translate(-2536 -8202.105)" clip-path="url(#clip-path)">
    <g id="profit-report" transform="translate(2541.284 8202)">
      <g id="그룹_292" data-name="그룹 292" transform="translate(19.553)">
        <g id="그룹_291" data-name="그룹 291" transform="translate(0)">
          <path id="패스_164" data-name="패스 164" d="M320,0V9.776h9.776Z" transform="translate(-320)" fill="#2f528f"/>
        </g>
      </g>
      <g id="그룹_294" data-name="그룹 294" transform="translate(0)">
        <g id="그룹_293" data-name="그룹 293" transform="translate(0)">
          <path id="패스_165" data-name="패스 165" d="M83.553,12.22a2.448,2.448,0,0,1-2.444-2.444V0H66.444A2.448,2.448,0,0,0,64,2.444V36.661a2.447,2.447,0,0,0,2.444,2.444H90.885a2.445,2.445,0,0,0,2.444-2.444V12.22Zm-9.776,22H68.888V26.885h4.888Zm7.332,0H76.22V22h4.888Zm7.332,0H83.553V17.108h4.888Z" transform="translate(-64)" fill="#2f528f"/>
        </g>
      </g>
    </g>
  </g>
</svg>
