<svg xmlns="http://www.w3.org/2000/svg" xmlns:xlink="http://www.w3.org/1999/xlink" width="39" height="39" viewBox="0 0 39 39">
  <defs>
    <clipPath id="clip-path">
      <rect id="사각형_194" data-name="사각형 194" width="39" height="39" transform="translate(2634 8251.782)" fill="#fff" stroke="#707070" stroke-width="1" opacity="0.5"/>
    </clipPath>
  </defs>
  <g id="마스크_그룹_25" data-name="마스크 그룹 25" transform="translate(-2634 -8251.782)" clip-path="url(#clip-path)">
    <path id="store-solid" d="M37.958,7.468,33.872.944A2.016,2.016,0,0,0,32.165,0H6.727A2.016,2.016,0,0,0,5.021.944L.934,7.468c-2.109,3.369-.239,8.053,3.7,8.589a6.544,6.544,0,0,0,.863.057,6.217,6.217,0,0,0,4.647-2.084,6.222,6.222,0,0,0,9.294,0,6.222,6.222,0,0,0,9.294,0,6.238,6.238,0,0,0,4.647,2.084,6.473,6.473,0,0,0,.863-.057C38.2,15.527,40.074,10.843,37.958,7.468ZM33.393,18.134a7.989,7.989,0,0,1-1.857-.239v6.284H7.357V17.895a8.341,8.341,0,0,1-1.857.239,8.5,8.5,0,0,1-1.133-.076,7.919,7.919,0,0,1-1.033-.227V30.224a2.013,2.013,0,0,0,2.015,2.015H33.557a2.013,2.013,0,0,0,2.015-2.015V17.832a6.429,6.429,0,0,1-1.033.227,8.757,8.757,0,0,1-1.146.076Z" transform="translate(2633.944 8255.399)" fill="#2f528f"/>
  </g>
</svg>
