<svg xmlns="http://www.w3.org/2000/svg" xmlns:xlink="http://www.w3.org/1999/xlink" width="80" height="80" viewBox="0 0 80 80">
  <defs>
    <clipPath id="clip-path">
      <rect id="사각형_45" data-name="사각형 45" width="80" height="80" transform="translate(-772 -204)" fill="none" stroke="red" stroke-width="1"/>
    </clipPath>
    <linearGradient id="linear-gradient" x1="1" y1="0.834" x2="0.565" gradientUnits="objectBoundingBox">
      <stop offset="0" stop-color="#fcb41d"/>
      <stop offset="1" stop-color="#ffd74d"/>
    </linearGradient>
  </defs>
  <g id="마스크_그룹_13" data-name="마스크 그룹 13" transform="translate(772 204)" clip-path="url(#clip-path)">
    <g id="그룹_40" data-name="그룹 40">
      <g id="그룹_28" data-name="그룹 28" transform="translate(-13.337 97.155)">
        <rect id="사각형_55" data-name="사각형 55" width="3.177" height="15.887" rx="1" transform="matrix(0.829, 0.559, -0.559, 0.829, -729.492, -250.813)" fill="#97cfff"/>
        <rect id="사각형_56" data-name="사각형 56" width="3.177" height="15.887" rx="1" transform="matrix(0.829, 0.559, -0.559, 0.829, -750.145, -238.103)" fill="#97cfff"/>
        <rect id="사각형_54" data-name="사각형 54" width="3.177" height="15.887" rx="1" transform="matrix(0.829, 0.559, -0.559, 0.829, -726.314, -238.103)" fill="#97cfff"/>
        <rect id="사각형_57" data-name="사각형 57" width="3.177" height="15.887" rx="1" transform="matrix(0.829, 0.559, -0.559, 0.829, -702.483, -238.103)" fill="#97cfff"/>
        <rect id="사각형_58" data-name="사각형 58" width="3.177" height="15.887" rx="1" transform="matrix(0.829, 0.559, -0.559, 0.829, -681.829, -250.813)" fill="#97cfff"/>
        <rect id="사각형_53" data-name="사각형 53" width="3.177" height="15.887" rx="1" transform="matrix(0.829, 0.559, -0.559, 0.829, -705.661, -250.813)" fill="#97cfff"/>
      </g>
      <g id="그룹_27" data-name="그룹 27" transform="translate(-6.638 360.326)">
        <g id="그룹_22" data-name="그룹 22" transform="translate(-728.972 -564.326)">
          <path id="패스_135" data-name="패스 135" d="M85.235,37.2A21.367,21.367,0,1,1,63.867,15.833,21.367,21.367,0,0,1,85.235,37.2Z" transform="translate(-42.501 -15.833)" fill="url(#linear-gradient)"/>
        </g>
        <path id="패스_137" data-name="패스 137" d="M59.625,36.128a9.752,9.752,0,0,0,.443,1.695c6.086.868,10.652,4.418,10.652,10.744A12.553,12.553,0,0,1,58.168,61.12H25.887A12.554,12.554,0,0,1,24.1,36.139a1.529,1.529,0,0,1,.33-.012,17.938,17.938,0,0,1,35.195,0Z" transform="translate(-778.326 -576.104)" fill="#f3f3f3" fill-rule="evenodd"/>
      </g>
    </g>
  </g>
</svg>
