<svg xmlns="http://www.w3.org/2000/svg" xmlns:xlink="http://www.w3.org/1999/xlink" width="80" height="80" viewBox="0 0 80 80">
  <defs>
    <clipPath id="clip-path">
      <rect id="사각형_60" data-name="사각형 60" width="80" height="80" transform="translate(-772 -110)" fill="none" stroke="red" stroke-width="1"/>
    </clipPath>
  </defs>
  <g id="마스크_그룹_15" data-name="마스크 그룹 15" transform="translate(772 110)" clip-path="url(#clip-path)">
    <g id="그룹_42" data-name="그룹 42">
      <g id="그룹_30" data-name="그룹 30" transform="translate(0 273.296)">
        <path id="패스_136" data-name="패스 136" d="M54.114,29.933a10.35,10.35,0,0,0,.47,1.8c6.457.913,11.3,4.688,11.3,11.4A13.319,13.319,0,0,1,52.568,56.449H18.319a13.321,13.321,0,0,1-1.9-26.5,1.623,1.623,0,0,1,.35-.012,19.027,19.027,0,0,1,37.342,0Z" transform="translate(-757.887 -395.367)" fill="#656565" fill-rule="evenodd"/>
        <path id="패스_137" data-name="패스 137" d="M61.394,36.681a10.125,10.125,0,0,0,.46,1.759c6.318.9,11.059,4.587,11.059,11.154A13.033,13.033,0,0,1,59.882,62.627H26.367a13.033,13.033,0,0,1-1.857-25.935,1.587,1.587,0,0,1,.343-.012,18.623,18.623,0,0,1,36.54,0Z" transform="translate(-785.326 -391.392)" fill="#f3f3f3" fill-rule="evenodd"/>
      </g>
      <g id="free-icon-lightnings-263378" transform="matrix(0.966, 0.259, -0.259, 0.966, -862.066, -108.295)">
        <path id="패스_19" data-name="패스 19" d="M141.839,0H129.012a1.579,1.579,0,0,0-1.565,1.376l-2.8,21.7a1.039,1.039,0,0,0,1.2,1.158l6.665-1.111a1.039,1.039,0,0,1,1.2,1.19l-3.38,21.02a.377.377,0,0,0,.7.253L148.01,16.574a.834.834,0,0,0-.873-1.241l-10.1,1.893a.406.406,0,0,1-.451-.553l6.226-15.219A1.054,1.054,0,0,0,141.839,0Z" transform="translate(-0.001)" fill="#ffd782"/>
        <path id="패스_20" data-name="패스 20" d="M130.965,19.447,134.318,0h-5.307a1.578,1.578,0,0,0-1.565,1.376l-2.8,21.7a1.039,1.039,0,0,0,1.2,1.158l6.665-1.111a1.039,1.039,0,0,1,1.2,1.19l-3.38,21.02a.363.363,0,0,0,.218.4l8.246-24.05a1.34,1.34,0,0,0-1.389-1.77l-5.537.5A.836.836,0,0,1,130.965,19.447Z" fill="#fec737"/>
      </g>
    </g>
  </g>
</svg>
