<svg xmlns="http://www.w3.org/2000/svg" xmlns:xlink="http://www.w3.org/1999/xlink" width="48" height="48" viewBox="0 0 48 48">
  <defs>
    <clipPath id="clip-path">
      <rect id="사각형_8" data-name="사각형 8" width="48" height="48" transform="translate(-0.191 0.043)" fill="#fff" stroke="#707070" stroke-width="1" opacity="0.5"/>
    </clipPath>
  </defs>
  <g id="마스크_그룹_20" data-name="마스크 그룹 20" transform="translate(0.191 -0.043)" clip-path="url(#clip-path)">
    <g id="temperature" transform="translate(12.574 0)">
      <path id="패스_34" data-name="패스 34" d="M15.97,47.87A10.969,10.969,0,0,1,8.989,28.439V6.981a6.981,6.981,0,0,1,13.962,0V28.439A10.969,10.969,0,0,1,15.97,47.87Zm0-45.876a4.993,4.993,0,0,0-4.986,4.986V28.922a1,1,0,0,1-.4.8,8.976,8.976,0,1,0,10.767,0,1,1,0,0,1-.4-.8V6.981A4.993,4.993,0,0,0,15.97,1.995Z" transform="translate(-5 0)" fill="#3e4072"/>
      <path id="패스_35" data-name="패스 35" d="M12.986,25.973a4.986,4.986,0,1,1,4.986-4.986A4.992,4.992,0,0,1,12.986,25.973Zm0-7.978a2.992,2.992,0,1,0,2.992,2.992A3,3,0,0,0,12.986,17.995Z" transform="translate(-2.016 15.914)" fill="#3e4072"/>
      <path id="패스_36" data-name="패스 36" d="M11,28.935a1,1,0,0,1-1-1V6a1,1,0,1,1,1.995,0V27.938A1,1,0,0,1,11,28.935Z" transform="translate(-0.027 4.973)" fill="#3e4072"/>
      <path id="패스_37" data-name="패스 37" d="M20.986,4.995H17A1,1,0,0,1,17,3h3.989a1,1,0,1,1,0,1.995Z" transform="translate(5.941 2.984)" fill="#3e4072"/>
      <path id="패스_38" data-name="패스 38" d="M20.986,8.995H17A1,1,0,0,1,17,7h3.989a1,1,0,1,1,0,1.995Z" transform="translate(5.941 6.962)" fill="#3e4072"/>
      <path id="패스_39" data-name="패스 39" d="M20.986,12.995H17A1,1,0,1,1,17,11h3.989a1,1,0,1,1,0,1.995Z" transform="translate(5.941 10.941)" fill="#3e4072"/>
    </g>
  </g>
</svg>
