<svg xmlns="http://www.w3.org/2000/svg" xmlns:xlink="http://www.w3.org/1999/xlink" width="48" height="48" viewBox="0 0 48 48">
  <defs>
    <clipPath id="clip-path">
      <rect id="사각형_9" data-name="사각형 9" width="48" height="48" transform="translate(0.451)" fill="#fff" stroke="#707070" stroke-width="1" opacity="0.5"/>
    </clipPath>
  </defs>
  <g id="마스크_그룹_21" data-name="마스크 그룹 21" transform="translate(-0.451)" clip-path="url(#clip-path)">
    <g id="clock" transform="translate(0.176 0)">
      <g id="그룹_62" data-name="그룹 62" transform="translate(22.465 11.063)">
        <g id="그룹_61" data-name="그룹 61">
          <path id="패스_40" data-name="패스 40" d="M246.732,135.771l-6.791-4.987V120.626a1.887,1.887,0,0,0-3.773,0v11.082a1.831,1.831,0,0,0,.755,1.478l7.545,5.541a1.912,1.912,0,0,0,2.641-.371A1.818,1.818,0,0,0,246.732,135.771Z" transform="translate(-236.169 -118.779)" fill="#3e4072"/>
        </g>
      </g>
      <g id="그룹_64" data-name="그룹 64">
        <g id="그룹_63" data-name="그룹 63">
          <path id="패스_41" data-name="패스 41" d="M24.352,0C10.923,0,0,10.7,0,23.844S10.923,47.689,24.352,47.689,48.7,36.993,48.7,23.844,37.78,0,24.352,0Zm0,43.995A20.393,20.393,0,0,1,3.773,23.844,20.393,20.393,0,0,1,24.352,3.694,20.392,20.392,0,0,1,44.931,23.844,20.393,20.393,0,0,1,24.352,43.995Z" fill="#3e4072"/>
        </g>
      </g>
    </g>
  </g>
</svg>
