<svg xmlns="http://www.w3.org/2000/svg" width="44" height="44" fill="none" viewBox="0 0 44 44">
    <rect width="43" height="43" x=".5" y=".5" stroke="#E0E0E0" rx="15.5"/>
    <path fill="#fff" d="M13.785 6.384c-.864.432-1.51 1.174-1.813 2.095L6.186 25.868c-.305.91-.233 1.896.199 2.762.435.86 1.176 1.507 2.087 1.812l18.976 6.373c.92.303 1.9.232 2.764-.2.865-.434 1.51-1.177 1.813-2.095l5.787-17.38c.633-1.895-.398-3.95-2.293-4.581l-18.97-6.371c-.919-.305-1.899-.238-2.764.196z"/>
    <path fill="#00A4E3" d="M23.056 23.085c-1.03 1.154-2.316 2.08-3.805 2.655l-.853.334v-8.059l.843.327c1.493.571 2.782 1.496 3.816 2.642.738-1.187 1.192-2.564 1.289-4.057.235-3.863-2.184-7.407-5.508-8.642l-2.738-.91c-1.238-.412-2.553.267-2.962 1.503l-5.803 17.4c-.415 1.238.279 2.579 1.52 2.988l13.168 4.396c1.34-1.428 2.21-3.32 2.339-5.432.12-1.88-.372-3.656-1.305-5.145zm-7.608-5.549v9.031h-1.306v-9.03h1.306z"/>
    <path fill="#004898" d="M35.105 13.72L23.018 9.68c1.622 1.777 2.614 4.136 2.622 6.72 0 2.046-.636 4-1.745 5.638 1.113 1.629 1.756 3.58 1.762 5.629 0 2.44-.88 4.687-2.34 6.428l4.54 1.516c1.24.415 2.55-.268 2.962-1.506l5.806-17.399c.411-1.233-.282-2.577-1.52-2.987zm-3.204 12.817l-1.633.004-3.359-4.513 3.415-4.52 1.642-.004-3.414 4.53 3.35 4.503z"/>
    <path fill="#E7380E" d="M22.301 22.04c-.734-.864-1.627-1.588-2.65-2.116v4.243c1.023-.534 1.918-1.264 2.65-2.128z"/>
</svg>
