<svg id="그룹_103" data-name="그룹 103" xmlns="http://www.w3.org/2000/svg" width="62" height="62" viewBox="0 0 62 62">
  <circle id="타원_19" data-name="타원 19" cx="31" cy="31" r="31" fill="#fff"/>
  <path id="합치기_60" data-name="합치기 60" d="M15.12.447.46,14.686a1.5,1.5,0,0,0-.446,1.282A1.5,1.5,0,0,0,.46,17.25L15.12,31.489a1.6,1.6,0,0,0,2.221,0,1.494,1.494,0,0,0,0-2.157L3.583,15.968,17.342,2.6a1.5,1.5,0,0,0,0-2.157,1.6,1.6,0,0,0-2.221,0Z" transform="translate(42.667 46.594) rotate(180)" fill="#12233f"/>
</svg>
