<svg xmlns="http://www.w3.org/2000/svg" width="88.921" height="88.921" viewBox="0 0 88.921 88.921">
  <g id="architecture-and-city" transform="translate(0 0)">
    <path id="패스_30" data-name="패스 30" d="M87.486,157.737H86.052V156.3a4.308,4.308,0,0,0-4.3-4.3H78.881a4.308,4.308,0,0,0-4.3,4.3v1.434H73.144a1.434,1.434,0,0,0-1.434,1.434V164.2L41.1,187.855H35.855a1.434,1.434,0,0,0-1.434,1.434v4.3H12.907a1.434,1.434,0,0,0-1.434,1.434v4.3H1.434A1.434,1.434,0,0,0,0,200.763v11.474a1.434,1.434,0,0,0,1.434,1.434H44.46a1.434,1.434,0,0,0,1.434-1.434V197.177L71.71,177.816a1.434,1.434,0,0,0,1.434,1.434h1.434v8.605H65.973a1.436,1.436,0,0,0-.9.314l-7.171,5.737a1.435,1.435,0,0,0-.538,1.12V202.2H50.2a1.434,1.434,0,0,0-1.434,1.434v8.605a1.434,1.434,0,0,0,1.434,1.434H84.618a1.434,1.434,0,0,0,1.434-1.434V179.25h1.434a1.434,1.434,0,0,0,1.434-1.434v-5.737a1.434,1.434,0,0,0-1.434-1.434H86.052v-4.3h1.434a1.434,1.434,0,0,0,1.434-1.434v-5.737a1.434,1.434,0,0,0-1.434-1.434ZM77.447,156.3a1.436,1.436,0,0,1,1.434-1.434h2.868a1.436,1.436,0,0,1,1.434,1.434v1.434H77.447ZM37.289,190.723h2.868v2.868H37.289ZM2.868,202.2h8.605V210.8H2.868ZM43.026,210.8H14.342V196.46H43.026ZM45.4,193.962a1.414,1.414,0,0,0-.94-.37H43.026v-3.6l30.607-23.652h.945v4.3H73.144a1.434,1.434,0,0,0-1.434,1.434v2.151Zm6.231,11.1h5.737V210.8H51.631Zm8.605-1.434v-7.917l6.24-4.991h8.1V210.8H60.236ZM83.183,210.8H77.447V179.25h5.737Zm2.868-34.421H74.578v-2.868H86.052Zm-2.868-5.737H77.447v-4.3h5.737Zm2.868-7.171H74.578v-2.868H86.052Zm0,0" transform="translate(0 -124.75)" fill="#fff"/>
    <path id="패스_31" data-name="패스 31" d="M89.434,20.079H90.1a14.074,14.074,0,0,0,.882,2.158l-1.13,1.13a1.432,1.432,0,0,0,0,2.028l4.3,4.3a1.476,1.476,0,0,0,2.028,0l1.13-1.13a14.184,14.184,0,0,0,2.158.881v.669a1.434,1.434,0,0,0,1.434,1.434h5.737a1.434,1.434,0,0,0,1.434-1.434v-.669a14.11,14.11,0,0,0,2.157-.881l1.132,1.13a1.432,1.432,0,0,0,2.028,0l4.3-4.3a1.432,1.432,0,0,0,0-2.028l-1.13-1.13a14.074,14.074,0,0,0,.882-2.158h.668a1.434,1.434,0,0,0,1.434-1.434V12.908a1.434,1.434,0,0,0-1.434-1.434h-.668a14.076,14.076,0,0,0-.882-2.158l1.13-1.13a1.432,1.432,0,0,0,0-2.028l-4.3-4.3a1.432,1.432,0,0,0-2.028,0l-1.132,1.13a14.11,14.11,0,0,0-2.157-.881V1.434A1.434,1.434,0,0,0,106.645,0h-5.737a1.434,1.434,0,0,0-1.434,1.434V2.1a14.184,14.184,0,0,0-2.158.881l-1.13-1.13a1.434,1.434,0,0,0-2.028,0l-4.3,4.3a1.432,1.432,0,0,0,0,2.028l1.13,1.13a14.074,14.074,0,0,0-.882,2.158h-.668A1.434,1.434,0,0,0,88,12.908v5.737a1.434,1.434,0,0,0,1.434,1.434Zm1.434-5.737h.33a1.434,1.434,0,0,0,1.4-1.116,11.367,11.367,0,0,1,1.391-3.41,1.435,1.435,0,0,0-.209-1.763L92.9,7.171,95.171,4.9l.882.882a1.427,1.427,0,0,0,1.761.209A11.42,11.42,0,0,1,101.226,4.6a1.431,1.431,0,0,0,1.116-1.4v-.33h2.868V3.2a1.435,1.435,0,0,0,1.116,1.4,11.364,11.364,0,0,1,3.41,1.392A1.431,1.431,0,0,0,111.5,5.78l.882-.883,2.275,2.275-.882.882a1.433,1.433,0,0,0-.209,1.763,11.379,11.379,0,0,1,1.389,3.41,1.433,1.433,0,0,0,1.4,1.116h.331V17.21h-.331a1.433,1.433,0,0,0-1.4,1.116,11.379,11.379,0,0,1-1.389,3.41,1.433,1.433,0,0,0,.209,1.763l.882.882-2.275,2.275-.882-.882a1.433,1.433,0,0,0-1.763-.209,11.385,11.385,0,0,1-3.41,1.392,1.431,1.431,0,0,0-1.116,1.4v.33h-2.868v-.33a1.435,1.435,0,0,0-1.116-1.4,11.4,11.4,0,0,1-3.413-1.392,1.436,1.436,0,0,0-1.761.209l-.882.883L92.9,24.381l.882-.882a1.433,1.433,0,0,0,.209-1.763,11.4,11.4,0,0,1-1.391-3.41,1.434,1.434,0,0,0-1.4-1.116h-.33Zm0,0" transform="translate(-72.224 0)" fill="#fff"/>
    <path id="패스_32" data-name="패스 32" d="M136.605,57.21A8.605,8.605,0,1,0,128,48.605,8.614,8.614,0,0,0,136.605,57.21Zm0-14.342a5.737,5.737,0,1,1-5.737,5.737A5.742,5.742,0,0,1,136.605,42.868Zm0,0" transform="translate(-105.053 -32.829)" fill="#fff"/>
    <path id="패스_33" data-name="패스 33" d="M1.434,196.079H2.1a14.075,14.075,0,0,0,.882,2.158l-1.13,1.13a1.432,1.432,0,0,0,0,2.028l4.3,4.3a1.476,1.476,0,0,0,2.028,0l1.13-1.13a14.182,14.182,0,0,0,2.158.881v.669a1.434,1.434,0,0,0,1.434,1.434h5.737a1.434,1.434,0,0,0,1.434-1.434v-.669a14.109,14.109,0,0,0,2.157-.881l1.132,1.13a1.432,1.432,0,0,0,2.028,0l4.3-4.3a1.432,1.432,0,0,0,0-2.028l-1.13-1.13a14.075,14.075,0,0,0,.882-2.158h.668a1.434,1.434,0,0,0,1.434-1.434v-5.737a1.434,1.434,0,0,0-1.434-1.434H29.45a14.075,14.075,0,0,0-.882-2.158l1.13-1.13a1.432,1.432,0,0,0,0-2.028l-4.3-4.3a1.432,1.432,0,0,0-2.028,0l-1.132,1.13a14.108,14.108,0,0,0-2.157-.881v-.669A1.434,1.434,0,0,0,18.645,176H12.908a1.434,1.434,0,0,0-1.434,1.434v.669a14.183,14.183,0,0,0-2.158.881l-1.13-1.13a1.434,1.434,0,0,0-2.028,0l-4.3,4.3a1.432,1.432,0,0,0,0,2.028l1.13,1.13a14.075,14.075,0,0,0-.882,2.158H1.434A1.434,1.434,0,0,0,0,188.908v5.737a1.434,1.434,0,0,0,1.434,1.434Zm1.434-5.737H3.2a1.434,1.434,0,0,0,1.4-1.116,11.367,11.367,0,0,1,1.391-3.41,1.435,1.435,0,0,0-.209-1.763l-.882-.882L7.171,180.9l.882.882a1.425,1.425,0,0,0,1.761.209,11.419,11.419,0,0,1,3.413-1.392,1.431,1.431,0,0,0,1.116-1.4v-.33H17.21v.33a1.435,1.435,0,0,0,1.116,1.4,11.364,11.364,0,0,1,3.41,1.392,1.429,1.429,0,0,0,1.763-.209l.882-.883,2.275,2.275-.882.882a1.433,1.433,0,0,0-.209,1.763,11.379,11.379,0,0,1,1.389,3.41,1.433,1.433,0,0,0,1.4,1.116h.331v2.868h-.331a1.433,1.433,0,0,0-1.4,1.116,11.379,11.379,0,0,1-1.389,3.41,1.433,1.433,0,0,0,.209,1.763l.882.882-2.275,2.275-.882-.882a1.435,1.435,0,0,0-1.763-.209,11.385,11.385,0,0,1-3.41,1.392,1.431,1.431,0,0,0-1.116,1.4v.33H14.342v-.33a1.435,1.435,0,0,0-1.116-1.4,11.4,11.4,0,0,1-3.413-1.392,1.436,1.436,0,0,0-1.761.209l-.882.883L4.9,200.381l.882-.882a1.433,1.433,0,0,0,.209-1.763,11.4,11.4,0,0,1-1.391-3.41,1.434,1.434,0,0,0-1.4-1.116h-.33Zm0,0" transform="translate(0 -144.448)" fill="#fff"/>
    <path id="패스_34" data-name="패스 34" d="M48.605,233.21A8.605,8.605,0,1,0,40,224.605,8.614,8.614,0,0,0,48.605,233.21Zm0-14.342a5.737,5.737,0,1,1-5.737,5.737A5.742,5.742,0,0,1,48.605,218.868Zm0,0" transform="translate(-32.829 -177.277)" fill="#fff"/>
    <path id="패스_35" data-name="패스 35" d="M384,384h2.868v2.868H384Zm0,0" transform="translate(-315.159 -315.158)" fill="#fff"/>
    <path id="패스_36" data-name="패스 36" d="M384,416h2.868v2.868H384Zm0,0" transform="translate(-315.159 -341.422)" fill="#fff"/>
    <path id="패스_37" data-name="패스 37" d="M384,448h2.868v2.868H384Zm0,0" transform="translate(-315.159 -367.685)" fill="#fff"/>
    <path id="패스_38" data-name="패스 38" d="M96,416h2.868v2.868H96Zm0,0" transform="translate(-78.79 -341.422)" fill="#fff"/>
    <path id="패스_39" data-name="패스 39" d="M128,416h2.868v2.868H128Zm0,0" transform="translate(-105.053 -341.422)" fill="#fff"/>
    <path id="패스_40" data-name="패스 40" d="M160,416h2.868v2.868H160Zm0,0" transform="translate(-131.316 -341.422)" fill="#fff"/>
    <path id="패스_41" data-name="패스 41" d="M192,416h2.868v2.868H192Zm0,0" transform="translate(-157.579 -341.422)" fill="#fff"/>
    <path id="패스_42" data-name="패스 42" d="M341.737,17.21h14.342a5.742,5.742,0,0,0,5.737-5.737,5.4,5.4,0,0,0-.079-.756,5.72,5.72,0,1,0-7.462-8.289A7.162,7.162,0,0,0,341.88,5.738a5.737,5.737,0,1,0-.144,11.472Zm17.21-14.342A2.86,2.86,0,0,1,360.64,8.04a5.722,5.722,0,0,0-4.7-2.3h.144a2.871,2.871,0,0,1,2.868-2.868Zm-17.21,5.737a2.809,2.809,0,0,1,.971.185,1.435,1.435,0,0,0,1.924-1.412c0-.046-.02-.162-.026-.207a4.3,4.3,0,0,1,8.605-.052c-.006.045-.025.212-.026.26a1.435,1.435,0,0,0,1.924,1.412,2.78,2.78,0,0,1,.971-.186,2.868,2.868,0,1,1,0,5.737H341.737a2.868,2.868,0,1,1,0-5.737Zm0,0" transform="translate(-275.764)" fill="#fff"/>
  </g>
</svg>
