<svg xmlns="http://www.w3.org/2000/svg" xmlns:xlink="http://www.w3.org/1999/xlink" width="39" height="39" viewBox="0 0 39 39">
  <defs>
    <clipPath id="clip-path">
      <rect id="사각형_190" data-name="사각형 190" width="39" height="39" transform="translate(3016 8607)" fill="#fff" stroke="#707070" stroke-width="1" opacity="0.5"/>
    </clipPath>
  </defs>
  <g id="마스크_그룹_26" data-name="마스크 그룹 26" transform="translate(-3016 -8607)" clip-path="url(#clip-path)">
    <g id="cloud-storage-uploading-option" transform="translate(3016 8539.109)">
      <path id="패스_166" data-name="패스 166" d="M37.3,89.046a7.688,7.688,0,0,0-4.337-2.752,5.191,5.191,0,0,0-4.367-8,4.964,4.964,0,0,0-3.372,1.259A10.411,10.411,0,0,0,15.6,73.091a10.02,10.02,0,0,0-7.353,3.047A10.018,10.018,0,0,0,5.2,83.491q0,.264.041.873A9.084,9.084,0,0,0,0,92.591,8.764,8.764,0,0,0,2.671,99.02,8.762,8.762,0,0,0,9.1,101.691H31.2a7.791,7.791,0,0,0,6.1-12.645Zm-11.5-.548a.626.626,0,0,1-.457.193H20.8v7.15a.659.659,0,0,1-.65.65h-3.9a.659.659,0,0,1-.65-.65v-7.15H11.05a.625.625,0,0,1-.65-.649.764.764,0,0,1,.2-.488l7.13-7.129a.688.688,0,0,1,.934,0l7.15,7.15a.632.632,0,0,1,.182.468A.625.625,0,0,1,25.806,88.5Z" transform="translate(0)" fill="#2f528f"/>
    </g>
  </g>
</svg>
