<svg xmlns="http://www.w3.org/2000/svg" xmlns:xlink="http://www.w3.org/1999/xlink" width="39" height="39" viewBox="0 0 39 39">
  <defs>
    <clipPath id="clip-path">
      <rect id="사각형_191" data-name="사각형 191" width="39" height="39" transform="translate(2489 8274.96)" fill="#fff" stroke="#707070" stroke-width="1" opacity="0.5"/>
    </clipPath>
  </defs>
  <g id="마스크_그룹_22" data-name="마스크 그룹 22" transform="translate(-2489 -8274.96)" clip-path="url(#clip-path)">
    <path id="globe-americas-solid" d="M19.48,8A19.48,19.48,0,1,0,38.96,27.48,19.48,19.48,0,0,0,19.48,8Zm6.464,28.089c-.306.3-.628.624-.888.886a1.877,1.877,0,0,0-.485.841c-.119.445-.214.894-.375,1.325l-1.366,3.68a15.7,15.7,0,0,1-3.35.368V41.039A5.881,5.881,0,0,0,17.7,37.013a2.514,2.514,0,0,1-.736-1.778V32.722a2.505,2.505,0,0,0-1.293-2.2c-1.129-.624-2.734-1.5-3.834-2.051a11.323,11.323,0,0,1-2.486-1.708l-.063-.057A9.017,9.017,0,0,1,7.872,25.08C7.135,24,5.935,22.219,5.155,21.063a15.8,15.8,0,0,1,8.106-8L15.147,14a1.257,1.257,0,0,0,1.819-1.124v-.888a15.7,15.7,0,0,1,1.916-.19l2.223,2.223a1.257,1.257,0,0,1,0,1.778l-.368.368-.812.812a.629.629,0,0,0,0,.888l.368.368a.629.629,0,0,1,0,.888l-.628.628a.629.629,0,0,1-.445.184h-.706a.628.628,0,0,0-.438.178l-.779.758a.629.629,0,0,0-.124.731l1.225,2.45a.628.628,0,0,1-.562.91h-.443a.628.628,0,0,1-.412-.154l-.729-.633a1.258,1.258,0,0,0-1.221-.244l-2.448.816a.939.939,0,0,0-.123,1.73l.87.435a5.32,5.32,0,0,0,2.381.562c.826,0,1.774,2.144,2.514,2.514h5.243a2.515,2.515,0,0,1,1.778.736L26.32,31.8a2.4,2.4,0,0,1,.7,1.694,3.655,3.655,0,0,1-1.078,2.591Zm6.811-7.175a1.885,1.885,0,0,1-1.111-.783l-1.412-2.118a1.883,1.883,0,0,1,0-2.091l1.539-2.308a1.883,1.883,0,0,1,.726-.64l1.02-.51a15.218,15.218,0,0,1,1.532,9.023Z" transform="translate(2489 8267)" fill="#2f528f"/>
  </g>
</svg>
