<svg xmlns="http://www.w3.org/2000/svg" width="29" height="26" fill="none" viewBox="0 0 29 26">
    <path stroke="#858585" stroke-linecap="round" stroke-linejoin="round" stroke-miterlimit="10" stroke-width="1.2" d="M21.47 8.79c-1.121-1.55-3.08-2.27-4.883-1.69-.906.29-1.647.81-2.017 1.73-.351.87-.332 1.93.224 2.7 1.189 1.67 3.606.95 5.194 1.87 1.51.87 1.774 3.07.614 4.14-1.822 1.67-5.438.74-6.832-.99M17.61 5.48v14.37"/>
    <path fill="#858585" d="M7.222 6.26c.672 0 1.286.07 1.842.21.555.14 1.033.33 1.432.58.146.09.244.21.283.36.039.15.01.29-.078.45-.166.3-.41.38-.731.23-.36-.21-.77-.37-1.238-.49-.468-.12-.955-.17-1.49-.17-.41 0-.79.05-1.131.16-.351.1-.643.25-.887.43s-.439.4-.565.65c-.137.26-.205.53-.205.82v.23c0 .3.049.56.136.79.088.22.244.42.468.59.224.17.517.33.877.46s.81.26 1.345.38c.78.17 1.433.36 1.959.57.526.2.935.44 1.247.72.312.27.536.59.663.94s.195.77.195 1.25v.31c0 .5-.098.96-.292 1.37-.195.41-.468.77-.838 1.06-.361.29-.81.52-1.326.68-.526.16-1.11.24-1.754.24-.75 0-1.452-.1-2.115-.31-.662-.2-1.228-.47-1.715-.79-.156-.1-.253-.23-.273-.38-.02-.15.01-.31.098-.47.087-.15.204-.24.34-.28.137-.03.283-.01.43.09.477.3.984.54 1.51.72.536.18 1.12.27 1.774.27.896 0 1.608-.2 2.124-.61.526-.41.78-.91.78-1.52v-.26c0-.34-.049-.63-.146-.87-.098-.24-.263-.46-.497-.64-.234-.18-.566-.34-.975-.49-.41-.15-.935-.29-1.569-.43-.624-.14-1.17-.3-1.637-.47-.468-.17-.848-.39-1.16-.64-.302-.25-.536-.56-.692-.92-.156-.36-.234-.79-.234-1.29v-.3c0-.48.098-.91.293-1.31.195-.4.467-.73.818-1.01.351-.28.77-.5 1.267-.65.517-.18 1.062-.26 1.667-.26z"/>
</svg>
