<svg xmlns="http://www.w3.org/2000/svg" width="41" height="26" fill="none" viewBox="0 0 41 26">
    <path stroke="#858585" stroke-linecap="round" stroke-linejoin="round" stroke-miterlimit="10" stroke-width="1.2" d="M33.358 8.79c-1.12-1.55-3.08-2.27-4.882-1.69-.907.29-1.647.81-2.018 1.73-.35.87-.331 1.93.224 2.7 1.19 1.67 3.606.95 5.195 1.87 1.51.87 1.773 3.07.614 4.14-1.823 1.67-5.438.74-6.832-.99M29.499 5.48v14.37"/>
    <path fill="#858585" d="M4.123 6.39c.165 0 .321.04.438.12.117.08.185.22.185.4v4.91h6.296V6.91c0-.19.058-.32.185-.4.127-.08.263-.12.429-.12.166 0 .321.04.438.12.127.08.186.22.186.4v11.51c0 .19-.059.32-.185.4-.127.08-.273.12-.44.12-.155 0-.301-.04-.428-.12-.127-.08-.185-.22-.185-.4v-5.5H4.746v5.5c0 .19-.058.32-.185.4-.126.08-.273.12-.438.12-.156 0-.302-.04-.43-.12-.126-.08-.184-.22-.184-.4V6.91c0-.19.058-.32.185-.4.127-.08.273-.12.429-.12zM16.042 6.39c.165 0 .321.04.438.12.117.08.185.22.185.4v5.97l5.955-6.32c.127-.13.263-.19.429-.17.165.02.292.07.39.17.116.12.185.25.204.4.02.15-.03.29-.156.42L19.2 11.85l4.697 6.1c.127.16.176.32.147.46-.03.15-.108.28-.244.39-.136.1-.283.15-.439.14-.155-.01-.292-.1-.419-.26l-4.6-5.99-1.685 1.75v3.98c0 .19-.059.32-.185.4-.127.08-.273.12-.44.12-.155 0-.301-.04-.428-.12-.127-.08-.185-.22-.185-.4V6.91c0-.19.058-.32.185-.4.127-.08.283-.12.439-.12z"/>
</svg>
