<svg xmlns="http://www.w3.org/2000/svg" width="39.97" height="39.97" viewBox="0 0 39.97 39.97">
  <path id="facebook-square-brands" d="M35.687,32H4.282A4.282,4.282,0,0,0,0,36.282v31.4A4.282,4.282,0,0,0,4.282,71.97H16.528V58.381H10.907v-6.4h5.621V47.11c0-5.545,3.3-8.608,8.357-8.608a34.051,34.051,0,0,1,4.953.432v5.442h-2.79c-2.749,0-3.606,1.706-3.606,3.455v4.153h6.136l-.981,6.4H23.442V71.97H35.687a4.282,4.282,0,0,0,4.282-4.282v-31.4A4.282,4.282,0,0,0,35.687,32Z" transform="translate(0 -32)" fill="#a0c1fb"/>
</svg>
