<svg xmlns="http://www.w3.org/2000/svg" xmlns:xlink="http://www.w3.org/1999/xlink" width="29" height="29" viewBox="0 0 29 29">
  <defs>
    <clipPath id="clip-path">
      <rect id="사각형_41" data-name="사각형 41" width="29" height="29" transform="translate(3108 -1234)" fill="#fff" stroke="#707070" stroke-width="1" opacity="0.5"/>
    </clipPath>
  </defs>
  <g id="마스크_그룹_15" data-name="마스크 그룹 15" transform="translate(-3108 1234)" clip-path="url(#clip-path)">
    <path id="card" d="M21,20H3a3,3,0,0,1-3-3V3A3,3,0,0,1,3,0H21a3,3,0,0,1,3,3V17A3,3,0,0,1,21,20ZM22,3a1,1,0,0,0-1-1H3A1,1,0,0,0,2,3V4H22Zm0,2H2V7H22Zm0,3H2v9a1,1,0,0,0,1,1H21a1,1,0,0,0,1-1Zm-4,7a2,2,0,1,1,2-2A2,2,0,0,1,18,15Zm0-3a1,1,0,1,0,1,1A1,1,0,0,0,18,12Z" transform="translate(3111 -1229)" fill="#b3b8bc" fill-rule="evenodd"/>
  </g>
</svg>
