<svg xmlns="http://www.w3.org/2000/svg" xmlns:xlink="http://www.w3.org/1999/xlink" width="29" height="29" viewBox="0 0 29 29">
  <defs>
    <clipPath id="clip-path">
      <rect id="사각형_40" data-name="사각형 40" width="29" height="29" transform="translate(3049 -1230)" fill="#fff" stroke="#707070" stroke-width="1" opacity="0.5"/>
    </clipPath>
  </defs>
  <g id="마스크_그룹_12" data-name="마스크 그룹 12" transform="translate(-3049 1230)" clip-path="url(#clip-path)">
    <path id="free" d="M26,19.384H24.831A2.006,2.006,0,0,1,24,20.32l-9,5.238a1.987,1.987,0,0,1-2,0L4,20.32a2.006,2.006,0,0,1-.831-.936H2a2.007,2.007,0,0,1-2-2.016V9.3A2.007,2.007,0,0,1,2,7.288H3.169A2.006,2.006,0,0,1,4,6.352l9-5.238a1.987,1.987,0,0,1,2,0l9,5.238a2.006,2.006,0,0,1,.831.936H26A2.007,2.007,0,0,1,28,9.3v8.064A2.007,2.007,0,0,1,26,19.384ZM26,9.3H23V8.1L14,2.86,5,8.1V9.3H2v8.064H5v1.206l9,5.238,9-5.238V17.368h3V9.3Zm-6.216,1.133h4.507v1.421h-2.67v.654h2.345V13.87H21.621V14.6h2.773v1.422h-4.61V10.437Zm-5.331,0H18.96v1.421H16.291v.654h2.344V13.87H16.291V14.6h2.772v1.422h-4.61V10.437Zm-2.582,5.589-.943-1.4h-.507v1.4H8.552V10.437h2.669a3.258,3.258,0,0,1,1.339.255,1.986,1.986,0,0,1,.88.735,2.022,2.022,0,0,1,.308,1.117,1.988,1.988,0,0,1-.269,1.046,1.906,1.906,0,0,1-.776.711l1.164,1.725h-2Zm-.2-3.964a.825.825,0,0,0-.57-.172h-.682V13.2H11.1a.83.83,0,0,0,.57-.171.709.709,0,0,0,0-.966Zm-6.353.754H7.633v1.421H5.32v1.789H3.451V10.437H7.958v1.421H5.32v.958Z" transform="translate(3049 -1228.844)" fill="#b3b8bc" fill-rule="evenodd"/>
  </g>
</svg>
