<svg xmlns="http://www.w3.org/2000/svg" xmlns:xlink="http://www.w3.org/1999/xlink" width="29" height="29" viewBox="0 0 29 29">
  <defs>
    <clipPath id="clip-path">
      <rect id="사각형_43" data-name="사각형 43" width="29" height="29" transform="translate(3166 -1167)" fill="#fff" stroke="#707070" stroke-width="1" opacity="0.5"/>
    </clipPath>
  </defs>
  <g id="마스크_그룹_13" data-name="마스크 그룹 13" transform="translate(-3166 1167)" clip-path="url(#clip-path)">
    <path id="qrcode" d="M21,18a1,1,0,0,1,1,1v2a1,1,0,0,1-1,1H19a1,1,0,0,1-1-1V19H16v2a1,1,0,0,1-1,1H13a1,1,0,0,1-1-1V19a1,1,0,0,1,1-1h2V16H13a1,1,0,0,1-1-1V13a1,1,0,0,1,1-1h2a1,1,0,0,1,1,1v2h2V13a1,1,0,0,1,1-1h2a1,1,0,0,1,1,1v2a1,1,0,0,1-1,1H19v2Zm-2-8H15a3,3,0,0,1-3-3V3a3,3,0,0,1,3-3h4a3,3,0,0,1,3,3V7A3,3,0,0,1,19,10Zm1-7a1,1,0,0,0-1-1H15a1,1,0,0,0-1,1V7a1,1,0,0,0,1,1h4a1,1,0,0,0,1-1ZM18,7H16a1,1,0,0,1-1-1V4a1,1,0,0,1,1-1h2a1,1,0,0,1,1,1V6A1,1,0,0,1,18,7ZM7,22H3a3,3,0,0,1-3-3V15a3,3,0,0,1,3-3H7a3,3,0,0,1,3,3v4A3,3,0,0,1,7,22Zm1-7a1,1,0,0,0-1-1H3a1,1,0,0,0-1,1v4a1,1,0,0,0,1,1H7a1,1,0,0,0,1-1ZM6,19H4a1,1,0,0,1-1-1V16a1,1,0,0,1,1-1H6a1,1,0,0,1,1,1v2A1,1,0,0,1,6,19Zm1-9H3A3,3,0,0,1,0,7V3A3,3,0,0,1,3,0H7a3,3,0,0,1,3,3V7A3,3,0,0,1,7,10ZM8,3A1,1,0,0,0,7,2H3A1,1,0,0,0,2,3V7A1,1,0,0,0,3,8H7A1,1,0,0,0,8,7ZM6,7H4A1,1,0,0,1,3,6V4A1,1,0,0,1,4,3H6A1,1,0,0,1,7,4V6A1,1,0,0,1,6,7Z" transform="translate(3169 -1164)" fill="#b3b8bc" fill-rule="evenodd"/>
  </g>
</svg>
